<svg width="411" height="400" viewBox="0 0 411 400" fill="none" xmlns="http://www.w3.org/2000/svg">
<path d="M60.8661 368.614C140.963 410.463 270.826 410.463 350.923 368.614C431.02 326.765 431.03 258.928 350.923 217.079C270.816 175.229 140.963 175.239 60.8565 217.079C-19.2502 258.918 -19.2407 326.755 60.8661 368.614Z" fill="#F5F5F5"/>
<path d="M162.074 332.273C183.66 342.561 218.651 342.561 240.19 332.273C261.729 321.984 261.776 305.313 240.19 295.025C218.603 284.736 183.622 284.736 162.074 295.025C140.525 305.313 140.449 321.994 162.074 332.273Z" fill="#EBEBEB"/>
<path d="M348.942 306.807L271.779 351.342C271.14 351.666 270.433 351.835 269.716 351.835C269 351.835 268.293 351.666 267.654 351.342L171.2 295.632C170.951 295.548 170.735 295.388 170.582 295.174C170.429 294.961 170.347 294.704 170.347 294.442C170.347 294.179 170.429 293.923 170.582 293.709C170.735 293.496 170.951 293.335 171.2 293.251L248.363 248.715C249.002 248.391 249.709 248.223 250.426 248.223C251.142 248.223 251.849 248.391 252.488 248.715L348.971 304.425C349.218 304.513 349.433 304.675 349.583 304.891C349.734 305.106 349.813 305.363 349.81 305.626C349.807 305.889 349.721 306.144 349.566 306.356C349.41 306.568 349.192 306.725 348.942 306.807Z" fill="#EBEBEB"/>
<path d="M370.414 61.9902V82.4432C370.414 82.4432 362.012 86.3776 346.598 86.3776C331.185 86.3776 322.783 82.4337 322.783 82.4337V62.4285L338.863 16.9213C338.644 18.3502 339.482 19.7792 341.369 20.9033C342.748 21.7549 344.317 22.2534 345.935 22.3548C347.553 22.4561 349.172 22.1572 350.647 21.4844C351.061 21.3215 351.463 21.1272 351.847 20.9033C353.848 19.7506 354.705 18.1692 354.315 16.6641L370.414 61.9902Z" fill="#F5F5F5"/>
<path opacity="0.5" d="M370.414 61.9902V82.4432C370.414 82.4432 362.012 86.3776 346.598 86.3776C331.185 86.3776 322.783 82.4337 322.783 82.4337V62.4285L338.863 16.9213C338.644 18.3502 339.482 19.7792 341.369 20.9033C342.748 21.7549 344.317 22.2534 345.935 22.3548C347.553 22.4561 349.172 22.1572 350.647 21.4844C351.061 21.3215 351.463 21.1272 351.847 20.9033C353.848 19.7506 354.705 18.1692 354.315 16.6641L370.414 61.9902Z" fill="#101010"/>
<path d="M368.566 205.361C367.185 207.18 365.435 208.686 363.431 209.781C354.115 215.163 339.015 215.163 329.708 209.781C327.701 208.687 325.947 207.181 324.564 205.361C323.489 203.931 322.854 202.22 322.735 200.436V211.058C322.906 214.449 325.221 217.812 329.708 220.403C339.015 225.776 354.115 225.776 363.431 220.403C368.08 217.716 370.414 214.192 370.414 210.667V200.055C370.379 201.975 369.731 203.834 368.566 205.361Z" fill="#F5F5F5"/>
<path d="M368.566 194.74C367.185 196.559 365.435 198.065 363.431 199.16C362.879 199.474 362.317 199.77 361.736 200.046C352.943 204.237 340.187 204.237 331.404 200.046C330.823 199.77 330.251 199.474 329.708 199.16C327.701 198.066 325.947 196.56 324.564 194.74C323.489 193.314 322.854 191.606 322.735 189.824V200.436C322.854 202.221 323.489 203.932 324.564 205.362C325.947 207.182 327.701 208.688 329.708 209.782C339.015 215.164 354.115 215.164 363.431 209.782C365.435 208.687 367.185 207.181 368.566 205.362C369.731 203.835 370.379 201.976 370.414 200.055V189.434C370.379 191.354 369.732 193.213 368.566 194.74Z" fill="#EBEBEB"/>
<path d="M368.566 184.115C367.184 185.935 365.434 187.444 363.431 188.544C362.879 188.859 362.317 189.145 361.736 189.43C352.943 193.622 340.187 193.622 331.404 189.43C330.823 189.145 330.251 188.859 329.708 188.544C327.702 187.444 325.95 185.935 324.564 184.115C323.489 182.689 322.854 180.981 322.735 179.199V189.821C322.854 191.602 323.489 193.311 324.564 194.737C325.947 196.557 327.701 198.063 329.708 199.157C330.251 199.471 330.823 199.766 331.404 200.043C340.187 204.234 352.943 204.234 361.736 200.043C362.317 199.766 362.879 199.471 363.431 199.157C365.435 198.062 367.185 196.556 368.566 194.737C369.732 193.21 370.379 191.351 370.414 189.43V178.809C370.381 180.729 369.733 182.589 368.566 184.115Z" fill="#F5F5F5"/>
<path d="M322.735 62.3867V179.198C322.854 180.98 323.489 182.688 324.564 184.114C325.95 185.934 327.702 187.443 329.708 188.544C330.251 188.858 330.823 189.144 331.404 189.43C333.707 190.503 336.132 191.293 338.625 191.783L334.309 68.6741L322.735 62.3867Z" fill="#F5F5F5"/>
<path d="M358.83 68.6757L354.505 191.784C356.998 191.295 359.423 190.505 361.726 189.431C362.307 189.145 362.869 188.86 363.421 188.545C365.425 187.445 367.174 185.936 368.556 184.116C369.723 182.59 370.371 180.73 370.404 178.809V61.9883L358.83 68.6757Z" fill="#F5F5F5"/>
<path d="M322.735 62.3867V179.198C322.854 180.98 323.489 182.688 324.564 184.114C325.95 185.934 327.702 187.443 329.708 188.544C330.251 188.858 330.823 189.144 331.404 189.43C333.707 190.503 336.132 191.293 338.625 191.783L334.309 68.6741L322.735 62.3867Z" fill="#E0E0E0"/>
<path d="M358.83 68.6757L354.505 191.784C356.998 191.295 359.423 190.505 361.726 189.431C362.307 189.145 362.869 188.86 363.421 188.545C365.425 187.445 367.174 185.936 368.556 184.116C369.723 182.59 370.371 180.73 370.404 178.809V61.9883L358.83 68.6757Z" fill="#E0E0E0"/>
<path d="M334.309 68.6758V190.613C335.72 191.1 337.162 191.495 338.624 191.794C341.24 192.322 343.901 192.587 346.569 192.585C349.237 192.582 351.898 192.318 354.514 191.794C355.977 191.495 357.419 191.1 358.83 190.613V68.6758H334.309Z" fill="#EBEBEB"/>
<path d="M351.809 20.8533C351.424 21.0773 351.023 21.2715 350.609 21.4344C349.133 22.1073 347.515 22.4062 345.897 22.3048C344.278 22.2035 342.71 21.705 341.33 20.8533C339.425 19.7673 338.606 18.3003 338.825 16.8713L344.312 1.50539C344.492 1.05606 344.805 0.671848 345.208 0.403223C345.611 0.134599 346.085 -0.00587989 346.57 0.000231202C347.055 -0.00649337 347.531 0.133612 347.936 0.402191C348.341 0.670771 348.654 1.0553 348.837 1.50539L354.267 16.5951C354.638 18.1002 353.81 19.7006 351.809 20.8533Z" fill="#E0E0E0"/>
<path d="M363.431 220.4C355.429 225.02 343.159 225.658 333.957 222.305C333.443 222.127 332.938 221.927 332.442 221.705L331.756 221.419C331.042 221.095 330.356 220.743 329.708 220.371C325.221 217.78 322.906 214.417 322.735 211.026V239.967C322.563 243.625 324.878 247.312 329.708 250.093C330.28 250.427 330.88 250.741 331.499 251.046C331.728 251.16 331.975 251.246 332.204 251.351C332.604 251.522 332.995 251.703 333.404 251.856C333.814 252.008 334.043 252.084 334.357 252.189C334.671 252.294 335.033 252.437 335.386 252.542C335.738 252.647 336.167 252.761 336.558 252.866C336.948 252.97 337.158 253.037 337.463 253.104C337.767 253.17 338.368 253.304 338.825 253.39C339.082 253.39 339.339 253.504 339.597 253.542C340.111 253.637 340.635 253.704 341.159 253.78L341.778 253.866C342.359 253.933 342.94 253.98 343.521 254.018H343.979C344.617 254.066 345.255 254.085 345.884 254.095H346.189C346.875 254.095 347.561 254.095 348.246 254.095H348.399C349.123 254.095 349.847 254.009 350.571 253.942C354.814 253.582 358.946 252.397 362.736 250.455C362.946 250.341 363.165 250.246 363.374 250.122C368.023 247.436 370.357 243.911 370.357 240.386V210.664C370.414 214.189 368.08 217.714 363.431 220.4Z" fill="#E0E0E0"/>
<path d="M75.841 237.282C73.0879 236.587 58.3888 228.223 56.8931 227.203C55.3975 226.184 52.4443 224.079 52.4443 220.449C52.4443 217.239 52.7778 186.964 55.407 172.341C56.2708 167.792 58.0559 163.468 60.6525 159.635C63.2491 155.801 66.6024 152.539 70.5062 150.05C79.6515 144.381 88.8444 140.276 96.5893 143.496C104.334 146.715 111.403 152.631 114.451 159.776C117.5 166.921 119.586 181.229 119.805 186.764C120.024 192.299 119.805 211.275 119.805 212.961C119.805 214.648 119.5 216.839 110.421 222.488C101.343 228.137 88.8063 234.872 84.9291 236.615C82.0452 237.788 78.8651 238.021 75.841 237.282Z" fill="#37474F"/>
<path d="M73.5736 153.985C72.7353 154.461 70.3156 153.271 69.9536 152.67C69.5916 152.07 69.4964 146.878 71.3064 144.011C73.1164 141.144 84.405 135.856 87.1962 136.247C88.2417 136.417 89.2414 136.799 90.1341 137.369C91.0268 137.939 91.7938 138.685 92.3881 139.562C92.731 140.296 93.1121 145.126 92.3881 146.116C91.6641 147.107 89.0824 145.583 88.8538 145.164C88.6252 144.745 89.7017 141.21 87.9012 140.477C86.2436 139.81 78.3749 143.154 75.174 145.84C73.7832 147.012 73.8499 149.917 73.9166 151.356C73.9832 152.794 73.9928 153.737 73.5736 153.985Z" fill="#455A64"/>
<path d="M71.3066 188.072C72.9261 172.344 75.8412 163.16 91.2262 156.311C106.611 149.461 112.584 155.292 114.766 160.541C117.624 167.895 119.596 181.422 119.805 186.767C120.024 192.301 119.805 211.278 119.805 212.964C119.805 214.65 119.5 216.841 110.422 222.49C101.343 228.139 88.8065 234.874 84.9293 236.618C82.0484 237.8 78.8683 238.043 75.8412 237.313C75.2332 237.128 74.6407 236.896 74.0693 236.618C69.2775 230.464 69.8205 202.437 71.3066 188.072Z" fill="#455A64"/>
<path d="M107.173 150.166C103.153 147.813 96.5605 146.26 86.8817 150.575C69.582 158.282 65.1903 167.932 63.447 184.87C63.1326 187.976 62.6658 191.672 62.4944 195.644L61.0654 194.777C61.2655 190.49 61.6846 186.823 62.0181 183.508C63.9233 166.446 69.039 157.015 85.5671 149.651C94.7219 145.574 100.733 146.107 104.715 148.117C105.57 148.756 106.391 149.44 107.173 150.166Z" fill="#263238"/>
<path d="M107.773 150.604C103.763 148.251 97.161 146.698 87.4918 151.013C70.1825 158.72 65.7909 168.37 64.0476 185.308C63.7332 188.413 63.2664 192.11 63.095 196.082L61.666 195.215C61.8661 190.928 62.2852 187.261 62.6186 183.946C64.5239 166.884 69.6395 157.443 86.1677 150.089C95.3225 146.012 101.496 146.688 105.478 148.689C106.278 149.283 107.045 149.923 107.773 150.604Z" fill="#455A64"/>
<path d="M102.172 165.561L96.9416 162.57C96.6835 162.425 96.3787 162.388 96.0933 162.466C95.808 162.544 95.5651 162.732 95.4174 162.989L90.054 172.315C89.9046 172.572 89.8628 172.877 89.9378 173.164C90.0127 173.452 90.1984 173.698 90.4542 173.849L95.6174 176.859C95.8741 177.009 96.1794 177.05 96.4668 176.975C96.7542 176.9 97.0002 176.715 97.1512 176.459L102.581 167.076C102.656 166.95 102.704 166.81 102.724 166.665C102.743 166.52 102.734 166.373 102.696 166.232C102.658 166.091 102.592 165.959 102.501 165.843C102.411 165.728 102.299 165.632 102.172 165.561Z" fill="#263238"/>
<path d="M96.5611 175.791L101.715 166.903C101.752 166.839 101.776 166.769 101.786 166.696C101.795 166.623 101.79 166.549 101.771 166.478C101.751 166.407 101.717 166.34 101.672 166.282C101.626 166.224 101.57 166.176 101.505 166.141L96.7421 163.435C96.6131 163.363 96.4607 163.344 96.318 163.383C96.1753 163.423 96.0539 163.517 95.98 163.645L90.8834 172.495C90.811 172.624 90.7924 172.776 90.8316 172.919C90.8709 173.062 90.9648 173.183 91.093 173.257L95.7704 175.991C95.8349 176.032 95.9071 176.059 95.9824 176.071C96.0578 176.083 96.1348 176.079 96.2088 176.061C96.2827 176.042 96.3521 176.008 96.4127 175.962C96.4733 175.916 96.5238 175.857 96.5611 175.791Z" fill="#455A64"/>
<path d="M97.6653 171.543C97.8026 171.459 97.9188 171.346 98.0048 171.21C98.0907 171.075 98.1441 170.921 98.1607 170.761V166.503C98.1607 166.227 97.9416 166.141 97.6653 166.294C97.528 166.377 97.4118 166.49 97.3258 166.626C97.2399 166.761 97.1865 166.915 97.1699 167.075V171.333C97.1699 171.609 97.389 171.695 97.6653 171.543Z" fill="#37474F"/>
<path d="M94.9026 173.141C95.0397 173.055 95.1555 172.939 95.2413 172.802C95.3271 172.665 95.3807 172.511 95.398 172.35V168.101C95.398 167.825 95.1693 167.73 94.9026 167.892C94.7643 167.973 94.6473 168.087 94.5612 168.223C94.4751 168.358 94.4223 168.513 94.4072 168.673V172.931C94.4358 173.198 94.6263 173.293 94.9026 173.141Z" fill="#37474F"/>
<path d="M78.4318 201.367C78.4318 201.367 81.023 203.501 82.8901 211.541C84.7573 219.581 85.8814 229.708 83.8428 230.927C81.8041 232.147 78.8605 229.594 78.127 228.717C76.6218 226.917 76.9934 207.807 78.4318 201.367Z" fill="#263238"/>
<path d="M78.4316 201.371C78.4316 201.371 81.0228 203.505 82.89 211.545C84.7571 219.585 85.8812 229.712 83.8426 230.931L115.279 212.393C117.337 211.174 117.842 200.533 115.984 192.492C114.755 187.205 112.498 184.69 111.107 183.585C110.788 183.339 110.402 183.194 110 183.168C109.598 183.143 109.197 183.238 108.849 183.442L78.4316 201.371Z" fill="#37474F"/>
<path d="M110.459 184.811C111.965 185.554 114.518 187.602 115.67 193.042C115.865 193.782 115.847 194.562 115.62 195.293C115.392 196.024 114.964 196.677 114.384 197.176C113.336 197.919 90.8351 210.713 87.8534 212.494C85.2813 214.028 83.9476 211.99 83.3856 210.713C82.4329 208.446 81.6137 206.683 80.9087 205.331C80.3705 203.855 79.5301 202.509 78.4414 201.377L108.421 184.897C108.727 184.717 109.074 184.615 109.429 184.6C109.785 184.585 110.139 184.657 110.459 184.811Z" fill="#263238"/>
<path d="M63.4662 196.967C63.9016 198.604 64.1854 200.279 64.314 201.968C64.314 202.311 63.8472 202.492 63.7139 202.492C62.6245 202.273 61.6161 201.759 60.7988 201.006C60.9515 199.566 61.2127 198.139 61.58 196.738L63.4662 196.967Z" fill="#263238"/>
<path d="M64.4379 195.624C64.4379 195.264 64.3312 194.913 64.1312 194.613C63.9313 194.314 63.6471 194.081 63.3147 193.943C62.9822 193.805 62.6163 193.769 62.2634 193.84C61.9104 193.91 61.5862 194.083 61.3318 194.338C61.0773 194.592 60.904 194.916 60.8338 195.269C60.7636 195.622 60.7996 195.988 60.9373 196.321C61.075 196.653 61.3083 196.937 61.6075 197.137C61.9067 197.337 62.2585 197.444 62.6184 197.444C63.1009 197.444 63.5637 197.252 63.905 196.911C64.2462 196.57 64.4379 196.107 64.4379 195.624Z" fill="#263238"/>
<path d="M87.1963 140.39C89.1873 140.199 91.064 140.39 91.5403 142.381C92.0166 144.372 91.8451 146.191 91.5403 146.439C90.5315 146.311 89.5901 145.864 88.8539 145.162C88.6252 144.734 89.7017 141.209 87.9012 140.475C87.6804 140.402 87.4474 140.373 87.2153 140.39H87.1963Z" fill="#263238"/>
<path d="M109.04 183.337C109.348 183.155 109.696 183.052 110.053 183.037C110.41 183.022 110.766 183.096 111.088 183.251C112.593 183.994 115.146 186.042 116.299 191.482C116.492 192.222 116.474 193.002 116.247 193.733C116.019 194.464 115.592 195.116 115.013 195.616C113.965 196.359 91.4732 209.153 88.4914 210.934C85.9193 212.468 84.5761 210.43 84.0141 209.153C80.899 202.637 78.4316 201.37 78.4316 201.37L109.04 183.337Z" fill="#37474F"/>
<path d="M103.649 294.166L78.4235 279.61C77.7648 279.179 77.2165 278.599 76.8227 277.917C76.4289 277.236 76.2007 276.471 76.1562 275.685V275.971C76.1992 275.184 76.4268 274.419 76.8207 273.737C77.2147 273.055 77.7638 272.476 78.4235 272.046L129.151 242.762C129.852 242.405 130.627 242.219 131.414 242.219C132.2 242.219 132.975 242.405 133.676 242.762L158.902 257.328C159.562 257.755 160.112 258.332 160.506 259.013C160.901 259.693 161.128 260.458 161.169 261.243V260.957C161.127 261.743 160.901 262.507 160.509 263.189C160.117 263.871 159.569 264.451 158.911 264.882L108.184 294.166C107.481 294.523 106.704 294.71 105.916 294.71C105.128 294.71 104.352 294.523 103.649 294.166Z" fill="#37ED81"/>
<path opacity="0.7" d="M103.649 294.166L78.4235 279.61C77.7648 279.179 77.2165 278.599 76.8227 277.917C76.4289 277.236 76.2007 276.471 76.1562 275.685V275.971C76.1992 275.184 76.4268 274.419 76.8207 273.737C77.2147 273.055 77.7638 272.476 78.4235 272.046L129.151 242.762C129.852 242.405 130.627 242.219 131.414 242.219C132.2 242.219 132.975 242.405 133.676 242.762L158.902 257.328C159.562 257.755 160.112 258.332 160.506 259.013C160.901 259.693 161.128 260.458 161.169 261.243V260.957C161.127 261.743 160.901 262.507 160.509 263.189C160.117 263.871 159.569 264.451 158.911 264.882L108.184 294.166C107.481 294.523 106.704 294.71 105.916 294.71C105.128 294.71 104.352 294.523 103.649 294.166Z" fill="black"/>
<path d="M105.869 256.172L78.3854 272.043C77.7257 272.473 77.1766 273.052 76.7826 273.734C76.3887 274.416 76.1611 275.181 76.1182 275.968V275.682C76.1626 276.468 76.3909 277.232 76.7846 277.914C77.1784 278.596 77.7267 279.175 78.3854 279.607L103.611 294.163C104.308 294.534 105.089 294.721 105.878 294.706L105.869 256.172Z" fill="#37ED81"/>
<path opacity="0.7" d="M105.869 256.172L78.3854 272.043C77.7257 272.473 77.1766 273.052 76.7826 273.734C76.3887 274.416 76.1611 275.181 76.1182 275.968V275.682C76.1626 276.468 76.3909 277.232 76.7846 277.914C77.1784 278.596 77.7267 279.175 78.3854 279.607L103.611 294.163C104.308 294.534 105.089 294.721 105.878 294.706L105.869 256.172Z" fill="black"/>
<path d="M78.4138 274.666L103.63 289.231C104.334 289.584 105.11 289.767 105.897 289.767C106.684 289.767 107.461 289.584 108.164 289.231L158.892 259.938C160.15 259.214 160.15 258.033 158.892 257.328L133.666 242.762C132.966 242.405 132.19 242.219 131.404 242.219C130.617 242.219 129.842 242.405 129.141 242.762L78.4138 272.046C77.1563 272.77 77.1563 273.942 78.4138 274.666Z" fill="#37ED81"/>
<path opacity="0.5" d="M78.4138 274.666L103.63 289.231C104.334 289.584 105.11 289.767 105.897 289.767C106.684 289.767 107.461 289.584 108.164 289.231L158.892 259.938C160.15 259.214 160.15 258.033 158.892 257.328L133.666 242.762C132.966 242.405 132.19 242.219 131.404 242.219C130.617 242.219 129.842 242.405 129.141 242.762L78.4138 272.046C77.1563 272.77 77.1563 273.942 78.4138 274.666Z" fill="black"/>
<path d="M78.4141 269.874V272.294L104.592 287.412C104.991 287.641 105.443 287.762 105.902 287.762C106.362 287.762 106.814 287.641 107.212 287.412L158.892 257.566V255.07L105.897 280.791L78.4141 269.874Z" fill="#37ED81"/>
<path d="M103.639 284.438L78.4137 269.872C77.7529 269.443 77.203 268.864 76.809 268.182C76.4149 267.5 76.1879 266.734 76.1465 265.947V261.289C76.1879 260.502 76.4149 259.737 76.809 259.054C77.203 258.372 77.7529 257.793 78.4137 257.364L129.141 228.071C129.842 227.714 130.617 227.527 131.404 227.527C132.19 227.527 132.966 227.714 133.666 228.071L158.892 242.636C159.553 243.065 160.103 243.645 160.497 244.327C160.891 245.009 161.118 245.775 161.159 246.561V251.229C161.112 251.999 160.881 252.746 160.487 253.409C160.092 254.071 159.546 254.631 158.892 255.04L108.164 284.409C107.466 284.771 106.692 284.962 105.905 284.967C105.119 284.972 104.342 284.791 103.639 284.438Z" fill="#37ED81"/>
<path opacity="0.6" d="M103.639 284.438L78.4137 269.872C77.7529 269.443 77.203 268.864 76.809 268.182C76.4149 267.5 76.1879 266.734 76.1465 265.947V261.289C76.1879 260.502 76.4149 259.737 76.809 259.054C77.203 258.372 77.7529 257.793 78.4137 257.364L129.141 228.071C129.842 227.714 130.617 227.527 131.404 227.527C132.19 227.527 132.966 227.714 133.666 228.071L158.892 242.636C159.553 243.065 160.103 243.645 160.497 244.327C160.891 245.009 161.118 245.775 161.159 246.561V251.229C161.112 251.999 160.881 252.746 160.487 253.409C160.092 254.071 159.546 254.631 158.892 255.04L108.164 284.409C107.466 284.771 106.692 284.962 105.905 284.967C105.119 284.972 104.342 284.791 103.639 284.438Z" fill="black"/>
<path d="M105.869 241.492L78.3854 257.363C77.7246 257.792 77.1747 258.371 76.7806 259.053C76.3866 259.735 76.1596 260.501 76.1182 261.288V265.946C76.1596 266.733 76.3866 267.499 76.7806 268.181C77.1747 268.863 77.7246 269.442 78.3854 269.871L103.611 284.437C104.304 284.809 105.082 284.996 105.869 284.98V241.492Z" fill="#37ED81"/>
<path opacity="0.7" d="M105.869 241.492L78.3854 257.363C77.7246 257.792 77.1747 258.371 76.7806 259.053C76.3866 259.735 76.1596 260.501 76.1182 261.288V265.946C76.1596 266.733 76.3866 267.499 76.7806 268.181C77.1747 268.863 77.7246 269.442 78.3854 269.871L103.611 284.437C104.304 284.809 105.082 284.996 105.869 284.98V241.492Z" fill="black"/>
<path d="M78.4138 259.974L103.63 274.54C104.332 274.897 105.109 275.083 105.897 275.083C106.685 275.083 107.462 274.897 108.164 274.54L158.892 245.256C160.15 244.532 160.15 243.351 158.892 242.636L133.666 228.071C132.966 227.714 132.19 227.527 131.404 227.527C130.617 227.527 129.842 227.714 129.141 228.071L78.4138 257.364C77.1563 258.088 77.1563 259.26 78.4138 259.974Z" fill="#37ED81"/>
<path opacity="0.5" d="M78.4138 259.974L103.63 274.54C104.332 274.897 105.109 275.083 105.897 275.083C106.685 275.083 107.462 274.897 108.164 274.54L158.892 245.256C160.15 244.532 160.15 243.351 158.892 242.636L133.666 228.071C132.966 227.714 132.19 227.527 131.404 227.527C130.617 227.527 129.842 227.714 129.141 228.071L78.4138 257.364C77.1563 258.088 77.1563 259.26 78.4138 259.974Z" fill="black"/>
<path d="M113.594 248.398C110.803 250.018 110.803 252.619 113.594 254.219C115.164 255.008 116.896 255.419 118.653 255.419C120.41 255.419 122.142 255.008 123.711 254.219C126.503 252.619 126.503 250.018 123.711 248.398C122.143 247.605 120.41 247.191 118.653 247.191C116.895 247.191 115.163 247.605 113.594 248.398Z" fill="#37ED81"/>
<path d="M154.786 250.103C154.528 250.273 154.312 250.501 154.158 250.769C154.004 251.037 153.916 251.338 153.9 251.647C153.9 252.218 154.301 252.456 154.786 252.18C155.045 252.011 155.26 251.783 155.414 251.515C155.568 251.246 155.657 250.946 155.672 250.637C155.672 250.065 155.272 249.827 154.786 250.103Z" fill="#37ED81"/>
<path d="M154.786 253.525C154.528 253.694 154.312 253.922 154.158 254.191C154.004 254.459 153.916 254.76 153.9 255.068C153.9 255.64 154.301 255.878 154.786 255.602C155.048 255.436 155.266 255.209 155.421 254.94C155.575 254.671 155.661 254.369 155.672 254.059C155.672 253.487 155.272 253.249 154.786 253.525Z" fill="#37ED81"/>
<path d="M93.0748 313.416C92.9582 313.416 92.8435 313.387 92.7413 313.331L68.2968 299.127C67.6639 298.76 67.1386 298.234 66.7733 297.6C66.4081 296.966 66.2158 296.248 66.2158 295.517C66.2158 294.785 66.4081 294.067 66.7733 293.433C67.1386 292.799 67.6639 292.273 68.2968 291.906L86.2158 281.56C86.3679 281.483 86.5437 281.467 86.7072 281.516C86.8707 281.564 87.0094 281.674 87.0948 281.821C87.1802 281.969 87.2058 282.144 87.1663 282.309C87.1269 282.475 87.0254 282.62 86.8827 282.713L68.9732 293.03C68.5467 293.283 68.1935 293.643 67.9481 294.074C67.7027 294.505 67.5737 294.992 67.5737 295.488C67.5737 295.984 67.7027 296.471 67.9481 296.902C68.1935 297.333 68.5467 297.693 68.9732 297.946L93.4177 312.13C93.4999 312.173 93.572 312.233 93.6294 312.306C93.6867 312.379 93.728 312.463 93.7505 312.553C93.773 312.643 93.7762 312.737 93.7599 312.828C93.7436 312.92 93.7081 313.006 93.6559 313.083C93.5986 313.186 93.5142 313.272 93.4118 313.331C93.3094 313.389 93.1928 313.419 93.0748 313.416Z" fill="#37ED81"/>
<path d="M123.693 299.699L118.396 278.436C118.321 278.143 118.222 277.856 118.101 277.579L119.644 277.36L116.281 275.454C115.576 275.071 114.779 274.887 113.977 274.922C113.174 274.957 112.397 275.211 111.728 275.654L89.6743 288.42C88.1602 289.411 86.901 290.746 85.999 292.315C85.0969 293.884 84.5774 295.643 84.4824 297.451V323.019C84.4824 325.058 84.9778 326.458 85.9971 326.944L89.1598 328.773L88.3977 326.754L88.5692 326.687C92.1987 324.953 93.5134 321.79 94.5994 318.656L98.8005 306.51C99.8865 303.376 102.611 299.785 104.84 298.479C107.069 297.174 110.251 298.479 111.89 301.337L114.004 305.034C114.65 306.207 115.623 307.167 116.805 307.796L120.025 309.701L119.206 308.425C119.875 308.427 120.533 308.249 121.111 307.911C123.312 306.596 124.493 302.938 123.693 299.699Z" fill="#37ED81"/>
<path opacity="0.7" d="M123.693 299.699L118.396 278.436C118.321 278.143 118.222 277.856 118.101 277.579L119.644 277.36L116.281 275.454C115.576 275.071 114.779 274.887 113.977 274.922C113.174 274.957 112.397 275.211 111.728 275.654L89.6743 288.42C88.1602 289.411 86.901 290.746 85.999 292.315C85.0969 293.884 84.5774 295.643 84.4824 297.451V323.019C84.4824 325.058 84.9778 326.458 85.9971 326.944L89.1598 328.773L88.3977 326.754L88.5692 326.687C92.1987 324.953 93.5134 321.79 94.5994 318.656L98.8005 306.51C99.8865 303.376 102.611 299.785 104.84 298.479C107.069 297.174 110.251 298.479 111.89 301.337L114.004 305.034C114.65 306.207 115.623 307.167 116.805 307.796L120.025 309.701L119.206 308.425C119.875 308.427 120.533 308.249 121.111 307.911C123.312 306.596 124.493 302.938 123.693 299.699Z" fill="black"/>
<path d="M118.1 277.579L119.643 277.36L116.28 275.454C115.575 275.071 114.778 274.887 113.976 274.922C113.174 274.957 112.396 275.211 111.727 275.654L89.6734 288.42C88.4416 289.187 87.389 290.211 86.5869 291.42L91.8359 294.621L118.681 279.455L118.424 278.436C118.339 278.142 118.231 277.855 118.1 277.579Z" fill="#37ED81"/>
<path opacity="0.5" d="M118.1 277.579L119.643 277.36L116.28 275.454C115.575 275.071 114.778 274.887 113.976 274.922C113.174 274.957 112.396 275.211 111.727 275.654L89.6734 288.42C88.4416 289.187 87.389 290.211 86.5869 291.42L91.8359 294.621L118.681 279.455L118.424 278.436C118.339 278.142 118.231 277.855 118.1 277.579Z" fill="black"/>
<path d="M124.474 309.895C122.216 311.2 119.044 309.895 117.396 307.037L115.29 303.34C113.642 300.483 110.527 299.177 108.231 300.483C105.935 301.788 103.278 305.37 102.192 308.513L98 320.65C96.914 323.784 95.5898 326.947 91.9603 328.68C89.2167 329.995 87.8926 328.337 87.8926 325.022V299.435C87.9908 297.628 88.5128 295.87 89.4165 294.303C90.3201 292.736 91.5798 291.403 93.0939 290.413L115.185 277.6C115.781 277.184 116.472 276.926 117.195 276.851C117.918 276.776 118.647 276.887 119.315 277.173C119.983 277.459 120.567 277.911 121.011 278.486C121.455 279.061 121.745 279.74 121.854 280.458L127.151 301.731C127.932 304.912 126.741 308.589 124.474 309.895Z" fill="#37ED81"/>
<path opacity="0.6" d="M124.474 309.895C122.216 311.2 119.044 309.895 117.396 307.037L115.29 303.34C113.642 300.483 110.527 299.177 108.231 300.483C105.935 301.788 103.278 305.37 102.192 308.513L98 320.65C96.914 323.784 95.5898 326.947 91.9603 328.68C89.2167 329.995 87.8926 328.337 87.8926 325.022V299.435C87.9908 297.628 88.5128 295.87 89.4165 294.303C90.3201 292.736 91.5798 291.403 93.0939 290.413L115.185 277.6C115.781 277.184 116.472 276.926 117.195 276.851C117.918 276.776 118.647 276.887 119.315 277.173C119.983 277.459 120.567 277.911 121.011 278.486C121.455 279.061 121.745 279.74 121.854 280.458L127.151 301.731C127.932 304.912 126.741 308.589 124.474 309.895Z" fill="black"/>
<path d="M115.909 284.961L116.461 288.095L118.91 286.533L119.453 289.667L117.014 291.239L117.567 294.373L115.128 295.935L114.575 292.801L112.137 294.373L111.584 291.229L114.023 289.667L113.47 286.533L115.909 284.961Z" fill="#263238"/>
<path d="M116.614 285.336L117.167 288.47L119.605 286.908L120.158 290.042L117.719 291.614L118.272 294.748L115.833 296.31L115.28 293.176L112.842 294.738L112.289 291.604L114.728 290.042L114.175 286.908L116.614 285.336Z" fill="#37ED81"/>
<path d="M97.4285 296.063C97.4937 296.504 97.4397 296.955 97.2722 297.369C97.1048 297.783 96.8298 298.144 96.4759 298.416C95.7995 298.845 95.1327 298.492 94.9802 297.625C94.912 297.184 94.9645 296.732 95.1322 296.317C95.2999 295.903 95.5766 295.542 95.9329 295.272C96.5997 294.844 97.2951 295.196 97.4285 296.063Z" fill="#263238"/>
<path d="M98.5328 302.329C98.6011 302.771 98.5485 303.223 98.3808 303.637C98.2131 304.051 97.9365 304.412 97.5802 304.682C96.9038 305.111 96.2369 304.758 96.0845 303.901C96.0152 303.459 96.0672 303.007 96.235 302.592C96.4028 302.178 96.6801 301.817 97.0371 301.548C97.704 301.11 98.3804 301.462 98.5328 302.329Z" fill="#263238"/>
<path d="M100.419 297.622C100.489 298.063 100.437 298.516 100.269 298.93C100.101 299.345 99.8239 299.706 99.4669 299.975C98.7905 300.413 98.1237 300.06 97.9712 299.194C97.9019 298.752 97.9539 298.3 98.1217 297.885C98.2895 297.471 98.5668 297.11 98.9239 296.841C99.6002 296.412 100.267 296.755 100.419 297.622Z" fill="#263238"/>
<path d="M95.5418 300.755C95.6111 301.196 95.5591 301.648 95.3913 302.063C95.2235 302.477 94.9462 302.838 94.5892 303.108C93.9128 303.546 93.2459 303.193 93.0935 302.326C93.0253 301.885 93.0778 301.433 93.2455 301.019C93.4132 300.604 93.6899 300.243 94.0461 299.973C94.7225 299.545 95.3894 299.888 95.5418 300.755Z" fill="#263238"/>
<path d="M97.4761 296.091C97.5444 296.532 97.4919 296.984 97.3242 297.399C97.1565 297.813 96.8798 298.174 96.5235 298.444C95.8471 298.872 95.1803 298.529 95.0279 297.663C94.9586 297.221 95.0106 296.769 95.1784 296.354C95.3462 295.94 95.6234 295.579 95.9805 295.31C96.6569 294.871 97.2951 295.224 97.4761 296.091Z" fill="#263238"/>
<path d="M98.5806 302.356C98.65 302.798 98.5979 303.25 98.4301 303.664C98.2624 304.079 97.9851 304.44 97.628 304.709C96.9516 305.147 96.2848 304.795 96.1324 303.928C96.0631 303.486 96.1151 303.034 96.2829 302.62C96.4507 302.205 96.7279 301.844 97.085 301.575C97.7614 301.146 98.4282 301.489 98.5806 302.356Z" fill="#263238"/>
<path d="M100.467 297.661C100.535 298.101 100.482 298.551 100.314 298.964C100.146 299.376 99.8699 299.736 99.5144 300.004C98.8476 300.442 98.1712 300.09 98.0188 299.223C97.9526 298.781 98.0061 298.33 98.1736 297.916C98.3412 297.502 98.6167 297.141 98.9714 296.87C99.6478 296.441 100.315 296.794 100.467 297.661Z" fill="#263238"/>
<path d="M95.5894 300.793C95.6577 301.235 95.6051 301.687 95.4374 302.101C95.2697 302.515 94.9931 302.877 94.6368 303.146C93.9699 303.575 93.2935 303.223 93.1411 302.356C93.0759 301.914 93.1299 301.463 93.2974 301.05C93.4648 300.636 93.7398 300.275 94.0937 300.003C94.7701 299.574 95.437 299.926 95.5894 300.793Z" fill="#263238"/>
<path d="M97.5237 296.118C97.593 296.56 97.541 297.012 97.3732 297.426C97.2054 297.841 96.9282 298.202 96.5711 298.471C95.9042 298.909 95.2279 298.557 95.0754 297.69C95.0092 297.248 95.0627 296.797 95.2303 296.383C95.3978 295.969 95.6733 295.608 96.0281 295.337C96.7044 294.908 97.3713 295.251 97.5237 296.118Z" fill="#263238"/>
<path d="M98.6282 302.395C98.6957 302.835 98.6428 303.285 98.4751 303.698C98.3073 304.111 98.0311 304.47 97.6755 304.738C97.0087 305.177 96.3323 304.824 96.1799 303.957C96.1137 303.516 96.1672 303.064 96.3347 302.651C96.5023 302.237 96.7778 301.875 97.1326 301.604C97.8089 301.176 98.4758 301.528 98.6282 302.395Z" fill="#263238"/>
<path d="M100.524 297.688C100.59 298.13 100.537 298.581 100.369 298.995C100.202 299.409 99.9261 299.77 99.5714 300.041C98.895 300.47 98.2282 300.118 98.0757 299.26C98.0064 298.819 98.0584 298.366 98.2262 297.952C98.394 297.537 98.6713 297.176 99.0284 296.907C99.6952 296.469 100.372 296.821 100.524 297.688Z" fill="#263238"/>
<path d="M95.647 300.825C95.7132 301.267 95.6598 301.718 95.4922 302.132C95.3247 302.546 95.0492 302.907 94.6944 303.178C94.018 303.607 93.3512 303.264 93.1988 302.397C93.1295 301.955 93.1815 301.503 93.3493 301.089C93.5171 300.674 93.7943 300.313 94.1514 300.044C94.8182 299.606 95.4946 299.958 95.647 300.825Z" fill="#263238"/>
<path d="M97.5803 296.156C97.6465 296.598 97.593 297.049 97.4255 297.463C97.2579 297.876 96.9824 298.238 96.6277 298.509C95.9513 298.938 95.2844 298.585 95.132 297.718C95.0645 297.278 95.1174 296.828 95.2852 296.415C95.4529 296.003 95.7291 295.643 96.0847 295.375C96.7515 294.937 97.4279 295.318 97.5803 296.156Z" fill="#263238"/>
<path d="M98.6861 302.427C98.7523 302.868 98.6988 303.319 98.5313 303.733C98.3637 304.147 98.0882 304.509 97.7335 304.78C97.0571 305.208 96.3903 304.865 96.2378 303.999C96.1685 303.557 96.2205 303.105 96.3883 302.69C96.5561 302.276 96.8334 301.915 97.1905 301.646C97.8573 301.207 98.5337 301.56 98.6861 302.427Z" fill="#263238"/>
<path d="M100.572 297.715C100.641 298.157 100.589 298.609 100.422 299.024C100.254 299.438 99.9765 299.799 99.6194 300.068C98.9431 300.507 98.2762 300.154 98.1238 299.287C98.0555 298.846 98.108 298.394 98.2758 297.979C98.4435 297.565 98.7201 297.204 99.0764 296.934C99.7528 296.506 100.42 296.849 100.572 297.715Z" fill="#263238"/>
<path d="M95.6941 300.852C95.7635 301.294 95.7114 301.746 95.5436 302.161C95.3758 302.575 95.0986 302.936 94.7415 303.205C94.0651 303.643 93.3983 303.291 93.2459 302.424C93.1776 301.982 93.2301 301.53 93.3978 301.116C93.5655 300.702 93.8422 300.341 94.1985 300.071C94.8749 299.642 95.5417 299.985 95.6941 300.852Z" fill="#263238"/>
<path d="M97.6285 296.185C97.6968 296.626 97.6442 297.078 97.4765 297.492C97.3088 297.907 97.0322 298.268 96.6759 298.538C95.9995 298.966 95.3326 298.623 95.1802 297.756C95.1109 297.315 95.1629 296.862 95.3307 296.448C95.4985 296.033 95.7758 295.672 96.1329 295.403C96.8092 294.965 97.4761 295.318 97.6285 296.185Z" fill="#263238"/>
<path d="M98.7332 302.454C98.8025 302.895 98.7505 303.348 98.5827 303.762C98.4149 304.177 98.1376 304.538 97.7806 304.807C97.1042 305.245 96.4373 304.892 96.2849 304.026C96.2167 303.584 96.2692 303.132 96.4369 302.718C96.6046 302.304 96.8813 301.942 97.2376 301.673C97.9139 301.244 98.5808 301.587 98.7332 302.454Z" fill="#263238"/>
<path d="M100.62 297.754C100.687 298.196 100.634 298.647 100.467 299.062C100.299 299.476 100.023 299.837 99.6673 300.107C98.9909 300.536 98.3241 300.184 98.1716 299.317C98.1034 298.875 98.1559 298.423 98.3236 298.009C98.4913 297.595 98.768 297.233 99.1243 296.964C99.8006 296.535 100.467 296.887 100.62 297.754Z" fill="#263238"/>
<path d="M95.7419 300.888C95.8102 301.329 95.7577 301.781 95.5899 302.195C95.4222 302.61 95.1456 302.971 94.7893 303.241C94.1224 303.669 93.4461 303.317 93.2936 302.45C93.2282 302.01 93.2821 301.56 93.4496 301.148C93.6172 300.736 93.8923 300.376 94.2463 300.106C94.9226 299.668 95.5895 300.021 95.7419 300.888Z" fill="#263238"/>
<path d="M97.676 296.213C97.7453 296.655 97.6933 297.107 97.5255 297.521C97.3578 297.936 97.0805 298.297 96.7234 298.566C96.0566 299.004 95.3802 298.652 95.2278 297.785C95.1616 297.343 95.215 296.892 95.3826 296.478C95.5502 296.064 95.8257 295.703 96.1804 295.432C96.8568 295.003 97.5236 295.317 97.676 296.213Z" fill="#263238"/>
<path d="M98.7805 302.489C98.8477 302.93 98.7948 303.382 98.6271 303.796C98.4595 304.21 98.1834 304.571 97.8279 304.842C97.1611 305.27 96.4847 304.918 96.3323 304.051C96.2661 303.609 96.3195 303.158 96.4871 302.744C96.6546 302.33 96.9302 301.969 97.2849 301.698C97.9613 301.269 98.6281 301.622 98.7805 302.489Z" fill="#263238"/>
<path d="M100.667 297.782C100.735 298.224 100.683 298.676 100.515 299.09C100.347 299.504 100.071 299.865 99.7144 300.135C99.0475 300.564 98.3712 300.221 98.2187 299.354C98.1515 298.912 98.2045 298.461 98.3721 298.047C98.5398 297.633 98.8159 297.271 99.1714 297.001C99.8477 296.563 100.515 296.915 100.667 297.782Z" fill="#263238"/>
<path d="M95.7994 300.918C95.8656 301.359 95.8121 301.81 95.6446 302.224C95.477 302.638 95.2015 303 94.8467 303.271C94.1704 303.699 93.5035 303.356 93.3511 302.49C93.2818 302.048 93.3338 301.596 93.5016 301.181C93.6694 300.767 93.9467 300.406 94.3038 300.137C94.9706 299.698 95.647 300.079 95.7994 300.918Z" fill="#263238"/>
<path d="M97.733 296.271C97.7992 296.712 97.7457 297.163 97.5781 297.577C97.4106 297.991 97.1351 298.352 96.7804 298.624C96.104 299.052 95.4371 298.7 95.2847 297.842C95.2154 297.401 95.2674 296.948 95.4352 296.534C95.603 296.12 95.8803 295.759 96.2373 295.489C96.9042 295.032 97.5806 295.385 97.733 296.271Z" fill="#263238"/>
<path d="M98.8384 302.517C98.9046 302.958 98.8512 303.409 98.6836 303.823C98.5161 304.237 98.2405 304.598 97.8858 304.87C97.2094 305.298 96.5426 304.955 96.3902 304.088C96.3209 303.647 96.3729 303.194 96.5407 302.78C96.7085 302.366 96.9857 302.004 97.3428 301.735C98.0097 301.297 98.686 301.65 98.8384 302.517Z" fill="#263238"/>
<path d="M100.724 297.813C100.792 298.255 100.739 298.706 100.571 299.12C100.403 299.534 100.127 299.896 99.7718 300.166C99.0954 300.604 98.4286 300.252 98.2761 299.385C98.2079 298.943 98.2604 298.491 98.4281 298.077C98.5958 297.663 98.8725 297.302 99.2288 297.032C99.8956 296.603 100.572 296.946 100.724 297.813Z" fill="#263238"/>
<path d="M95.8465 300.946C95.9158 301.388 95.8638 301.84 95.696 302.254C95.5282 302.669 95.2509 303.03 94.8938 303.299C94.2175 303.737 93.5506 303.385 93.3982 302.518C93.3299 302.076 93.3824 301.624 93.5502 301.21C93.7179 300.796 93.9945 300.435 94.3508 300.165C95.0272 299.736 95.694 300.079 95.8465 300.946Z" fill="#263238"/>
<path d="M97.7808 296.268C97.8501 296.71 97.7981 297.162 97.6303 297.577C97.4625 297.991 97.1853 298.352 96.8282 298.621C96.1518 299.06 95.485 298.707 95.3326 297.84C95.2632 297.399 95.3153 296.946 95.4831 296.532C95.6508 296.117 95.9281 295.756 96.2852 295.487C96.9616 295.059 97.6284 295.411 97.7808 296.268Z" fill="#263238"/>
<path d="M98.8855 302.548C98.9548 302.989 98.9028 303.441 98.735 303.856C98.5672 304.27 98.29 304.631 97.9329 304.901C97.2565 305.339 96.5897 304.986 96.4373 304.119C96.369 303.678 96.4215 303.226 96.5892 302.812C96.7569 302.397 97.0336 302.036 97.3899 301.766C98.0663 301.338 98.7331 301.681 98.8855 302.548Z" fill="#263238"/>
<path d="M100.772 297.852C100.84 298.294 100.787 298.746 100.62 299.16C100.452 299.575 100.175 299.936 99.8191 300.205C99.1427 300.634 98.4759 300.282 98.3234 299.415C98.2559 298.975 98.3088 298.524 98.4766 298.112C98.6443 297.699 98.9205 297.34 99.2761 297.071C99.9524 296.633 100.619 296.986 100.772 297.852Z" fill="#263238"/>
<path d="M95.8941 301.031C95.9624 301.472 95.9099 301.924 95.7422 302.338C95.5744 302.753 95.2978 303.114 94.9415 303.384C94.2746 303.812 93.5983 303.46 93.4458 302.602C93.3765 302.161 93.4285 301.708 93.5963 301.294C93.7641 300.88 94.0414 300.519 94.3985 300.249C95.0748 299.764 95.7417 300.078 95.8941 301.031Z" fill="#263238"/>
<path d="M97.8289 296.317C97.8964 296.757 97.8435 297.207 97.6758 297.62C97.508 298.033 97.2318 298.392 96.8763 298.66C96.1999 299.099 95.5331 298.746 95.3806 297.879C95.3124 297.437 95.3649 296.986 95.5326 296.571C95.7003 296.157 95.977 295.796 96.3333 295.526C97.0096 295.097 97.6765 295.45 97.8289 296.317Z" fill="#263238"/>
<path d="M98.9338 302.587C99.0021 303.029 98.9496 303.48 98.7818 303.895C98.6141 304.309 98.3375 304.67 97.9812 304.94C97.3143 305.369 96.638 305.016 96.4855 304.149C96.418 303.709 96.471 303.259 96.6387 302.846C96.8064 302.433 97.0827 302.074 97.4382 301.806C98.1145 301.367 98.7814 301.72 98.9338 302.587Z" fill="#263238"/>
<path d="M100.819 297.88C100.888 298.321 100.835 298.773 100.667 299.188C100.5 299.602 100.223 299.963 99.8667 300.233C99.1999 300.662 98.5235 300.319 98.3711 299.452C98.3039 299.01 98.3569 298.558 98.5245 298.144C98.6921 297.73 98.9682 297.369 99.3237 297.099C100 296.66 100.667 297.013 100.819 297.88Z" fill="#263238"/>
<path d="M95.9424 301.032C96.0117 301.474 95.9597 301.926 95.7919 302.341C95.6241 302.755 95.3469 303.116 94.9898 303.385C94.3229 303.824 93.6561 303.471 93.4941 302.604C93.4269 302.163 93.4799 301.711 93.6475 301.297C93.8152 300.883 94.0913 300.522 94.4468 300.251C95.1231 299.794 95.79 300.146 95.9424 301.032Z" fill="#263238"/>
<path d="M97.876 296.345C97.9443 296.786 97.8918 297.238 97.724 297.652C97.5563 298.067 97.2797 298.428 96.9234 298.698C96.2565 299.126 95.5802 298.774 95.4277 297.917C95.3605 297.475 95.4135 297.023 95.5811 296.609C95.7488 296.195 96.0248 295.834 96.3804 295.564C97.0567 295.125 97.7236 295.478 97.876 296.345Z" fill="#263238"/>
<path d="M98.9813 302.614C99.0495 303.056 98.997 303.508 98.8293 303.922C98.6616 304.336 98.3849 304.697 98.0286 304.967C97.3618 305.396 96.6949 305.053 96.5425 304.186C96.4732 303.744 96.5252 303.292 96.693 302.878C96.8608 302.463 97.1381 302.102 97.4952 301.833C98.162 301.395 98.8288 301.747 98.9813 302.614Z" fill="#263238"/>
<path d="M100.877 297.909C100.944 298.351 100.891 298.802 100.723 299.216C100.556 299.63 100.28 299.992 99.9241 300.262C99.2477 300.7 98.5809 300.348 98.4285 299.481C98.3602 299.039 98.4127 298.587 98.5804 298.173C98.7481 297.759 99.0248 297.398 99.3811 297.128C100.048 296.699 100.724 297.052 100.877 297.909Z" fill="#263238"/>
<path d="M95.9998 301.032C96.0652 301.472 96.0113 301.921 95.8438 302.334C95.6762 302.746 95.4011 303.106 95.0472 303.375C94.3708 303.813 93.704 303.461 93.5515 302.594C93.4833 302.152 93.5358 301.7 93.7035 301.286C93.8712 300.872 94.1479 300.511 94.5042 300.241C95.171 299.831 95.8474 300.184 95.9998 301.032Z" fill="#263238"/>
<path d="M97.9334 296.376C98.0006 296.817 97.9476 297.269 97.78 297.683C97.6123 298.097 97.3363 298.458 96.9807 298.729C96.3044 299.167 95.6375 298.814 95.4851 297.947C95.4169 297.506 95.4694 297.054 95.6371 296.64C95.8048 296.225 96.0815 295.864 96.4378 295.594C97.1046 295.166 97.781 295.509 97.9334 296.376Z" fill="#263238"/>
<path d="M99.0379 302.643C99.1051 303.085 99.0521 303.537 98.8845 303.951C98.7168 304.365 98.4408 304.726 98.0853 304.996C97.4089 305.435 96.742 305.082 96.5896 304.215C96.5213 303.774 96.5739 303.322 96.7416 302.907C96.9093 302.493 97.1859 302.132 97.5422 301.862C98.2472 301.434 98.8855 301.786 99.0379 302.643Z" fill="#263238"/>
<path d="M100.924 297.946C100.993 298.388 100.94 298.84 100.772 299.254C100.605 299.668 100.328 300.029 99.9717 300.299C99.2954 300.728 98.6285 300.375 98.4761 299.518C98.4068 299.076 98.4588 298.624 98.6266 298.21C98.7944 297.795 99.0717 297.434 99.4288 297.165C100.153 296.727 100.772 297.079 100.924 297.946Z" fill="#263238"/>
<path d="M96.0474 301.079C96.1157 301.521 96.0632 301.973 95.8955 302.387C95.7278 302.801 95.4511 303.162 95.0948 303.432C94.4184 303.861 93.7516 303.508 93.5992 302.651C93.5299 302.209 93.5819 301.757 93.7497 301.342C93.9174 300.928 94.1947 300.567 94.5518 300.298C95.2282 299.86 95.895 300.212 96.0474 301.079Z" fill="#263238"/>
<path d="M97.9803 296.414C98.0475 296.856 97.9945 297.308 97.8269 297.722C97.6592 298.136 97.3831 298.497 97.0276 298.767C96.3513 299.196 95.6844 298.844 95.532 297.977C95.4637 297.535 95.5162 297.083 95.684 296.669C95.8517 296.255 96.1283 295.894 96.4846 295.624C97.161 295.195 97.8278 295.548 97.9803 296.414Z" fill="#263238"/>
<path d="M99.0855 302.681C99.1538 303.122 99.1013 303.574 98.9336 303.988C98.7659 304.403 98.4892 304.764 98.1329 305.034C97.4565 305.462 96.7897 305.11 96.6373 304.252C96.5679 303.811 96.62 303.358 96.7877 302.944C96.9555 302.53 97.2328 302.169 97.5899 301.899C98.2472 301.461 98.9331 301.814 99.0855 302.681Z" fill="#263238"/>
<path d="M100.972 297.974C101.041 298.415 100.989 298.868 100.821 299.282C100.653 299.696 100.376 300.057 100.019 300.327C99.3522 300.765 98.6759 300.412 98.5234 299.545C98.4562 299.104 98.5092 298.652 98.6768 298.238C98.8445 297.824 99.1206 297.463 99.4761 297.192C100.152 296.754 100.819 297.107 100.972 297.974Z" fill="#263238"/>
<path d="M96.095 301.11C96.1643 301.552 96.1123 302.004 95.9445 302.418C95.7767 302.833 95.4994 303.194 95.1424 303.463C94.4755 303.901 93.7991 303.549 93.6467 302.682C93.5805 302.24 93.634 301.789 93.8016 301.375C93.9691 300.961 94.2446 300.6 94.5994 300.329C95.2757 299.9 95.9426 300.243 96.095 301.11Z" fill="#263238"/>
<path d="M115.909 284.961L116.614 285.332L114.176 286.904L113.471 286.533L115.909 284.961Z" fill="#263238"/>
<path d="M114.023 289.668L114.728 290.039L112.289 291.602L111.584 291.23L114.023 289.668Z" fill="#263238"/>
<path d="M117.167 288.469L117.033 287.735L118.91 286.535L119.605 286.907L117.167 288.469Z" fill="#263238"/>
<path d="M111.584 291.23L112.289 291.602L112.841 294.736L112.137 294.374L111.584 291.23Z" fill="#263238"/>
<path d="M115.128 295.938L115.833 296.31L115.281 293.176L114.709 293.547L115.128 295.938Z" fill="#263238"/>
<path d="M97.9803 296.414C98.0475 296.856 97.9945 297.308 97.8269 297.722C97.6592 298.136 97.3831 298.497 97.0276 298.767C96.3513 299.196 95.6844 298.844 95.532 297.977C95.4637 297.535 95.5162 297.083 95.684 296.669C95.8517 296.255 96.1283 295.894 96.4846 295.624C97.161 295.195 97.8278 295.548 97.9803 296.414Z" fill="#37ED81"/>
<path d="M99.0855 302.681C99.1538 303.122 99.1013 303.574 98.9336 303.988C98.7659 304.403 98.4892 304.764 98.1329 305.034C97.4565 305.462 96.7897 305.11 96.6373 304.252C96.5679 303.811 96.62 303.358 96.7877 302.944C96.9555 302.53 97.2328 302.169 97.5899 301.899C98.2472 301.461 98.9331 301.814 99.0855 302.681Z" fill="#37ED81"/>
<path d="M100.972 297.974C101.041 298.415 100.989 298.868 100.821 299.282C100.653 299.696 100.376 300.057 100.019 300.327C99.3522 300.765 98.6759 300.412 98.5234 299.545C98.4562 299.104 98.5092 298.652 98.6768 298.238C98.8445 297.824 99.1206 297.463 99.4761 297.192C100.152 296.754 100.819 297.107 100.972 297.974Z" fill="#37ED81"/>
<path d="M96.095 301.11C96.1643 301.552 96.1123 302.004 95.9445 302.418C95.7767 302.833 95.4994 303.194 95.1424 303.463C94.4755 303.901 93.7991 303.549 93.6467 302.682C93.5805 302.24 93.634 301.789 93.8016 301.375C93.9691 300.961 94.2446 300.6 94.5994 300.329C95.2757 299.9 95.9426 300.243 96.095 301.11Z" fill="#37ED81"/>
<path d="M121.416 30.1866L111.175 36.0929C111.232 35.6442 111.26 35.1924 111.261 34.7402V31.7775C111.261 26.4999 107.555 24.3565 102.992 27.0143C101.019 28.2229 99.3348 29.8487 98.0572 31.7775C97.3046 25.1091 92.1032 22.6704 85.7778 26.3189C78.9379 30.2723 73.3936 39.8749 73.3936 47.7626V52.2019C73.3499 53.9738 73.7082 55.7325 74.4415 57.3461L65.9345 62.2522C64.5985 63.1246 63.4866 64.2993 62.6889 65.6812C61.8912 67.0631 61.4301 68.6134 61.3428 70.2066C61.3428 73.1312 63.4005 74.322 65.9345 72.855L121.416 40.8275C122.752 39.9551 123.864 38.7804 124.661 37.3985C125.459 36.0165 125.92 34.4663 126.007 32.873C126.007 29.9103 123.969 28.7196 121.416 30.1866Z" fill="#F0F0F0"/>
<path d="M334.186 296.374L332.281 295.297L333.633 294.688C333.633 294.688 334.691 294.973 334.719 295.021C334.711 295.267 334.685 295.512 334.643 295.754L334.186 296.374Z" fill="#E0E0E0"/>
<path d="M334.186 296.374L332.281 295.297L333.633 294.688C333.633 294.688 334.691 294.973 334.719 295.021C334.711 295.267 334.685 295.512 334.643 295.754L334.186 296.374Z" fill="#37ED81"/>
<path opacity="0.1" d="M334.186 296.374L332.281 295.297L333.633 294.688C333.633 294.688 334.691 294.973 334.719 295.021C334.711 295.267 334.685 295.512 334.643 295.754L334.186 296.374Z" fill="#101010"/>
<path d="M263.291 332.087C264.136 332.515 265.069 332.738 266.016 332.738C266.963 332.738 267.896 332.515 268.74 332.087L329.842 296.84L238.39 244.026L236.256 242.797L175.154 278.044C173.658 278.911 173.658 280.331 175.154 281.188L263.291 332.087Z" fill="#37ED81"/>
<path opacity="0.8" d="M263.291 332.087C264.136 332.515 265.069 332.738 266.016 332.738C266.963 332.738 267.896 332.515 268.74 332.087L329.842 296.84L238.39 244.026L236.256 242.797L175.154 278.044C173.658 278.911 173.658 280.331 175.154 281.188L263.291 332.087Z" fill="#101010"/>
<path d="M286.24 265.441L307.55 277.702L321.344 269.738L337.358 279.016V290.553C337.358 291.953 335.786 293.944 335.214 293.62C334.157 293.876 333.129 294.24 332.147 294.706C330.544 295.617 329.057 296.718 327.717 297.983L278.752 269.719L286.24 265.441Z" fill="#E0E0E0"/>
<path d="M286.24 265.441L307.55 277.702L321.344 269.738L337.358 279.016V290.553C337.358 291.953 335.786 293.944 335.214 293.62C334.157 293.876 333.129 294.24 332.147 294.706C330.544 295.617 329.057 296.718 327.717 297.983L278.752 269.719L286.24 265.441Z" fill="#37ED81"/>
<path opacity="0.1" d="M286.24 265.441L307.55 277.702L321.344 269.738L337.358 279.016V290.553C337.358 291.953 335.786 293.944 335.214 293.62C334.157 293.876 333.129 294.24 332.147 294.706C330.544 295.617 329.057 296.718 327.717 297.983L278.752 269.719L286.24 265.441Z" fill="#101010"/>
<path d="M268.769 332.076L272.455 329.942L327.775 298.01C327.816 297.288 328.079 296.596 328.527 296.028C329.181 295.16 330.004 294.434 330.947 293.895C331.736 293.411 332.633 293.133 333.557 293.085C334.175 293.076 334.779 293.274 335.272 293.647C335.992 292.233 336.343 290.66 336.291 289.074H338.387C338.387 291.932 337.434 294.866 336.263 295.533L335.205 296.152C334.605 296.495 334.129 296.514 334.129 296.152V295.59C334.129 294.961 333.176 294.99 331.995 295.676C330.814 296.362 329.87 297.41 329.87 298.038V298.61C329.87 298.934 329.051 299.658 328.06 300.23L274.561 331.123L268.769 334.458C267.93 334.891 266.998 335.111 266.054 335.096V332.676C266.995 332.715 267.931 332.508 268.769 332.076Z" fill="#37ED81"/>
<path opacity="0.6" d="M268.769 332.076L272.455 329.942L327.775 298.01C327.816 297.288 328.079 296.596 328.527 296.028C329.181 295.16 330.004 294.434 330.947 293.895C331.736 293.411 332.633 293.133 333.557 293.085C334.175 293.076 334.779 293.274 335.272 293.647C335.992 292.233 336.343 290.66 336.291 289.074H338.387C338.387 291.932 337.434 294.866 336.263 295.533L335.205 296.152C334.605 296.495 334.129 296.514 334.129 296.152V295.59C334.129 294.961 333.176 294.99 331.995 295.676C330.814 296.362 329.87 297.41 329.87 298.038V298.61C329.87 298.934 329.051 299.658 328.06 300.23L274.561 331.123L268.769 334.458C267.93 334.891 266.998 335.111 266.054 335.096V332.676C266.995 332.715 267.931 332.508 268.769 332.076Z" fill="#101010"/>
<path d="M174.011 279.57V282.038C174.042 282.367 174.159 282.683 174.349 282.953C174.54 283.224 174.797 283.44 175.097 283.581L257.471 331.136L263.253 334.47C264.092 334.904 265.024 335.123 265.968 335.109V332.689C265.018 332.712 264.079 332.485 263.244 332.032L259.567 329.907L175.097 281.123C174.796 280.982 174.538 280.764 174.347 280.491C174.157 280.219 174.041 279.901 174.011 279.57Z" fill="#37ED81"/>
<path opacity="0.1" d="M174.011 279.57V282.038C174.042 282.367 174.159 282.683 174.349 282.953C174.54 283.224 174.797 283.44 175.097 283.581L257.471 331.136L263.253 334.47C264.092 334.904 265.024 335.123 265.968 335.109V332.689C265.018 332.712 264.079 332.485 263.244 332.032L259.567 329.907L175.097 281.123C174.796 280.982 174.538 280.764 174.347 280.491C174.157 280.219 174.041 279.901 174.011 279.57Z" fill="#101010"/>
<path d="M266.016 316.423V330.56C266.646 330.579 267.271 330.432 267.826 330.132L274.494 326.264L325.546 296.79V282.043L266.016 316.423Z" fill="#101010"/>
<path d="M176.669 266.602V277.471C176.702 278.1 176.884 278.713 177.198 279.259C177.513 279.805 177.951 280.27 178.479 280.615L257.547 326.246L264.216 330.113C264.771 330.412 265.395 330.56 266.026 330.542V317.92L176.669 266.602Z" fill="#F0F0F0"/>
<path d="M325.584 296.773C325.635 296.049 325.904 295.358 326.356 294.791C327.012 293.928 327.835 293.206 328.775 292.667C329.558 292.177 330.453 291.895 331.376 291.847C331.997 291.843 332.602 292.04 333.1 292.41V277.691L325.603 282.026L325.584 296.773Z" fill="#455A64"/>
<path d="M328.585 292.794C327.717 293.307 326.959 293.986 326.356 294.794C325.904 295.361 325.635 296.052 325.584 296.776V282.715H328.575L328.585 292.794Z" fill="#F5F5F5"/>
<path d="M238.37 226.728L329.823 279.542V280.771C329.823 281.447 330.775 281.724 331.947 281.019C333.119 280.314 334.081 279.494 334.081 278.323L334.195 277.16L240.999 223.356L240.628 223.137C240.53 223.309 240.475 223.501 240.466 223.699V224.27C240.485 224.975 239.542 226.071 238.37 226.728Z" fill="#37ED81"/>
<path opacity="0.6" d="M238.37 226.728L329.823 279.542V280.771C329.823 281.447 330.775 281.724 331.947 281.019C333.119 280.314 334.081 279.494 334.081 278.323L334.195 277.16L240.999 223.356L240.628 223.137C240.53 223.309 240.475 223.501 240.466 223.699V224.27C240.485 224.975 239.542 226.071 238.37 226.728Z" fill="#101010"/>
<path d="M268.768 314.856L328.518 280.352C329.27 279.961 329.965 279.637 330.261 279.79L329.87 279.57L238.418 226.757L237.351 226.137C236.871 226.001 236.368 225.969 235.875 226.043C235.383 226.117 234.911 226.295 234.493 226.566L175.211 260.804C173.715 261.67 173.715 263.08 175.211 263.947L263.367 314.856C264.205 315.276 265.13 315.494 266.068 315.494C267.005 315.494 267.93 315.276 268.768 314.856Z" fill="#37ED81"/>
<path opacity="0.8" d="M268.768 314.856L328.518 280.352C329.27 279.961 329.965 279.637 330.261 279.79L329.87 279.57L238.418 226.757L237.351 226.137C236.871 226.001 236.368 225.969 235.875 226.043C235.383 226.117 234.911 226.295 234.493 226.566L175.211 260.804C173.715 261.67 173.715 263.08 175.211 263.947L263.367 314.856C264.205 315.276 265.13 315.494 266.068 315.494C267.005 315.494 267.93 315.276 268.768 314.856Z" fill="#101010"/>
<path d="M240.647 223.165L241.019 223.384L334.215 277.217C334.262 277.118 334.33 277.03 334.415 276.96L334.729 276.779L335.406 276.398L336.234 275.912C336.395 275.805 336.588 275.756 336.78 275.774C336.972 275.791 337.153 275.873 337.292 276.007C337.331 276.034 337.367 276.066 337.397 276.103C337.509 276.217 337.602 276.349 337.673 276.493C337.774 276.658 337.857 276.834 337.921 277.017C337.994 277.213 338.054 277.414 338.102 277.617C338.159 277.855 338.197 278.084 338.244 278.332C338.27 278.473 338.286 278.617 338.292 278.76C338.292 278.875 338.292 278.98 338.292 279.113C338.292 279.246 338.292 279.646 338.292 279.923V277.303C338.194 276.442 337.896 275.616 337.423 274.89C336.95 274.165 336.315 273.559 335.568 273.121L247.402 222.212C246.675 221.784 245.86 221.529 245.018 221.468C244.177 221.406 243.333 221.541 242.553 221.86L241.438 222.508L240.962 222.774C240.824 222.874 240.715 223.009 240.647 223.165Z" fill="#37ED81"/>
<path opacity="0.8" d="M240.647 223.165L241.019 223.384L334.215 277.217C334.262 277.118 334.33 277.03 334.415 276.96L334.729 276.779L335.406 276.398L336.234 275.912C336.395 275.805 336.588 275.756 336.78 275.774C336.972 275.791 337.153 275.873 337.292 276.007C337.331 276.034 337.367 276.066 337.397 276.103C337.509 276.217 337.602 276.349 337.673 276.493C337.774 276.658 337.857 276.834 337.921 277.017C337.994 277.213 338.054 277.414 338.102 277.617C338.159 277.855 338.197 278.084 338.244 278.332C338.27 278.473 338.286 278.617 338.292 278.76C338.292 278.875 338.292 278.98 338.292 279.113C338.292 279.246 338.292 279.646 338.292 279.923V277.303C338.194 276.442 337.896 275.616 337.423 274.89C336.95 274.165 336.315 273.559 335.568 273.121L247.402 222.212C246.675 221.784 245.86 221.529 245.018 221.468C244.177 221.406 243.333 221.541 242.553 221.86L241.438 222.508L240.962 222.774C240.824 222.874 240.715 223.009 240.647 223.165Z" fill="#101010"/>
<path d="M268.769 314.863L272.465 312.72L314.962 288.199L328.527 280.368C329.48 279.797 330.28 279.597 330.328 279.892V280.502C330.328 281.187 331.281 281.187 332.452 280.502C332.887 280.313 333.267 280.019 333.56 279.646C333.853 279.274 334.048 278.834 334.129 278.368V277.701C334.115 277.552 334.136 277.402 334.191 277.263C334.245 277.124 334.332 277 334.443 276.901L334.758 276.72L335.434 276.339L336.263 275.853C336.424 275.746 336.616 275.697 336.808 275.714C337.001 275.732 337.181 275.814 337.32 275.948C337.36 275.974 337.395 276.006 337.425 276.043C337.496 276.118 337.557 276.201 337.606 276.291C337.646 276.332 337.679 276.381 337.701 276.434C337.803 276.599 337.886 276.775 337.949 276.958C338.022 277.154 338.082 277.354 338.13 277.558C338.187 277.796 338.225 278.025 338.273 278.272C338.299 278.414 338.315 278.557 338.321 278.701C338.321 278.815 338.321 278.92 338.321 279.054C338.321 279.187 338.321 279.587 338.321 279.863V289.047H336.225V279.863C336.225 279.644 336.225 279.425 336.225 279.216L336.168 278.692C336.172 278.676 336.172 278.66 336.168 278.644C335.977 280.311 334.386 281.797 333.005 282.578C332.238 283.062 331.358 283.338 330.452 283.379C329.753 283.387 329.075 283.14 328.547 282.683L328.356 282.788L327.994 283.007L274.494 313.901L268.769 317.273C267.944 317.695 267.028 317.908 266.102 317.892V315.473C267.027 315.492 267.944 315.283 268.769 314.863Z" fill="#37ED81"/>
<path opacity="0.6" d="M268.769 314.863L272.465 312.72L314.962 288.199L328.527 280.368C329.48 279.797 330.28 279.597 330.328 279.892V280.502C330.328 281.187 331.281 281.187 332.452 280.502C332.887 280.313 333.267 280.019 333.56 279.646C333.853 279.274 334.048 278.834 334.129 278.368V277.701C334.115 277.552 334.136 277.402 334.191 277.263C334.245 277.124 334.332 277 334.443 276.901L334.758 276.72L335.434 276.339L336.263 275.853C336.424 275.746 336.616 275.697 336.808 275.714C337.001 275.732 337.181 275.814 337.32 275.948C337.36 275.974 337.395 276.006 337.425 276.043C337.496 276.118 337.557 276.201 337.606 276.291C337.646 276.332 337.679 276.381 337.701 276.434C337.803 276.599 337.886 276.775 337.949 276.958C338.022 277.154 338.082 277.354 338.13 277.558C338.187 277.796 338.225 278.025 338.273 278.272C338.299 278.414 338.315 278.557 338.321 278.701C338.321 278.815 338.321 278.92 338.321 279.054C338.321 279.187 338.321 279.587 338.321 279.863V289.047H336.225V279.863C336.225 279.644 336.225 279.425 336.225 279.216L336.168 278.692C336.172 278.676 336.172 278.66 336.168 278.644C335.977 280.311 334.386 281.797 333.005 282.578C332.238 283.062 331.358 283.338 330.452 283.379C329.753 283.387 329.075 283.14 328.547 282.683L328.356 282.788L327.994 283.007L274.494 313.901L268.769 317.273C267.944 317.695 267.028 317.908 266.102 317.892V315.473C267.027 315.492 267.944 315.283 268.769 314.863Z" fill="#101010"/>
<path d="M174.011 262.344V264.83C174.041 265.161 174.157 265.479 174.347 265.751C174.538 266.023 174.796 266.241 175.097 266.383L257.471 313.938L263.253 317.282C264.092 317.716 265.024 317.935 265.968 317.92V315.501C265.02 315.521 264.081 315.298 263.244 314.853L259.567 312.728L175.097 263.944C174.789 263.799 174.527 263.573 174.336 263.292C174.145 263.011 174.032 262.683 174.011 262.344Z" fill="#37ED81"/>
<path opacity="0.1" d="M174.011 262.344V264.83C174.041 265.161 174.157 265.479 174.347 265.751C174.538 266.023 174.796 266.241 175.097 266.383L257.471 313.938L263.253 317.282C264.092 317.716 265.024 317.935 265.968 317.92V315.501C265.02 315.521 264.081 315.298 263.244 314.853L259.567 312.728L175.097 263.944C174.789 263.799 174.527 263.573 174.336 263.292C174.145 263.011 174.032 262.683 174.011 262.344Z" fill="#101010"/>
<path d="M234.417 226.564C234.835 226.293 235.306 226.115 235.799 226.041C236.292 225.967 236.795 225.999 237.275 226.135L238.342 226.755C239.513 226.069 240.456 224.973 240.456 224.297V223.725C240.465 223.528 240.521 223.335 240.618 223.163C240.693 223.008 240.808 222.877 240.952 222.782L241.428 222.515L242.543 221.868C243.323 221.548 244.167 221.414 245.008 221.475C245.85 221.536 246.665 221.791 247.392 222.22L335.557 273.129L335.653 273.186L273.436 309.11C272.875 309.396 272.253 309.546 271.622 309.546C270.991 309.546 270.369 309.396 269.807 309.11L181.069 257.372L234.417 226.564Z" fill="#263238"/>
<path d="M278.419 303.888L276.066 302.536C276.7 302.315 277.38 302.266 278.038 302.393C278.667 302.717 278.419 303.888 278.419 303.888Z" fill="#37ED81"/>
<path opacity="0.7" d="M278.419 303.888L276.066 302.536C276.7 302.315 277.38 302.266 278.038 302.393C278.667 302.717 278.419 303.888 278.419 303.888Z" fill="black"/>
<path d="M280.038 302.432C279.77 302.142 279.446 301.911 279.084 301.752C278.723 301.594 278.332 301.512 277.937 301.512C277.543 301.512 277.152 301.594 276.791 301.752C276.429 301.911 276.105 302.142 275.837 302.432C273.541 304.538 273.427 306.624 272.474 306.595C271.521 306.567 271.521 289.781 271.521 289.781L280.581 298.174L280.038 302.432Z" fill="#37ED81"/>
<path opacity="0.7" d="M280.038 302.432C279.77 302.142 279.446 301.911 279.084 301.752C278.723 301.594 278.332 301.512 277.937 301.512C277.543 301.512 277.152 301.594 276.791 301.752C276.429 301.911 276.105 302.142 275.837 302.432C273.541 304.538 273.427 306.624 272.474 306.595C271.521 306.567 271.521 289.781 271.521 289.781L280.581 298.174L280.038 302.432Z" fill="black"/>
<path d="M185.328 241.414L185.176 241.328L186.624 240.49L249.002 204.48L339.893 263.296C341.388 264.163 341.655 265.42 340.483 266.087L338.359 267.316L280.058 301.03L279.639 300.725L185.328 241.414Z" fill="#37ED81"/>
<path opacity="0.5" d="M185.328 241.414L185.176 241.328L186.624 240.49L249.002 204.48L339.893 263.296C341.388 264.163 341.655 265.42 340.483 266.087L338.359 267.316L280.058 301.03L279.639 300.725L185.328 241.414Z" fill="black"/>
<path d="M272.275 281.835L276.79 280.883V298.983C274.066 300.145 272.332 301.231 272.027 303.508L272.275 281.835Z" fill="#455A64"/>
<path d="M278.781 299.224L336.539 265.881C337.069 265.538 337.509 265.074 337.825 264.527C338.141 263.981 338.324 263.368 338.359 262.738V244.914L280.039 278.875C280.039 278.875 279.343 281.4 277.276 282.191C275.209 282.981 276.79 283.791 276.79 283.791V299.033C278.572 298.776 278.781 299.224 278.781 299.224Z" fill="#F0F0F0"/>
<path d="M273.456 281.217C274.056 280.874 274.532 280.855 274.532 281.217V281.779C274.532 282.408 275.485 282.379 276.666 281.693C277.847 281.007 278.8 279.959 278.8 279.331V278.759C278.8 278.435 279.61 277.711 280.601 277.14L186.633 223.297L185.175 224.135C184.974 224.35 184.847 224.624 184.813 224.916V225.488C184.813 226.117 183.861 227.174 182.689 227.85C181.517 228.527 180.555 228.565 180.555 227.936V227.365C180.555 227.041 180.079 227.069 179.488 227.412L273.456 281.217Z" fill="#37ED81"/>
<path opacity="0.6" d="M273.456 281.217C274.056 280.874 274.532 280.855 274.532 281.217V281.779C274.532 282.408 275.485 282.379 276.666 281.693C277.847 281.007 278.8 279.959 278.8 279.331V278.759C278.8 278.435 279.61 277.711 280.601 277.14L186.633 223.297L185.175 224.135C184.974 224.35 184.847 224.624 184.813 224.916V225.488C184.813 226.117 183.861 227.174 182.689 227.85C181.517 228.527 180.555 228.565 180.555 227.936V227.365C180.555 227.041 180.079 227.069 179.488 227.412L273.456 281.217Z" fill="black"/>
<path d="M185.328 224.183L185.176 224.098L186.624 223.259L249.002 187.25L339.893 239.74C341.388 240.607 341.655 241.855 340.483 242.531L338.359 243.751L280.039 278.874L185.328 224.183Z" fill="#37ED81"/>
<path opacity="0.5" d="M185.328 224.183L185.176 224.098L186.624 223.259L249.002 187.25L339.893 239.74C341.388 240.607 341.655 241.855 340.483 242.531L338.359 243.751L280.039 278.874L185.328 224.183Z" fill="black"/>
<path d="M180.536 226.785L274.484 281.028L271.198 283.6L177.602 229.567C177.83 228.872 178.265 228.264 178.85 227.824L180.536 226.785Z" fill="#37ED81"/>
<path opacity="0.5" d="M180.536 226.785L274.484 281.028L271.198 283.6L177.602 229.567C177.83 228.872 178.265 228.264 178.85 227.824L180.536 226.785Z" fill="black"/>
<path d="M177.917 253.809C177.859 253.773 177.804 253.732 177.755 253.685C177.711 253.664 177.675 253.631 177.65 253.59C177.573 253.515 177.509 253.428 177.459 253.333C177.417 253.297 177.385 253.251 177.364 253.199C177.262 253.036 177.182 252.86 177.126 252.675C177.047 252.477 176.983 252.273 176.935 252.066C176.878 251.837 176.84 251.608 176.802 251.361C176.769 251.22 176.75 251.076 176.745 250.932V250.58C176.745 250.322 176.745 250.046 176.745 249.77V234.251C176.728 232.622 177.025 231.005 177.621 229.488L271.217 283.522L271.608 307.833L178.021 253.78L177.917 253.809Z" fill="#37ED81"/>
<path opacity="0.7" d="M177.917 253.809C177.859 253.773 177.804 253.732 177.755 253.685C177.711 253.664 177.675 253.631 177.65 253.59C177.573 253.515 177.509 253.428 177.459 253.333C177.417 253.297 177.385 253.251 177.364 253.199C177.262 253.036 177.182 252.86 177.126 252.675C177.047 252.477 176.983 252.273 176.935 252.066C176.878 251.837 176.84 251.608 176.802 251.361C176.769 251.22 176.75 251.076 176.745 250.932V250.58C176.745 250.322 176.745 250.046 176.745 249.77V234.251C176.728 232.622 177.025 231.005 177.621 229.488L271.217 283.522L271.608 307.833L178.021 253.78L177.917 253.809Z" fill="black"/>
<path opacity="0.79" d="M271.151 283.56C271.151 283.56 197.436 249.065 190.729 245.902C186.3 243.816 184.128 248.198 185.176 252.732C186.128 256.695 190.005 260.782 190.005 260.782L177.955 253.818C177.897 253.783 177.842 253.741 177.793 253.695C177.75 253.673 177.713 253.64 177.688 253.599C177.611 253.524 177.547 253.438 177.497 253.342C177.455 253.306 177.423 253.26 177.402 253.209C177.3 253.045 177.22 252.869 177.164 252.685C177.085 252.487 177.021 252.283 176.973 252.075C176.916 251.847 176.878 251.618 176.84 251.37C176.807 251.23 176.788 251.086 176.783 250.942V250.589C176.783 250.332 176.783 250.056 176.783 249.779V234.251C176.766 232.622 177.063 231.005 177.659 229.488L271.151 283.56Z" fill="#263238"/>
<path d="M270.283 288.295H272.379C272.33 286.711 272.677 285.139 273.389 283.723C273.887 284.092 274.493 284.289 275.113 284.285C276.036 284.238 276.931 283.956 277.714 283.465C278.657 282.929 279.48 282.206 280.133 281.341C280.183 281.281 280.228 281.218 280.267 281.151C280.637 280.623 280.851 280.003 280.886 279.36L336.205 247.427L338.111 246.332L340.511 244.951C340.72 244.855 340.899 244.704 341.028 244.515C341.157 244.325 341.232 244.103 341.245 243.874V241.426C341.234 241.659 341.161 241.885 341.031 242.08C340.902 242.275 340.722 242.431 340.511 242.531L334.157 246.189L280.667 277.083C279.667 277.654 278.857 278.378 278.857 278.702V279.274C278.797 279.636 278.624 279.97 278.362 280.226C277.902 280.779 277.347 281.243 276.723 281.598C275.542 282.284 274.589 282.313 274.589 281.684V281.122C274.589 280.789 274.122 280.817 273.522 281.122L272.465 281.741C271.236 282.503 270.283 285.409 270.283 288.295Z" fill="#37ED81"/>
<path d="M272.379 288.294V303.812C272.379 304.031 272.379 304.25 272.379 304.46L272.427 304.984C272.422 304.999 272.422 305.016 272.427 305.031C272.617 303.364 274.208 301.878 275.59 301.097C276.36 300.612 277.243 300.336 278.152 300.297C278.851 300.288 279.529 300.535 280.057 300.992L280.238 300.887L280.61 300.668L334.1 269.774L337.177 268.002L338.054 267.488L340.645 265.992C340.815 265.886 340.956 265.739 341.056 265.564C341.156 265.39 341.211 265.193 341.216 264.992V267.44C341.209 267.63 341.157 267.815 341.064 267.981C340.971 268.147 340.841 268.288 340.683 268.393C340.378 268.574 340.054 268.746 339.73 268.946L339.13 269.298L338.101 269.889C337.873 270.032 337.663 270.155 337.463 270.26C337.263 270.365 337.149 270.451 337.015 270.517L336.225 270.984L293.728 295.505L280.162 303.336C279.21 303.907 278.419 304.107 278.362 303.812C278.358 303.777 278.358 303.742 278.362 303.707V303.164C278.362 302.478 277.409 302.478 276.237 303.164C275.803 303.353 275.422 303.647 275.13 304.019C274.837 304.392 274.641 304.831 274.561 305.298V305.965C274.575 306.114 274.554 306.263 274.499 306.402C274.444 306.541 274.358 306.666 274.246 306.765L273.932 306.946L273.265 307.327L272.436 307.813C272.276 307.92 272.083 307.969 271.891 307.951C271.699 307.934 271.518 307.852 271.379 307.718C271.336 307.696 271.299 307.663 271.274 307.622C271.197 307.551 271.133 307.467 271.084 307.375C271.047 307.334 271.015 307.29 270.988 307.241C270.886 307.078 270.806 306.902 270.75 306.717C270.67 306.523 270.606 306.322 270.56 306.117C270.503 305.879 270.464 305.65 270.426 305.403C270.393 305.262 270.373 305.119 270.369 304.974C270.369 304.86 270.369 304.755 270.369 304.622C270.369 304.488 270.369 304.088 270.369 303.812V288.294H272.379Z" fill="#37ED81"/>
<g opacity="0.6">
<path d="M270.283 288.295H272.379C272.33 286.711 272.677 285.139 273.389 283.723C273.887 284.092 274.493 284.289 275.113 284.285C276.036 284.238 276.931 283.956 277.714 283.465C278.657 282.929 279.48 282.206 280.133 281.341C280.183 281.281 280.228 281.218 280.267 281.151C280.637 280.623 280.851 280.003 280.886 279.36L336.205 247.427L338.111 246.332L340.511 244.951C340.72 244.855 340.899 244.704 341.028 244.515C341.157 244.325 341.232 244.103 341.245 243.874V241.426C341.234 241.659 341.161 241.885 341.031 242.08C340.902 242.275 340.722 242.431 340.511 242.531L334.157 246.189L280.667 277.083C279.667 277.654 278.857 278.378 278.857 278.702V279.274C278.797 279.636 278.624 279.97 278.362 280.226C277.902 280.779 277.347 281.243 276.723 281.598C275.542 282.284 274.589 282.313 274.589 281.684V281.122C274.589 280.789 274.122 280.817 273.522 281.122L272.465 281.741C271.236 282.503 270.283 285.409 270.283 288.295Z" fill="black"/>
<path d="M272.379 288.297V303.816C272.379 304.035 272.379 304.254 272.379 304.464L272.427 304.988C272.422 305.003 272.422 305.02 272.427 305.035C272.617 303.368 274.208 301.882 275.59 301.101C276.36 300.616 277.243 300.34 278.152 300.301C278.851 300.292 279.529 300.539 280.057 300.996L280.238 300.891L280.61 300.672L334.1 269.778L337.177 268.006L338.054 267.492L340.645 265.996C340.815 265.89 340.956 265.742 341.056 265.568C341.156 265.393 341.211 265.197 341.216 264.996V267.444C341.209 267.634 341.157 267.819 341.064 267.985C340.971 268.15 340.841 268.292 340.683 268.397C340.378 268.578 340.054 268.749 339.73 268.95L339.13 269.302L338.101 269.893C337.873 270.035 337.663 270.159 337.463 270.264C337.263 270.369 337.149 270.455 337.015 270.521L336.225 270.988L293.728 295.509L280.162 303.339C279.21 303.911 278.419 304.111 278.362 303.816C278.358 303.781 278.358 303.746 278.362 303.711V303.168C278.362 302.482 277.409 302.482 276.237 303.168C275.803 303.357 275.422 303.651 275.13 304.023C274.837 304.396 274.641 304.835 274.561 305.302V305.969C274.575 306.117 274.554 306.267 274.499 306.406C274.444 306.545 274.358 306.67 274.246 306.769L273.932 306.95L273.265 307.331L272.436 307.817C272.276 307.924 272.083 307.973 271.891 307.955C271.699 307.938 271.518 307.855 271.379 307.722C271.336 307.7 271.299 307.667 271.274 307.626C271.197 307.555 271.133 307.471 271.084 307.379C271.047 307.338 271.015 307.293 270.988 307.245C270.886 307.082 270.806 306.906 270.75 306.721C270.67 306.527 270.606 306.326 270.56 306.121C270.503 305.883 270.464 305.654 270.426 305.407C270.393 305.266 270.373 305.122 270.369 304.978C270.369 304.864 270.369 304.759 270.369 304.626C270.369 304.492 270.369 304.092 270.369 303.816V288.297H272.379Z" fill="black"/>
</g>
<path d="M177.555 229.515L266.511 280.881L333.748 242.061C333.968 241.987 334.159 241.847 334.294 241.659C334.429 241.471 334.502 241.245 334.502 241.013C334.502 240.781 334.429 240.556 334.294 240.368C334.159 240.179 333.968 240.039 333.748 239.965L245.725 189.133L186.662 223.256L185.204 224.104C185.007 224.317 184.884 224.587 184.852 224.876V225.447C184.852 226.076 183.899 227.133 182.727 227.81C182.668 227.849 182.604 227.881 182.537 227.905L180.575 226.771L179.622 227.305L179.489 227.371L178.803 227.772C178.219 228.212 177.784 228.821 177.555 229.515Z" fill="#263238"/>
<path d="M328.785 242.448L326.108 241.019L328.547 240.438C328.781 240.711 328.929 241.049 328.971 241.406C329.013 241.764 328.949 242.127 328.785 242.448Z" fill="#E0E0E0"/>
<g style="mix-blend-mode:multiply" opacity="0.5">
<path d="M328.785 242.448L326.108 241.019L328.547 240.438C328.781 240.711 328.929 241.049 328.971 241.406C329.013 241.764 328.949 242.127 328.785 242.448Z" fill="#E0E0E0"/>
</g>
<path d="M257.842 278.168C258.685 278.596 259.617 278.819 260.562 278.819C261.507 278.819 262.439 278.596 263.281 278.168L324.383 242.921L232.931 185.106L230.787 183.867L169.695 224.106C168.199 224.973 168.199 226.383 169.695 227.25L257.842 278.168Z" fill="#37ED81"/>
<path d="M280.782 206.5L326.946 237.784L302.092 218.732L315.886 210.768L331.928 220.056V236.622C331.928 238.032 330.357 240.023 329.785 239.699C328.728 239.955 327.7 240.319 326.717 240.785C325.115 241.696 323.628 242.797 322.288 244.062L273.332 210.787L280.782 206.5Z" fill="#37ED81"/>
<path opacity="0.2" d="M280.782 206.5L326.946 237.784L302.092 218.732L315.886 210.768L331.928 220.056V236.622C331.928 238.032 330.357 240.023 329.785 239.699C328.728 239.955 327.7 240.319 326.717 240.785C325.115 241.696 323.628 242.797 322.288 244.062L273.332 210.787L280.782 206.5Z" fill="black"/>
<path d="M260.557 257.485V276.614C261.19 276.628 261.816 276.481 262.376 276.186L269.045 272.318L320.106 242.844V223.086L260.557 257.485Z" fill="#101010"/>
<path d="M171.21 207.676V223.556C171.245 224.185 171.427 224.797 171.741 225.343C172.056 225.889 172.494 226.354 173.02 226.7L252.088 272.331L258.757 276.199C259.314 276.493 259.937 276.64 260.567 276.627V258.984L171.21 207.676Z" fill="#F0F0F0"/>
<path d="M320.135 242.846C320.182 242.123 320.447 241.432 320.897 240.864C321.548 239.997 322.372 239.273 323.317 238.74C324.103 238.25 325.001 237.968 325.927 237.921C326.527 237.86 327.13 238.001 327.641 238.321V218.754L320.144 223.088L320.135 242.846Z" fill="#455A64"/>
<path d="M323.126 238.854C322.262 239.377 321.506 240.059 320.897 240.864C320.447 241.432 320.182 242.123 320.135 242.846V223.793H323.116L323.126 238.854Z" fill="#F5F5F5"/>
<path d="M232.921 167.814L324.373 220.637V221.857C324.373 222.543 325.326 222.809 326.498 222.114C327.67 221.419 328.641 220.58 328.641 219.409L328.756 218.246L235.56 164.442L235.179 164.223C235.083 164.398 235.03 164.594 235.026 164.794V165.356C235.036 166.033 234.093 167.128 232.921 167.814Z" fill="#37ED81"/>
<path opacity="0.2" d="M232.921 167.814L324.373 220.637V221.857C324.373 222.543 325.326 222.809 326.498 222.114C327.67 221.419 328.641 220.58 328.641 219.409L328.756 218.246L235.56 164.442L235.179 164.223C235.083 164.398 235.03 164.594 235.026 164.794V165.356C235.036 166.033 234.093 167.128 232.921 167.814Z" fill="black"/>
<path d="M263.281 255.913L323.069 221.418C323.831 221.018 324.526 220.694 324.812 220.846L324.421 220.637L232.969 167.813L231.892 167.204C231.414 167.061 230.909 167.026 230.416 167.1C229.922 167.174 229.45 167.356 229.034 167.632L169.695 201.86C168.199 202.727 168.199 204.147 169.695 205.004L257.861 255.913C258.701 256.337 259.63 256.558 260.571 256.558C261.513 256.558 262.441 256.337 263.281 255.913Z" fill="#37ED81"/>
<path d="M235.188 164.224L235.57 164.443L328.784 218.248C328.832 218.149 328.9 218.061 328.985 217.991L329.299 217.819L329.966 217.429L330.795 216.943C330.956 216.838 331.148 216.79 331.34 216.807C331.532 216.824 331.712 216.906 331.852 217.038C331.891 217.065 331.927 217.097 331.957 217.133C332.067 217.252 332.163 217.383 332.243 217.524C332.341 217.689 332.421 217.865 332.481 218.048C332.556 218.247 332.619 218.451 332.671 218.657C332.719 218.886 332.766 219.115 332.805 219.362C332.834 219.507 332.853 219.653 332.862 219.801V220.144C332.862 220.401 332.862 220.677 332.862 220.963V218.343C332.766 217.48 332.47 216.652 331.997 215.924C331.524 215.196 330.887 214.589 330.137 214.151L241.971 163.243C241.244 162.815 240.428 162.561 239.587 162.502C238.746 162.442 237.902 162.579 237.122 162.9L236.008 163.548L235.541 163.824C235.388 163.921 235.265 164.06 235.188 164.224Z" fill="#37ED81"/>
<path d="M263.281 278.168L266.968 276.034L322.287 244.092C322.336 243.37 322.602 242.679 323.049 242.11C323.703 241.245 324.527 240.523 325.469 239.986C326.255 239.503 327.149 239.225 328.07 239.176C328.692 239.164 329.299 239.362 329.794 239.738C330.505 238.318 330.852 236.744 330.804 235.156H332.9C332.9 238.014 331.947 240.948 330.775 241.625L329.718 242.244C329.118 242.587 328.651 242.606 328.651 242.244V241.682C328.651 241.053 327.698 241.082 326.508 241.758C325.317 242.434 324.383 243.501 324.383 244.13V244.692C324.383 245.016 323.573 245.74 322.573 246.321L269.073 277.215L263.281 280.559C262.443 280.992 261.51 281.212 260.566 281.197V278.777C261.509 278.809 262.443 278.599 263.281 278.168Z" fill="#37ED81"/>
<path opacity="0.4" d="M263.281 278.168L266.968 276.034L322.287 244.092C322.336 243.37 322.602 242.679 323.049 242.11C323.703 241.245 324.527 240.523 325.469 239.986C326.255 239.503 327.149 239.225 328.07 239.176C328.692 239.164 329.299 239.362 329.794 239.738C330.505 238.318 330.852 236.744 330.804 235.156H332.9C332.9 238.014 331.947 240.948 330.775 241.625L329.718 242.244C329.118 242.587 328.651 242.606 328.651 242.244V241.682C328.651 241.053 327.698 241.082 326.508 241.758C325.317 242.434 324.383 243.501 324.383 244.13V244.692C324.383 245.016 323.573 245.74 322.573 246.321L269.073 277.215L263.281 280.559C262.443 280.992 261.51 281.212 260.566 281.197V278.777C261.509 278.809 262.443 278.599 263.281 278.168Z" fill="black"/>
<path d="M263.263 255.923L266.949 253.789L309.446 229.268L323.069 221.419C324.021 220.857 324.822 220.656 324.879 220.952V221.571C324.879 222.247 325.831 222.247 327.003 221.571C327.439 221.381 327.82 221.086 328.113 220.712C328.406 220.337 328.601 219.896 328.68 219.428V218.761C328.666 218.612 328.687 218.462 328.742 218.323C328.796 218.184 328.883 218.06 328.994 217.961L329.309 217.789L329.975 217.398L330.804 216.913C330.965 216.807 331.158 216.76 331.349 216.777C331.541 216.794 331.722 216.876 331.862 217.008C331.901 217.034 331.936 217.067 331.966 217.103C332.04 217.181 332.104 217.267 332.157 217.36C332.193 217.401 332.225 217.446 332.252 217.494C332.35 217.659 332.43 217.835 332.49 218.018C332.565 218.217 332.629 218.421 332.681 218.627C332.728 218.856 332.776 219.085 332.814 219.332C332.843 219.477 332.862 219.623 332.871 219.771V220.113C332.871 220.371 332.871 220.647 332.871 220.933V235.108H330.776V221.009C330.776 220.79 330.776 220.561 330.776 220.352L330.728 219.828C330.537 221.495 328.947 222.981 327.556 223.762C326.79 224.249 325.909 224.525 325.003 224.562C324.304 224.571 323.626 224.324 323.097 223.867L322.916 223.972L322.545 224.191L269.045 255.085L263.253 258.428C262.425 258.851 261.506 259.064 260.576 259.047V256.628C261.517 256.621 262.44 256.379 263.263 255.923Z" fill="#37ED81"/>
<path opacity="0.4" d="M263.263 255.923L266.949 253.789L309.446 229.268L323.069 221.419C324.021 220.857 324.822 220.656 324.879 220.952V221.571C324.879 222.247 325.831 222.247 327.003 221.571C327.439 221.381 327.82 221.086 328.113 220.712C328.406 220.337 328.601 219.896 328.68 219.428V218.761C328.666 218.612 328.687 218.462 328.742 218.323C328.796 218.184 328.883 218.06 328.994 217.961L329.309 217.789L329.975 217.398L330.804 216.913C330.965 216.807 331.158 216.76 331.349 216.777C331.541 216.794 331.722 216.876 331.862 217.008C331.901 217.034 331.936 217.067 331.966 217.103C332.04 217.181 332.104 217.267 332.157 217.36C332.193 217.401 332.225 217.446 332.252 217.494C332.35 217.659 332.43 217.835 332.49 218.018C332.565 218.217 332.629 218.421 332.681 218.627C332.728 218.856 332.776 219.085 332.814 219.332C332.843 219.477 332.862 219.623 332.871 219.771V220.113C332.871 220.371 332.871 220.647 332.871 220.933V235.108H330.776V221.009C330.776 220.79 330.776 220.561 330.776 220.352L330.728 219.828C330.537 221.495 328.947 222.981 327.556 223.762C326.79 224.249 325.909 224.525 325.003 224.562C324.304 224.571 323.626 224.324 323.097 223.867L322.916 223.972L322.545 224.191L269.045 255.085L263.253 258.428C262.425 258.851 261.506 259.064 260.576 259.047V256.628C261.517 256.621 262.44 256.379 263.263 255.923Z" fill="black"/>
<path d="M168.562 203.406V205.864C168.59 206.194 168.705 206.511 168.894 206.783C169.082 207.056 169.339 207.274 169.638 207.417L252.022 254.972L257.804 258.316C258.64 258.748 259.569 258.967 260.509 258.954V256.534C259.564 256.555 258.629 256.332 257.794 255.887L254.117 253.762L169.695 205.007C169.375 204.873 169.099 204.652 168.899 204.369C168.698 204.086 168.581 203.753 168.562 203.406Z" fill="#37ED81"/>
<path opacity="0.2" d="M168.562 203.406V205.864C168.59 206.194 168.705 206.511 168.894 206.783C169.082 207.056 169.339 207.274 169.638 207.417L252.022 254.972L257.804 258.316C258.64 258.748 259.569 258.967 260.509 258.954V256.534C259.564 256.555 258.629 256.332 257.794 255.887L254.117 253.762L169.695 205.007C169.375 204.873 169.099 204.652 168.899 204.369C168.698 204.086 168.581 203.753 168.562 203.406Z" fill="black"/>
<path d="M168.562 225.637V228.095C168.59 228.425 168.705 228.741 168.894 229.014C169.082 229.286 169.339 229.504 169.638 229.647L252.06 277.212L257.842 280.556C258.678 280.988 259.607 281.207 260.548 281.194V278.775C259.602 278.795 258.667 278.572 257.833 278.127L254.155 276.002L169.695 227.237C169.375 227.104 169.099 226.883 168.899 226.6C168.698 226.317 168.581 225.983 168.562 225.637Z" fill="#37ED81"/>
<path opacity="0.2" d="M168.562 225.637V228.095C168.59 228.425 168.705 228.741 168.894 229.014C169.082 229.286 169.339 229.504 169.638 229.647L252.06 277.212L257.842 280.556C258.678 280.988 259.607 281.207 260.548 281.194V278.775C259.602 278.795 258.667 278.572 257.833 278.127L254.155 276.002L169.695 227.237C169.375 227.104 169.099 226.883 168.899 226.6C168.698 226.317 168.581 225.983 168.562 225.637Z" fill="black"/>
<path d="M206.609 139.207L197.864 154.792L210.61 161.575L219.889 147.762L206.609 139.207Z" fill="#FFA8A7"/>
<path d="M237.637 104.104C232.779 103.276 225.425 103.056 220.642 111.259C215.86 119.461 205.553 139.704 205.553 139.704C205.553 139.704 211.573 147.497 220.29 148.916L234.532 126.32L237.637 104.104Z" fill="#37ED81"/>
<path d="M226.157 294.973H215.278V313.597H226.157V294.973Z" fill="#FFA8A7"/>
<path d="M194.663 290.44L183.784 290.812L183.241 271.102L194.111 270.73L194.663 290.44Z" fill="#FFA8A7"/>
<path d="M215.278 308.222V306.669C214.24 307.116 211.82 316.347 207.505 320.282C204.075 323.416 199.398 327.026 198.207 330.513C196.969 334.143 204.723 336.153 207.924 335.581C211.649 334.924 218.107 332.304 219.727 329.865C221.346 327.427 222.108 323.854 223.423 322.073C224.738 320.291 227.777 318.262 228.491 316.233C228.882 315.1 228.415 312.623 227.872 310.517C227.367 308.612 226.814 306.478 226.157 306.659V307.84C225.366 308.717 223.185 309.584 220.718 309.679C219.127 309.755 215.269 309.441 215.278 308.222Z" fill="#263238"/>
<path d="M183.67 287.455C183.108 287.455 182.651 288.274 181.403 289.617C179.541 291.498 177.377 293.053 175.001 294.218C170.924 296.266 163.026 299.401 159.425 301.03C157.187 302.039 157.292 304.745 159.606 306.288C161.921 307.831 167.504 308.936 174.22 307.431C177.868 306.612 182.632 303.24 185.651 303.421C188.671 303.602 194.301 303.564 196.521 302.03C198.74 300.496 197.855 297.267 197.226 294.409C196.54 291.341 195.559 286.645 194.539 286.854V287.807C193.234 289.789 186.575 290.598 183.698 289.141L183.67 287.455Z" fill="#263238"/>
<path d="M269.978 181.716C272.36 198.53 269.15 201.722 253.174 217.859C244.6 226.519 230.74 239.217 230.74 239.217C230.74 239.217 230.94 244.59 231.044 256.631C231.149 267.234 226.719 301.738 226.719 301.738C226.719 301.738 219.498 304.777 214.545 301.624C214.545 301.624 212.306 275.951 211.096 262.566C209.458 244.466 208.6 235.34 209.524 231.444C210.344 228.005 226.605 207.466 230.358 201.712L195.797 221.794C196.467 226.882 196.804 232.008 196.807 237.14C196.426 251.535 194.654 280.285 194.654 280.285C194.654 280.285 186.747 283.819 182.822 280.771C182.822 280.771 172.867 217.897 172.867 212.734C172.867 204.894 206.914 181.488 213.364 176.039C217.041 172.933 221.137 169.57 221.137 169.57L269.978 181.716Z" fill="#455A64"/>
<path d="M230.358 201.719C226.723 198.776 223.987 194.871 222.461 190.449C222.651 193.334 223.062 196.201 223.69 199.023C224.643 202.757 195.797 221.791 195.797 221.791L230.358 201.719Z" fill="#37474F"/>
<path d="M249.567 74.032C251.513 65.7285 246.359 57.4197 238.056 55.4736C229.752 53.5276 221.443 58.6813 219.497 66.9848C217.551 75.2882 222.705 83.5971 231.008 85.5431C239.312 87.4892 247.621 82.3355 249.567 74.032Z" fill="#263238"/>
<path d="M266.978 113.456C266.978 113.456 270.788 116.581 270.788 126.45V147.761L270.245 183.599C262.624 191.896 228.33 188.752 219.842 170.652C219.842 170.652 219.908 132.823 219.908 124.345C219.908 115.867 224.672 104.864 237.627 104.102L254.413 108.007L266.978 113.456Z" fill="#263238"/>
<path d="M261.224 81.4883C261.224 81.4883 258.719 93.2438 257.719 95.1776C257.051 96.3697 255.949 97.2573 254.642 97.6544L254.813 89.3856L261.224 81.4883Z" fill="#263238"/>
<path d="M258.081 64.6456C258.95 64.5478 259.831 64.6488 260.656 64.9408C261.481 65.2329 262.229 65.7085 262.844 66.3317C264.901 68.437 263.749 75.0292 261.186 81.4881L256.471 82.0311L258.081 64.6456Z" fill="#263238"/>
<path d="M255.099 82.0318C256.052 82.5939 257.395 80.7839 258.557 79.5645C259.719 78.3452 263.53 76.7066 265.425 80.6791C267.321 84.6516 263.749 90.1387 260.758 91.0818C255.594 92.7013 254.813 89.3862 254.813 89.3862L254.423 108.01C249.974 112.983 234.76 111.821 237.628 107.515V101.799C237.628 101.799 232.95 102.513 230.673 102.161C226.863 101.57 224.481 98.579 223.329 94.4637C221.481 87.8619 220.776 82.5367 222.376 69.5524C224.1 55.3201 240.647 55.1772 249.583 60.7977C258.519 66.4182 255.099 82.0318 255.099 82.0318Z" fill="#FFA8A7"/>
<path d="M241.942 85.29H241.142C239.745 85.29 238.405 84.735 237.417 83.747C236.429 82.7591 235.874 81.4191 235.874 80.022C235.874 78.6248 236.429 77.2848 237.417 76.2969C238.405 75.3089 239.745 74.7539 241.142 74.7539H241.952C243.349 74.7539 244.689 75.3089 245.677 76.2969C246.665 77.2848 247.22 78.6248 247.22 80.022C247.22 81.4191 246.665 82.7591 245.677 83.747C244.689 84.735 243.349 85.29 241.952 85.29H241.942ZM241.142 75.6399C239.98 75.6399 238.865 76.1015 238.043 76.9233C237.222 77.7451 236.76 78.8597 236.76 80.022C236.76 81.1842 237.222 82.2988 238.043 83.1206C238.865 83.9424 239.98 84.4041 241.142 84.4041H241.952C243.114 84.4041 244.229 83.9424 245.05 83.1206C245.872 82.2988 246.334 81.1842 246.334 80.022C246.334 78.8597 245.872 77.7451 245.05 76.9233C244.229 76.1015 243.114 75.6399 241.952 75.6399H241.142Z" fill="#263238"/>
<path d="M225.9 85.29H225.09C223.693 85.29 222.353 84.735 221.365 83.747C220.377 82.7591 219.822 81.4191 219.822 80.022C219.822 78.6248 220.377 77.2848 221.365 76.2969C222.353 75.3089 223.693 74.7539 225.09 74.7539H225.9C227.297 74.7539 228.637 75.3089 229.625 76.2969C230.613 77.2848 231.168 78.6248 231.168 80.022C231.168 81.4191 230.613 82.7591 229.625 83.747C228.637 84.735 227.297 85.29 225.9 85.29ZM225.09 75.6399C223.928 75.6399 222.814 76.1015 221.992 76.9233C221.17 77.7451 220.708 78.8597 220.708 80.022C220.708 81.1842 221.17 82.2988 221.992 83.1206C222.814 83.9424 223.928 84.4041 225.09 84.4041H225.9C227.062 84.4041 228.177 83.9424 228.999 83.1206C229.82 82.2988 230.282 81.1842 230.282 80.022C230.282 78.8597 229.82 77.7451 228.999 76.9233C228.177 76.1015 227.062 75.6399 225.9 75.6399H225.09Z" fill="#263238"/>
<path d="M235.931 78.985C235.61 78.5484 235.191 78.1928 234.708 77.9464C234.226 77.7 233.692 77.5696 233.15 77.5655C232.698 77.5201 232.243 77.5828 231.82 77.7484C231.398 77.9141 231.021 78.1779 230.721 78.5182L230.016 77.9847C230.401 77.5286 230.893 77.1745 231.448 76.9535C232.003 76.7325 232.604 76.6516 233.197 76.7177C233.884 76.7245 234.56 76.8948 235.168 77.2145C235.776 77.5343 236.299 77.9942 236.694 78.5563L235.931 78.985Z" fill="#263238"/>
<path d="M257.928 78.9453H246.725V79.8313H257.928V78.9453Z" fill="#263238"/>
<path d="M255.099 83.622C255.575 83.622 257.375 80.6308 258.557 79.5638C260.186 78.0777 258.08 64.6456 258.08 64.6456C258.08 64.6456 259.652 61.3019 256.508 57.8534C254.279 55.3956 250.545 55.1193 244.172 54.119C240.828 53.5951 235.76 52.652 232.416 52.0328C228.434 51.2897 225.129 50.5086 222.319 52.9854C221.215 53.9417 220.435 55.2161 220.086 56.6336C219.736 58.0511 219.834 59.5421 220.366 60.9018C221.172 62.5975 222.607 63.9128 224.367 64.5694C224.367 64.5694 226.101 66.1127 232.15 66.8462C238.199 67.5797 247.62 66.7128 248.906 66.5318C250.659 66.2937 251.031 67.9894 251.983 72.6382C252.812 76.6869 253.527 83.5934 255.099 83.622Z" fill="#263238"/>
<path d="M258.07 65.7333L263.786 62.6563C263.603 62.2721 263.344 61.929 263.025 61.6475C262.706 61.366 262.333 61.1521 261.929 61.0186C261.525 60.885 261.098 60.8347 260.674 60.8706C260.249 60.9065 259.837 61.0279 259.461 61.2274C258.697 61.6581 258.127 62.3653 257.868 63.2034C257.61 64.0415 257.682 64.9469 258.07 65.7333Z" fill="#263238"/>
<path d="M237.636 101.847C237.636 101.847 246.115 100.142 249.068 98.5699C250.811 97.6599 252.238 96.2456 253.164 94.5117C252.716 96.239 251.926 97.8586 250.84 99.2749C248.668 102.047 237.627 104.086 237.627 104.086L237.636 101.847Z" fill="#F28F8F"/>
<path d="M239.675 79.9164C239.688 80.251 239.8 80.5742 239.995 80.8459C240.191 81.1176 240.462 81.3257 240.775 81.4443C241.088 81.5629 241.429 81.5868 241.756 81.5129C242.082 81.439 242.38 81.2706 242.611 81.0287C242.843 80.7869 242.998 80.4822 243.057 80.1528C243.117 79.8233 243.078 79.4837 242.946 79.1761C242.813 78.8686 242.594 78.6068 242.314 78.4233C242.034 78.2399 241.706 78.1429 241.371 78.1446C241.143 78.1495 240.919 78.1993 240.71 78.291C240.502 78.3827 240.313 78.5146 240.156 78.6792C239.999 78.8437 239.875 79.0377 239.793 79.25C239.71 79.4623 239.67 79.6887 239.675 79.9164Z" fill="#263238"/>
<path d="M242.4 72.8842L246.039 74.8847C246.285 74.3892 246.334 73.8194 246.176 73.2893C246.019 72.7593 245.667 72.3083 245.192 72.0268C244.953 71.8949 244.691 71.8125 244.419 71.7843C244.148 71.7561 243.874 71.7829 243.614 71.8629C243.353 71.9429 243.112 72.0746 242.903 72.25C242.695 72.4255 242.524 72.6412 242.4 72.8842Z" fill="#263238"/>
<path d="M238.408 91.6406L234.531 93.0981C234.615 93.3585 234.75 93.5992 234.929 93.806C235.108 94.0127 235.326 94.1812 235.572 94.3013C235.817 94.4214 236.085 94.4907 236.358 94.5049C236.631 94.5192 236.904 94.4781 237.161 94.3842C237.683 94.1772 238.105 93.7757 238.338 93.2641C238.571 92.7525 238.596 92.1705 238.408 91.6406Z" fill="#F28F8F"/>
<path d="M224.09 74.3752L227.405 71.8316C227.251 71.6096 227.053 71.4212 226.824 71.2777C226.595 71.1342 226.339 71.0386 226.072 70.9968C225.805 70.9549 225.532 70.9676 225.27 71.0342C225.008 71.1007 224.762 71.2197 224.547 71.3839C224.101 71.728 223.805 72.2309 223.72 72.7879C223.634 73.345 223.767 73.9134 224.09 74.3752Z" fill="#263238"/>
<path d="M225.547 79.4282C225.56 79.7627 225.672 80.0859 225.867 80.3576C226.063 80.6293 226.334 80.8375 226.647 80.9561C226.96 81.0747 227.301 81.0985 227.628 81.0246C227.954 80.9507 228.252 80.7823 228.483 80.5404C228.715 80.2986 228.87 79.9939 228.929 79.6645C228.989 79.3351 228.95 78.9954 228.818 78.6879C228.685 78.3803 228.466 78.1185 228.186 77.9351C227.906 77.7516 227.578 77.6547 227.243 77.6563C227.015 77.6612 226.791 77.711 226.582 77.8027C226.374 77.8945 226.186 78.0264 226.028 78.1909C225.871 78.3555 225.747 78.5494 225.665 78.7617C225.582 78.974 225.542 79.2005 225.547 79.4282Z" fill="#263238"/>
<path d="M233.941 78.0703L233.75 88.3683L227.663 87.025L233.941 78.0703Z" fill="#F28F8F"/>
<path d="M223.538 163.682V164.635C223.538 165.122 223.409 165.6 223.165 166.022C222.92 166.443 222.57 166.793 222.147 167.035L195.693 182.277C195.271 182.521 194.793 182.649 194.307 182.649C193.82 182.649 193.342 182.521 192.921 182.277L144.384 154.261C143.962 154.018 143.611 153.668 143.367 153.247C143.122 152.825 142.994 152.347 142.993 151.86V151.184L194.302 180.801L223.538 163.682Z" fill="#37ED81"/>
<path opacity="0.6" d="M223.538 163.682V164.635C223.538 165.122 223.409 165.6 223.165 166.022C222.92 166.443 222.57 166.793 222.147 167.035L195.693 182.277C195.271 182.521 194.793 182.649 194.307 182.649C193.82 182.649 193.342 182.521 192.921 182.277L144.384 154.261C143.962 154.018 143.611 153.668 143.367 153.247C143.122 152.825 142.994 152.347 142.993 151.86V151.184L194.302 180.801L223.538 163.682Z" fill="black"/>
<path d="M143.021 151.191L171.8 134.578C172.052 134.432 172.338 134.355 172.629 134.355C172.92 134.355 173.206 134.432 173.458 134.578L223.376 163.404C223.431 163.437 223.477 163.484 223.509 163.54C223.541 163.596 223.557 163.659 223.557 163.723C223.557 163.788 223.541 163.851 223.509 163.907C223.477 163.963 223.431 164.009 223.376 164.042L194.33 180.809L143.021 151.191Z" fill="#37ED81"/>
<path opacity="0.5" d="M143.021 151.191L171.8 134.578C172.052 134.432 172.338 134.355 172.629 134.355C172.92 134.355 173.206 134.432 173.458 134.578L223.376 163.404C223.431 163.437 223.477 163.484 223.509 163.54C223.541 163.596 223.557 163.659 223.557 163.723C223.557 163.788 223.541 163.851 223.509 163.907C223.477 163.963 223.431 164.009 223.376 164.042L194.33 180.809L143.021 151.191Z" fill="black"/>
<path d="M194.569 178.371L210.087 169.416L164.704 143.219L149.1 152.126L194.569 178.371Z" fill="#263238"/>
<path d="M202.199 153.47L201.913 153.632L194.302 158.023L180.774 150.212L180.498 150.05L188.386 145.496L202.199 153.47Z" fill="#263238"/>
<path d="M201.913 153.632L194.302 158.024L180.774 150.212L188.386 145.82L201.913 153.632Z" fill="#263238"/>
<path opacity="0.7" d="M194.302 180.809V182.657C193.817 182.656 193.34 182.528 192.921 182.285L144.384 154.268C143.962 154.026 143.611 153.676 143.367 153.255C143.122 152.833 142.994 152.355 142.993 151.868V151.191L194.302 180.809Z" fill="black"/>
<path d="M193.511 181.219C193.049 181.403 192.552 181.478 192.057 181.44C191.561 181.403 191.081 181.252 190.653 181L142.336 153.107C141.916 152.866 141.555 152.535 141.278 152.138C141.001 151.741 140.816 151.288 140.735 150.811L135.448 119.26C135.418 119.083 135.402 118.905 135.4 118.726C135.395 117.85 135.737 117.007 136.353 116.383L186.566 145.381C186.885 145.556 187.16 145.8 187.373 146.095C187.586 146.39 187.73 146.728 187.795 147.086L193.511 181.219Z" fill="#37ED81"/>
<path opacity="0.5" d="M193.511 181.219C193.049 181.403 192.552 181.478 192.057 181.44C191.561 181.403 191.081 181.252 190.653 181L142.336 153.107C141.916 152.866 141.555 152.535 141.278 152.138C141.001 151.741 140.816 151.288 140.735 150.811L135.448 119.26C135.418 119.083 135.402 118.905 135.4 118.726C135.395 117.85 135.737 117.007 136.353 116.383L186.566 145.381C186.885 145.556 187.16 145.8 187.373 146.095C187.586 146.39 187.73 146.728 187.795 147.086L193.511 181.219Z" fill="black"/>
<path d="M194.302 180.81L193.978 181.001C193.831 181.085 193.678 181.159 193.52 181.22L187.805 147.087C187.745 146.734 187.608 146.398 187.403 146.103C187.199 145.809 186.933 145.562 186.623 145.382L136.41 116.384C136.61 116.187 136.834 116.018 137.077 115.879L187.395 144.925C187.705 145.105 187.971 145.351 188.175 145.646C188.379 145.941 188.516 146.276 188.576 146.63L194.302 180.81Z" fill="#E0E0E0"/>
<path d="M166.304 152.096C165.952 149.991 163.77 147.18 161.436 145.837C159.103 144.494 157.493 145.104 157.855 147.219C158.217 149.333 160.389 152.134 162.722 153.487C165.056 154.84 166.666 154.211 166.304 152.096Z" fill="#37ED81"/>
<path d="M176.201 172.636C176.101 171.269 175.835 169.92 175.411 168.616C174.668 166.282 172.458 157.289 167.409 155.937C166.808 155.756 166.171 155.737 165.56 155.88C164.16 156.261 163.522 157.718 163.246 159.023C162.988 160.952 162.988 162.906 163.246 164.834C162.469 163.947 161.56 163.185 160.55 162.577C159.654 161.902 158.574 161.517 157.454 161.472C157.298 161.464 157.142 161.495 157.001 161.561C156.86 161.628 156.737 161.728 156.644 161.853C156.463 162.186 156.644 162.605 156.93 162.9C157.435 163.51 158.054 164.025 158.559 164.634C158.954 165.166 159.32 165.719 159.654 166.292C160.292 167.321 161.007 168.292 161.721 169.274C163.094 171.312 164.816 173.093 166.808 174.532C169.1 176.083 171.7 177.12 174.429 177.571C178.116 178.028 181.698 177.971 184.022 177.161L176.201 172.636Z" fill="#FFA8A7"/>
<path d="M265.968 113.731C262.567 111.978 257.594 118.923 259.176 126.182C260.757 133.441 268.55 158.962 268.55 158.962C268.55 158.962 233.35 162.106 230.359 162.477C228.272 162.725 225.939 161.668 224.005 161.029C221.375 160.153 218.718 159.543 216.126 158.591C215.675 158.384 215.184 158.279 214.688 158.286C214.439 158.297 214.2 158.389 214.009 158.549C213.818 158.71 213.685 158.928 213.631 159.172C213.618 159.47 213.694 159.765 213.85 160.02C214.681 161.715 215.93 163.17 217.479 164.249C218.23 164.693 218.943 165.196 219.613 165.754C220.023 166.164 220.928 167.298 220.566 167.917L206.581 175.967C206.581 175.967 209.801 178.767 221.461 175.5C225.664 174.4 229.766 172.944 233.722 171.146C233.722 171.146 275.199 172.871 282.696 170.603C285.345 169.794 286.297 167.917 284.506 159.381C282.458 149.493 276.58 131.46 275.247 126.697C272.322 116.38 271.627 116.618 265.968 113.731Z" fill="#FFA8A7"/>
<path d="M264.215 112.258C264.215 112.258 269.835 113.839 272.255 117.021C274.675 120.203 284.011 150.982 284.011 150.982C281.57 153.018 278.716 154.498 275.647 155.321C272.577 156.143 269.366 156.288 266.235 155.745C266.235 155.745 258.728 134.454 257.928 128.767C256.508 119.955 260.814 113.02 264.215 112.258Z" fill="#37ED81"/>
<path d="M233.883 132.913C233.426 130.531 234.912 129.245 237.208 130.055C238.423 130.554 239.504 131.331 240.364 132.324C241.225 133.317 241.84 134.497 242.162 135.771C242.619 138.181 234.331 135.275 233.883 132.913Z" fill="#37ED81"/>
<path d="M249.593 140.333L242.838 136.037C243.181 137.866 240.714 137.608 238.494 136.837C236.275 136.065 233.56 134.503 233.207 132.674L227.32 132.598C226.777 132.598 226.767 133.303 227.32 133.884C228.778 135.513 232.169 138.399 239.295 140.886C246.42 143.372 249.154 142.6 250.183 141.838C250.517 141.552 250.212 140.724 249.593 140.333Z" fill="#37ED81"/>
</svg>
