<svg width="440" height="400" viewBox="0 0 440 400" fill="none" xmlns="http://www.w3.org/2000/svg">
<path d="M377.82 209.395C295.293 165.795 161.947 165.795 79.9587 209.395C-2.02943 252.994 -1.59095 323.698 80.9271 367.298C163.445 410.897 296.809 410.906 378.798 367.298C460.786 323.69 460.338 253.003 377.82 209.395Z" fill="#F5F5F5"/>
<path d="M207.86 366.474L84.4072 301.229L109.081 288.137L232.561 353.423L207.86 366.474Z" fill="#E6E6E6"/>
<path d="M335.132 304.107V304.098L264.243 266.644H264.252L193.363 229.189L122.474 191.734L52.0508 229.189L122.931 266.644L193.82 304.098V304.107L264.708 341.561H264.699L335.588 379.016L406.02 341.561L335.132 304.107Z" fill="#E6E6E6"/>
<path d="M388.654 337.2L384.433 334.023C384.168 327.937 383.913 321.483 385.018 315.505C386.123 309.527 388.672 303.55 393.404 299.227C395.368 297.413 397.807 295.883 400.584 295.582C403.361 295.281 406.449 296.569 407.408 298.968C408.368 301.368 406.897 304.21 405.289 306.442C401.872 311.199 397.789 315.539 394.436 320.337C390.909 325.39 388.913 331.21 388.654 337.2Z" fill="#37ED81"/>
<path d="M388.654 338.028L392.874 341.205C395.998 335.177 400.301 329.584 406.248 325.722C408.369 324.513 410.352 323.112 412.168 321.541C413.867 319.869 415.054 317.562 414.561 315.33C413.931 312.454 410.596 310.556 407.39 310.539C404.183 310.522 401.187 312.011 398.711 313.883C391.065 319.56 386.735 329.208 388.654 338.028Z" fill="#37ED81"/>
<path opacity="0.3" d="M388.654 338.028L392.874 341.205C395.998 335.177 400.301 329.584 406.248 325.722C408.369 324.513 410.352 323.112 412.168 321.541C413.867 319.869 415.054 317.562 414.561 315.33C413.931 312.454 410.596 310.556 407.39 310.539C404.183 310.522 401.187 312.011 398.711 313.883C391.065 319.56 386.735 329.208 388.654 338.028Z" fill="black"/>
<path d="M386.27 335.746C386.172 335.744 386.079 335.707 386.011 335.643C385.942 335.579 385.904 335.493 385.904 335.404C386.078 326.374 388.298 309.687 401.197 299.454C401.233 299.425 401.276 299.403 401.322 299.389C401.368 299.374 401.416 299.369 401.464 299.372C401.513 299.375 401.56 299.387 401.603 299.407C401.647 299.426 401.685 299.454 401.717 299.487C401.749 299.521 401.773 299.56 401.789 299.602C401.804 299.644 401.81 299.688 401.807 299.733C401.803 299.777 401.791 299.82 401.769 299.86C401.747 299.899 401.717 299.935 401.681 299.964C396.2 304.286 387.064 314.653 386.635 335.445C386.626 335.528 386.584 335.605 386.516 335.661C386.448 335.716 386.361 335.747 386.27 335.746Z" fill="#101010"/>
<path d="M390.701 339.899C390.652 339.895 390.606 339.882 390.563 339.861C390.521 339.84 390.483 339.812 390.452 339.778C390.422 339.743 390.399 339.704 390.385 339.662C390.371 339.619 390.367 339.575 390.372 339.531C391.23 331.413 395.104 320.227 408.642 313.062C408.727 313.019 408.827 313.008 408.921 313.032C409.015 313.055 409.095 313.111 409.144 313.187C409.169 313.226 409.185 313.268 409.191 313.312C409.197 313.356 409.194 313.401 409.181 313.443C409.168 313.486 409.146 313.526 409.117 313.561C409.087 313.596 409.05 313.625 409.007 313.647C395.743 320.662 391.943 331.63 391.093 339.564C391.095 339.611 391.086 339.657 391.066 339.7C391.046 339.743 391.017 339.782 390.98 339.813C390.943 339.845 390.898 339.869 390.85 339.884C390.802 339.898 390.751 339.904 390.701 339.899Z" fill="#101010"/>
<path d="M57.7781 190.258C56.1246 188.812 54.2336 187.232 54.124 185.142C54.1299 184.205 54.4479 183.293 55.0356 182.527C55.6233 181.76 56.4526 181.176 57.4127 180.853C58.3817 180.552 59.407 180.434 60.4272 180.504C61.4475 180.574 62.4417 180.832 63.3506 181.263C65.1603 182.136 66.7723 183.316 68.1008 184.74C72.1041 188.811 75.002 193.688 76.5591 198.975C78.1163 204.263 78.2887 209.812 77.0624 215.172C77.0253 215.535 76.9022 215.886 76.7019 216.201C76.5015 216.515 76.2287 216.786 75.9023 216.995C74.7969 217.53 73.5363 216.585 72.7872 215.674C71.1372 213.665 69.8991 211.399 69.1331 208.986C68.4662 206.954 68.7677 204.722 67.9364 202.807C65.8993 198.142 61.7154 193.703 57.7781 190.258Z" fill="#37ED81"/>
<path d="M74.9892 214.255C74.9312 214.256 74.8737 214.246 74.8199 214.227C74.7661 214.207 74.7173 214.177 74.6763 214.14C74.6354 214.102 74.6031 214.058 74.5815 214.009C74.5599 213.959 74.5494 213.907 74.5507 213.854C74.4964 207.983 73.0158 202.197 70.216 196.915C67.4163 191.632 63.3675 186.986 58.3631 183.313C58.3171 183.28 58.2787 183.24 58.25 183.193C58.2214 183.147 58.2032 183.096 58.1964 183.043C58.1896 182.99 58.1943 182.936 58.2104 182.885C58.2265 182.834 58.2536 182.786 58.2901 182.745C58.3249 182.703 58.3686 182.668 58.4185 182.642C58.4684 182.616 58.5235 182.599 58.5806 182.593C58.6377 182.586 58.6956 182.591 58.7508 182.605C58.806 182.62 58.8575 182.645 58.9021 182.678C64.014 186.425 68.1494 191.167 71.008 196.559C73.8665 201.952 75.3763 207.86 75.4276 213.854C75.4289 213.907 75.4184 213.959 75.3968 214.009C75.3752 214.058 75.343 214.102 75.302 214.14C75.261 214.177 75.2122 214.207 75.1584 214.227C75.1047 214.246 75.0471 214.256 74.9892 214.255Z" fill="#101010"/>
<path d="M69.5532 230.306C66.8126 231.142 63.2682 230.59 61.6604 228.358C59.7603 225.733 60.9478 221.67 58.4082 219.563C56.9923 218.376 54.9003 218.259 53.0185 217.891C51.1367 217.523 49.0356 216.587 48.7615 214.839C48.387 212.532 51.5021 210.617 51.0544 208.31C50.6068 206.002 47.1994 205.334 46.1854 203.227C45.2719 201.312 46.8979 198.988 49.0538 198.269C51.2097 197.55 53.6214 198.043 55.759 198.779C57.8967 199.515 59.9978 200.451 62.2724 200.727C64.5471 201.003 67.3699 200.568 69.1147 202.056C71.435 204.046 70.1104 207.842 71.9009 210.241C73.1067 211.855 75.3814 212.415 77.1171 213.585C78.1966 214.301 79.0728 215.243 79.6721 216.333C80.2713 217.422 80.5762 218.628 80.561 219.847C80.5062 222.498 78.9807 224.404 76.8065 225.925C74.4862 227.514 72.4125 229.462 69.5532 230.306Z" fill="#37ED81"/>
<path opacity="0.2" d="M69.5532 230.306C66.8126 231.142 63.2682 230.59 61.6604 228.358C59.7603 225.733 60.9478 221.67 58.4082 219.563C56.9923 218.376 54.9003 218.259 53.0185 217.891C51.1367 217.523 49.0356 216.587 48.7615 214.839C48.387 212.532 51.5021 210.617 51.0544 208.31C50.6068 206.002 47.1994 205.334 46.1854 203.227C45.2719 201.312 46.8979 198.988 49.0538 198.269C51.2097 197.55 53.6214 198.043 55.759 198.779C57.8967 199.515 59.9978 200.451 62.2724 200.727C64.5471 201.003 67.3699 200.568 69.1147 202.056C71.435 204.046 70.1104 207.842 71.9009 210.241C73.1067 211.855 75.3814 212.415 77.1171 213.585C78.1966 214.301 79.0728 215.243 79.6721 216.333C80.2713 217.422 80.5762 218.628 80.561 219.847C80.5062 222.498 78.9807 224.404 76.8065 225.925C74.4862 227.514 72.4125 229.462 69.5532 230.306Z" fill="black"/>
<path d="M68.2926 212.239V212.197C67.8723 211.646 67.443 211.102 66.9862 210.575C62.8662 205.906 57.2798 202.507 50.9814 200.836C50.9257 200.819 50.8668 200.813 50.8085 200.818C50.7501 200.823 50.6935 200.839 50.6422 200.865C50.5909 200.891 50.5458 200.926 50.5099 200.968C50.474 201.011 50.4479 201.059 50.4333 201.111C50.402 201.215 50.4161 201.325 50.4724 201.418C50.5287 201.512 50.6229 201.582 50.7348 201.613C56.85 203.239 62.2714 206.546 66.2646 211.085C66.3924 211.228 66.5021 211.378 66.6208 211.52C61.633 209.848 56.5721 210.801 53.8316 212.799C53.7863 212.833 53.7486 212.874 53.7208 212.92C53.693 212.967 53.6756 213.018 53.6697 213.071C53.6637 213.124 53.6693 213.178 53.6861 213.229C53.703 213.279 53.7307 213.327 53.7676 213.368C53.8074 213.415 53.8586 213.453 53.9172 213.48C53.9759 213.506 54.0404 213.519 54.1056 213.518C54.2085 213.517 54.3081 213.485 54.3888 213.426C57.0746 211.445 62.6105 210.567 67.644 212.791C70.7865 217.004 72.6324 221.913 72.988 227.004C72.995 227.106 73.0443 227.201 73.1258 227.271C73.2073 227.341 73.3148 227.38 73.4265 227.38C73.4842 227.377 73.5405 227.363 73.5924 227.34C73.6443 227.317 73.6906 227.284 73.7288 227.245C73.767 227.205 73.7963 227.159 73.815 227.109C73.8336 227.059 73.8413 227.006 73.8376 226.953C73.4747 221.68 71.5585 216.596 68.2926 212.239Z" fill="#101010"/>
<path d="M123.433 174.105L65.744 204.788L65.6709 230.572L123.734 261.246L181.414 230.572L181.496 204.788L123.433 174.105Z" fill="#37ED81"/>
<path opacity="0.2" d="M181.496 204.788L123.433 174.105L65.7441 204.788L123.807 235.462L181.496 204.788Z" fill="#101010"/>
<path opacity="0.3" d="M123.807 235.463L123.734 261.247L181.414 230.573L181.496 204.789L123.807 235.463Z" fill="black"/>
<path d="M192.357 177.586L134.669 208.269L134.596 266.992L192.659 297.675L250.347 266.992L250.421 208.269L192.357 177.586Z" fill="#37ED81"/>
<path opacity="0.2" d="M250.421 208.269L192.358 177.586L134.669 208.269L192.732 238.951L250.421 208.269Z" fill="#101010"/>
<path opacity="0.3" d="M192.732 238.952L192.659 297.676L250.348 266.993L250.421 208.27L192.732 238.952Z" fill="black"/>
<path d="M262.945 181.32L205.257 211.995L205.184 304.118L263.247 334.801L320.926 304.118L321.008 211.995L262.945 181.32Z" fill="#37ED81"/>
<path opacity="0.2" d="M321.009 211.995L262.945 181.32L205.257 211.995L263.32 242.677L321.009 211.995Z" fill="#101010"/>
<path opacity="0.3" d="M263.319 242.679L263.246 334.802L320.926 304.119L321.008 211.996L263.319 242.679Z" fill="black"/>
<path d="M262.981 181.078L205.293 211.752L205.22 303.993L263.283 334.675L320.962 303.993L321.045 211.752L262.981 181.078Z" fill="#37ED81"/>
<path opacity="0.2" d="M321.045 211.752L262.982 181.078L205.293 211.752L263.356 242.435L321.045 211.752Z" fill="#101010"/>
<path opacity="0.3" d="M263.356 242.437L263.283 334.677L320.963 303.994L321.045 211.754L263.356 242.437Z" fill="black"/>
<path d="M335.168 172.066L277.488 202.749L277.406 342.301L335.469 372.984L393.158 342.301L393.231 202.749L335.168 172.066Z" fill="#37ED81"/>
<path opacity="0.2" d="M393.231 202.749L335.168 172.066L277.488 202.749L335.551 233.432L393.231 202.749Z" fill="#101010"/>
<path opacity="0.3" d="M335.551 233.429L335.469 372.981L393.158 342.298L393.231 202.746L335.551 233.429Z" fill="black"/>
<path d="M229.702 208.851L225.719 206.41L195.664 262.241L199.611 264.682L217.26 255.36C216.493 281.604 208.536 294.763 200.817 302.321L199.583 302.605L198.862 302.755L197.418 303.04L196.77 303.165L195.664 303.349L194.851 303.474L193.682 303.642L192.906 303.75C192.476 303.809 191.992 303.851 191.599 303.901L190.914 303.984L189.087 304.152H188.895C188.228 304.21 187.552 304.252 186.876 304.294C186.018 304.352 185.15 304.386 184.273 304.419H183.487H181.578H180.802C179.751 304.419 178.691 304.419 177.632 304.369H177.084C176.097 304.369 175.11 304.285 174.115 304.227H173.612C172.598 304.16 171.584 304.085 170.561 303.984L169.83 303.918C168.917 303.826 168.003 303.734 167.09 303.625L166.551 303.558C165.555 303.433 164.559 303.299 163.554 303.148L162.833 303.031C162.011 302.906 161.197 302.772 160.375 302.63L159.608 302.496C158.631 302.321 157.644 302.128 156.648 301.928L156.201 301.836C155.351 301.66 154.492 301.468 153.634 301.276L152.72 301.075L150.427 300.523L149.724 300.348C148.746 300.097 147.76 299.838 146.773 299.562L146.088 299.369C145.333 299.163 144.575 298.946 143.813 298.717L142.9 298.433L140.68 297.739L139.903 297.497C138.929 297.179 137.952 296.853 136.971 296.519L136.441 296.326C135.628 296.05 134.815 295.758 134.002 295.49L133.089 295.139L130.987 294.345L130.074 293.985L127.333 292.907L127.078 292.807C126.091 292.397 125.095 291.971 124.109 291.553L123.195 291.176C122.483 290.867 121.761 290.549 121.048 290.223L120.062 289.78C119.304 289.437 118.555 289.086 117.796 288.727L117.038 288.376L114.051 286.921C113.503 286.662 112.964 286.386 112.425 286.085C112.142 285.943 111.858 285.809 111.584 285.658L109.164 284.413L109.09 284.371L84.4072 297.564V301.234C112.452 316.007 139.922 323.038 163.883 321.583C175.275 320.898 184.995 318.348 192.906 314C192.714 314.109 192.522 314.226 192.321 314.326L217.077 301.159C219.275 299.993 221.365 298.665 223.326 297.187C223.591 296.995 223.865 296.786 224.13 296.577L224.367 296.393L224.998 295.883L225.217 295.708L226.048 295.014L226.185 294.888L226.889 294.278L227.144 294.052L227.839 293.409L228.003 293.25C228.286 292.982 228.569 292.715 228.853 292.414C228.917 292.338 228.99 292.271 229.063 292.196C229.282 291.979 229.501 291.753 229.72 291.519L229.967 291.252C230.241 290.967 230.506 290.675 230.771 290.374L230.826 290.315C231.109 289.997 231.392 289.671 231.666 289.337C231.748 289.237 231.831 289.145 231.904 289.044C232.123 288.785 232.333 288.518 232.552 288.25L232.781 287.958L233.603 286.854C233.646 286.803 233.685 286.75 233.722 286.695L234.242 285.968L234.398 285.734L234.79 285.14C234.955 284.898 235.119 284.655 235.275 284.404L235.667 283.777L236.133 283.008L236.526 282.339C236.672 282.072 236.828 281.804 236.974 281.503L237.357 280.809C237.421 280.676 237.485 280.559 237.558 280.433C237.631 280.308 237.787 279.982 237.896 279.748L238.061 279.43C238.298 278.945 238.536 278.443 238.773 277.933C238.819 277.825 238.874 277.699 238.929 277.591C239.111 277.164 239.303 276.755 239.486 276.303L239.659 275.877C239.659 275.776 239.742 275.684 239.787 275.593L239.979 275.083C240.162 274.623 240.335 274.163 240.509 273.695C240.61 273.427 240.71 273.151 240.801 272.859C240.966 272.39 241.13 271.922 241.286 271.437C241.34 271.262 241.404 271.103 241.459 270.927C241.514 270.752 241.532 270.668 241.578 270.543C241.697 270.158 241.815 269.757 241.934 269.356C242.053 268.954 242.126 268.687 242.226 268.344C242.327 268.001 242.446 267.508 242.555 267.09C242.628 266.839 242.692 266.597 242.756 266.338C242.756 266.237 242.811 266.12 242.829 266.02C242.921 265.652 243.003 265.284 243.094 264.916L243.368 263.696C243.451 263.311 243.524 262.926 243.597 262.542C243.67 262.157 243.725 261.965 243.779 261.706C243.779 261.564 243.825 261.422 243.853 261.279L244.044 260.193C244.127 259.733 244.2 259.265 244.273 258.788C244.346 258.312 244.391 258.036 244.446 257.651C244.446 257.392 244.529 257.141 244.565 256.874L244.647 256.18C244.693 255.803 244.748 255.436 244.784 255.051C244.848 254.541 244.903 254.014 244.958 253.496C245.004 253.111 245.04 252.727 245.077 252.334L245.131 251.799C245.131 251.423 245.195 251.03 245.223 250.645C245.25 250.26 245.287 249.909 245.305 249.533C245.305 248.906 245.387 248.262 245.424 247.619C245.424 247.284 245.424 246.958 245.479 246.624C245.479 246.557 245.479 246.49 245.479 246.423C245.479 245.587 245.543 244.692 245.57 243.815V243.606C245.57 242.644 245.57 241.658 245.57 240.663C245.57 240.562 245.57 240.47 245.57 240.37L259.958 232.771L229.702 208.851Z" fill="#455A64"/>
<path d="M229.702 208.851L199.647 264.682L195.701 262.241L225.719 206.41L229.702 208.851ZM194.321 313.173C194.86 312.855 195.381 312.529 195.902 312.186L196.523 311.785C197.208 311.325 197.884 310.857 198.542 310.363L199.336 309.745L199.574 309.561L200.104 309.143L200.204 309.059L200.424 308.884C200.698 308.658 200.981 308.424 201.255 308.181L201.401 308.056L201.62 307.872L202.104 307.446L202.351 307.22C202.406 307.17 202.461 307.111 202.525 307.061L203.045 306.585L203.21 306.426L203.785 305.866L204.059 305.598L204.269 305.389L204.927 304.703L205.183 304.436L205.439 304.16L205.987 303.558C205.991 303.539 205.991 303.519 205.987 303.5C206.069 303.416 206.142 303.324 206.215 303.24C206.425 303.006 206.626 302.764 206.836 302.521L207.074 302.237L207.558 301.627L207.713 301.434L207.942 301.142L208.408 300.523L208.773 300.047C208.807 299.988 208.847 299.932 208.892 299.879L209.193 299.436C209.321 299.269 209.44 299.094 209.559 298.918C209.677 298.742 209.824 298.525 209.961 298.324C210.098 298.124 210.28 297.84 210.436 297.589C210.591 297.338 210.701 297.171 210.838 296.962L211.139 296.46L211.304 296.193L211.687 295.524C211.788 295.356 211.879 295.181 211.98 295.005L212.144 294.713C212.272 294.487 212.391 294.253 212.519 294.019L212.582 293.893L213.067 292.965C213.121 292.857 213.167 292.748 213.222 292.648C213.377 292.338 213.523 292.012 213.679 291.695C213.761 291.511 213.852 291.335 213.934 291.151C214.017 290.967 214.044 290.909 214.09 290.792C214.282 290.374 214.464 289.956 214.647 289.521C214.711 289.37 214.766 289.228 214.83 289.086C214.894 288.944 214.967 288.743 215.04 288.568L215.149 288.292C215.323 287.832 215.506 287.372 215.67 286.904C215.752 286.703 215.825 286.486 215.899 286.277L215.972 286.085C216.136 285.617 216.291 285.148 216.456 284.664V284.605C216.547 284.329 216.639 284.053 216.721 283.769C216.803 283.485 216.958 282.983 217.077 282.582C217.077 282.582 217.077 282.515 217.077 282.473C217.159 282.172 217.251 281.88 217.333 281.57C217.452 281.161 217.561 280.734 217.671 280.316L217.945 279.246C218.036 278.886 218.118 278.51 218.201 278.142C218.255 277.917 218.301 277.691 218.356 277.465C218.411 277.239 218.438 277.106 218.475 276.922C218.557 276.537 218.639 276.153 218.712 275.768C218.785 275.409 218.858 275.049 218.922 274.681C218.922 274.614 218.922 274.547 218.922 274.472C218.995 274.113 219.059 273.753 219.114 273.385C219.196 272.926 219.279 272.457 219.352 271.989L219.516 270.844C219.589 270.359 219.662 269.866 219.726 269.372L219.863 268.252C219.927 267.734 219.982 267.215 220.037 266.689C220.037 266.304 220.119 265.919 220.156 265.535C220.201 264.975 220.256 264.406 220.293 263.863C220.293 263.495 220.357 263.127 220.384 262.751C220.43 262.124 220.466 261.48 220.503 260.836C220.503 260.502 220.503 260.184 220.557 259.841C220.603 258.922 220.631 257.977 220.658 257.024C220.658 256.957 220.658 256.89 220.658 256.823C220.658 255.753 220.658 254.65 220.658 253.529L217.123 255.394C216.355 281.637 208.399 294.796 200.679 302.354C199.112 303.88 197.44 305.313 195.673 306.643C193.668 308.144 191.529 309.489 189.279 310.664C188.877 310.873 188.466 311.074 188.055 311.275L187.26 311.659C186.821 311.868 186.346 312.061 185.917 312.253L185.168 312.579C184.611 312.813 184.035 313.03 183.46 313.248L183.24 313.331C182.427 313.632 181.614 313.917 180.783 314.167C180.344 314.31 179.869 314.435 179.449 314.569L178.673 314.803C178.115 314.962 177.54 315.112 176.964 315.254L176.106 315.463C175.631 315.58 175.137 315.697 174.644 315.798L173.639 316.007C173.097 316.124 172.549 316.232 171.995 316.333L171.566 316.4L169.793 316.692L169.026 316.801L167.51 316.993L166.669 317.094L165.107 317.252L164.331 317.328C163.563 317.395 162.787 317.453 162.001 317.495C161.215 317.537 160.22 317.587 159.324 317.62H158.603C157.972 317.62 157.342 317.62 156.703 317.62H155.917C154.866 317.62 153.816 317.62 152.747 317.57H152.592C151.477 317.57 150.363 317.478 149.248 317.411H148.755C147.714 317.344 146.663 317.261 145.613 317.16H145.448C144.407 317.06 143.356 316.951 142.296 316.826L141.757 316.759C140.57 316.609 139.382 316.441 138.186 316.257H138.039L135.582 315.856L134.824 315.722C133.837 315.547 132.851 315.355 131.864 315.154L131.416 315.062C130.558 314.886 129.699 314.702 128.84 314.502L127.927 314.301C127.169 314.126 126.401 313.942 125.643 313.749H125.57C124.382 313.448 123.186 313.139 121.989 312.813L121.295 312.612C120.381 312.362 119.468 312.102 118.554 311.835C117.641 311.567 116.727 311.291 115.814 310.999L115.037 310.756C114.032 310.43 113.018 310.088 112.013 309.745L111.566 309.586L109.136 308.75L108.222 308.399C107.309 308.056 106.395 307.696 105.427 307.337L105.326 307.295C104.413 306.936 103.445 306.559 102.504 306.175L102.394 305.991C101.407 305.581 100.421 305.155 99.4342 304.745L98.5207 304.361C97.8082 304.054 97.0956 303.736 96.3831 303.408L95.3874 302.964C94.5561 302.588 93.7248 302.195 92.8935 301.802L92.3636 301.56C91.3679 301.083 90.3721 300.607 89.3764 300.114L87.7321 299.278L86.9191 298.868C86.0878 298.441 85.2473 298.032 84.416 297.572V301.242C112.461 316.015 139.93 323.046 163.892 321.591C175.284 320.906 185.003 318.356 192.914 314.009C193.161 313.883 193.399 313.749 193.636 313.607C193.874 313.465 194.084 313.315 194.321 313.173Z" fill="#37474F"/>
<path opacity="0.2" d="M87.7233 299.304L89.3676 300.14C90.3634 300.634 91.3591 301.11 92.3548 301.587L92.8847 301.829C93.716 302.222 94.5473 302.615 95.3786 302.991L96.3743 303.434C97.0869 303.758 97.7994 304.075 98.5119 304.388L99.4255 304.772C100.412 305.199 101.399 305.608 102.385 306.018L102.632 306.118C103.545 306.503 104.514 306.879 105.455 307.238L105.555 307.28C106.469 307.64 107.382 307.999 108.351 308.342L109.264 308.693L111.694 309.529L112.142 309.688C113.146 310.031 114.16 310.374 115.165 310.7L115.942 310.942C116.855 311.235 117.769 311.511 118.682 311.778C119.596 312.046 120.509 312.305 121.423 312.556L122.117 312.756C123.314 313.082 124.511 313.392 125.698 313.693H125.771C126.53 313.885 127.297 314.069 128.055 314.244L128.969 314.445C129.827 314.646 130.686 314.83 131.545 315.005L131.992 315.097C132.979 315.298 133.966 315.49 134.952 315.666L135.71 315.8L138.168 316.201H138.314C139.511 316.385 140.698 316.552 141.886 316.702L142.425 316.769C143.484 316.895 144.535 317.003 145.576 317.104H145.741C146.791 317.204 147.842 317.288 148.883 317.355H149.377C150.491 317.421 151.606 317.48 152.72 317.513H152.875C153.944 317.513 154.995 317.564 156.045 317.564H156.831C157.47 317.564 158.101 317.564 158.731 317.564H159.453C160.366 317.564 161.28 317.497 162.129 317.438C162.979 317.38 163.691 317.338 164.459 317.271L165.235 317.196L166.797 317.037L167.638 316.937L169.154 316.744L169.922 316.636L171.694 316.343L172.123 316.276C172.677 316.176 173.225 316.067 173.767 315.95L174.772 315.741C175.266 315.641 175.759 315.524 176.234 315.407L177.093 315.198C177.668 315.055 178.244 314.905 178.801 314.746L179.577 314.512C180.025 314.378 180.491 314.253 180.911 314.111C181.742 313.843 182.556 313.559 183.369 313.275L183.588 313.191C184.163 312.974 184.739 312.756 185.296 312.522L186.045 312.196C186.493 312.004 186.959 311.812 187.388 311.603L188.183 311.218C188.594 311.017 189.005 310.817 189.407 310.608C191.657 309.433 193.796 308.088 195.802 306.586C197.568 305.256 199.241 303.823 200.808 302.297L199.574 302.582L198.853 302.732L197.409 303.016L196.761 303.142L195.655 303.326L194.842 303.451L193.673 303.618L192.897 303.727C192.467 303.786 191.983 303.827 191.59 303.878L190.905 303.961L189.078 304.128H188.886C188.219 304.187 187.543 304.229 186.867 304.271C186.009 304.329 185.141 304.362 184.264 304.396H183.478H181.569H180.792C179.742 304.396 178.682 304.396 177.623 304.346H177.074C176.088 304.346 175.101 304.262 174.105 304.204H173.603C172.589 304.137 171.575 304.062 170.552 303.961L169.821 303.894C168.908 303.802 167.994 303.71 167.081 303.602L166.542 303.535C165.546 303.409 164.55 303.276 163.545 303.125L162.824 303.008C162.001 302.883 161.188 302.749 160.366 302.607L159.599 302.473C158.621 302.297 157.635 302.105 156.639 301.905L156.191 301.813C155.342 301.637 154.483 301.445 153.624 301.252L152.711 301.052L150.418 300.5L149.715 300.324C148.737 300.074 147.751 299.814 146.764 299.539L146.079 299.346C145.324 299.14 144.565 298.923 143.804 298.694L142.891 298.41L140.671 297.716L139.894 297.474C138.92 297.156 137.942 296.83 136.962 296.495L136.432 296.303C135.619 296.027 134.806 295.735 133.993 295.467L133.079 295.116L130.978 294.322L130.065 293.962L127.324 292.884L127.068 292.783C126.082 292.374 125.086 291.947 124.1 291.529L123.186 291.153C122.473 290.844 121.752 290.526 121.039 290.2L120.053 289.757C119.294 289.414 118.545 289.063 117.787 288.703L117.029 288.352L114.042 286.898C113.494 286.638 112.955 286.363 112.416 286.062C112.132 285.919 111.849 285.786 111.575 285.635L109.154 284.389L109.081 284.348L84.4072 297.565C85.2385 298.009 86.079 298.402 86.9103 298.861L87.7233 299.304Z" fill="#101010"/>
<path d="M66.6305 66.3758C70.6865 64.2355 74.1122 65.2889 75.2084 68.6164C76.1788 66.7888 77.684 65.2434 79.5567 64.1519C82.7358 62.4799 85.321 63.8259 85.3302 67.1617V68.7L89.6054 66.4427C91.8344 65.2722 93.6432 66.217 93.6523 68.5579C93.577 69.8331 93.1737 71.074 92.4753 72.1796C91.7768 73.2852 90.8029 74.2242 89.6328 74.9201L53.5215 94.0153C51.2925 95.1857 49.4837 94.2494 49.4746 91.9085C49.547 90.6315 49.949 89.3884 50.6477 88.281C51.3464 87.1737 52.3218 86.2336 53.4941 85.5378L57.7602 83.2805V80.4631C57.7328 75.288 61.7157 68.9842 66.6305 66.3758Z" fill="#E6E6E6"/>
<path d="M102.038 78.8835C104.952 77.3535 107.41 78.106 108.195 80.497C108.896 79.1803 109.984 78.0685 111.338 77.2867C113.612 76.0828 115.476 77.0526 115.476 79.452V80.5556L118.536 78.9337C120.135 78.0976 121.432 78.7664 121.432 80.4469C121.382 81.3631 121.095 82.2552 120.594 83.0502C120.094 83.8451 119.395 84.5202 118.555 85.02L92.6198 98.7227C91.0212 99.5588 89.724 98.8899 89.7148 97.2095C89.7707 96.2935 90.061 95.4023 90.5625 94.608C91.0639 93.8136 91.7624 93.1382 92.6016 92.6364L95.6618 91.0228V88.9912C95.7789 86.9657 96.4176 84.9942 97.5257 83.2376C98.6338 81.481 100.18 79.9891 102.038 78.8835Z" fill="#E6E6E6"/>
<path d="M396.958 74.8718C394.044 73.3335 391.587 74.0859 390.801 76.477C390.1 75.1625 389.012 74.0535 387.659 73.2749C385.384 72.071 383.521 73.0408 383.521 75.4403V76.5355L380.46 74.9219C378.862 74.0859 377.564 74.7547 377.564 76.4352C377.615 77.3513 377.902 78.2435 378.402 79.0385C378.902 79.8334 379.602 80.5085 380.442 81.0083L406.377 94.711C407.975 95.5471 409.273 94.8782 409.282 93.1978C409.226 92.2818 408.936 91.3906 408.434 90.5962C407.933 89.8019 407.234 89.1265 406.395 88.6246L403.335 87.0027V84.9795C403.215 82.9546 402.575 80.9841 401.467 79.2279C400.359 77.4718 398.815 75.9793 396.958 74.8718Z" fill="#E6E6E6"/>
<path d="M236.289 50.996C236.29 50.882 236.258 50.7698 236.195 50.6712C236.132 50.5727 236.042 50.4914 235.933 50.4358L232.772 48.8223C232.668 48.7673 232.55 48.7383 232.43 48.7383C232.309 48.7383 232.191 48.7673 232.087 48.8223L210.409 60.276C210.009 60.4749 209.689 60.7854 209.496 61.1622C209.376 61.4127 209.314 61.6831 209.313 61.9565V69.3304L201.804 76.4367C201.137 77.0721 201.064 78.0335 201.585 78.184L204.581 79.6889C204.63 79.7399 204.693 79.7783 204.764 79.8003C204.834 79.8223 204.91 79.8271 204.983 79.8143L209.34 79.3294V84.7469C209.34 84.8587 209.372 84.9686 209.433 85.0655C209.494 85.1624 209.582 85.2428 209.688 85.2987L212.839 86.8956H212.885C212.984 86.9425 213.093 86.967 213.205 86.967C213.316 86.967 213.426 86.9425 213.524 86.8956L235.202 75.4335C235.524 75.2645 235.791 75.021 235.977 74.7275C236.163 74.4339 236.261 74.1007 236.262 73.7614L236.289 50.996Z" fill="#37ED81"/>
<path opacity="0.1" d="M212.565 86.3521C212.565 86.4616 212.597 86.5693 212.656 86.6645C212.715 86.7597 212.8 86.8393 212.903 86.8955L209.751 85.2736C209.646 85.2177 209.558 85.1372 209.497 85.0404C209.436 84.9435 209.404 84.8336 209.404 84.7218V79.3043L212.574 78.9531L212.565 86.3521Z" fill="black"/>
<path opacity="0.2" d="M210.382 60.2682L232.059 48.8145C232.163 48.7594 232.282 48.7305 232.402 48.7305C232.522 48.7305 232.64 48.7594 232.744 48.8145L235.905 50.428C235.799 50.3707 235.677 50.3405 235.554 50.3405C235.43 50.3405 235.308 50.3707 235.202 50.428L213.551 61.8651C213.142 62.0759 212.821 62.4053 212.638 62.8014L209.486 61.1294C209.68 60.7643 209.993 60.4633 210.382 60.2682Z" fill="#101010"/>
<path opacity="0.1" d="M209.35 69.3244V61.9505C209.35 61.6771 209.412 61.4067 209.532 61.1562L212.684 62.8283C212.577 63.0641 212.524 63.3173 212.529 63.5724V70.9546L209.359 69.3327L209.35 69.3244Z" fill="black"/>
<path opacity="0.05" d="M201.84 76.4306L209.349 69.3242L212.519 70.9461L205.019 78.0441C204.434 78.5875 204.307 79.3818 204.617 79.7162L201.621 78.2113C201.1 78.0274 201.173 77.066 201.84 76.4306Z" fill="#101010"/>
<path d="M225.436 60.8342C225.506 60.7847 225.591 60.7578 225.678 60.7578C225.766 60.7578 225.851 60.7847 225.921 60.8342L230.168 64.5546C230.47 64.8138 230.168 65.5662 229.693 65.8254L227.346 67.0627L227.4 75.8996L223.637 77.8894L223.582 69.0525L221.234 70.2898C220.741 70.5573 220.458 70.1059 220.75 69.5374L224.952 61.3442C225.059 61.1364 225.226 60.9598 225.436 60.8342Z" fill="#101010"/>
<path opacity="0.1" d="M222.65 202.58C221.216 199.512 218.229 196.603 213.698 194.22C200.498 187.239 179.167 187.239 166.049 194.22C152.931 201.201 153.004 212.504 166.204 219.477C176.801 225.078 192.641 226.165 205.257 222.779V211.994L222.65 202.58Z" fill="black"/>
<path d="M143.293 125.162L158.686 114.16L160.184 116.635L144.563 127.846L143.293 125.162Z" fill="#263238"/>
<path d="M171.594 135.063L180.236 134.344C179.139 139.36 177.212 146.316 177.212 146.316L169.246 141.634L171.594 135.063Z" fill="#455A64"/>
<path d="M124.191 167.426C124.182 165.616 124.824 163.853 126.018 162.41C126.969 161.416 127.975 160.467 129.033 159.568C129.789 158.902 130.365 158.083 130.714 157.177C131.048 156.135 131.547 155.144 132.193 154.234C132.913 153.182 134.043 152.42 135.354 152.102C135.611 152.046 135.877 152.04 136.137 152.083C136.396 152.126 136.643 152.218 136.862 152.353L136.606 152.06C136.378 151.797 136.073 151.6 135.726 151.492C135.38 151.384 135.006 151.369 134.651 151.45C133.308 151.769 132.153 152.551 131.426 153.632C130.757 154.553 130.246 155.562 129.91 156.625C129.565 157.575 128.976 158.435 128.192 159.133C127.114 160.05 126.09 161.018 125.123 162.034C123.901 163.502 123.24 165.297 123.241 167.142C123.208 167.522 123.259 167.905 123.391 168.267C123.523 168.629 123.733 168.963 124.008 169.249C124.332 169.511 124.738 169.673 125.169 169.709C125.083 169.66 125.004 169.604 124.931 169.542C124.656 169.254 124.448 168.918 124.321 168.554C124.193 168.191 124.149 167.807 124.191 167.426Z" fill="black"/>
<path d="M137.282 152.653C137.165 152.52 137.027 152.404 136.871 152.31C136.653 152.175 136.406 152.083 136.146 152.04C135.887 151.997 135.62 152.003 135.364 152.059C134.053 152.377 132.923 153.139 132.203 154.191C131.549 155.113 131.048 156.119 130.714 157.175C130.374 158.103 129.798 158.942 129.033 159.625C127.976 160.525 126.969 161.473 126.019 162.468C124.824 163.911 124.182 165.674 124.192 167.484C124.159 167.856 124.208 168.231 124.337 168.586C124.465 168.941 124.671 169.268 124.941 169.549C125.014 169.612 125.093 169.668 125.178 169.716C125.482 169.882 125.823 169.985 126.175 170.015C126.528 170.045 126.883 170.003 127.215 169.892C127.975 169.621 128.639 169.164 129.134 168.571C129.654 168.011 130.047 167.384 130.604 166.815C131.494 165.91 132.49 165.097 133.573 164.391L136.506 162.334L137.84 153.388C137.84 153.388 137.593 152.995 137.282 152.653Z" fill="#263238"/>
<path d="M158.192 151.148L157.744 162.193C152.263 157.109 137.994 152.369 137.994 152.369C132.586 156.014 133.792 160.203 135.82 162.193C147.001 167.761 159.772 175.251 162.696 174.633C165.619 174.014 169.492 169.951 172.333 162.293L166.852 153.682L158.192 151.148Z" fill="#37474F"/>
<path d="M196.889 210.448C196.77 210.673 196.603 210.875 196.398 211.04C196.192 211.205 195.952 211.331 195.692 211.409C195.176 211.566 194.638 211.653 194.094 211.668C192.917 211.781 191.73 211.764 190.559 211.618C189.383 211.475 188.274 211.038 187.352 210.356C186.559 209.647 185.871 208.846 185.306 207.973C183.794 205.949 181.919 204.174 179.761 202.723C179.817 203.083 179.896 203.441 179.998 203.793C182.075 205.198 183.87 206.92 185.306 208.884C185.873 209.758 186.561 210.562 187.352 211.275C188.276 211.955 189.384 212.391 190.559 212.538C191.731 212.676 192.917 212.693 194.094 212.588C194.638 212.57 195.177 212.48 195.692 212.32C195.952 212.242 196.192 212.116 196.398 211.951C196.603 211.786 196.77 211.585 196.889 211.359C197.042 211.019 197.065 210.642 196.953 210.289C196.936 210.343 196.914 210.396 196.889 210.448Z" fill="#263238"/>
<path d="M196.405 208.432C195.863 207.914 195.249 207.464 194.578 207.094C191.601 205.237 189.381 202.529 188.265 199.395L179.879 199.829C179.507 200.758 179.466 201.77 179.761 202.722C181.919 204.173 183.794 205.949 185.306 207.972C185.871 208.845 186.559 209.646 187.352 210.355C188.274 211.038 189.383 211.474 190.558 211.617C191.73 211.764 192.917 211.781 194.094 211.668C194.637 211.653 195.176 211.565 195.692 211.408C195.952 211.33 196.192 211.204 196.398 211.039C196.603 210.874 196.77 210.673 196.889 210.447C196.914 210.395 196.936 210.342 196.953 210.288C197.032 209.961 197.024 209.622 196.928 209.298C196.833 208.975 196.653 208.678 196.405 208.432Z" fill="#37474F"/>
<path d="M152.41 133.559C150.583 141.668 151.286 145.263 158.192 151.115C165.099 156.968 176.463 165.328 176.463 165.328C173.722 173.58 177.815 184.44 177.97 188.629C178.125 192.817 179.249 199.898 179.249 199.898C185.552 202.992 188.932 199.898 188.932 199.898V163.522C188.935 160.331 187.672 157.248 185.379 154.844L171.594 140.456V135.089L152.41 133.559Z" fill="#455A64"/>
<path d="M201 112.164C202.194 112.527 203.469 112.611 204.708 112.406C204.708 110.216 204.708 107.766 204.9 104.581C205.348 97.7084 203.32 93.9211 201.648 92.55C199.976 91.1789 197.081 91.1538 196.012 92.0233C194.943 92.8928 197.565 96.053 197.939 98.8036C196.441 97.1984 195.683 96.655 194.285 97.6331C195.11 98.5101 195.732 99.5312 196.112 100.635C196.414 102.014 198.021 102.975 198.469 104.112C198.816 104.999 198.469 107.833 197.894 110.266C198.736 111.129 199.805 111.782 201 112.164Z" fill="#F28F8F"/>
<path opacity="0.2" d="M201 112.164C202.194 112.527 203.469 112.611 204.708 112.406C204.708 110.216 204.708 107.766 204.9 104.581C205.348 97.7084 203.32 93.9211 201.648 92.55C199.976 91.1789 197.081 91.1538 196.012 92.0233C194.943 92.8928 197.565 96.053 197.939 98.8036C196.441 97.1984 195.683 96.655 194.285 97.6331C195.11 98.5101 195.732 99.5312 196.112 100.635C196.414 102.014 198.021 102.975 198.469 104.112C198.816 104.999 198.469 107.833 197.894 110.266C198.736 111.129 199.805 111.782 201 112.164Z" fill="black"/>
<path d="M201 112.164C199.796 111.786 198.717 111.133 197.866 110.266C197.702 110.994 197.519 111.687 197.337 112.273C197.337 112.273 191.536 104.991 190.229 103.611C188.923 102.232 187.726 98.9462 182.008 98.3359L182.693 111.178C182.693 111.178 194.212 123.175 198.159 125.198C202.105 127.221 203.421 124.596 204.225 119.739C204.584 117.309 204.737 114.858 204.681 112.406C203.451 112.607 202.186 112.524 201 112.164Z" fill="#455A64"/>
<path opacity="0.3" d="M196.487 120.048C195.573 117.063 196.935 113.359 197.401 112.272L196.414 111.035C195.692 112.448 195.324 113.99 195.336 115.549C195.349 117.108 195.742 118.645 196.487 120.048Z" fill="black"/>
<path d="M165.025 98.059C161.718 97.6493 158.192 98.1593 154.584 98.7111C153.919 105.891 153.919 113.109 154.584 120.289L151.725 134.31C162.915 140.496 177.184 137.746 180.044 135.982C184.547 119.905 185.671 104.714 182.035 98.3599L173.137 96.9805L165.025 98.059Z" fill="#37474F"/>
<path d="M172.16 104.312L169.547 102.414C170.369 102.048 171.225 101.749 172.105 101.52L173.137 101.988L172.16 104.312Z" fill="#37ED81"/>
<path d="M174.964 104.111L175.54 103.785L176.508 101.862L175.385 101.52L174.718 101.988L174.964 104.111Z" fill="#37ED81"/>
<path d="M172.863 105.633C170.89 112.807 161.7 117.48 154.127 116.978C153.053 116.887 151.977 117.141 151.085 117.697C149.972 118.432 148.983 119.314 148.153 120.314C148.044 120.448 147.97 120.603 147.936 120.766C147.902 120.93 147.909 121.099 147.957 121.26C148.004 121.421 148.091 121.569 148.21 121.695C148.33 121.821 148.479 121.921 148.646 121.986C150.322 122.602 152.052 123.088 153.816 123.441C155.659 123.832 157.58 123.786 159.398 123.307C173.165 119.662 175.074 111.603 174.699 105.625L172.863 105.633Z" fill="#37ED81"/>
<path opacity="0.3" d="M174.718 105.954C174.718 105.846 174.718 105.737 174.718 105.637H172.891C172.891 105.637 172.891 105.704 172.891 105.737C173.151 105.935 173.468 106.06 173.804 106.097C174.117 106.122 174.432 106.073 174.718 105.954Z" fill="black"/>
<path d="M173.137 101.998C173.661 101.923 174.194 101.923 174.718 101.998C175.165 102.518 175.449 103.139 175.54 103.795C175.405 104.458 175.118 105.088 174.699 105.643C174.224 105.969 172.872 105.643 172.872 105.643C172.524 105.221 172.218 104.77 171.959 104.297C171.88 104.15 171.839 103.988 171.839 103.825C171.839 103.661 171.88 103.499 171.959 103.352C172.239 102.828 172.642 102.365 173.137 101.998Z" fill="#37ED81"/>
<path opacity="0.3" d="M178.116 138.48C176.711 140.044 174.74 141.094 172.562 141.44L177.211 146.306C176.723 144.764 175.937 143.314 174.891 142.025C176.363 141.201 177.497 139.955 178.116 138.48Z" fill="black"/>
<path d="M173.85 101.771C175.969 101.252 177.321 103.443 177.321 103.443C177.449 98.6859 174.754 96.8633 174.754 96.8633L173.85 101.771Z" fill="#455A64"/>
<path d="M164.824 78.2685C163.911 77.6916 162.933 77.1231 161.983 76.5546C162.221 76.2911 162.52 76.0793 162.858 75.9347C163.196 75.7901 163.565 75.7162 163.938 75.7185C164.364 75.749 164.76 75.9287 165.044 76.2202C165.32 76.5206 165.461 76.9064 165.436 77.2987C165.528 75.7436 166.989 74.3474 168.515 73.6702C170.087 73.0575 171.806 72.8299 173.503 73.0098C175.193 73.1101 176.874 73.4111 178.564 73.4612C180.524 73.529 182.482 73.277 184.346 72.7172C184.552 72.6539 184.773 72.6431 184.985 72.6858C185.197 72.7286 185.392 72.8233 185.55 72.9599C185.708 73.0965 185.822 73.2698 185.88 73.4612C185.938 73.6526 185.939 73.8549 185.881 74.0465C185.555 75.0336 185.007 75.9476 184.273 76.7301C184.665 76.8323 185.073 76.8719 185.479 76.8472C185.699 76.8336 185.919 76.8758 186.114 76.9692C186.309 77.0626 186.473 77.2035 186.586 77.3764C186.699 77.5494 186.758 77.7476 186.756 77.9492C186.755 78.1509 186.692 78.3481 186.575 78.5193C185.829 79.5194 184.778 80.2959 183.552 80.7515C179.048 87.2559 166.907 93.0664 166.907 93.0664C166.496 93.0166 166.105 92.8766 165.766 92.6582C165.427 92.4398 165.151 92.1496 164.961 91.8123C164.6 91.1286 164.368 90.3935 164.276 89.6386C163.753 86.7905 163.323 83.9285 162.988 81.0525C162.869 80.4468 162.897 79.8245 163.07 79.2299C163.166 78.9445 163.356 78.6936 163.615 78.5121C163.874 78.3307 164.188 78.228 164.514 78.2183" fill="#263238"/>
<path d="M166.003 88.3372C165.674 91.0208 165.025 95.6525 165.025 95.6525C167.583 98.8127 172.535 99.5067 173.85 101.772C174.699 99.2555 175.254 96.6631 175.503 94.039L167.053 87.9609L166.003 88.3372Z" fill="#F28F8F"/>
<path opacity="0.2" d="M166.003 88.3372C165.674 91.0208 165.025 95.6525 165.025 95.6525C167.583 98.8127 172.535 99.5067 173.85 101.772C174.699 99.2555 175.254 96.6631 175.503 94.039L167.053 87.9609L166.003 88.3372Z" fill="black"/>
<path opacity="0.3" d="M167.053 87.9609L166.834 88.0362C166.728 90.1976 167.515 92.3163 169.038 93.9707C170.562 95.6252 172.71 96.6942 175.055 96.9651C175.393 95.1509 175.466 94.039 175.466 94.039L167.053 87.9609Z" fill="black"/>
<path d="M183.551 80.7716C184.188 85.2408 183.646 89.7845 181.971 94.0228C181.756 94.5483 181.37 95.0008 180.865 95.3192C180.36 95.6376 179.761 95.8067 179.148 95.8036C172.753 95.8036 167.674 93.7971 166.788 88.5802C166.466 88.9559 166.019 89.2258 165.515 89.3494C165.011 89.473 164.477 89.4436 163.993 89.2658C163.085 88.8825 162.356 88.2155 161.937 87.3847C161.667 86.9537 161.487 86.4801 161.407 85.9885C161.329 85.491 161.463 84.985 161.782 84.5756C162.079 84.2725 162.472 84.0626 162.907 83.9756C163.341 83.8885 163.795 83.9288 164.203 84.0907C165.032 84.4318 165.686 85.0514 166.03 85.8213C166.167 86.1055 166.35 86.4483 166.688 86.4567C167.026 86.465 167.236 86.1055 167.345 85.8046C167.75 84.5779 167.926 83.2975 167.866 82.0173C168.879 82.1937 169.927 82.0115 170.798 81.5073C171.643 80.9765 172.232 80.168 172.443 79.25C172.714 79.7212 173.104 80.1263 173.581 80.4317C174.057 80.7371 174.607 80.9339 175.183 81.0057C175.745 81.0757 176.316 81.022 176.85 80.8489C177.384 80.6759 177.865 80.3885 178.253 80.0108C178.912 80.6265 179.77 81.0311 180.701 81.1645C181.673 81.2877 182.662 81.1512 183.551 80.7716Z" fill="#F28F8F"/>
<path opacity="0.2" d="M183.551 80.7716C184.188 85.2408 183.646 89.7845 181.971 94.0228C181.756 94.5483 181.37 95.0008 180.865 95.3192C180.36 95.6376 179.761 95.8067 179.148 95.8036C172.753 95.8036 167.674 93.7971 166.788 88.5802C166.466 88.9559 166.019 89.2258 165.515 89.3494C165.011 89.473 164.477 89.4436 163.993 89.2658C163.085 88.8825 162.356 88.2155 161.937 87.3847C161.667 86.9537 161.487 86.4801 161.407 85.9885C161.329 85.491 161.463 84.985 161.782 84.5756C162.079 84.2725 162.472 84.0626 162.907 83.9756C163.341 83.8885 163.795 83.9288 164.203 84.0907C165.032 84.4318 165.686 85.0514 166.03 85.8213C166.167 86.1055 166.35 86.4483 166.688 86.4567C167.026 86.465 167.236 86.1055 167.345 85.8046C167.75 84.5779 167.926 83.2975 167.866 82.0173C168.879 82.1937 169.927 82.0115 170.798 81.5073C171.643 80.9765 172.232 80.168 172.443 79.25C172.714 79.7212 173.104 80.1263 173.581 80.4317C174.057 80.7371 174.607 80.9339 175.183 81.0057C175.745 81.0757 176.316 81.022 176.85 80.8489C177.384 80.6759 177.865 80.3885 178.253 80.0108C178.912 80.6265 179.77 81.0311 180.701 81.1645C181.673 81.2877 182.662 81.1512 183.551 80.7716Z" fill="black"/>
<path d="M177.714 85.8359L180.646 89.2219L177.869 90.0663L177.714 85.8359Z" fill="#F28F8F"/>
<path opacity="0.3" d="M177.714 85.8359L180.646 89.2219L177.869 90.0663L177.714 85.8359Z" fill="black"/>
<path d="M175.311 91.6719L177.622 92.3658C177.47 92.6144 177.233 92.8108 176.948 92.9254C176.663 93.0401 176.345 93.0666 176.042 93.0012C175.773 92.889 175.554 92.6961 175.421 92.4543C175.288 92.2126 175.249 91.9365 175.311 91.6719Z" fill="#F28F8F"/>
<path opacity="0.3" d="M175.311 91.6719L177.622 92.3658C177.47 92.6144 177.233 92.8108 176.948 92.9254C176.663 93.0401 176.345 93.0666 176.042 93.0012C175.773 92.889 175.554 92.6961 175.421 92.4543C175.288 92.2126 175.249 91.9365 175.311 91.6719Z" fill="black"/>
<path d="M176.801 92.9677C176.553 93.0343 176.29 93.0343 176.042 92.9677C175.829 92.8877 175.647 92.7525 175.517 92.5787C175.387 92.4049 175.316 92.2 175.312 91.9895C175.628 91.948 175.95 92.007 176.225 92.1567C176.374 92.2506 176.502 92.3706 176.601 92.5098C176.7 92.6489 176.768 92.8045 176.801 92.9677Z" fill="#F28F8F"/>
<path d="M173.649 86.4972C173.652 86.5963 173.676 86.6941 173.72 86.7847C173.764 86.8752 173.827 86.9568 173.907 87.0246C173.986 87.0923 174.079 87.1449 174.181 87.1793C174.282 87.2136 174.391 87.229 174.499 87.2245C174.664 87.2211 174.824 87.1727 174.959 87.0855C175.094 86.9984 175.198 86.8764 175.256 86.7352C175.315 86.594 175.327 86.4399 175.29 86.2926C175.253 86.1454 175.168 86.0116 175.048 85.9083C174.927 85.8051 174.776 85.737 174.613 85.7129C174.45 85.6888 174.282 85.7096 174.132 85.7728C173.982 85.8359 173.856 85.9386 173.77 86.0676C173.684 86.1966 173.642 86.3462 173.649 86.4972Z" fill="#263238"/>
<path d="M180.527 86.0399C180.539 86.2395 180.635 86.427 180.795 86.5628C180.956 86.6986 181.168 86.7719 181.386 86.7672C181.551 86.7621 181.71 86.7124 181.843 86.6242C181.977 86.5361 182.079 86.4136 182.137 86.2723C182.194 86.131 182.205 85.9773 182.166 85.8306C182.128 85.6839 182.043 85.551 181.922 85.4485C181.801 85.3461 181.65 85.2789 181.487 85.2554C181.325 85.2319 181.158 85.2532 181.008 85.3165C180.859 85.3799 180.733 85.4825 180.648 85.6113C180.562 85.7401 180.52 85.8893 180.527 86.0399Z" fill="#263238"/>
<path d="M181.222 82.9994L183.094 84.103C183.167 83.8925 183.168 83.6665 183.096 83.4557C183.024 83.2449 182.883 83.0594 182.692 82.9242C182.464 82.8111 182.205 82.7583 181.945 82.7715C181.686 82.7848 181.435 82.8637 181.222 82.9994Z" fill="#263238"/>
<path d="M174.152 83.1382L172.325 84.3505C172.238 84.1452 172.223 83.9206 172.28 83.7069C172.337 83.4932 172.464 83.3006 172.644 83.155C172.867 83.0186 173.128 82.9445 173.395 82.9415C173.663 82.9385 173.926 83.0069 174.152 83.1382Z" fill="#263238"/>
<path d="M165.025 95.6502L165.19 94.463C165.08 94.4498 164.97 94.4498 164.861 94.463C163.947 94.9061 162.275 97.3222 162.275 97.3222C162.869 98.6097 165.728 102.614 167.976 104.011C170.579 102.815 172.461 101.143 173.85 101.753C173.311 98.986 165.025 95.6502 165.025 95.6502Z" fill="#455A64"/>
<path d="M159.946 139.685C166.204 131.659 179.971 113.074 179.13 97.8828L181.971 98.3176C183.15 113.274 170.196 132.779 161.18 142.895L159.946 139.685Z" fill="#263238"/>
<path d="M158.009 146.055L138.935 131.324L135.564 142.193C135.545 142.262 135.544 142.335 135.561 142.404C135.579 142.474 135.614 142.539 135.664 142.594L135.728 142.644L154.565 158.061C154.502 158.003 154.456 157.93 154.434 157.851C154.411 157.772 154.413 157.688 154.437 157.609L158.009 146.055Z" fill="#37ED81"/>
<path opacity="0.15" d="M158.009 146.055L138.935 131.324L135.564 142.193C135.545 142.262 135.544 142.335 135.561 142.404C135.579 142.474 135.614 142.539 135.664 142.594L135.728 142.644L154.565 158.061C154.502 158.003 154.456 157.93 154.434 157.851C154.411 157.772 154.413 157.688 154.437 157.609L158.009 146.055Z" fill="black"/>
<path d="M157.188 148.717L160.184 139.035L157.188 148.717Z" fill="#37ED81"/>
<path d="M162.239 138.02L162.229 138.012L162.239 138.028V138.02Z" fill="#37ED81"/>
<path d="M154.556 158.122H154.565L154.547 158.113L154.556 158.122Z" fill="#37ED81"/>
<path d="M162.431 138.541C162.444 138.448 162.434 138.354 162.4 138.265C162.367 138.177 162.312 138.097 162.24 138.031C162.164 137.966 162.072 137.917 161.972 137.89C161.872 137.862 161.767 137.856 161.664 137.872C161.323 137.925 161.006 138.066 160.749 138.277C160.491 138.489 160.305 138.763 160.212 139.068L157.206 148.715L154.466 157.661C154.441 157.74 154.44 157.823 154.462 157.903C154.485 157.982 154.53 158.055 154.593 158.113C154.656 158.169 154.734 158.209 154.819 158.228C154.904 158.247 154.994 158.245 155.078 158.221L158.814 157.184C159.094 157.109 159.344 156.96 159.534 156.757C159.724 156.554 159.845 156.304 159.883 156.039L162.431 138.541Z" fill="#37ED81"/>
<path opacity="0.3" d="M162.431 138.541C162.444 138.448 162.434 138.354 162.4 138.265C162.367 138.177 162.312 138.097 162.24 138.031C162.164 137.966 162.072 137.917 161.972 137.89C161.872 137.862 161.767 137.856 161.664 137.872C161.323 137.925 161.006 138.066 160.749 138.277C160.491 138.489 160.305 138.763 160.212 139.068L157.206 148.715L154.466 157.661C154.441 157.74 154.44 157.823 154.462 157.903C154.485 157.982 154.53 158.055 154.593 158.113C154.656 158.169 154.734 158.209 154.819 158.228C154.904 158.247 154.994 158.245 155.078 158.221L158.814 157.184C159.094 157.109 159.344 156.96 159.534 156.757C159.724 156.554 159.845 156.304 159.883 156.039L162.431 138.541Z" fill="black"/>
<path d="M151.304 139.777L147.924 150.863L148.454 151.331L151.724 140.329L151.304 139.777Z" fill="#37ED81"/>
<path d="M144.134 133.91L140.763 145.004L141.293 145.473L144.563 134.47L144.134 133.91Z" fill="#37ED81"/>
<path d="M143.338 122.572C143.264 122.511 143.175 122.465 143.078 122.439C142.982 122.413 142.88 122.407 142.781 122.422C142.44 122.475 142.123 122.615 141.866 122.827C141.609 123.039 141.422 123.313 141.329 123.617L138.743 131.978C138.594 132.472 138.6 132.995 138.762 133.486C138.924 133.977 139.234 134.417 139.657 134.753L141.648 136.333L155.205 147.143C155.416 147.312 155.671 147.43 155.946 147.484C156.22 147.539 156.505 147.529 156.774 147.456C157.043 147.382 157.287 147.248 157.484 147.064C157.681 146.881 157.824 146.655 157.9 146.408L160.184 139.051C160.277 138.746 160.464 138.472 160.721 138.26C160.978 138.049 161.295 137.908 161.636 137.855C161.739 137.839 161.844 137.845 161.944 137.873C162.044 137.9 162.136 137.949 162.212 138.014L143.338 122.572Z" fill="#37ED81"/>
<path opacity="0.2" d="M143.338 122.572C143.264 122.511 143.175 122.465 143.078 122.439C142.982 122.413 142.88 122.407 142.781 122.422C142.44 122.475 142.123 122.615 141.866 122.827C141.609 123.039 141.422 123.313 141.329 123.617L138.743 131.978C138.594 132.472 138.6 132.995 138.762 133.486C138.924 133.977 139.234 134.417 139.657 134.753L141.648 136.333L155.205 147.143C155.416 147.312 155.671 147.43 155.946 147.484C156.22 147.539 156.505 147.529 156.774 147.456C157.043 147.382 157.287 147.248 157.484 147.064C157.681 146.881 157.824 146.655 157.9 146.408L160.184 139.051C160.277 138.746 160.464 138.472 160.721 138.26C160.978 138.049 161.295 137.908 161.636 137.855C161.739 137.839 161.844 137.845 161.944 137.873C162.044 137.9 162.136 137.949 162.212 138.014L143.338 122.572Z" fill="#101010"/>
<path d="M131.627 123.384L132.239 131.836C133.545 140.264 135.244 141.593 139.456 142.705C143.667 143.817 141.201 139.001 140.653 138.107C140.249 137.309 139.964 136.465 139.803 135.598C141.877 137.321 142.406 137.137 143.229 136.61C143.557 136.376 142.005 135.139 142.005 135.139C141.182 133.52 140.111 132.017 138.825 130.674L139.31 123.367L131.627 123.384Z" fill="#F28F8F"/>
<path opacity="0.2" d="M131.627 123.384L132.239 131.836C133.545 140.264 135.244 141.593 139.456 142.705C143.667 143.817 141.201 139.001 140.653 138.107C140.249 137.309 139.964 136.465 139.803 135.598C141.877 137.321 142.406 137.137 143.229 136.61C143.557 136.376 142.005 135.139 142.005 135.139C141.182 133.52 140.111 132.017 138.825 130.674L139.31 123.367L131.627 123.384Z" fill="black"/>
<path d="M159.033 98.1074C153.104 97.1961 149.203 99.93 146.499 101.518C144.544 102.672 137.364 107.622 133.545 110.272C132.79 110.797 132.181 111.478 131.768 112.26C131.355 113.042 131.15 113.902 131.17 114.77L131.38 123.707C132.642 124.315 134.056 124.607 135.481 124.555C136.905 124.502 138.289 124.106 139.492 123.406L140.187 116.851C140.187 116.851 148.518 113.139 154.118 110.807C159.718 108.474 160.394 101.928 159.033 98.1074Z" fill="#455A64"/>
<path opacity="0.1" d="M134.806 209.394C133.275 208.923 131.67 208.686 130.056 208.691C124.958 208.691 120.829 210.857 120.829 213.524C120.829 216.191 124.958 218.364 130.056 218.364C131.671 218.372 133.277 218.131 134.806 217.654V209.394Z" fill="black"/>
<path opacity="0.1" d="M358.372 189.208C371.572 196.188 371.636 207.492 358.527 214.473C345.418 221.454 324.078 221.445 310.878 214.473C297.678 207.5 297.604 196.188 310.723 189.208C323.841 182.227 345.171 182.26 358.372 189.208Z" fill="black"/>
<path d="M352.443 193.292L353.749 191.243L352.05 190.257C351.751 190.123 351.418 190.066 351.086 190.092C350.755 190.119 350.437 190.228 350.168 190.407C349.408 190.856 348.776 191.464 348.323 192.181C347.87 192.897 347.61 193.702 347.565 194.529C347.528 194.831 347.584 195.136 347.728 195.41C347.872 195.683 348.097 195.914 348.378 196.076L350.04 197.046L351.42 194.889C351.853 194.411 352.199 193.871 352.443 193.292Z" fill="#37474F"/>
<path d="M351.867 191.386C353.301 190.625 354.48 191.235 354.48 192.757C354.433 193.583 354.172 194.388 353.72 195.104C353.267 195.821 352.635 196.429 351.876 196.879C350.442 197.639 349.264 197.029 349.264 195.516C349.311 194.688 349.571 193.883 350.024 193.165C350.476 192.447 351.108 191.837 351.867 191.386Z" fill="#455A64"/>
<path d="M323.932 192.71L322.625 190.661L324.325 189.675C324.624 189.541 324.957 189.484 325.288 189.51C325.62 189.537 325.938 189.646 326.206 189.825C326.966 190.275 327.597 190.883 328.05 191.6C328.503 192.316 328.763 193.121 328.81 193.947C328.847 194.249 328.791 194.554 328.647 194.828C328.503 195.101 328.278 195.332 327.997 195.494L326.334 196.472L324.955 194.315C324.521 193.834 324.175 193.292 323.932 192.71Z" fill="#37474F"/>
<path d="M324.517 190.809C323.073 190.049 321.895 190.651 321.895 192.172C321.942 192.999 322.202 193.803 322.655 194.52C323.108 195.236 323.739 195.844 324.499 196.294C325.933 197.055 327.111 196.444 327.111 194.931C327.065 194.105 326.806 193.301 326.355 192.585C325.904 191.868 325.274 191.26 324.517 190.809Z" fill="#455A64"/>
<path d="M333.287 187.633H338.128V195.266C338.109 195.462 338.033 195.65 337.908 195.81C337.782 195.971 337.613 196.097 337.416 196.177C336.885 196.425 336.298 196.554 335.703 196.554C335.107 196.554 334.521 196.425 333.99 196.177C333.794 196.097 333.626 195.97 333.502 195.81C333.378 195.649 333.304 195.462 333.287 195.266V187.633Z" fill="#EBEBEB"/>
<path d="M350.817 189.773V191.588L338.128 194.522V190.668L350.817 189.773Z" fill="#E0E0E0"/>
<path d="M350.817 189.772L349.931 189.496L338.128 190.065V190.667L350.817 189.772Z" fill="#F5F5F5"/>
<path d="M352.096 206.278L350.78 204.23L352.479 203.243C352.779 203.106 353.113 203.047 353.447 203.072C353.78 203.097 354.1 203.205 354.37 203.385C355.129 203.838 355.76 204.448 356.212 205.165C356.664 205.883 356.925 206.688 356.974 207.515C357.004 207.816 356.944 208.119 356.801 208.391C356.658 208.664 356.437 208.896 356.161 209.062L354.526 210.04L353.146 207.883C352.702 207.405 352.347 206.862 352.096 206.278Z" fill="#37474F"/>
<path d="M352.699 204.37C351.256 203.61 350.086 204.22 350.077 205.733C350.13 206.559 350.395 207.362 350.85 208.077C351.306 208.792 351.939 209.398 352.699 209.846C354.142 210.607 355.312 209.997 355.321 208.475C355.267 207.651 355.001 206.849 354.546 206.136C354.09 205.423 353.458 204.818 352.699 204.37Z" fill="#455A64"/>
<path d="M335.196 211.516L336.502 209.468L334.803 208.481C334.504 208.344 334.169 208.285 333.836 208.31C333.502 208.335 333.183 208.444 332.912 208.624C332.156 209.076 331.526 209.684 331.073 210.4C330.621 211.116 330.359 211.92 330.309 212.745C330.277 213.048 330.336 213.352 330.479 213.626C330.622 213.9 330.845 214.133 331.122 214.3L332.793 215.27L334.173 213.113C334.603 212.633 334.948 212.094 335.196 211.516Z" fill="#37474F"/>
<path d="M334.611 209.577C336.055 208.817 337.224 209.427 337.233 210.94C337.184 211.766 336.923 212.57 336.47 213.286C336.018 214.002 335.387 214.611 334.63 215.062C333.186 215.823 332.017 215.212 332.008 213.699C332.057 212.873 332.318 212.069 332.771 211.353C333.223 210.637 333.854 210.029 334.611 209.577Z" fill="#455A64"/>
<path d="M316.871 203.436L318.177 201.387L316.478 200.401C316.18 200.266 315.847 200.207 315.515 200.232C315.184 200.257 314.866 200.365 314.596 200.543C313.837 200.993 313.205 201.601 312.753 202.317C312.3 203.034 312.04 203.838 311.993 204.665C311.961 204.967 312.02 205.272 312.163 205.546C312.307 205.819 312.529 206.053 312.806 206.22L314.468 207.19L315.848 205.033C316.281 204.555 316.627 204.015 316.871 203.436Z" fill="#37474F"/>
<path d="M316.295 201.534C317.729 200.774 318.908 201.384 318.908 202.897C318.86 203.723 318.601 204.526 318.15 205.242C317.699 205.959 317.07 206.567 316.313 207.019C314.87 207.78 313.691 207.169 313.691 205.656C313.738 204.83 313.999 204.025 314.451 203.309C314.904 202.592 315.536 201.984 316.295 201.534Z" fill="#455A64"/>
<path d="M353.868 201.839V204.79L336.876 196.388V192.316L353.868 201.839Z" fill="#E0E0E0"/>
<path d="M354.854 201.336L337.854 192.09L336.876 192.316L353.868 201.838L354.854 201.336Z" fill="#F5F5F5"/>
<path d="M354.855 204.279L353.868 204.789V201.838L354.855 201.336V204.279Z" fill="#F0F0F0"/>
<path d="M335.735 192.316L333.661 207.348V210.04L335.735 196.555V192.316Z" fill="#E0E0E0"/>
<path d="M333.661 207.355H332.464V210.039H333.661V207.355Z" fill="#F0F0F0"/>
<path d="M332.464 207.348L334.346 192.316H335.735L333.661 207.348H332.464Z" fill="#F5F5F5"/>
<path d="M315.619 199.023V201.841L333.287 195.269V191.816L315.619 199.023Z" fill="#E0E0E0"/>
<path d="M314.934 201.422L315.619 201.84V199.023L314.934 198.613V201.422Z" fill="#F0F0F0"/>
<path d="M317.72 198.162L315.619 199.023L314.934 198.613L333.287 191.047V191.816L317.72 198.162Z" fill="#F5F5F5"/>
<path d="M324.343 188.234V190.082L329.496 192.607L333.287 191.043V190.283L324.343 188.234Z" fill="#E0E0E0"/>
<path d="M324.343 188.236L324.754 188.086L333.287 189.775V190.285L324.343 188.236Z" fill="#F5F5F5"/>
<path d="M331.743 174.016H339.672V186.556C339.634 186.876 339.505 187.18 339.298 187.44C339.092 187.7 338.814 187.905 338.494 188.036C337.626 188.44 336.667 188.65 335.694 188.65C334.72 188.65 333.761 188.44 332.894 188.036C332.575 187.903 332.301 187.695 332.099 187.434C331.897 187.173 331.774 186.867 331.743 186.548V174.016Z" fill="#E0E0E0"/>
<path d="M382.845 117.524C382.361 117.533 381.879 117.465 381.42 117.324L380.872 117.173L381.301 115.727L380.223 114.54C379.429 114.3 378.612 114.127 377.784 114.021C375.272 113.712 372.486 114.239 370.768 115.952C369.051 117.666 368.731 120.032 368.658 122.29C368.53 126.169 369.051 130.031 369.307 133.911C369.707 137.787 369.38 141.698 368.338 145.473C367.141 149.193 364.684 152.705 360.939 154.578C359.461 155.29 357.885 155.816 356.252 156.141L343.299 146.777L325.439 141.636L302.044 152.621C301.434 152.949 300.918 153.405 300.537 153.951C298.71 156.459 299.03 160.99 302.245 162.67L334.538 178.363C335.607 178.882 336.795 179.159 338.005 179.171C339.215 179.182 340.41 178.928 341.49 178.43L364.109 167.946C365.54 167.281 366.803 166.35 367.817 165.21C368.83 164.071 369.571 162.75 369.992 161.333L382.945 117.541L382.845 117.524Z" fill="#37474F"/>
<path d="M302.044 152.595L325.44 141.609L343.299 146.751L356.253 156.115C355.248 156.34 354.225 156.524 353.22 156.708C350.538 157.064 347.947 157.851 345.564 159.032C343.262 160.328 341.408 162.544 341.39 165.019L342.212 170.871L341.49 171.197C340.411 171.699 339.216 171.955 338.006 171.945C336.796 171.935 335.607 171.658 334.538 171.138L302.245 155.446C301.557 155.078 300.972 154.569 300.537 153.958C300.913 153.4 301.43 152.933 302.044 152.595Z" fill="#455A64"/>
<path opacity="0.1" d="M302.044 152.595L325.44 141.609L343.299 146.751L356.253 156.115C355.248 156.34 354.225 156.524 353.22 156.708C350.538 157.064 347.947 157.851 345.564 159.032C343.262 160.328 341.408 162.544 341.39 165.019L342.212 170.871L341.49 171.197C340.411 171.699 339.216 171.955 338.006 171.945C336.796 171.935 335.607 171.658 334.538 171.138L302.245 155.446C301.557 155.078 300.972 154.569 300.537 153.958C300.913 153.4 301.43 152.933 302.044 152.595Z" fill="black"/>
<path d="M305.442 134.227C305.442 134.227 324.224 139.243 329.194 134.82C335.378 129.269 332.784 115.274 332.053 109.798C331.322 104.322 332.053 100.526 333.707 98.9291C335.36 97.3323 337.763 94.9663 345.582 97.9175C337.717 101.621 340.101 120.583 342.559 127.655C336.392 133.458 333.423 141.124 333.323 145.304C333.323 145.304 317.272 148.891 308.895 153.096L305.442 134.227Z" fill="#455A64"/>
<path opacity="0.1" d="M305.442 134.227C305.442 134.227 324.224 139.243 329.194 134.82C335.378 129.269 332.784 115.274 332.053 109.798C331.322 104.322 332.053 100.526 333.707 98.9291C335.36 97.3323 337.763 94.9663 345.582 97.9175C337.717 101.621 338.749 120.583 341.234 127.655C335.068 133.458 333.442 141.124 333.323 145.304C333.323 145.304 317.272 148.891 308.895 153.096L305.442 134.227Z" fill="#101010"/>
<path d="M308.85 153.095L305.004 151.197C305.004 141.533 303.451 142.486 300.537 138.657C297.622 134.828 302.09 132.512 305.442 134.192C308.795 135.873 310.165 140.981 308.85 153.095Z" fill="#455A64"/>
<path opacity="0.2" d="M308.85 153.095L305.004 151.197C305.004 141.533 303.451 142.486 300.537 138.657C297.622 134.828 302.09 132.512 305.442 134.192C308.795 135.873 310.165 140.981 308.85 153.095Z" fill="#101010"/>
<path d="M345.537 97.918C345.537 97.918 366.548 106.278 376.816 110.893L376.067 114.313L342.513 100.368C343.305 99.3517 344.339 98.5141 345.537 97.918Z" fill="#455A64"/>
<path opacity="0.1" d="M345.537 97.918C345.537 97.918 366.548 106.278 376.816 110.893L376.067 114.313L342.513 100.368C343.305 99.3517 344.339 98.5141 345.537 97.918Z" fill="#101010"/>
<path d="M339.142 126.32C337.014 120.275 337.452 106.564 342.513 100.402L376.066 114.348L368.402 149.52L356.252 156.15L333.277 145.306C333.396 141.126 332.976 132.097 339.142 126.32Z" fill="#455A64"/>
<path d="M359.906 133.368C359.34 133.067 358.874 133.309 358.874 133.911C358.892 134.236 358.994 134.553 359.172 134.835C359.35 135.117 359.599 135.356 359.897 135.533C360.464 135.834 360.929 135.6 360.929 134.998C360.913 134.671 360.811 134.353 360.633 134.069C360.455 133.786 360.206 133.545 359.906 133.368Z" fill="#455A64"/>
<path d="M354.718 130.575C354.142 130.274 353.685 130.516 353.676 131.118C353.698 131.443 353.802 131.76 353.981 132.041C354.161 132.323 354.41 132.562 354.709 132.74C355.275 133.041 355.741 132.807 355.741 132.205C355.722 131.879 355.62 131.561 355.442 131.278C355.264 130.995 355.016 130.754 354.718 130.575Z" fill="#455A64"/>
<path d="M349.52 127.782C348.953 127.481 348.487 127.723 348.487 128.325C348.507 128.65 348.61 128.966 348.787 129.248C348.965 129.529 349.213 129.769 349.51 129.947C350.086 130.248 350.543 130.014 350.552 129.412C350.531 129.085 350.427 128.767 350.248 128.484C350.069 128.201 349.819 127.96 349.52 127.782Z" fill="#455A64"/>
<path d="M344.331 124.989C343.756 124.688 343.299 124.93 343.299 125.532C343.317 125.857 343.419 126.174 343.597 126.456C343.775 126.738 344.023 126.977 344.322 127.154C344.888 127.455 345.354 127.221 345.354 126.619C345.335 126.293 345.233 125.975 345.055 125.692C344.877 125.409 344.629 125.168 344.331 124.989Z" fill="#455A64"/>
<g opacity="0.2">
<path d="M359.907 133.368C359.34 133.067 358.875 133.309 358.875 133.911C358.893 134.236 358.995 134.553 359.173 134.835C359.351 135.117 359.599 135.356 359.898 135.533C360.464 135.834 360.93 135.6 360.93 134.998C360.913 134.671 360.812 134.353 360.634 134.069C360.456 133.786 360.207 133.545 359.907 133.368Z" fill="#101010"/>
<path d="M354.718 130.578C354.142 130.277 353.685 130.52 353.676 131.122C353.698 131.447 353.802 131.764 353.981 132.045C354.161 132.327 354.41 132.566 354.709 132.744C355.275 133.045 355.741 132.811 355.741 132.209C355.722 131.883 355.62 131.565 355.442 131.282C355.264 130.999 355.016 130.758 354.718 130.578Z" fill="#101010"/>
<path d="M349.52 127.785C348.954 127.485 348.488 127.727 348.488 128.329C348.507 128.654 348.61 128.97 348.788 129.252C348.966 129.533 349.213 129.773 349.511 129.951C350.086 130.252 350.543 130.018 350.552 129.416C350.532 129.089 350.428 128.771 350.248 128.488C350.069 128.205 349.82 127.964 349.52 127.785Z" fill="#101010"/>
<path d="M344.331 124.993C343.756 124.692 343.299 124.934 343.299 125.536C343.317 125.861 343.419 126.178 343.597 126.46C343.775 126.742 344.023 126.981 344.322 127.158C344.888 127.459 345.354 127.225 345.354 126.623C345.335 126.297 345.233 125.979 345.055 125.696C344.877 125.413 344.629 125.172 344.331 124.993Z" fill="#101010"/>
</g>
<path d="M345.564 159.03C347.946 157.849 350.538 157.062 353.219 156.706C354.224 156.522 355.247 156.338 356.252 156.113C357.884 155.788 359.461 155.262 360.938 154.549C364.647 152.677 367.141 149.165 368.338 145.445C369.378 141.675 369.705 137.77 369.306 133.899C369.051 130.02 368.53 126.157 368.658 122.278C368.731 120.021 369.105 117.605 370.768 115.941C372.431 114.277 375.272 113.7 377.784 114.01C378.612 114.115 379.429 114.288 380.223 114.528L381.337 115.724L380.908 117.17L369.991 154.064C369.235 156.627 367.442 158.829 364.976 160.226C364.693 160.385 364.41 160.544 364.108 160.677L342.184 170.835L341.362 164.983C341.407 162.542 343.262 160.326 345.564 159.03Z" fill="#37474F"/>
<path d="M345.537 155.062C353.548 152.972 361.414 152.704 364.319 147.437C367.224 142.17 367.424 134.897 365.972 122.264C365.792 120.635 365.835 118.992 366.1 117.373C366.959 112.65 370.065 110.626 373.636 110.576C377.172 110.52 380.598 111.698 383.219 113.87C383.728 114.259 384.134 114.747 384.407 115.3C384.534 115.572 384.58 115.87 384.54 116.164C384.499 116.458 384.375 116.737 384.178 116.972C383.854 117.28 383.412 117.463 382.945 117.482H382.845C382.361 117.49 381.879 117.422 381.42 117.281L380.871 117.131C379.894 116.846 378.926 116.512 377.93 116.295C376.737 115.973 375.468 115.973 374.276 116.295C373.715 116.496 373.215 116.816 372.813 117.226C372.412 117.637 372.121 118.128 371.965 118.661C368.585 128.76 372.878 139.612 369.069 147.922C365.963 155.505 355.22 158.657 347.647 160.906C348.385 160.64 349.036 160.205 349.538 159.643C349.915 159.109 350.09 158.476 350.036 157.841C349.982 157.206 349.701 156.606 349.236 156.132C348.761 155.692 348.176 155.365 347.531 155.179C346.886 154.992 346.202 154.952 345.537 155.062Z" fill="#455A64"/>
<path opacity="0.1" d="M345.537 155.062C353.548 152.972 361.414 152.704 364.319 147.437C367.224 142.17 367.424 134.897 365.972 122.264C365.792 120.635 365.835 118.992 366.1 117.373C366.959 112.65 370.065 110.626 373.636 110.576C377.172 110.52 380.598 111.698 383.219 113.87C383.728 114.259 384.134 114.747 384.407 115.3C384.534 115.572 384.58 115.87 384.54 116.164C384.499 116.458 384.375 116.737 384.178 116.972C383.854 117.28 383.412 117.463 382.945 117.482H382.845C382.361 117.49 381.879 117.422 381.42 117.281L380.871 117.131C379.894 116.846 378.926 116.512 377.93 116.295C376.737 115.973 375.468 115.973 374.276 116.295C373.715 116.496 373.215 116.816 372.813 117.226C372.412 117.637 372.121 118.128 371.965 118.661C368.585 128.76 372.878 139.612 369.069 147.922C365.963 155.505 355.22 158.657 347.647 160.906C348.385 160.64 349.036 160.205 349.538 159.643C349.915 159.109 350.09 158.476 350.036 157.841C349.982 157.206 349.701 156.606 349.236 156.132C348.761 155.692 348.176 155.365 347.531 155.179C346.886 154.992 346.202 154.952 345.537 155.062Z" fill="#101010"/>
<path d="M339.983 160.255C340.452 159.06 341.144 157.948 342.029 156.97C342.926 155.986 344.164 155.314 345.537 155.063C346.22 154.948 346.924 154.991 347.585 155.188C348.245 155.385 348.841 155.73 349.319 156.192C349.783 156.666 350.064 157.266 350.119 157.901C350.173 158.536 349.998 159.169 349.62 159.703C349.118 160.265 348.467 160.7 347.729 160.966C347.125 161.198 346.536 161.464 345.966 161.76C344.471 162.683 343.396 164.075 342.943 165.673C342.493 167.257 342.257 168.885 342.239 170.522V170.839L338.485 168.933C338.312 165.976 338.822 163.019 339.983 160.255Z" fill="#455A64"/>
<path opacity="0.2" d="M339.983 160.255C340.452 159.06 341.144 157.948 342.029 156.97C342.926 155.986 344.164 155.314 345.537 155.063C346.22 154.948 346.924 154.991 347.585 155.188C348.245 155.385 348.841 155.73 349.319 156.192C349.783 156.666 350.064 157.266 350.119 157.901C350.173 158.536 349.998 159.169 349.62 159.703C349.118 160.265 348.467 160.7 347.729 160.966C347.125 161.198 346.536 161.464 345.966 161.76C344.471 162.683 343.396 164.075 342.943 165.673C342.493 167.257 342.257 168.885 342.239 170.522V170.839L338.485 168.933C338.312 165.976 338.822 163.019 339.983 160.255Z" fill="#101010"/>
<path d="M343.735 124.903L346.06 125.616L343.683 133.373C343.464 134.091 343.112 134.664 342.627 135.094C342.147 135.525 341.578 135.797 340.922 135.909C340.266 136.021 339.561 135.961 338.807 135.73C338.137 135.525 337.565 135.221 337.09 134.818C336.62 134.412 336.3 133.918 336.13 133.335C335.961 132.749 335.992 132.086 336.222 131.349L338.563 132.066C338.481 132.362 338.463 132.632 338.511 132.876C338.564 133.118 338.673 133.326 338.837 133.499C339.007 133.67 339.229 133.797 339.505 133.882C339.794 133.971 340.058 133.984 340.294 133.922C340.536 133.857 340.747 133.72 340.926 133.509C341.105 133.299 341.249 133.016 341.358 132.661L343.735 124.903ZM348.273 138.642C347.429 138.384 346.754 137.981 346.248 137.434C345.747 136.884 345.429 136.236 345.293 135.489C345.159 134.739 345.222 133.936 345.484 133.081C345.748 132.219 346.146 131.517 346.676 130.975C347.208 130.428 347.835 130.07 348.557 129.899C349.284 129.725 350.069 129.768 350.913 130.026C351.757 130.285 352.429 130.689 352.93 131.239C353.436 131.786 353.756 132.435 353.891 133.185C354.027 133.932 353.962 134.736 353.698 135.598C353.436 136.453 353.04 137.153 352.508 137.699C351.977 138.242 351.348 138.6 350.622 138.774C349.9 138.945 349.117 138.901 348.273 138.642ZM348.833 136.853C349.217 136.971 349.571 136.96 349.895 136.822C350.219 136.679 350.505 136.438 350.752 136.098C351.003 135.759 351.202 135.346 351.351 134.861C351.5 134.376 351.565 133.922 351.548 133.501C351.534 133.081 351.432 132.721 351.243 132.421C351.053 132.121 350.767 131.913 350.383 131.795C349.995 131.676 349.635 131.687 349.303 131.827C348.975 131.968 348.685 132.208 348.435 132.547C348.188 132.888 347.99 133.3 347.842 133.786C347.693 134.271 347.625 134.724 347.639 135.144C347.657 135.565 347.762 135.927 347.955 136.227C348.153 136.526 348.446 136.734 348.833 136.853ZM353.978 140.212L357.387 129.086L359.701 129.795L358.42 133.978L358.49 134C358.661 133.806 358.877 133.623 359.14 133.45C359.408 133.275 359.721 133.157 360.08 133.097C360.444 133.034 360.86 133.074 361.327 133.217C361.936 133.403 362.448 133.735 362.865 134.211C363.282 134.684 363.548 135.286 363.66 136.018C363.774 136.746 363.684 137.588 363.391 138.544C363.106 139.475 362.715 140.215 362.218 140.764C361.726 141.31 361.172 141.669 360.557 141.841C359.946 142.011 359.324 141.998 358.69 141.804C358.241 141.667 357.882 141.475 357.612 141.23C357.346 140.986 357.148 140.722 357.018 140.436C356.888 140.147 356.807 139.87 356.773 139.606L356.669 139.575L356.26 140.911L353.978 140.212ZM357.522 136.734C357.37 137.23 357.306 137.684 357.331 138.096C357.355 138.507 357.466 138.856 357.663 139.142C357.862 139.425 358.148 139.624 358.521 139.738C358.898 139.853 359.248 139.848 359.572 139.721C359.897 139.591 360.183 139.362 360.43 139.033C360.682 138.703 360.883 138.294 361.031 137.809C361.179 137.327 361.242 136.883 361.22 136.476C361.198 136.07 361.088 135.723 360.891 135.437C360.693 135.15 360.404 134.949 360.024 134.832C359.647 134.717 359.298 134.719 358.976 134.838C358.658 134.959 358.374 135.181 358.125 135.504C357.875 135.828 357.674 136.238 357.522 136.734Z" fill="#37ED81"/>
</svg>
