<svg width="431" height="400" viewBox="0 0 431 400" fill="none" xmlns="http://www.w3.org/2000/svg">
<path d="M63.3746 369.936C147.476 410.016 283.826 410.028 367.928 369.936C452.03 329.844 452.018 264.866 367.928 224.786C283.838 184.707 147.476 184.707 63.3746 224.786C-20.7273 264.866 -20.7151 329.856 63.3746 369.936Z" fill="#F5F5F5"/>
<path d="M367.635 340.31C383.124 340.31 395.681 334.327 395.681 326.946C395.681 319.565 383.124 313.582 367.635 313.582C352.145 313.582 339.589 319.565 339.589 326.946C339.589 334.327 352.145 340.31 367.635 340.31Z" fill="#EBEBEB"/>
<path d="M56.9918 328.864L66.9142 323.14C72.4541 318.619 76.6706 312.687 79.1188 305.968C82.1821 297.523 81.755 291.103 79.5581 287.881C76.8609 283.915 69.8677 284.61 69.587 292.958C69.0012 309.41 64.2047 320.821 56.9918 328.864Z" fill="#37ED81"/>
<path opacity="0.2" d="M56.9918 328.864L66.9142 323.14C72.4541 318.619 76.6706 312.687 79.1188 305.968C82.1821 297.523 81.755 291.103 79.5581 287.881C76.8609 283.915 69.8677 284.61 69.587 292.958C69.0012 309.41 64.2047 320.821 56.9918 328.864Z" fill="black"/>
<path d="M56.9919 329.473C56.8627 329.472 56.7373 329.429 56.6339 329.352C56.5304 329.274 56.4541 329.166 56.4161 329.043C56.3781 328.919 56.3803 328.787 56.4224 328.665C56.4645 328.542 56.5442 328.437 56.6502 328.363C79.5948 312.497 75.1524 290.37 75.1035 290.15C75.0867 290.07 75.0858 289.987 75.1009 289.907C75.1161 289.826 75.1469 289.75 75.1917 289.681C75.2364 289.613 75.2943 289.553 75.3619 289.507C75.4294 289.461 75.5055 289.429 75.5856 289.412C75.6658 289.395 75.7484 289.394 75.8289 289.409C75.9094 289.424 75.9861 289.455 76.0547 289.5C76.1232 289.545 76.1823 289.602 76.2285 289.67C76.2747 289.738 76.3072 289.814 76.324 289.894C76.324 290.126 81.0106 313.009 57.3825 329.363C57.2678 329.442 57.1306 329.48 56.9919 329.473Z" fill="#101010"/>
<path d="M37.1105 340.349C37.1105 340.349 33.6566 337.542 34.4865 333.734C35.3164 329.926 37.5499 327.193 33.7298 322.286C29.9098 317.38 28.848 310.838 33.4125 307.299C36.8908 304.553 42.3219 308.434 44.2746 301.197C45.7147 295.9 45.2266 284.171 51.9757 280.266C58.7248 276.36 62.9598 282.243 61.898 290.2C60.9705 297.316 59.6524 304.163 60.6776 306.066C62.6547 309.728 66.0354 309.227 65.8767 315.916C65.7425 322.14 59.8477 327.29 59.8477 327.29L37.1105 340.349Z" fill="#37ED81"/>
<path d="M48.4485 334.381C48.2993 334.38 48.1556 334.325 48.0436 334.226C47.9316 334.128 47.8587 333.992 47.8383 333.844C46.093 319.382 50.2792 294.411 53.6965 286.991C53.7253 286.909 53.7713 286.833 53.8316 286.77C53.8919 286.707 53.9649 286.658 54.0459 286.626C54.1269 286.593 54.2138 286.579 54.3009 286.583C54.388 286.587 54.4732 286.609 54.5508 286.649C54.6237 286.682 54.6892 286.729 54.7436 286.788C54.7979 286.846 54.84 286.915 54.8673 286.99C54.8946 287.065 54.9066 287.145 54.9025 287.225C54.8985 287.305 54.8785 287.383 54.8437 287.455C51.463 294.777 47.4233 319.821 49.0953 333.649C49.1125 333.809 49.0657 333.97 48.9651 334.095C48.8645 334.221 48.7183 334.302 48.5583 334.32L48.4485 334.381Z" fill="#101010"/>
<path d="M48.119 323.116C48.0256 323.12 47.9328 323.099 47.8505 323.055C43.6155 320.992 40.9305 313.633 40.8207 313.291C40.7908 313.215 40.7764 313.134 40.7784 313.052C40.7804 312.971 40.7987 312.89 40.8323 312.816C40.8659 312.742 40.914 312.675 40.9739 312.619C41.0338 312.564 41.1041 312.521 41.1809 312.493C41.2576 312.466 41.3391 312.454 41.4206 312.458C41.5021 312.462 41.5818 312.483 41.6552 312.518C41.7286 312.554 41.7941 312.604 41.8478 312.666C41.9015 312.727 41.9423 312.799 41.9679 312.876C41.9679 312.949 44.5919 320.077 48.3875 321.92C48.512 321.98 48.6124 322.081 48.6721 322.206C48.7317 322.33 48.7473 322.472 48.716 322.606C48.6848 322.741 48.6088 322.861 48.5003 322.947C48.3918 323.033 48.2574 323.08 48.119 323.079V323.116Z" fill="#101010"/>
<path d="M48.0458 327.997C47.9235 327.997 47.8041 327.96 47.7037 327.89C47.6033 327.82 47.5268 327.721 47.4844 327.607C47.4236 327.458 47.4242 327.291 47.4859 327.142C47.5476 326.994 47.6655 326.875 47.8139 326.813C54.9414 323.957 59.3838 315.475 59.4327 315.378C59.5071 315.233 59.6357 315.125 59.7902 315.076C59.9447 315.026 60.1124 315.041 60.2565 315.115C60.4005 315.19 60.5091 315.318 60.5583 315.473C60.6075 315.627 60.5933 315.795 60.5189 315.939C60.3236 316.305 55.8201 324.922 48.3143 327.948C48.2306 327.988 48.138 328.005 48.0458 327.997Z" fill="#101010"/>
<path d="M297.178 262.336C297.178 262.336 291.845 253.695 291.32 244.31C290.795 234.925 292.858 231.019 295.689 229.896C298.521 228.774 298.741 232.227 300.193 234.266C301.645 236.304 304.611 235.144 305.709 228.786C306.808 222.427 310.811 211.699 319.134 209.612C328.288 207.342 323.382 218.082 321.075 222.268C318.768 226.455 316.986 232.166 318.5 233.716C320.013 235.266 322.369 232.398 324.602 235.059C327.324 238.269 318.866 249.826 314.008 252.621L297.178 262.336Z" fill="#37ED81"/>
<path d="M304.489 258.711C304.409 258.708 304.33 258.689 304.257 258.656C304.184 258.622 304.119 258.574 304.064 258.515C304.01 258.457 303.968 258.387 303.94 258.312C303.912 258.237 303.9 258.157 303.903 258.077C304.729 242.979 309.438 228.35 317.572 215.605C317.618 215.538 317.677 215.482 317.746 215.439C317.814 215.396 317.891 215.367 317.971 215.355C318.05 215.342 318.132 215.346 318.21 215.366C318.289 215.386 318.362 215.421 318.426 215.47C318.554 215.565 318.64 215.707 318.665 215.864C318.69 216.022 318.653 216.182 318.561 216.313C310.572 228.872 305.948 243.275 305.136 258.138C305.131 258.218 305.111 258.296 305.075 258.369C305.04 258.441 304.991 258.506 304.931 258.559C304.871 258.612 304.801 258.653 304.725 258.679C304.649 258.705 304.569 258.716 304.489 258.711Z" fill="#101010"/>
<path d="M305.185 251.497C305.083 251.496 304.982 251.471 304.892 251.424C301.474 249.532 299.583 243.918 299.509 243.686C299.483 243.61 299.471 243.529 299.475 243.449C299.48 243.368 299.5 243.289 299.536 243.217C299.571 243.144 299.62 243.079 299.68 243.025C299.741 242.972 299.811 242.931 299.888 242.905C300.042 242.855 300.209 242.868 300.353 242.941C300.497 243.014 300.606 243.142 300.657 243.296C300.657 243.296 302.487 248.702 305.539 250.35C305.677 250.431 305.778 250.563 305.821 250.718C305.864 250.873 305.846 251.038 305.77 251.18C305.715 251.285 305.63 251.371 305.526 251.427C305.421 251.484 305.303 251.508 305.185 251.497Z" fill="#101010"/>
<path d="M305.783 247.799C305.647 247.797 305.516 247.751 305.41 247.667C305.304 247.583 305.229 247.466 305.197 247.335C305.177 247.258 305.172 247.178 305.184 247.099C305.195 247.02 305.222 246.945 305.263 246.876C305.304 246.808 305.358 246.749 305.422 246.702C305.486 246.655 305.559 246.621 305.636 246.602C314.448 244.369 317.499 239.756 317.523 239.707C317.567 239.639 317.623 239.58 317.689 239.533C317.755 239.487 317.83 239.454 317.908 239.437C317.987 239.419 318.069 239.417 318.148 239.431C318.228 239.445 318.304 239.474 318.372 239.518C318.44 239.561 318.499 239.617 318.545 239.683C318.591 239.749 318.624 239.824 318.642 239.903C318.659 239.981 318.661 240.063 318.647 240.142C318.634 240.222 318.604 240.298 318.561 240.366C318.427 240.573 315.253 245.419 305.941 247.786L305.783 247.799Z" fill="#101010"/>
<path d="M164.392 243.37C164.392 243.37 152.688 240.514 152.078 218.594C151.431 194.942 154.946 167.335 141.094 165.101C127.242 162.868 119.553 179.747 119.723 199.457C119.882 216.715 126.839 254.183 164.344 261.53L164.392 243.37Z" fill="#37ED81"/>
<path opacity="0.2" d="M164.392 243.37C164.392 243.37 152.688 240.514 152.078 218.594C151.431 194.942 154.946 167.335 141.094 165.101C127.242 162.868 119.553 179.747 119.723 199.457C119.882 216.715 126.839 254.183 164.344 261.53L164.392 243.37Z" fill="black"/>
<path d="M164.392 259.282H164.283C155.849 257.744 148.978 253.094 143.864 245.478C128.706 222.863 133.478 180.635 135.053 173.264C135.088 173.107 135.182 172.969 135.317 172.881C135.451 172.792 135.614 172.758 135.773 172.788C135.931 172.826 136.068 172.923 136.157 173.059C136.245 173.195 136.278 173.36 136.249 173.52C134.699 180.843 129.951 222.534 144.877 244.795C147.05 248.247 149.916 251.21 153.295 253.496C156.673 255.782 160.49 257.34 164.502 258.073C164.582 258.088 164.658 258.118 164.726 258.163C164.793 258.207 164.852 258.264 164.897 258.331C164.943 258.398 164.974 258.474 164.99 258.553C165.006 258.632 165.006 258.714 164.99 258.793C164.964 258.932 164.89 259.058 164.781 259.147C164.671 259.236 164.534 259.284 164.392 259.282Z" fill="#101010"/>
<path d="M164.392 315.537C152.297 317.172 132.66 317.148 121.322 308.214C109.984 299.28 112.352 291.591 116.709 288.382C121.066 285.172 124.849 281.51 117.356 274.383C109.862 267.256 97.8283 255.808 93.9228 238.636C90.0174 221.464 91.9457 210.724 99.6102 207.148C107.043 203.682 109.008 209.198 113.56 220.573C118.112 231.948 128.352 222.196 137.115 225.748C145.878 229.299 145.524 236.329 146.073 242.37C146.622 248.412 149.515 250.084 154.482 250.084C159.449 250.084 164.392 252.94 164.392 258.627V315.537Z" fill="#37ED81"/>
<path d="M164.393 295.592C164.34 295.604 164.286 295.604 164.234 295.592C163.709 295.446 151.199 291.809 132.978 275.076C113.573 257.258 104.419 230.53 104.322 230.261C104.275 230.107 104.289 229.941 104.362 229.798C104.435 229.655 104.56 229.545 104.712 229.492C104.864 229.442 105.03 229.453 105.174 229.524C105.318 229.594 105.428 229.719 105.481 229.87C105.566 230.139 114.635 256.574 133.808 274.173C151.773 290.686 164.429 294.384 164.564 294.421C164.64 294.443 164.712 294.48 164.775 294.531C164.837 294.581 164.889 294.643 164.928 294.713C164.966 294.783 164.991 294.86 164.999 294.94C165.008 295.02 165.001 295.1 164.978 295.177C164.939 295.301 164.86 295.408 164.755 295.482C164.649 295.557 164.522 295.596 164.393 295.592Z" fill="#101010"/>
<path d="M138.067 279.322C137.944 279.324 137.824 279.288 137.724 279.218C137.623 279.147 137.547 279.048 137.506 278.932C133.588 268.875 132.697 247.359 132.624 246.443C132.62 246.282 132.68 246.126 132.789 246.008C132.898 245.889 133.049 245.818 133.21 245.809C133.369 245.811 133.522 245.872 133.639 245.98C133.756 246.088 133.829 246.236 133.844 246.394C133.844 246.614 134.76 268.619 138.604 278.493C138.634 278.568 138.648 278.648 138.646 278.729C138.644 278.81 138.626 278.889 138.593 278.963C138.56 279.037 138.513 279.103 138.454 279.159C138.395 279.214 138.326 279.257 138.25 279.286C138.191 279.307 138.13 279.319 138.067 279.322Z" fill="#101010"/>
<path d="M137.969 293.787C136.844 293.796 135.719 293.739 134.601 293.616C134.521 293.607 134.443 293.581 134.373 293.542C134.303 293.502 134.241 293.449 134.191 293.386C134.141 293.322 134.104 293.25 134.082 293.172C134.061 293.094 134.054 293.013 134.064 292.933C134.074 292.853 134.099 292.775 134.138 292.705C134.178 292.635 134.231 292.573 134.294 292.523C134.358 292.473 134.431 292.436 134.508 292.414C134.586 292.392 134.667 292.386 134.747 292.396C134.857 292.396 146.22 293.69 151.431 288.381C151.485 288.316 151.552 288.264 151.628 288.227C151.703 288.19 151.785 288.169 151.869 288.165C151.953 288.161 152.037 288.174 152.116 288.205C152.194 288.235 152.266 288.281 152.326 288.34C152.386 288.399 152.433 288.47 152.464 288.548C152.495 288.626 152.51 288.709 152.507 288.793C152.505 288.877 152.485 288.96 152.449 289.036C152.412 289.112 152.361 289.18 152.298 289.235C148.526 293.128 141.948 293.787 137.969 293.787Z" fill="#101010"/>
<path d="M129.182 62.6847L127.864 55.0812L121.078 59.5481C120.458 58.3277 119.579 57.2573 118.503 56.4116L121.749 47.6242L115.647 46.2695L111.18 54.8127C109.564 55.0854 107.997 55.5954 106.53 56.3261L104.59 49.8821L97.34 55.5816L97.816 63.1485C96.3397 64.8022 95.0009 66.5737 93.8129 68.4453L87.8327 68.1402L83.6343 77.5499L88.7724 79.7467C88.236 81.6931 87.8967 83.6884 87.7594 85.7026L81.23 91.7073L82.5359 99.3229L89.3338 94.856C89.9503 96.0753 90.8299 97.1425 91.909 97.9804L88.7236 106.78L94.8259 108.122L101.221 101.898C102.698 101.666 102.332 98.8836 103.943 98.0903L105.883 104.51L113.121 98.8225L112.938 95.8446C114.402 94.2092 119.943 90.6088 121.139 88.7293L122.64 86.2884L126.839 76.8787L124.886 73.3393L122.713 68.726L129.182 62.6847ZM107.031 87.7164C101.465 92.0856 99.7077 93.0498 98.768 87.2038C97.8282 81.3578 101.014 72.4728 106.579 68.0914C112.144 63.7099 114.268 63.4048 115.269 69.2386C116.269 75.0724 112.608 83.3959 107.031 87.7164Z" fill="#E0E0E0"/>
<path d="M115.696 46.2695L123.616 50.834L119.15 59.3529L111.229 54.7883L115.696 46.2695Z" fill="#F5F5F5"/>
<path d="M135.784 59.6427L128.999 64.1095L121.078 59.545L127.864 55.0781L135.784 59.6427Z" fill="#F5F5F5"/>
<path d="M134.698 81.4054L129.56 79.2208L121.639 74.6562L126.778 76.8409L134.698 81.4054Z" fill="#E0E0E0"/>
<path d="M88.7113 106.776L96.6321 111.328L99.8785 102.541L91.9577 97.9766L88.7113 106.776Z" fill="#E0E0E0"/>
<path d="M113.731 109.074L105.822 104.509L103.882 98.0898L111.802 102.654L113.731 109.074Z" fill="#E0E0E0"/>
<path d="M137.09 67.2472L135.785 59.6438L128.999 64.1106C128.374 62.8897 127.491 61.8194 126.411 60.9741L129.658 52.1867L123.617 50.832L119.137 59.3753C117.521 59.6479 115.954 60.1579 114.488 60.8886L112.559 54.469L105.31 60.1685L105.786 67.7354C104.308 69.4008 102.969 71.1846 101.783 73.0688L95.7901 72.7637L91.5917 82.1735L96.7298 84.3703C96.1983 86.3218 95.859 88.3207 95.7168 90.3383L89.1996 96.2576L90.5055 103.873L97.2912 99.4063C97.9159 100.624 98.799 101.69 99.8786 102.531L96.6322 111.318L102.734 112.673L107.201 104.13C108.824 103.86 110.396 103.346 111.864 102.604L113.792 109.024L121.041 103.336L120.565 95.7694C122.042 94.1157 123.381 92.3442 124.569 90.4726L130.561 90.7655L134.759 81.3557L129.548 79.1711C130.088 77.221 130.432 75.2217 130.573 73.2031L137.09 67.2472ZM114.963 92.3277C109.41 96.6969 104.089 95.5131 103.076 89.6793C102.063 83.8455 105.761 75.5586 111.327 71.1893C116.892 66.8201 122.201 68.0161 123.214 73.8499C124.227 79.6837 120.529 87.9584 114.963 92.3277Z" fill="#EBEBEB"/>
<path d="M112.559 54.4473L104.638 49.8828L97.3887 55.5824L105.309 60.1469L112.559 54.4473Z" fill="#F5F5F5"/>
<path d="M97.3887 55.582L97.8647 63.1489L105.785 67.7134L105.309 60.1466L97.3887 55.582Z" fill="#E0E0E0"/>
<path d="M101.782 73.0098L93.8615 68.4453L87.8812 68.1523L95.7898 72.7169L101.782 73.0098Z" fill="#F5F5F5"/>
<path d="M87.8814 68.1523L83.683 77.5499L91.5916 82.1144L95.7899 72.7169L87.8814 68.1523Z" fill="#E0E0E0"/>
<path d="M95.7169 90.2637L87.8083 85.6992L81.2788 91.7039L89.1874 96.2684L95.7169 90.2637Z" fill="#F5F5F5"/>
<path d="M90.5055 103.887L82.5847 99.3227L81.2788 91.707L89.1874 96.2715L90.5055 103.887Z" fill="#E0E0E0"/>
<path d="M123.617 50.834L115.696 46.2695L121.749 47.6242L129.658 52.1888L123.617 50.834Z" fill="#F5F5F5"/>
<path d="M93.7153 28.1682V16.8057L84.6717 20.8821C84.1927 18.9543 83.3654 17.1303 82.2308 15.4998L87.9303 4.01531L80.9737 0L73.8706 10.679C71.8911 10.5061 69.8968 10.7006 67.988 11.2526L66.9872 1.37913L57.1503 7.06646L56.1617 18.0506C54.0209 19.9476 52.0523 22.0305 50.2791 24.275L43.176 21.834L36.2194 33.8922L41.9068 38.774C40.8559 41.4316 40.0391 44.1758 39.4658 46.9755L30.4222 53.3341V64.7088L39.4658 60.6325C39.9448 62.5602 40.7721 64.3843 41.9068 66.0147L36.2438 77.5114L43.2004 81.5267L50.3035 70.8477C52.283 71.0201 54.2773 70.8256 56.1861 70.2741L57.1747 80.1476L67.0116 74.4603L68.0124 63.4761C71.0827 62.3559 73.8025 60.4445 75.8966 57.9352L80.9981 59.7293L87.9547 47.6834L83.6831 44.022C84.6104 40.9688 84.9541 37.7683 84.6961 34.5878L93.7153 28.1682ZM62.0688 56.5561C54.5263 60.9132 49.8642 57.7766 49.8642 49.0991C49.8642 40.4216 56.1007 29.6938 63.6554 25.3368C71.21 20.9797 75.7745 24.1163 75.7745 32.867C75.7745 41.6177 69.6234 52.1869 62.0688 56.5561Z" fill="#E0E0E0"/>
<path d="M88.8823 4.55232L80.9737 0L73.8706 10.679L81.7792 15.2436L88.8823 4.55232Z" fill="#F5F5F5"/>
<path d="M101.636 21.3692L93.715 16.8047L84.6714 20.881L92.5922 25.4455L101.636 21.3692Z" fill="#F5F5F5"/>
<path d="M65.0589 84.7115L57.1503 80.147L56.1617 70.2734L64.0703 74.8379L65.0589 84.7115Z" fill="#E0E0E0"/>
<path d="M36.2072 77.508L44.1279 82.0725L49.8275 70.588L41.9067 66.0234L36.2072 77.508Z" fill="#E0E0E0"/>
<path d="M101.636 32.7952V21.4327L92.5928 25.4724C92.1188 23.5429 91.2912 21.718 90.1519 20.0902L95.8515 8.60565L88.8948 4.57812L81.7918 15.2694C79.8123 15.0904 77.8168 15.285 75.9091 15.843L74.9084 5.94504L65.0715 11.6324L64.0707 22.6165C61.9329 24.5167 59.9646 26.5993 58.1881 28.8409L51.085 26.4L44.1284 38.4581L49.8279 43.3399C48.7715 45.9956 47.9546 48.7403 47.387 51.5414L38.3434 57.9V69.2747L47.387 65.1984C47.8607 67.128 48.6884 68.953 49.8279 70.5806L44.1284 82.0651L51.085 86.0804L58.1881 75.4014C60.1675 75.5744 62.1619 75.3799 64.0707 74.8278L65.0715 84.7013L74.9084 79.014L75.8969 68.0298C78.0378 66.1329 80.0063 64.0499 81.7795 61.8055L88.8826 64.2464L95.8393 52.2005L90.1397 47.3186C91.1958 44.6629 92.0127 41.9182 92.5806 39.1171L101.636 32.7952ZM69.9899 61.1831C62.4353 65.5401 56.3086 62.0008 56.3086 53.2867C56.3086 44.5726 62.4108 33.9668 69.9899 29.5976C77.569 25.2283 83.6591 28.7798 83.6591 37.4939C83.6591 46.208 77.5323 56.7528 69.9899 61.122V61.1831Z" fill="#EBEBEB"/>
<path d="M50.2792 24.2983L58.1878 28.8629L51.0847 26.3853L43.1761 21.8086L50.2792 24.2983Z" fill="#F0F0F0"/>
<path d="M43.1754 21.8206L36.2169 33.8828L44.1351 38.4507L51.0936 26.3885L43.1754 21.8206Z" fill="#F5F5F5"/>
<path d="M36.2072 33.8672L44.1279 38.4317L49.8275 43.338L41.9067 38.7856L36.2072 33.8672Z" fill="#E0E0E0"/>
<path d="M39.4658 46.9883L47.3866 51.5528L38.343 57.9114L30.4222 53.3469L39.4658 46.9883Z" fill="#F5F5F5"/>
<path d="M30.4222 53.3477L38.343 57.9122V69.2869L30.4222 64.7224V53.3477Z" fill="#E0E0E0"/>
<path d="M74.9081 5.94342L66.9873 1.37891L57.1504 7.06624L65.059 11.6308L74.9081 5.94342Z" fill="#F5F5F5"/>
<path d="M176.45 331.871L291.173 265.624C291.426 265.535 291.645 265.37 291.8 265.151C291.955 264.933 292.038 264.672 292.038 264.404C292.038 264.136 291.955 263.874 291.8 263.656C291.645 263.437 291.426 263.272 291.173 263.183L280.567 257.081C279.911 256.75 279.185 256.578 278.45 256.578C277.715 256.578 276.989 256.75 276.332 257.081L161.573 323.266C161.32 323.355 161.101 323.52 160.946 323.739C160.791 323.958 160.708 324.219 160.708 324.487C160.708 324.755 160.791 325.016 160.946 325.235C161.101 325.453 161.32 325.618 161.573 325.707L172.215 331.81C172.867 332.15 173.59 332.332 174.325 332.343C175.061 332.353 175.788 332.192 176.45 331.871Z" fill="#E0E0E0"/>
<path d="M288.025 9.85389L184.578 69.5832C183.041 70.5868 181.761 71.9384 180.843 73.5287C179.925 75.119 179.394 76.9031 179.294 78.7367V324.135C179.294 327.503 181.661 328.87 184.578 327.186L288.025 267.456C289.564 266.455 290.846 265.104 291.764 263.513C292.682 261.922 293.212 260.137 293.309 258.303V12.905C293.309 9.53657 290.954 8.16966 288.025 9.85389Z" fill="#455A64"/>
<path d="M184.578 69.5833L288.024 9.854C290.636 8.34063 292.796 9.28039 293.236 11.9044C292.992 10.2546 292.401 8.67521 291.503 7.27005C290.605 5.86489 289.419 4.66581 288.024 3.7517L283.728 1.31078C282.091 0.479894 280.28 0.046875 278.444 0.046875C276.607 0.046875 274.797 0.479894 273.159 1.31078L169.701 60.9913C168.143 61.9683 166.858 63.3247 165.966 64.9334L180.844 73.4766C181.735 71.8806 183.021 70.5401 184.578 69.5833Z" fill="#37474F"/>
<path d="M164.392 315.545C164.492 317.378 165.023 319.162 165.941 320.753C166.859 322.343 168.139 323.695 169.676 324.698L173.985 327.139C175.476 327.885 177.107 328.308 178.773 328.379C180.439 328.451 182.101 328.17 183.651 327.554C181.21 328.506 179.269 327.103 179.269 324.088V78.739C179.33 76.8977 179.864 75.103 180.819 73.5276L165.942 64.9844C165 66.5479 164.467 68.3233 164.392 70.1469V315.545Z" fill="#263238"/>
<path d="M187.422 102.28L285.218 45.8333C286.975 44.8325 288.391 45.6502 288.391 47.664V229.293C288.332 230.394 288.014 231.465 287.463 232.419C286.911 233.374 286.142 234.184 285.218 234.785L187.459 291.231C185.701 292.244 184.286 291.426 184.286 289.4V107.772C184.341 106.674 184.654 105.606 185.199 104.651C185.744 103.697 186.505 102.885 187.422 102.28Z" fill="#101010"/>
<path d="M236.301 49.0199C235.762 49.3743 235.313 49.8505 234.99 50.4101C234.668 50.9697 234.482 51.5972 234.446 52.2419C234.446 53.4624 235.276 53.914 236.301 53.316C236.843 52.9637 237.294 52.4881 237.616 51.928C237.939 51.3679 238.124 50.7394 238.156 50.0939C238.156 48.9101 237.327 48.4341 236.301 49.0199Z" fill="#37474F"/>
<path d="M236.302 271.691C234.168 273.086 232.393 274.965 231.121 277.174C229.849 279.384 229.115 281.862 228.979 284.408C228.979 289.082 232.262 290.986 236.302 288.643C238.434 287.246 240.209 285.368 241.481 283.158C242.753 280.949 243.487 278.471 243.624 275.926C243.649 271.251 240.353 269.347 236.302 271.691Z" fill="#37474F"/>
<path d="M218.739 67.9124C217.667 68.6244 216.776 69.5786 216.14 70.698C215.504 71.8173 215.14 73.0705 215.078 74.3564C215.078 76.7241 216.738 77.6883 218.739 76.5044C219.823 75.7992 220.725 74.848 221.372 73.7282C222.019 72.6084 222.392 71.3517 222.462 70.0604C222.462 67.6927 220.802 66.7286 218.739 67.9124Z" fill="#37474F"/>
<path d="M227.856 67.1067C227.856 68.6932 229.076 69.2913 230.504 68.4492L254.913 54.3284C255.669 53.8562 256.303 53.2122 256.764 52.4487C257.224 51.6852 257.497 50.8239 257.562 49.9348C257.562 48.3604 256.341 47.7624 254.913 48.6045L230.504 62.7252C229.75 63.1962 229.117 63.8383 228.656 64.5995C228.196 65.3608 227.922 66.2197 227.856 67.1067Z" fill="#37474F"/>
<path d="M172.642 110.139C173.508 110.703 174.229 111.464 174.747 112.358C175.264 113.253 175.563 114.257 175.62 115.289C175.62 117.193 174.29 117.962 172.642 117.01C171.779 116.444 171.061 115.683 170.546 114.788C170.031 113.894 169.733 112.891 169.677 111.86C169.677 109.968 171.007 109.199 172.642 110.139Z" fill="#37474F"/>
<path d="M172.642 133.061C173.508 133.625 174.229 134.385 174.747 135.28C175.264 136.175 175.563 137.179 175.62 138.211C175.62 140.103 174.29 140.872 172.642 139.932C171.779 139.366 171.061 138.605 170.546 137.71C170.031 136.815 169.733 135.812 169.677 134.782C169.677 132.878 171.007 132.109 172.642 133.061Z" fill="#37474F"/>
<path d="M171.714 110.603C172.581 111.167 173.302 111.928 173.819 112.822C174.336 113.717 174.636 114.721 174.692 115.754C174.692 117.645 173.362 118.414 171.714 117.474C170.848 116.91 170.127 116.15 169.61 115.255C169.093 114.36 168.793 113.356 168.737 112.324C168.749 110.42 170.079 109.688 171.714 110.603Z" fill="#455A64"/>
<path d="M171.714 133.514C172.582 134.079 173.304 134.842 173.822 135.739C174.339 136.636 174.637 137.642 174.692 138.677C174.692 140.568 173.362 141.337 171.714 140.385C170.846 139.823 170.124 139.063 169.606 138.168C169.089 137.273 168.791 136.268 168.737 135.235C168.749 133.343 170.079 132.574 171.714 133.514Z" fill="#455A64"/>
<path d="M308.186 53.4137C308.186 51.3878 306.771 50.5701 305.013 51.583L293.309 58.3322L207.254 108.029C206.33 108.63 205.561 109.44 205.009 110.395C204.458 111.349 204.14 112.421 204.081 113.521V295.101C204.081 297.127 205.497 297.945 207.254 296.932L293.345 247.223L305.013 240.486C305.937 239.885 306.707 239.075 307.258 238.12C307.81 237.166 308.128 236.095 308.186 234.994V53.4137Z" fill="#101010"/>
<path d="M309.407 53.4139C309.484 52.8018 309.378 52.1807 309.104 51.6283C308.83 51.0758 308.399 50.6165 307.865 50.3078C307.331 49.9991 306.717 49.8547 306.102 49.8927C305.486 49.9307 304.895 50.1494 304.403 50.5214L293.236 56.9776L206.644 107.016C205.529 107.72 204.602 108.684 203.943 109.826C203.284 110.968 202.913 112.253 202.861 113.57V295.102C202.812 295.711 202.929 296.322 203.2 296.87C203.471 297.418 203.885 297.882 204.399 298.214C204.836 298.468 205.333 298.599 205.839 298.592C206.554 298.57 207.252 298.364 207.865 297.994L294.517 247.955L305.66 241.523C306.769 240.813 307.691 239.847 308.349 238.707C309.007 237.566 309.383 236.285 309.444 234.969L309.407 53.4139ZM293.26 245.868L292.26 246.454L206.693 295.858C206.549 295.969 206.383 296.046 206.205 296.084C206.028 296.122 205.844 296.12 205.668 296.078C205.509 295.98 205.351 295.639 205.351 295.077V113.522C205.414 112.635 205.677 111.775 206.121 111.006C206.565 110.236 207.178 109.577 207.914 109.079L293.395 59.6504L305.599 52.584C305.743 52.4735 305.91 52.3964 306.087 52.3584C306.264 52.3204 306.448 52.3224 306.624 52.3643C306.783 52.4619 306.942 52.8037 306.942 53.3651V234.994C306.878 235.88 306.615 236.74 306.171 237.51C305.727 238.279 305.114 238.938 304.379 239.436L293.236 245.868H293.26Z" fill="#37ED81"/>
<path d="M256.134 95.5985C267.118 89.2765 275.966 94.378 275.966 107.059C275.966 119.739 267.082 135.129 256.134 141.402C245.186 147.676 236.302 142.623 236.302 129.954C236.302 117.286 245.186 101.933 256.134 95.5985Z" fill="#37ED81"/>
<path d="M256.134 105.564C259.685 103.513 262.566 105.173 262.566 109.225C262.445 111.457 261.8 113.629 260.682 115.565C259.565 117.501 258.006 119.147 256.134 120.368C252.582 122.418 249.702 120.758 249.702 116.706C249.823 114.474 250.468 112.302 251.585 110.366C252.703 108.43 254.261 106.784 256.134 105.564Z" fill="#37ED81"/>
<path d="M268.668 127.431C268.668 120.694 263.945 117.96 258.099 121.329L254.437 123.44C248.604 126.809 243.868 135.01 243.868 141.747V143.566C247.249 144.676 251.496 144.078 256.073 141.405C261.143 138.278 265.43 134.032 268.607 128.993L268.668 127.431Z" fill="#37ED81"/>
<path opacity="0.7" d="M256.134 105.564C259.685 103.513 262.566 105.173 262.566 109.225C262.445 111.457 261.8 113.629 260.682 115.565C259.565 117.501 258.006 119.147 256.134 120.368C252.582 122.418 249.702 120.758 249.702 116.706C249.823 114.474 250.468 112.302 251.585 110.366C252.703 108.43 254.261 106.784 256.134 105.564Z" fill="#101010"/>
<path opacity="0.7" d="M268.668 127.431C268.668 120.694 263.945 117.96 258.099 121.329L254.437 123.44C248.604 126.809 243.868 135.01 243.868 141.747V143.566C247.249 144.676 251.496 144.078 256.073 141.405C261.143 138.278 265.43 134.032 268.607 128.993L268.668 127.431Z" fill="#101010"/>
<path d="M217.763 169.293L243.282 154.562C244.503 153.891 245.394 154.428 245.394 155.783V156.625C245.355 157.358 245.144 158.072 244.777 158.708C244.41 159.345 243.898 159.885 243.282 160.286L217.763 175.017C216.603 175.688 215.651 175.139 215.651 173.797V172.954C215.691 172.221 215.903 171.508 216.269 170.871C216.636 170.235 217.148 169.695 217.763 169.293Z" fill="#37ED81"/>
<path opacity="0.1" d="M217.763 169.293L243.282 154.562C244.503 153.891 245.394 154.428 245.394 155.783V156.625C245.355 157.358 245.144 158.072 244.777 158.708C244.41 159.345 243.898 159.885 243.282 160.286L217.763 175.017C216.603 175.688 215.651 175.139 215.651 173.797V172.954C215.691 172.221 215.903 171.508 216.269 170.871C216.636 170.235 217.148 169.695 217.763 169.293Z" fill="black"/>
<path d="M216.713 187.079L293.919 142.508C294.493 142.166 294.969 142.434 294.969 143.118V152.125C294.947 152.49 294.841 152.846 294.659 153.163C294.477 153.481 294.224 153.752 293.919 153.955L216.713 198.527C216.127 198.868 215.651 198.588 215.651 197.916V188.909C215.672 188.542 215.779 188.185 215.964 187.867C216.148 187.549 216.405 187.279 216.713 187.079Z" fill="#37ED81"/>
<path opacity="0.2" d="M216.713 187.079L293.919 142.508C294.493 142.166 294.969 142.434 294.969 143.118V152.125C294.947 152.49 294.841 152.846 294.659 153.163C294.477 153.481 294.224 153.752 293.919 153.955L216.713 198.527C216.127 198.868 215.651 198.588 215.651 197.916V188.909C215.672 188.542 215.779 188.185 215.964 187.867C216.148 187.549 216.405 187.279 216.713 187.079Z" fill="#101010"/>
<path d="M217.763 209.361L243.282 194.63C244.503 193.959 245.394 194.508 245.394 195.851V196.693C245.356 197.426 245.145 198.141 244.778 198.777C244.411 199.414 243.899 199.954 243.282 200.354L217.763 215.085C216.603 215.769 215.651 215.219 215.651 213.865V213.023C215.693 212.29 215.905 211.577 216.272 210.941C216.639 210.305 217.149 209.764 217.763 209.361Z" fill="#37ED81"/>
<path opacity="0.1" d="M217.763 209.361L243.282 194.63C244.503 193.959 245.394 194.508 245.394 195.851V196.693C245.356 197.426 245.145 198.141 244.778 198.777C244.411 199.414 243.899 199.954 243.282 200.354L217.763 215.085C216.603 215.769 215.651 215.219 215.651 213.865V213.023C215.693 212.29 215.905 211.577 216.272 210.941C216.639 210.305 217.149 209.764 217.763 209.361Z" fill="black"/>
<path d="M216.713 227.143L293.919 182.572C294.493 182.23 294.969 182.511 294.969 183.182V192.189C294.947 192.554 294.841 192.91 294.659 193.228C294.477 193.545 294.224 193.816 293.919 194.02L216.713 238.591C216.127 238.933 215.651 238.664 215.651 237.981V228.974C215.672 228.607 215.779 228.25 215.964 227.932C216.148 227.614 216.405 227.343 216.713 227.143Z" fill="#37ED81"/>
<path opacity="0.2" d="M216.713 227.143L293.919 182.572C294.493 182.23 294.969 182.511 294.969 183.182V192.189C294.947 192.554 294.841 192.91 294.659 193.228C294.477 193.545 294.224 193.816 293.919 194.02L216.713 238.591C216.127 238.933 215.651 238.664 215.651 237.981V228.974C215.672 228.607 215.779 228.25 215.964 227.932C216.148 227.614 216.405 227.343 216.713 227.143Z" fill="#101010"/>
<path d="M247.505 232.26L278.017 214.673C279.237 213.989 280.14 214.539 280.14 215.893V225.315C280.1 226.05 279.887 226.765 279.518 227.401C279.149 228.037 278.634 228.577 278.017 228.977L247.505 246.576C246.285 247.247 245.394 246.698 245.394 245.355V235.921C245.436 235.189 245.649 234.476 246.016 233.84C246.382 233.205 246.892 232.663 247.505 232.26Z" fill="#37ED81"/>
<path opacity="0.1" d="M247.505 232.26L278.017 214.673C279.237 213.989 280.14 214.539 280.14 215.893V225.315C280.1 226.05 279.887 226.765 279.518 227.401C279.149 228.037 278.634 228.577 278.017 228.977L247.505 246.576C246.285 247.247 245.394 246.698 245.394 245.355V235.921C245.436 235.189 245.649 234.476 246.016 233.84C246.382 233.205 246.892 232.663 247.505 232.26Z" fill="black"/>
<path d="M319.756 192.491C319.756 192.491 304.769 171.817 303.89 169.303C303.195 167.447 303.89 164.689 304.11 163.408C304.33 162.126 304.525 159.27 304.745 158.526C305.111 157.135 303.317 157.415 302.304 158.685C301.291 159.954 300.949 162.492 300.424 162.907C299.899 163.322 295.909 157.501 293.822 154.816C291.735 152.131 290.429 150.495 289.147 151.496C288.232 152.216 288.915 153.778 290.429 156.073C291.313 157.308 292.127 158.592 292.87 159.917C293.102 160.418 291.857 160.454 291.185 161.492C290.661 162.297 291.185 163.603 290.453 164.225C290.002 164.568 289.694 165.065 289.586 165.621C289.478 166.177 289.578 166.753 289.867 167.24C291.226 169.373 292.978 171.229 295.03 172.708C297.276 174.258 298.179 174.807 299.509 176.918C300.839 179.03 312.775 200.595 313.581 201.889C314.386 203.183 315.936 205.819 318.292 205.892C320.647 205.965 339.931 189.367 340.919 188.537C344.092 185.889 345.105 185.51 345.642 187.89C345.828 188.736 345.966 189.592 346.057 190.453C346.436 193.48 348.498 204.293 348.498 204.293C348.498 204.293 358.262 209.016 366.28 206.734C374.299 204.452 377.008 201.047 377.008 201.047L372.993 194.505C374.079 191.808 379.095 180.873 380.718 173.22L355.577 169.156C355.064 169.046 354.234 168.839 353.136 168.558C351.757 168.192 348.254 166.984 345.606 169.303C336.965 176.833 319.781 192.491 319.781 192.491" fill="#FFA8A7"/>
<path d="M369.6 319.344L365.096 325.605C367.143 326.56 369.38 327.04 371.638 327.008C375.678 327.155 376.788 325.788 376.935 325.519C377.618 324.055 376.557 321.418 376.264 319.148L369.6 319.344Z" fill="#37474F"/>
<path d="M365.353 322.606C365.353 322.606 359.885 322.252 356.114 321.788C352.343 321.324 349.352 323.155 350.231 324.705C351.11 326.255 353.197 327.549 356.443 328.635C359.214 329.575 362.546 330.246 365.426 331.076C368.306 331.906 370.308 332.992 371.98 332.406C373.847 331.759 374.653 331.015 374.494 329.648C374.086 327.703 373.581 325.781 372.981 323.887L365.353 322.606Z" fill="#37474F"/>
<path d="M376.935 313.062C376.935 313.062 376.252 318.749 376.203 319.97C376.154 321.19 370.65 321.581 369.6 319.347L369.429 312.391L376.935 313.062Z" fill="#F28F8F"/>
<path d="M371.394 316.551L373.359 325.192C373.359 325.192 373.542 326.241 369.051 326.912C364.56 327.584 357.505 324.557 356.297 323.947C355.089 323.337 354.955 322.104 359.373 322.348C363.791 322.592 365.353 322.604 365.353 322.604L363.913 318.784L371.394 316.551Z" fill="#FFA8A7"/>
<path d="M380.645 173.148L383.757 172.281C383.757 172.281 390.263 192.87 390.983 194.86C391.703 196.849 392.52 198.948 391.117 201.401C389.445 204.318 380.645 216.047 380.645 216.047L375.056 210.579L381.402 198.961L375.788 187.61L380.645 173.148Z" fill="#F28F8F"/>
<path d="M348.681 146.408C347.952 145.038 347.581 143.506 347.605 141.954C347.628 140.402 348.045 138.882 348.816 137.535C351.916 131.787 358.823 128.992 367.049 130.054C370.857 130.554 375.348 133.715 377.802 138.438C380.511 143.674 380.767 154.219 381.463 158.21L348.681 146.408Z" fill="#37474F"/>
<path d="M348.462 148.664C348.462 148.664 346.509 152.386 346.851 152.728C347.357 153.024 347.91 153.23 348.486 153.338L348.462 148.664Z" fill="#FFA8A7"/>
<path d="M354.393 136.901C352.269 138.28 348.608 140.819 348.449 149.179C348.279 157.722 349.499 160.542 350.768 161.53C351.623 162.201 356.639 161.86 358.787 161.359C360.935 160.859 367.122 157.796 369.356 153.146C371.98 147.678 371.443 139.721 367.55 137.28C365.568 136.108 363.321 135.459 361.02 135.392C358.719 135.326 356.439 135.845 354.393 136.901Z" fill="#FFA8A7"/>
<path d="M376.935 201C380.694 206.858 384.258 211.984 385.039 218.599C386.65 232.5 381.377 248.39 380.242 258.679C382.377 261.605 383.607 265.093 383.782 268.711C383.782 272.971 376.935 313.063 376.935 313.063C376.935 313.063 371.955 314.576 369.429 312.391L364.73 238.639L367.171 229.656L376.935 201Z" fill="#37ED81"/>
<path opacity="0.2" d="M376.935 201C380.694 206.858 384.258 211.984 385.039 218.599C386.65 232.5 381.377 248.39 380.242 258.679C382.377 261.605 383.607 265.093 383.782 268.711C383.782 272.971 376.935 313.063 376.935 313.063C376.935 313.063 371.955 314.576 369.429 312.391L364.73 238.639L367.171 229.656L376.935 201Z" fill="black"/>
<path d="M364.73 238.64L367.171 229.658C371.845 228.427 376.353 226.637 380.596 224.324C380.596 224.324 378.058 228.95 370.759 231.488L366.988 243.022L366.671 269.445L364.73 238.64Z" fill="#37ED81"/>
<path opacity="0.3" d="M364.73 238.64L367.171 229.658C371.845 228.427 376.353 226.637 380.596 224.324C380.596 224.324 378.058 228.95 370.759 231.488L366.988 243.022L366.671 269.445L364.73 238.64Z" fill="black"/>
<path d="M376.935 201C378.949 204.295 383.757 209.909 382.732 215.316C381.512 221.858 377.972 226.459 367.208 229.656L357.102 266.27C357.102 266.27 362.363 271.152 363.974 275.875C365.585 280.598 371.394 316.578 371.394 316.578C371.394 316.578 369.588 319.519 363.913 318.811C363.913 318.811 344.129 273.654 342.738 270.713C341.049 267.734 340.457 264.258 341.066 260.888C341.688 256.153 348.388 204.32 348.388 204.32L376.935 201Z" fill="#37ED81"/>
<path opacity="0.2" d="M376.935 201C378.949 204.295 383.757 209.909 382.732 215.316C381.512 221.858 377.972 226.459 367.208 229.656L357.102 266.27C357.102 266.27 362.363 271.152 363.974 275.875C365.585 280.598 371.394 316.578 371.394 316.578C371.394 316.578 369.588 319.519 363.913 318.811C363.913 318.811 344.129 273.654 342.738 270.713C341.049 267.734 340.457 264.258 341.066 260.888C341.688 256.153 348.388 204.32 348.388 204.32L376.935 201Z" fill="black"/>
<path d="M380.645 173.147L355.504 169.082C354.991 168.973 354.161 168.765 353.063 168.484C353.063 168.484 351.989 184.253 345.533 187.865C345.691 188.622 345.825 189.464 345.948 190.428C346.326 193.455 348.388 204.268 348.388 204.268C348.388 204.268 358.152 208.991 366.171 206.709C374.189 204.427 376.898 201.022 376.898 201.022L372.883 194.48C374.006 191.759 379.059 180.823 380.645 173.147Z" fill="#37ED81"/>
<path opacity="0.7" d="M380.645 173.147L355.504 169.082C354.991 168.973 354.161 168.765 353.063 168.484C353.063 168.484 351.989 184.253 345.533 187.865C345.691 188.622 345.825 189.464 345.948 190.428C346.326 193.455 348.388 204.268 348.388 204.268C348.388 204.268 358.152 208.991 366.171 206.709C374.189 204.427 376.898 201.022 376.898 201.022L372.883 194.48C374.006 191.759 379.059 180.823 380.645 173.147Z" fill="#101010"/>
<path d="M374.018 191.883C370.679 193.888 367.181 195.614 363.559 197.045C366.847 196.98 370.065 196.09 372.92 194.458L374.018 191.883Z" fill="#37ED81"/>
<path d="M353.771 137.316C353.771 137.316 352.55 145.249 355.431 149.911C355.431 149.911 356.505 146.75 359.177 147.348C361.85 147.946 361.997 151.473 360.117 153.451C359.639 154.005 359.015 154.414 358.316 154.63C357.616 154.846 356.87 154.86 356.163 154.671C356.163 154.671 355.736 160.407 355.504 165.216C355.272 170.024 354.003 180.508 359.409 184.743C364.816 188.978 378.387 190.467 384.746 181.582C388.285 176.639 383.587 167.901 381.402 158.101C379.388 149.094 378.253 135.742 368.697 133.594C359.141 131.446 353.771 137.316 353.771 137.316Z" fill="#37474F"/>
<path d="M388.835 28.9247L386.821 30.1452C386.99 29.4287 387.084 28.6965 387.102 27.9606C387.102 23.872 384.233 22.2244 380.694 24.2992C379.617 24.9489 378.656 25.7739 377.85 26.7401C377.85 21.248 373.994 19.0146 369.234 21.7606C366.726 23.3964 364.638 25.6003 363.141 28.1937C361.644 30.7871 360.78 33.6968 360.618 36.6869C360.618 36.9676 360.618 37.2361 360.618 37.5046C359.391 37.3503 358.15 37.6357 357.115 38.3101C355.25 39.5253 353.698 41.1632 352.584 43.0908C351.471 45.0184 350.828 47.1813 350.707 49.4041C350.707 49.9208 350.76 50.4361 350.866 50.9418L349.792 51.5643C346.875 53.2485 344.507 56.5316 344.507 58.887C344.507 61.2425 346.875 61.8039 349.792 60.1075L388.847 37.59C391.764 35.9058 394.131 32.6227 394.131 30.2672C394.131 27.9118 391.751 27.2283 388.835 28.9247Z" fill="#EBEBEB"/>
</svg>
