<svg width="40" height="40" viewBox="0 0 40 40" fill="none" xmlns="http://www.w3.org/2000/svg">
<g id="Projects">
<g id="Group">
<path id="Vector" d="M5.33258 23.702V6.66536C5.33258 5.78131 5.68377 4.93346 6.30889 4.30834C6.93401 3.68322 7.78186 3.33203 8.66591 3.33203H31.3326C32.2166 3.33203 33.0645 3.68322 33.6896 4.30834C34.3147 4.93346 34.6659 5.78131 34.6659 6.66536V23.702M5.33258 23.702H34.6659M5.33258 23.702L2.86591 32.4254C2.72581 32.921 2.70248 33.4424 2.79774 33.9485C2.893 34.4547 3.10426 34.9319 3.41495 35.3427C3.72563 35.7535 4.12729 36.0867 4.5884 36.3162C5.04951 36.5457 5.55752 36.6652 6.07258 36.6654H33.9259C34.441 36.6652 34.949 36.5457 35.4101 36.3162C35.8712 36.0867 36.2729 35.7535 36.5835 35.3427C36.8942 34.9319 37.1055 34.4547 37.2007 33.9485C37.296 33.4424 37.2727 32.921 37.1326 32.4254L34.6659 23.702" stroke="#37ED81" stroke-width="1.5"/>
<path id="Vector_2" d="M18.332 31.6667H21.6654M23.332 10L26.6654 13.3333L23.332 16.6667M16.6654 10L13.332 13.3333L16.6654 16.6667" stroke="#4BA25D" stroke-width="1.5" stroke-linecap="round" stroke-linejoin="round"/>
</g>
</g>
</svg>
