<svg width="40" height="40" viewBox="0 0 40 40" fill="none" xmlns="http://www.w3.org/2000/svg">
<g id="certificate">
<path id="Vector" d="M21.6673 35L25.0007 33.3333L28.334 35V23.3333H21.6673M28.334 15V11.6667L25.0007 13.3333L21.6673 11.6667V15L18.334 16.6667L21.6673 18.3333V21.6667L25.0007 20L28.334 21.6667V18.3333L31.6673 16.6667M33.334 5H6.66732C5.78326 5 4.93542 5.35119 4.31029 5.97631C3.68517 6.60143 3.33398 7.44928 3.33398 8.33333V25C3.33398 25.8841 3.68517 26.7319 4.31029 27.357C4.93542 27.9821 5.78326 28.3333 6.66732 28.3333H18.334V25H6.66732V8.33333H33.334V25H31.6673V28.3333H33.334C34.218 28.3333 35.0659 27.9821 35.691 27.357C36.3161 26.7319 36.6673 25.8841 36.6673 25V8.33333C36.6673 7.44928 36.3161 6.60143 35.691 5.97631C35.0659 5.35119 34.218 5 33.334 5ZM18.334 13.3333H8.33398V10H18.334M15.0007 18.3333H8.33398V15H15.0007M18.334 23.3333H8.33398V20H18.334V23.3333Z" fill="#37ED81"/>
</g>
</svg>
