<svg width="40" height="40" viewBox="0 0 40 40" fill="none" xmlns="http://www.w3.org/2000/svg">
<g id="partners">
<path id="Vector" d="M36.1841 14.5174C38.2674 12.4341 37.3174 10.0008 36.1841 8.81744L31.1841 3.81744C29.0841 1.73411 26.6674 2.68411 25.4841 3.81744L22.6508 6.66744H18.3341C15.1674 6.66744 13.3341 8.33411 12.4008 10.2508L5.00078 17.6508V24.3174L3.81744 25.4841C1.73411 27.5841 2.68411 30.0008 3.81744 31.1841L8.81744 36.1841C9.71744 37.0841 10.6841 37.4174 11.6008 37.4174C12.7841 37.4174 13.8674 36.8341 14.5174 36.1841L19.0174 31.6674H25.0008C27.8341 31.6674 29.2674 29.9008 29.7841 28.1674C31.6674 27.6674 32.7008 26.2341 33.1174 24.8341C35.7008 24.1674 36.6674 21.7174 36.6674 20.0008V15.0008H35.6841L36.1841 14.5174ZM33.3341 20.0008C33.3341 20.7508 33.0174 21.6674 31.6674 21.6674H30.0008V23.3341C30.0008 24.0841 29.6841 25.0008 28.3341 25.0008H26.6674V26.6674C26.6674 27.4174 26.3508 28.3341 25.0008 28.3341H17.6508L12.1841 33.8008C11.6674 34.2841 11.3674 34.0008 11.1841 33.8174L6.20078 28.8508C5.71744 28.3341 6.00078 28.0341 6.18411 27.8508L8.33411 25.6841V19.0174L11.6674 15.6841V18.3341C11.6674 20.3508 13.0008 23.3341 16.6674 23.3341C20.3341 23.3341 21.6674 20.3508 21.6674 18.3341H33.3341V20.0008ZM33.8174 12.1508L30.9841 15.0008H18.3341V18.3341C18.3341 19.0841 18.0174 20.0008 16.6674 20.0008C15.3174 20.0008 15.0008 19.0841 15.0008 18.3341V13.3341C15.0008 12.5674 15.2841 10.0008 18.3341 10.0008H24.0174L27.8174 6.20078C28.3341 5.71744 28.6341 6.00078 28.8174 6.18411L33.8008 11.1508C34.2841 11.6674 34.0008 11.9674 33.8174 12.1508Z" fill="#37ED81"/>
</g>
</svg>
