<svg width="40" height="40" viewBox="0 0 40 40" fill="none" xmlns="http://www.w3.org/2000/svg">
<g id="Live Mock Interviews">
<g id="Group">
<g id="Vector">
<path d="M1.66602 33.3333V31.6667C1.66602 28.5725 2.89518 25.605 5.0831 23.4171C7.27103 21.2292 10.2385 20 13.3327 20C16.4269 20 19.3943 21.2292 21.5823 23.4171C23.7702 25.605 24.9993 28.5725 24.9993 31.6667V33.3333" fill="#4BA25D"/>
<path d="M1.66602 33.3333V31.6667C1.66602 28.5725 2.89518 25.605 5.0831 23.4171C7.27103 21.2292 10.2385 20 13.3327 20C16.4269 20 19.3943 21.2292 21.5823 23.4171C23.7702 25.605 24.9994 28.5725 24.9994 31.6667V33.3333" stroke="#37ED81" stroke-width="1.5" stroke-linecap="round"/>
</g>
<path id="Vector_2" d="M21.666 23.3333C21.666 21.1232 22.544 19.0036 24.1068 17.4408C25.6696 15.878 27.7892 15 29.9993 15C31.0937 15 32.1773 15.2155 33.1884 15.6343C34.1994 16.0531 35.1181 16.667 35.8919 17.4408C36.6657 18.2146 37.2796 19.1333 37.6983 20.1443C38.1171 21.1554 38.3327 22.239 38.3327 23.3333V24.1667" stroke="#37ED81" stroke-width="1.5" stroke-linecap="round"/>
<path id="Vector_3" d="M13.3327 20C15.1008 20 16.7965 19.2976 18.0467 18.0474C19.297 16.7971 19.9993 15.1014 19.9993 13.3333C19.9993 11.5652 19.297 9.86953 18.0467 8.61929C16.7965 7.36905 15.1008 6.66667 13.3327 6.66667C11.5646 6.66667 9.86888 7.36905 8.61864 8.61929C7.36839 9.86953 6.66602 11.5652 6.66602 13.3333C6.66602 15.1014 7.36839 16.7971 8.61864 18.0474C9.86888 19.2976 11.5646 20 13.3327 20ZM29.9994 15C31.3254 15 32.5972 14.4732 33.5349 13.5355C34.4726 12.5979 34.9994 11.3261 34.9994 10C34.9994 8.67392 34.4726 7.40215 33.5349 6.46447C32.5972 5.52678 31.3254 5 29.9994 5C28.6733 5 27.4015 5.52678 26.4638 6.46447C25.5261 7.40215 24.9993 8.67392 24.9993 10C24.9993 11.3261 25.5261 12.5979 26.4638 13.5355C27.4015 14.4732 28.6733 15 29.9994 15Z" stroke="#37ED81" stroke-width="1.5" stroke-linecap="round" stroke-linejoin="round"/>
</g>
</g>
</svg>
