<svg width="36" height="40" viewBox="0 0 36 40" fill="none" xmlns="http://www.w3.org/2000/svg">
<g id="guidance">
<path id="Vector" d="M11.3779 10.4516H18.3943L21.4431 13.5004V10.4516H29.3523C29.7183 10.4516 30.0151 10.1552 30.0151 9.7892V0.6628C30.0151 0.2968 29.7183 0 29.3523 0H11.3779C11.0119 0 10.7151 0.2968 10.7151 0.6628V9.7888C10.7155 10.1552 11.0123 10.4516 11.3779 10.4516ZM25.5695 3.8408C26.3347 3.8408 26.9551 4.4612 26.9551 5.2264C26.9551 5.9912 26.3347 6.6116 25.5695 6.6116C24.8043 6.6116 24.1839 5.9912 24.1839 5.2264C24.1839 4.4608 24.8043 3.8408 25.5695 3.8408ZM20.3651 3.8408C21.1299 3.8408 21.7503 4.4612 21.7503 5.2264C21.7503 5.9912 21.1299 6.6116 20.3651 6.6116C19.6003 6.6116 18.9799 5.9912 18.9799 5.2264C18.9799 4.4608 19.6003 3.8408 20.3651 3.8408ZM15.1611 3.8408C15.9263 3.8408 16.5463 4.4612 16.5463 5.2264C16.5463 5.9912 15.9263 6.6116 15.1611 6.6116C14.3959 6.6116 13.7755 5.9912 13.7755 5.2264C13.7755 4.4608 14.3959 3.8408 15.1611 3.8408ZM4.93434 17.4144C4.93434 14.1504 7.58034 11.5052 10.8439 11.5052C14.1075 11.5052 16.7535 14.1504 16.7535 17.4144C16.7535 20.678 14.1075 23.3236 10.8439 23.3236C7.58034 23.324 4.93434 20.678 4.93434 17.4144ZM35.1659 30.512V40H31.5951C31.5951 38.3572 31.5951 32.2296 31.5951 31.2992C31.5951 30.124 30.5003 30.0664 30.5003 30.0664V40H21.8023C21.8019 37.9592 21.8019 31.8732 21.8019 30.8608C21.8019 29.8484 21.5931 27.7436 19.4767 25.9128C20.7367 24.846 22.3063 24.2176 23.9815 24.2176H28.3211C31.7971 24.2172 35.1659 27.036 35.1659 30.512ZM20.8503 31.1536V40H16.8863C16.8863 38.1764 16.8863 33.0596 16.8863 32.0272C16.8863 30.722 15.6707 30.6584 15.6707 30.6584V40H6.01634C6.01594 37.7352 6.01594 30.6584 6.01594 30.6584C6.01594 30.6584 4.79994 30.7496 4.79994 32.0272C4.79994 33.0388 4.79994 38.172 4.79994 40H0.835938V31.1536C0.835938 27.2948 4.57634 24.1664 8.43514 24.1664H13.2519C17.1107 24.1664 20.8503 27.2944 20.8503 31.1536ZM31.4755 18.1348C31.4755 21.0752 29.0919 23.4588 26.1515 23.4588C23.2111 23.4588 20.8275 21.0752 20.8275 18.1348C20.8275 15.1944 23.2111 12.8112 26.1515 12.8112C29.0919 12.8112 31.4755 15.1944 31.4755 18.1348Z" fill="#37ED81"/>
</g>
</svg>
