<svg width="40" height="40" viewBox="0 0 40 40" fill="none" xmlns="http://www.w3.org/2000/svg">
<g id="Resume">
<path id="Vector" d="M21.666 14.9987H30.8327L21.666 5.83203V14.9987ZM9.99935 3.33203H23.3327L33.3327 13.332V33.332C33.3327 34.2161 32.9815 35.0639 32.3564 35.6891C31.7312 36.3142 30.8834 36.6654 29.9993 36.6654H9.99935C9.11529 36.6654 8.26745 36.3142 7.64233 35.6891C7.0172 35.0639 6.66602 34.2161 6.66602 33.332V6.66536C6.66602 4.81536 8.14935 3.33203 9.99935 3.33203ZM23.3327 33.332V31.6654C23.3327 29.4487 18.8827 28.332 16.666 28.332C14.4493 28.332 9.99935 29.4487 9.99935 31.6654V33.332H23.3327ZM16.666 19.9987C15.782 19.9987 14.9341 20.3499 14.309 20.975C13.6839 21.6001 13.3327 22.448 13.3327 23.332C13.3327 24.2161 13.6839 25.0639 14.309 25.6891C14.9341 26.3142 15.782 26.6654 16.666 26.6654C17.5501 26.6654 18.3979 26.3142 19.023 25.6891C19.6482 25.0639 19.9993 24.2161 19.9993 23.332C19.9993 22.448 19.6482 21.6001 19.023 20.975C18.3979 20.3499 17.5501 19.9987 16.666 19.9987Z" fill="#37ED81"/>
</g>
</svg>
