<svg width="40" height="40" viewBox="0 0 40 40" fill="none" xmlns="http://www.w3.org/2000/svg">
<g id="Placement/Job">
<g id="Group">
<path id="Vector" d="M36.6673 13.6007V13.7223C36.6673 15.1557 36.6673 15.874 36.3223 16.4607C35.9773 17.0473 35.349 17.3957 34.0957 18.094L32.774 18.8273C33.684 15.7473 33.989 12.4373 34.1007 9.60734L34.1173 9.23901L34.1207 9.15234C35.2057 9.52901 35.8157 9.81068 36.1957 10.3373C36.6673 10.9923 36.6673 11.8623 36.6673 13.6007ZM3.33398 13.6007V13.7223C3.33398 15.1557 3.33398 15.874 3.67898 16.4607C4.02398 17.0473 4.65232 17.3957 5.90565 18.094L7.22898 18.8273C6.31732 15.7473 6.01232 12.4373 5.90065 9.60734L5.88398 9.23901L5.88232 9.15234C4.79565 9.52901 4.18565 9.81068 3.80565 10.3373C3.33398 10.9923 3.33398 11.864 3.33398 13.6007Z" fill="#37ED81"/>
<path id="Vector_2" fill-rule="evenodd" clip-rule="evenodd" d="M20.0013 3.33242C22.9746 3.33242 25.4229 3.59409 27.2963 3.91076C29.1946 4.23076 30.1429 4.39076 30.9363 5.36742C31.7296 6.34409 31.6863 7.39909 31.6029 9.50909C31.3163 16.7574 29.7529 25.8091 21.2513 26.6091V32.4991H23.6346C24.0197 32.4993 24.3929 32.6329 24.6907 32.8772C24.9885 33.1215 25.1924 33.4614 25.2679 33.8391L25.5846 35.4158H30.0013C30.3328 35.4158 30.6507 35.5474 30.8851 35.7819C31.1196 36.0163 31.2513 36.3342 31.2513 36.6658C31.2513 36.9973 31.1196 37.3152 30.8851 37.5496C30.6507 37.7841 30.3328 37.9158 30.0013 37.9158H10.0013C9.66974 37.9158 9.35179 37.7841 9.11737 37.5496C8.88295 37.3152 8.75126 36.9973 8.75126 36.6658C8.75126 36.3342 8.88295 36.0163 9.11737 35.7819C9.35179 35.5474 9.66974 35.4158 10.0013 35.4158H14.4179L14.7346 33.8391C14.8101 33.4614 15.014 33.1215 15.3118 32.8772C15.6096 32.6329 15.9828 32.4993 16.3679 32.4991H18.7513V26.6091C10.2513 25.8091 8.68792 16.7558 8.40126 9.50909C8.31626 7.39909 8.27459 6.34242 9.06792 5.36742C9.85959 4.39076 10.8079 4.23076 12.7063 3.91076C15.1176 3.51555 17.5577 3.3221 20.0013 3.33242ZM21.5879 10.3308L21.4246 10.0374C20.7913 8.89909 20.4746 8.33242 20.0013 8.33242C19.5279 8.33242 19.2113 8.89909 18.5779 10.0374L18.4146 10.3308C18.2346 10.6541 18.1446 10.8141 18.0046 10.9208C17.8629 11.0274 17.6879 11.0674 17.3379 11.1458L17.0213 11.2191C15.7913 11.4974 15.1763 11.6358 15.0296 12.1058C14.8829 12.5774 15.3029 13.0674 16.1413 14.0474L16.3579 14.3008C16.5963 14.5791 16.7163 14.7174 16.7696 14.8908C16.8229 15.0641 16.8046 15.2491 16.7696 15.6208L16.7363 15.9591C16.6096 17.2674 16.5463 17.9224 16.9279 18.2124C17.3113 18.5024 17.8879 18.2374 19.0396 17.7074L19.3363 17.5708C19.6646 17.4208 19.8279 17.3458 20.0013 17.3458C20.1746 17.3458 20.3379 17.4208 20.6663 17.5708L20.9629 17.7074C22.1146 18.2391 22.6913 18.5024 23.0746 18.2124C23.4579 17.9224 23.3929 17.2674 23.2663 15.9591L23.2329 15.6208C23.1979 15.2491 23.1796 15.0641 23.2329 14.8908C23.2863 14.7191 23.4063 14.5791 23.6446 14.3008L23.8613 14.0474C24.6996 13.0674 25.1196 12.5774 24.9729 12.1058C24.8263 11.6358 24.2113 11.4974 22.9813 11.2191L22.6646 11.1458C22.3146 11.0674 22.1396 11.0291 21.9979 10.9208C21.8579 10.8141 21.7679 10.6541 21.5879 10.3308Z" fill="#37ED81"/>
</g>
</g>
</svg>
