<svg width="41" height="40" viewBox="0 0 41 40" fill="none" xmlns="http://www.w3.org/2000/svg">
<path d="M8.83334 35.0013C7.91667 35.0013 7.13167 34.6746 6.47834 34.0213C5.825 33.368 5.49889 32.5835 5.5 31.668V8.33464C5.5 7.41797 5.82667 6.63297 6.48 5.97964C7.13334 5.3263 7.91778 5.00019 8.83334 5.0013H15.8333C16.1944 4.0013 16.7989 3.19575 17.6467 2.58464C18.4944 1.97352 19.4456 1.66797 20.5 1.66797C21.5556 1.66797 22.5072 1.97352 23.355 2.58464C24.2028 3.19575 24.8067 4.0013 25.1667 5.0013H32.1667C33.0833 5.0013 33.8683 5.32797 34.5217 5.9813C35.175 6.63464 35.5011 7.41908 35.5 8.33464V31.668C35.5 32.5846 35.1733 33.3696 34.52 34.023C33.8667 34.6763 33.0822 35.0024 32.1667 35.0013H8.83334ZM8.83334 31.668H32.1667V8.33464H8.83334V31.668ZM13.8333 28.3346H22.1667C22.6389 28.3346 23.035 28.1746 23.355 27.8546C23.675 27.5346 23.8344 27.1391 23.8333 26.668C23.8333 26.1957 23.6733 25.7996 23.3533 25.4796C23.0333 25.1596 22.6378 25.0002 22.1667 25.0013H13.8333C13.3611 25.0013 12.965 25.1613 12.645 25.4813C12.325 25.8013 12.1656 26.1969 12.1667 26.668C12.1667 27.1402 12.3267 27.5363 12.6467 27.8563C12.9667 28.1763 13.3622 28.3357 13.8333 28.3346ZM13.8333 21.668H27.1667C27.6389 21.668 28.035 21.508 28.355 21.188C28.675 20.868 28.8344 20.4724 28.8333 20.0013C28.8333 19.5291 28.6733 19.133 28.3533 18.813C28.0333 18.493 27.6378 18.3335 27.1667 18.3346H13.8333C13.3611 18.3346 12.965 18.4946 12.645 18.8146C12.325 19.1346 12.1656 19.5302 12.1667 20.0013C12.1667 20.4735 12.3267 20.8696 12.6467 21.1896C12.9667 21.5096 13.3622 21.6691 13.8333 21.668ZM13.8333 15.0013H27.1667C27.6389 15.0013 28.035 14.8413 28.355 14.5213C28.675 14.2013 28.8344 13.8057 28.8333 13.3346C28.8333 12.8624 28.6733 12.4663 28.3533 12.1463C28.0333 11.8263 27.6378 11.6669 27.1667 11.668H13.8333C13.3611 11.668 12.965 11.828 12.645 12.148C12.325 12.468 12.1656 12.8635 12.1667 13.3346C12.1667 13.8069 12.3267 14.203 12.6467 14.523C12.9667 14.843 13.3622 15.0024 13.8333 15.0013ZM20.5 7.08464C20.8611 7.08464 21.1594 6.9663 21.395 6.72964C21.6306 6.49297 21.7489 6.19464 21.75 5.83464C21.75 5.47352 21.6317 5.17519 21.395 4.93964C21.1583 4.70408 20.86 4.58575 20.5 4.58464C20.1389 4.58464 19.8406 4.70297 19.605 4.93964C19.3694 5.1763 19.2511 5.47464 19.25 5.83464C19.25 6.19575 19.3683 6.49408 19.605 6.72964C19.8417 6.96519 20.14 7.08352 20.5 7.08464Z" fill="#37ED81"/>
</svg>
