<svg width="41" height="40" viewBox="0 0 41 40" fill="none" xmlns="http://www.w3.org/2000/svg">
<path d="M21.75 11.668C21.75 11.3364 21.6183 11.0185 21.3839 10.7841C21.1495 10.5497 20.8315 10.418 20.5 10.418C20.1685 10.418 19.8505 10.5497 19.6161 10.7841C19.3817 11.0185 19.25 11.3364 19.25 11.668V20.0013C19.2499 20.2132 19.3037 20.4217 19.4063 20.6071C19.509 20.7926 19.657 20.9488 19.8367 21.0613L24.8367 24.1863C25.1178 24.3622 25.4573 24.4193 25.7805 24.3449C25.9405 24.308 26.0917 24.2401 26.2255 24.1448C26.3592 24.0495 26.4729 23.9288 26.56 23.7896C26.6471 23.6504 26.7059 23.4954 26.7332 23.3335C26.7604 23.1716 26.7554 23.0058 26.7186 22.8458C26.6817 22.6858 26.6138 22.5346 26.5185 22.4008C26.4232 22.2671 26.3025 22.1534 26.1633 22.0663L21.75 19.308V11.668Z" fill="#37ED81"/>
<path fill-rule="evenodd" clip-rule="evenodd" d="M20.5003 5.41797C16.6326 5.41797 12.9233 6.95442 10.1884 9.68933C7.45345 12.4242 5.91699 16.1336 5.91699 20.0013C5.91699 23.869 7.45345 27.5784 10.1884 30.3133C12.9233 33.0482 16.6326 34.5846 20.5003 34.5846C24.3681 34.5846 28.0774 33.0482 30.8123 30.3133C33.5472 27.5784 35.0837 23.869 35.0837 20.0013C35.0837 16.1336 33.5472 12.4242 30.8123 9.68933C28.0774 6.95442 24.3681 5.41797 20.5003 5.41797ZM8.41699 20.0013C8.41699 18.4145 8.72954 16.8432 9.33678 15.3772C9.94403 13.9112 10.8341 12.5791 11.9561 11.4571C13.0782 10.3351 14.4102 9.445 15.8762 8.83776C17.3423 8.23051 18.9135 7.91797 20.5003 7.91797C22.0871 7.91797 23.6584 8.23051 25.1244 8.83776C26.5904 9.445 27.9225 10.3351 29.0445 11.4571C30.1666 12.5791 31.0566 13.9112 31.6639 15.3772C32.2711 16.8432 32.5837 18.4145 32.5837 20.0013C32.5837 23.206 31.3106 26.2794 29.0445 28.5455C26.7785 30.8116 23.705 32.0846 20.5003 32.0846C17.2956 32.0846 14.2222 30.8116 11.9561 28.5455C9.69005 26.2794 8.41699 23.206 8.41699 20.0013Z" fill="#37ED81"/>
</svg>
