<svg width="41" height="40" viewBox="0 0 41 40" fill="none" xmlns="http://www.w3.org/2000/svg">
<path d="M20.4997 36.6654C18.2219 36.6654 16.0691 36.2276 14.0413 35.352C12.0136 34.4765 10.2425 33.282 8.72801 31.7687C7.21468 30.2554 6.02023 28.4848 5.14468 26.457C4.26912 24.4293 3.8319 22.2765 3.83301 19.9987C3.83301 17.6931 4.27079 15.5331 5.14634 13.5187C6.0219 11.5043 7.21634 9.74092 8.72968 8.2287C10.243 6.71425 12.013 5.51981 14.0397 4.64536C16.0663 3.77092 18.2197 3.33314 20.4997 3.33203C22.8052 3.33203 24.9652 3.76981 26.9797 4.64536C28.9941 5.52092 30.7575 6.71537 32.2697 8.2287C33.7841 9.74203 34.9786 11.5059 35.853 13.5204C36.7275 15.5348 37.1652 17.6943 37.1663 19.9987C37.1663 22.2765 36.7286 24.4293 35.853 26.457C34.9775 28.4848 33.783 30.2559 32.2697 31.7704C30.7563 33.2837 28.9925 34.4781 26.978 35.3537C24.9636 36.2293 22.8041 36.6665 20.4997 36.6654ZM20.4997 33.2487C21.2219 32.2487 21.8469 31.207 22.3747 30.1237C22.9025 29.0404 23.333 27.8876 23.6663 26.6654H17.333C17.6663 27.8876 18.0969 29.0404 18.6247 30.1237C19.1525 31.207 19.7775 32.2487 20.4997 33.2487ZM16.1663 32.582C15.6663 31.6654 15.2286 30.7137 14.853 29.727C14.4775 28.7404 14.1652 27.7198 13.9163 26.6654H8.99968C9.80523 28.0543 10.8125 29.2626 12.0213 30.2904C13.2302 31.3181 14.6119 32.082 16.1663 32.582ZM24.833 32.582C26.3886 32.082 27.7708 31.3181 28.9797 30.2904C30.1886 29.2626 31.1952 28.0543 31.9997 26.6654H27.083C26.833 27.7209 26.5208 28.742 26.1463 29.7287C25.7719 30.7154 25.3341 31.6665 24.833 32.582ZM7.58301 23.332H13.2497C13.1663 22.7765 13.1036 22.2276 13.0613 21.6854C13.0191 21.1431 12.9986 20.5809 12.9997 19.9987C12.9997 19.4154 13.0208 18.8531 13.063 18.312C13.1052 17.7709 13.1675 17.222 13.2497 16.6654H7.58301C7.44412 17.2209 7.33968 17.7698 7.26968 18.312C7.19968 18.8543 7.16523 19.4165 7.16634 19.9987C7.16634 20.582 7.20134 21.1443 7.27134 21.6854C7.34134 22.2265 7.44523 22.7754 7.58301 23.332ZM16.583 23.332H24.4163C24.4997 22.7765 24.5625 22.2276 24.6047 21.6854C24.6469 21.1431 24.6675 20.5809 24.6663 19.9987C24.6663 19.4154 24.6452 18.8531 24.603 18.312C24.5608 17.7709 24.4986 17.222 24.4163 16.6654H16.583C16.4997 17.2209 16.4369 17.7698 16.3947 18.312C16.3525 18.8543 16.3319 19.4165 16.333 19.9987C16.333 20.582 16.3541 21.1443 16.3963 21.6854C16.4386 22.2265 16.5008 22.7754 16.583 23.332ZM27.7497 23.332H33.4163C33.5552 22.7765 33.6597 22.2276 33.7297 21.6854C33.7997 21.1431 33.8341 20.5809 33.833 19.9987C33.833 19.4154 33.798 18.8531 33.728 18.312C33.658 17.7709 33.5541 17.222 33.4163 16.6654H27.7497C27.833 17.2209 27.8958 17.7698 27.938 18.312C27.9802 18.8543 28.0008 19.4165 27.9997 19.9987C27.9997 20.582 27.9786 21.1443 27.9363 21.6854C27.8941 22.2265 27.8319 22.7754 27.7497 23.332ZM27.083 13.332H31.9997C31.1941 11.9431 30.1875 10.7348 28.9797 9.70703C27.7719 8.67925 26.3897 7.91536 24.833 7.41536C25.333 8.33203 25.7708 9.2837 26.1463 10.2704C26.5219 11.257 26.8341 12.2776 27.083 13.332ZM17.333 13.332H23.6663C23.333 12.1098 22.9025 10.957 22.3747 9.8737C21.8469 8.79037 21.2219 7.7487 20.4997 6.7487C19.7775 7.7487 19.1525 8.79037 18.6247 9.8737C18.0969 10.957 17.6663 12.1098 17.333 13.332ZM8.99968 13.332H13.9163C14.1663 12.2765 14.4791 11.2554 14.8547 10.2687C15.2302 9.28203 15.6675 8.33092 16.1663 7.41536C14.6108 7.91536 13.2286 8.67925 12.0197 9.70703C10.8108 10.7348 9.80412 11.9431 8.99968 13.332Z" fill="#37ED81"/>
</svg>
