<svg width="41" height="40" viewBox="0 0 41 40" fill="none" xmlns="http://www.w3.org/2000/svg">
<path d="M7.99967 16.6663H17.1663C18.3331 16.6636 19.4621 16.2529 20.3579 15.5055C21.2538 14.758 21.86 13.7208 22.0717 12.5734C22.2834 11.4261 22.0871 10.2408 21.517 9.22289C20.9468 8.20497 20.0386 7.41849 18.9497 6.99964C18.323 5.76969 17.3301 4.76459 16.1078 4.12308C14.8856 3.48156 13.4943 3.23526 12.1261 3.41817C10.7579 3.60109 9.48024 4.2042 8.46944 5.14425C7.45863 6.0843 6.76455 7.31495 6.48301 8.6663C5.60769 9.03822 4.88594 9.6984 4.43765 10.5372C3.98937 11.376 3.84152 12.3429 4.01867 13.2773C4.19582 14.2117 4.6873 15.0574 5.41148 15.6739C6.13567 16.2904 7.04896 16.6406 7.99967 16.6663ZM7.99967 11.6663C8.4417 11.6663 8.86562 11.4907 9.17819 11.1781C9.49075 10.8656 9.66634 10.4417 9.66634 9.99964C9.67184 9.21342 9.95508 8.45445 10.466 7.85685C10.9769 7.25926 11.6826 6.86149 12.4585 6.73385C13.2343 6.60621 14.0302 6.75692 14.7057 7.15933C15.3811 7.56174 15.8926 8.18996 16.1497 8.93297C16.2474 9.21626 16.4198 9.46795 16.6486 9.66154C16.8774 9.85512 17.1541 9.98344 17.4497 10.033C17.8353 10.0995 18.1853 10.2996 18.4382 10.5982C18.6911 10.8969 18.8309 11.275 18.833 11.6663C18.833 12.1083 18.6574 12.5323 18.3449 12.8448C18.0323 13.1574 17.6084 13.333 17.1663 13.333H7.99967C7.77866 13.333 7.5667 13.2452 7.41042 13.0889C7.25414 12.9326 7.16634 12.7207 7.16634 12.4996C7.16634 12.2786 7.25414 12.0667 7.41042 11.9104C7.5667 11.7541 7.77866 11.6663 7.99967 11.6663ZM35.4997 26.6663H33.833V14.9996C33.833 13.6736 33.3062 12.4018 32.3685 11.4641C31.4309 10.5264 30.1591 9.99964 28.833 9.99964H27.1663C26.7243 9.99964 26.3004 10.1752 25.9878 10.4878C25.6753 10.8004 25.4997 11.2243 25.4997 11.6663C25.4997 12.1083 25.6753 12.5323 25.9878 12.8448C26.3004 13.1574 26.7243 13.333 27.1663 13.333H28.833C29.275 13.333 29.699 13.5086 30.0115 13.8211C30.3241 14.1337 30.4997 14.5576 30.4997 14.9996V26.6663H10.4997V21.6663C10.4997 21.2243 10.3241 20.8004 10.0115 20.4878C9.69896 20.1752 9.27504 19.9996 8.83301 19.9996C8.39098 19.9996 7.96706 20.1752 7.6545 20.4878C7.34194 20.8004 7.16634 21.2243 7.16634 21.6663V26.6663H5.49967C5.05765 26.6663 4.63372 26.8419 4.32116 27.1545C4.0086 27.467 3.83301 27.8909 3.83301 28.333V31.6663C3.83301 32.9924 4.35979 34.2642 5.29747 35.2018C6.23516 36.1395 7.50693 36.6663 8.83301 36.6663H32.1663C33.4924 36.6663 34.7642 36.1395 35.7019 35.2018C36.6396 34.2642 37.1663 32.9924 37.1663 31.6663V28.333C37.1663 27.8909 36.9907 27.467 36.6782 27.1545C36.3656 26.8419 35.9417 26.6663 35.4997 26.6663ZM33.833 31.6663C33.833 32.1083 33.6574 32.5323 33.3449 32.8448C33.0323 33.1574 32.6084 33.333 32.1663 33.333H8.83301C8.39098 33.333 7.96706 33.1574 7.6545 32.8448C7.34194 32.5323 7.16634 32.1083 7.16634 31.6663V29.9996H33.833V31.6663Z" fill="#37ED81"/>
</svg>
