<svg width="41" height="40" viewBox="0 0 41 40" fill="none" xmlns="http://www.w3.org/2000/svg">
<path d="M2.16699 33.3333V31.6667C2.16699 28.5725 3.39616 25.605 5.58408 23.4171C7.772 21.2292 10.7395 20 13.8337 20C16.9279 20 19.8953 21.2292 22.0832 23.4171C24.2712 25.605 25.5003 28.5725 25.5003 31.6667V33.3333" stroke="#37ED81" stroke-width="1.5" stroke-linecap="round"/>
<path d="M22.167 23.3333C22.167 21.1232 23.045 19.0036 24.6078 17.4408C26.1706 15.878 28.2902 15 30.5003 15C31.5947 15 32.6783 15.2155 33.6894 15.6343C34.7004 16.0531 35.6191 16.667 36.3929 17.4408C37.1667 18.2146 37.7805 19.1333 38.1993 20.1443C38.6181 21.1554 38.8337 22.239 38.8337 23.3333V24.1667" stroke="#37ED81" stroke-width="1.5" stroke-linecap="round"/>
<path d="M13.8337 20C15.6018 20 17.2975 19.2976 18.5477 18.0474C19.7979 16.7971 20.5003 15.1014 20.5003 13.3333C20.5003 11.5652 19.7979 9.86953 18.5477 8.61929C17.2975 7.36905 15.6018 6.66667 13.8337 6.66667C12.0655 6.66667 10.3699 7.36905 9.11961 8.61929C7.86937 9.86953 7.16699 11.5652 7.16699 13.3333C7.16699 15.1014 7.86937 16.7971 9.11961 18.0474C10.3699 19.2976 12.0655 20 13.8337 20ZM30.5003 15C31.8264 15 33.0982 14.4732 34.0359 13.5355C34.9735 12.5979 35.5003 11.3261 35.5003 10C35.5003 8.67392 34.9735 7.40215 34.0359 6.46447C33.0982 5.52678 31.8264 5 30.5003 5C29.1742 5 27.9025 5.52678 26.9648 6.46447C26.0271 7.40215 25.5003 8.67392 25.5003 10C25.5003 11.3261 26.0271 12.5979 26.9648 13.5355C27.9025 14.4732 29.1742 15 30.5003 15Z" stroke="#37ED81" stroke-width="1.5" stroke-linecap="round" stroke-linejoin="round"/>
</svg>
