<svg width="41" height="40" viewBox="0 0 41 40" fill="none" xmlns="http://www.w3.org/2000/svg">
<path d="M5.83355 23.702V6.66536C5.83355 5.78131 6.18474 4.93346 6.80986 4.30834C7.43499 3.68322 8.28283 3.33203 9.16689 3.33203H31.8336C32.7176 3.33203 33.5655 3.68322 34.1906 4.30834C34.8157 4.93346 35.1669 5.78131 35.1669 6.66536V23.702M5.83355 23.702H35.1669H5.83355ZM5.83355 23.702L3.36689 32.4254C3.22679 32.921 3.20346 33.4424 3.29872 33.9485C3.39398 34.4547 3.60524 34.9319 3.91593 35.3427C4.22661 35.7535 4.62827 36.0867 5.08937 36.3162C5.55048 36.5457 6.0585 36.6652 6.57355 36.6654H34.4269C34.9419 36.6652 35.45 36.5457 35.9111 36.3162C36.3722 36.0867 36.7738 35.7535 37.0845 35.3427C37.3952 34.9319 37.6065 34.4547 37.7017 33.9485C37.797 33.4424 37.7737 32.921 37.6336 32.4254L35.1669 23.702" fill="#37ED81"/>
<path d="M5.83355 23.702V6.66536C5.83355 5.78131 6.18474 4.93346 6.80986 4.30834C7.43499 3.68322 8.28283 3.33203 9.16689 3.33203H31.8336C32.7176 3.33203 33.5655 3.68322 34.1906 4.30834C34.8157 4.93346 35.1669 5.78131 35.1669 6.66536V23.702M5.83355 23.702H35.1669M5.83355 23.702L3.36689 32.4254C3.22679 32.921 3.20346 33.4424 3.29872 33.9485C3.39398 34.4547 3.60524 34.9319 3.91593 35.3427C4.22661 35.7535 4.62827 36.0867 5.08937 36.3162C5.55048 36.5457 6.0585 36.6652 6.57355 36.6654H34.4269C34.9419 36.6652 35.45 36.5457 35.9111 36.3162C36.3722 36.0867 36.7738 35.7535 37.0845 35.3427C37.3952 34.9319 37.6065 34.4547 37.7017 33.9485C37.797 33.4424 37.7737 32.921 37.6336 32.4254L35.1669 23.702" stroke="#202925" stroke-width="1.5"/>
<path d="M18.834 31.6667H22.1673M23.834 10L27.1673 13.3333L23.834 16.6667M17.1673 10L13.834 13.3333L17.1673 16.6667" stroke="#202925" stroke-width="1.5" stroke-linecap="round" stroke-linejoin="round"/>
</svg>
