<svg width="20" height="20" viewBox="0 0 20 20" fill="none" xmlns="http://www.w3.org/2000/svg">
<path d="M0.833984 16.6667V15.8333C0.833984 14.2862 1.44857 12.8025 2.54253 11.7085C3.63649 10.6146 5.12022 10 6.66732 10C8.21441 10 9.69814 10.6146 10.7921 11.7085C11.8861 12.8025 12.5007 14.2862 12.5007 15.8333V16.6667" fill="#BBFFD7"/>
<path d="M0.833984 16.6667V15.8333C0.833984 14.2862 1.44857 12.8025 2.54253 11.7085C3.63649 10.6146 5.12022 10 6.66732 10C8.21441 10 9.69815 10.6146 10.7921 11.7085C11.8861 12.8025 12.5007 14.2862 12.5007 15.8333V16.6667" stroke="white" stroke-width="1.5" stroke-linecap="round"/>
<path d="M10.834 11.6667C10.834 10.5616 11.273 9.50179 12.0544 8.72039C12.8358 7.93899 13.8956 7.5 15.0007 7.5C15.5478 7.5 16.0896 7.60777 16.5952 7.81717C17.1007 8.02656 17.56 8.33348 17.9469 8.72039C18.3338 9.1073 18.6408 9.56663 18.8501 10.0722C19.0595 10.5777 19.1673 11.1195 19.1673 11.6667V12.0833" stroke="white" stroke-width="1.5" stroke-linecap="round"/>
<path d="M6.66732 10C7.55137 10 8.39922 9.64881 9.02434 9.02369C9.64946 8.39857 10.0007 7.55072 10.0007 6.66667C10.0007 5.78261 9.64946 4.93477 9.02434 4.30964C8.39922 3.68452 7.55137 3.33333 6.66732 3.33333C5.78326 3.33333 4.93542 3.68452 4.31029 4.30964C3.68517 4.93477 3.33398 5.78261 3.33398 6.66667C3.33398 7.55072 3.68517 8.39857 4.31029 9.02369C4.93542 9.64881 5.78326 10 6.66732 10ZM15.0007 7.5C15.6637 7.5 16.2996 7.23661 16.7684 6.76777C17.2373 6.29893 17.5007 5.66304 17.5007 5C17.5007 4.33696 17.2373 3.70107 16.7684 3.23223C16.2996 2.76339 15.6637 2.5 15.0007 2.5C14.3376 2.5 13.7017 2.76339 13.2329 3.23223C12.764 3.70107 12.5007 4.33696 12.5007 5C12.5007 5.66304 12.764 6.29893 13.2329 6.76777C13.7017 7.23661 14.3376 7.5 15.0007 7.5Z" stroke="white" stroke-width="1.5" stroke-linecap="round" stroke-linejoin="round"/>
</svg>
