<svg width="543" height="400" viewBox="0 0 543 400" fill="none" xmlns="http://www.w3.org/2000/svg">
<path d="M488.067 372.625H452.137V372.896H488.067V372.625Z" fill="#EBEBEB"/>
<path d="M359.334 375.594H349.906V375.865H359.334V375.594Z" fill="#EBEBEB"/>
<path d="M451.06 362.562H430.242V362.834H451.06V362.562Z" fill="#EBEBEB"/>
<path d="M103.768 364.383H56.9141V364.654H103.768V364.383Z" fill="#EBEBEB"/>
<path d="M120.305 364.383H113.438V364.654H120.305V364.383Z" fill="#EBEBEB"/>
<path d="M244.253 368.969H142.625V369.24H244.253V368.969Z" fill="#EBEBEB"/>
<path d="M258.634 306.793H49.1515C47.5086 306.793 45.933 306.141 44.7713 304.979C43.6097 303.817 42.957 302.242 42.957 300.599V6.1402C42.9713 4.50675 43.6303 2.94507 44.7904 1.79509C45.9505 0.645114 47.518 -6.26235e-05 49.1515 4.5591e-09H258.634C259.448 4.55911e-09 260.253 0.160223 261.005 0.471523C261.756 0.782823 262.439 1.2391 263.014 1.81431C263.59 2.38952 264.046 3.07239 264.357 3.82394C264.669 4.57548 264.829 5.38098 264.829 6.19444V300.599C264.829 301.412 264.669 302.218 264.357 302.969C264.046 303.721 263.59 304.404 263.014 304.979C262.439 305.554 261.756 306.01 261.005 306.322C260.253 306.633 259.448 306.793 258.634 306.793ZM49.1515 0.216969C47.5814 0.219837 46.0765 0.84481 44.9663 1.95501C43.8561 3.06521 43.2311 4.57014 43.2282 6.1402V300.599C43.2311 302.169 43.8561 303.674 44.9663 304.784C46.0765 305.894 47.5814 306.519 49.1515 306.522H258.634C260.204 306.519 261.709 305.894 262.82 304.784C263.93 303.674 264.555 302.169 264.558 300.599V6.1402C264.555 4.57014 263.93 3.06521 262.82 1.95501C261.709 0.84481 260.204 0.219837 258.634 0.216969H49.1515Z" fill="#EBEBEB"/>
<path d="M493.267 306.793H283.784C282.141 306.793 280.566 306.141 279.404 304.979C278.242 303.817 277.59 302.242 277.59 300.599V6.1402C277.604 4.50675 278.263 2.94507 279.423 1.79509C280.583 0.645114 282.151 -6.26235e-05 283.784 4.5591e-09H493.267C494.91 4.55911e-09 496.486 0.652627 497.647 1.81431C498.809 2.97599 499.462 4.55158 499.462 6.19444V300.599C499.462 302.242 498.809 303.817 497.647 304.979C496.486 306.141 494.91 306.793 493.267 306.793ZM283.784 0.216969C282.214 0.219837 280.709 0.84481 279.599 1.95501C278.489 3.06521 277.864 4.57014 277.861 6.1402V300.599C277.864 302.169 278.489 303.674 279.599 304.784C280.709 305.894 282.214 306.519 283.784 306.522H493.267C494.837 306.519 496.342 305.894 497.452 304.784C498.563 303.674 499.188 302.169 499.19 300.599V6.1402C499.188 4.57014 498.563 3.06521 497.452 1.95501C496.342 0.84481 494.837 0.219837 493.267 0.216969H283.784Z" fill="#EBEBEB"/>
<path d="M542.421 355.18H0V355.451H542.421V355.18Z" fill="#EBEBEB"/>
<path d="M441.295 119.117H398.4C397.431 119.117 396.471 119.308 395.575 119.68C394.679 120.051 393.865 120.596 393.18 121.282C392.495 121.968 391.952 122.782 391.582 123.679C391.212 124.575 391.022 125.535 391.023 126.505V154.125C391.022 155.095 391.212 156.055 391.582 156.951C391.952 157.848 392.495 158.662 393.18 159.348C393.865 160.034 394.679 160.579 395.575 160.95C396.471 161.322 397.431 161.513 398.4 161.513H410.735L416.246 168.716C416.669 169.27 417.214 169.718 417.839 170.026C418.464 170.335 419.151 170.496 419.848 170.496C420.544 170.496 421.232 170.335 421.856 170.026C422.481 169.718 423.026 169.27 423.449 168.716L428.96 161.513H441.295C442.265 161.513 443.225 161.322 444.121 160.95C445.016 160.579 445.83 160.034 446.515 159.348C447.2 158.662 447.743 157.848 448.113 156.951C448.484 156.055 448.673 155.095 448.672 154.125V126.505C448.673 125.535 448.484 124.575 448.113 123.679C447.743 122.782 447.2 121.968 446.515 121.282C445.83 120.596 445.016 120.051 444.121 119.68C443.225 119.308 442.265 119.117 441.295 119.117Z" fill="#E0E0E0"/>
<path d="M410.627 143.265C409.704 142.441 408.957 141.441 408.429 140.322C407.902 139.204 407.605 137.991 407.556 136.755C407.51 135.97 407.632 135.183 407.912 134.448C408.193 133.713 408.627 133.046 409.185 132.491C409.743 131.936 410.412 131.506 411.149 131.229C411.886 130.953 412.673 130.836 413.458 130.886C416.778 130.886 417.906 132.427 419.848 134.651C421.79 132.481 422.918 130.886 426.237 130.886C427.023 130.836 427.81 130.953 428.547 131.229C429.283 131.506 429.953 131.936 430.511 132.491C431.069 133.046 431.503 133.713 431.783 134.448C432.064 135.183 432.185 135.97 432.139 136.755C432.09 137.991 431.793 139.204 431.266 140.322C430.739 141.441 429.991 142.441 429.069 143.265L419.848 152.442L410.627 143.265Z" fill="white"/>
<path d="M109.418 336.29C108.339 335.329 107.462 334.163 106.84 332.859C106.218 331.555 105.862 330.139 105.795 328.696C105.735 327.769 105.874 326.841 106.203 325.972C106.532 325.104 107.043 324.316 107.702 323.662C108.361 323.007 109.152 322.501 110.022 322.177C110.893 321.854 111.822 321.72 112.748 321.786C116.654 321.786 117.988 323.597 120.277 326.223C122.566 323.597 123.901 321.786 127.806 321.786C128.732 321.72 129.662 321.854 130.532 322.177C131.403 322.501 132.194 323.007 132.852 323.662C133.511 324.316 134.022 325.104 134.351 325.972C134.68 326.841 134.819 327.769 134.76 328.696C134.692 330.139 134.337 331.555 133.714 332.859C133.092 334.163 132.216 335.329 131.137 336.29L120.288 347.138L109.418 336.29Z" fill="#E0E0E0"/>
<path d="M133.942 348.527C133.289 347.932 132.761 347.213 132.388 346.413C132.016 345.612 131.806 344.745 131.773 343.862C131.739 343.296 131.826 342.73 132.029 342.2C132.231 341.671 132.543 341.191 132.946 340.791C133.348 340.392 133.831 340.083 134.362 339.885C134.893 339.687 135.46 339.604 136.025 339.642C138.412 339.642 139.28 340.727 140.625 342.343C142.024 340.748 142.795 339.642 145.225 339.642C145.79 339.604 146.357 339.687 146.888 339.885C147.419 340.083 147.902 340.392 148.304 340.791C148.706 341.191 149.019 341.671 149.221 342.2C149.424 342.73 149.511 343.296 149.477 343.862C149.444 344.745 149.234 345.612 148.862 346.413C148.489 347.213 147.961 347.932 147.308 348.527L140.668 355.133L133.942 348.527Z" fill="#EBEBEB"/>
<path d="M412.478 40.4414H363.269C361.022 40.4414 358.867 41.3341 357.278 42.923C355.69 44.5119 354.797 46.6669 354.797 48.914V80.6022C354.797 82.8503 355.689 85.0065 357.278 86.5971C358.866 88.1878 361.021 89.0828 363.269 89.0857H377.427L383.74 97.3413C384.225 97.9777 384.851 98.4935 385.568 98.8485C386.284 99.2036 387.074 99.3883 387.874 99.3883C388.674 99.3883 389.463 99.2036 390.18 98.8485C390.897 98.4935 391.522 97.9777 392.007 97.3413L398.332 89.0857H412.435C414.684 89.0857 416.842 88.1919 418.433 86.601C420.024 85.01 420.918 82.8522 420.918 80.6022V48.914C420.918 46.6726 420.03 44.5225 418.448 42.9345C416.866 41.3465 414.719 40.45 412.478 40.4414Z" fill="#F5F5F5"/>
<path d="M372.425 77.5045H378.001V57.6953H371.492L372.425 77.5045Z" fill="#E0E0E0"/>
<path d="M403.857 60.7577C403.575 59.879 402.685 58.0348 401.839 57.6659C399.398 56.5811 394.05 56.9174 389.32 57.5358C389.515 57.1561 389.678 56.8198 389.776 56.5811C390.342 55.1538 390.676 53.6447 390.763 52.1116C390.687 51.0267 390.199 48.7268 389.32 48.1627C388.973 47.9914 388.59 47.9023 388.203 47.9023C387.815 47.9023 387.433 47.9914 387.085 48.1627C386.142 49.1499 386.793 52.2526 386.424 53.5869C385.593 55.3962 384.496 57.071 383.169 58.5555C381.509 58.8593 380.457 59.0871 380.457 59.0871V76.5856C380.457 76.5856 394.744 80.4693 399.344 79.2109C401.112 78.7336 401.948 75.6635 402.599 73.9494C403.781 70.8685 404.866 63.9255 403.857 60.7577Z" fill="#E0E0E0"/>
<path d="M288.027 67.9759C287.776 64.8707 286.366 61.9737 284.076 59.861C281.787 57.7484 278.786 56.575 275.671 56.5742H266.753C263.638 56.575 260.637 57.7484 258.348 59.861C256.058 61.9737 254.648 64.8707 254.397 67.9759L253.648 75.5698H288.776L288.027 67.9759Z" fill="#EBEBEB"/>
<path d="M271.212 56.572C275.831 56.572 279.576 52.8273 279.576 48.2079C279.576 43.5885 275.831 39.8438 271.212 39.8438C266.592 39.8438 262.848 43.5885 262.848 48.2079C262.848 52.8273 266.592 56.572 271.212 56.572Z" fill="#EBEBEB"/>
<path d="M105.227 184.572C103.939 184.569 102.69 185.01 101.69 185.82L94.9748 180.396C95.3775 179.618 95.5859 178.754 95.5823 177.879C95.5822 176.608 95.1499 175.375 94.3562 174.383C93.5626 173.39 92.455 172.698 91.2154 172.418C89.9758 172.139 88.6781 172.29 87.5354 172.845C86.3928 173.401 85.4733 174.329 84.9282 175.477C84.383 176.625 84.2445 177.924 84.5355 179.161C84.8265 180.398 85.5297 181.499 86.5295 182.283C87.5292 183.068 88.7661 183.488 90.0367 183.477C91.3073 183.465 92.5361 183.021 93.5211 182.218L100.236 187.642C99.8373 188.423 99.6292 189.288 99.6292 190.165C99.6292 191.042 99.8373 191.906 100.236 192.687L93.5211 198.111C92.5361 197.308 91.3073 196.864 90.0367 196.853C88.7661 196.841 87.5292 197.262 86.5295 198.046C85.5297 198.83 84.8265 199.931 84.5355 201.168C84.2445 202.405 84.383 203.704 84.9282 204.852C85.4733 206 86.3928 206.928 87.5354 207.484C88.6781 208.04 89.9758 208.19 91.2154 207.911C92.455 207.632 93.5626 206.939 94.3562 205.946C95.1499 204.954 95.5822 203.721 95.5823 202.45C95.5834 201.575 95.3751 200.712 94.9748 199.934L101.69 194.509C102.385 195.076 103.206 195.467 104.083 195.65C104.961 195.833 105.87 195.803 106.733 195.561C107.596 195.32 108.389 194.875 109.045 194.263C109.7 193.652 110.199 192.892 110.5 192.047C110.801 191.202 110.894 190.298 110.772 189.41C110.65 188.522 110.317 187.676 109.8 186.943C109.283 186.21 108.598 185.613 107.802 185.2C107.006 184.788 106.123 184.572 105.227 184.572Z" fill="#E0E0E0"/>
<path d="M271.203 399.998C387.371 399.998 481.543 394.5 481.543 387.718C481.543 380.936 387.371 375.438 271.203 375.438C155.036 375.438 60.8633 380.936 60.8633 387.718C60.8633 394.5 155.036 399.998 271.203 399.998Z" fill="#F5F5F5"/>
<path d="M376.296 235.508H458.407C461.434 235.508 464.337 236.71 466.477 238.85C468.618 240.991 469.82 243.894 469.82 246.92V309.331C469.82 312.358 468.618 315.261 466.477 317.401C464.337 319.541 461.434 320.744 458.407 320.744H396.409C395.812 325.623 393.454 330.116 389.779 333.38C386.103 336.644 381.363 338.454 376.448 338.47C375.992 338.47 375.547 338.47 375.092 338.405C378.346 334.174 380.917 328.056 382.631 320.755H376.35C373.323 320.755 370.42 319.552 368.28 317.412C366.14 315.272 364.938 312.369 364.938 309.342V246.92C364.937 243.903 366.132 241.008 368.261 238.87C370.389 236.731 373.278 235.522 376.296 235.508Z" fill="#37ED81"/>
<path opacity="0.4" d="M376.296 235.508H458.407C461.434 235.508 464.337 236.71 466.477 238.85C468.618 240.991 469.82 243.894 469.82 246.92V309.331C469.82 312.358 468.618 315.261 466.477 317.401C464.337 319.541 461.434 320.744 458.407 320.744H396.409C395.812 325.623 393.454 330.116 389.779 333.38C386.103 336.644 381.363 338.454 376.448 338.47C375.992 338.47 375.547 338.47 375.092 338.405C378.346 334.174 380.917 328.056 382.631 320.755H376.35C373.323 320.755 370.42 319.552 368.28 317.412C366.14 315.272 364.938 312.369 364.938 309.342V246.92C364.937 243.903 366.132 241.008 368.261 238.87C370.389 236.731 373.278 235.522 376.296 235.508Z" fill="white"/>
<path d="M372.407 259.779L368.35 252.912L370.888 248.573C371.053 248.291 371.152 247.976 371.178 247.651C371.205 247.327 371.157 247 371.04 246.696L370.845 246.208C370.693 245.801 370.422 245.449 370.069 245.198C369.715 244.946 369.293 244.807 368.859 244.797L364.878 244.689C364.474 244.675 364.074 244.774 363.723 244.975C363.372 245.177 363.085 245.472 362.893 245.828L362.09 247.303C361.896 247.659 361.788 248.055 361.775 248.46C361.762 248.866 361.844 249.268 362.014 249.636L363.728 253.335L366.907 261.84L372.407 259.779Z" fill="#7F3E3B"/>
<path d="M404.723 258.567L381.54 275.436L370.691 255.062L364.508 257.742C364.508 257.742 374.044 288.617 379.587 287.369C385.131 286.122 400.774 278.387 405.862 273.082C408.433 270.402 410.386 265.488 407.847 259.413C407.73 259.122 407.547 258.862 407.313 258.654C407.078 258.445 406.798 258.294 406.496 258.212C406.193 258.13 405.875 258.119 405.568 258.181C405.26 258.242 404.971 258.374 404.723 258.567Z" fill="#37ED81"/>
<path d="M413.378 218.398C413.378 218.398 405.199 220.568 408.985 230.429C408.985 230.429 413.064 229.344 413.726 226.719C414.387 224.094 415.017 220.384 415.017 220.384L413.378 218.398Z" fill="#263238"/>
<path opacity="0.3" d="M413.378 218.398C413.378 218.398 405.199 220.568 408.985 230.429C408.985 230.429 413.064 229.344 413.726 226.719C414.387 224.094 415.017 220.384 415.017 220.384L413.378 218.398Z" fill="black"/>
<path d="M432.713 257.598L417.764 257.109L411.581 257.999L410.734 269.27L422.787 273.274L435.642 270.713L436.315 259.854L435.393 257.684L432.713 257.598Z" fill="#7F3E3B"/>
<path d="M412.355 320.744H433.51C433.716 313.291 434.822 274.595 434.594 274.834C434.367 275.072 436.829 266.589 436.829 266.589V263.15L434.594 259.462C434.594 259.462 429.8 266.773 421.902 266.415C414.416 266.068 413.125 258.594 413.125 258.594L412.225 270.017L411.281 297.681L412.485 309.397L412.355 320.744Z" fill="#37ED81"/>
<path opacity="0.6" d="M412.355 320.744H433.51C433.716 313.291 434.822 274.595 434.594 274.834C434.367 275.072 436.829 266.589 436.829 266.589V263.15L434.594 259.462C434.594 259.462 429.8 266.773 421.902 266.415C414.416 266.068 413.125 258.594 413.125 258.594L412.225 270.017L411.281 297.681L412.485 309.397L412.355 320.744Z" fill="white"/>
<path d="M403.961 320.741H415.417C417.673 305.813 417.977 278.519 417.977 278.519C416.609 273.293 415.54 267.994 414.777 262.647C414.083 256.388 423.022 257.223 430.833 258.254C438.643 259.284 424.757 279.039 424.757 279.039C424.757 279.039 423.77 305.737 426.059 320.741H454.265C452.855 316.759 448.689 304.533 447.756 295.865C446.552 285.386 453.766 270.1 452.736 262.647C451.705 255.194 426.981 256.713 426.981 256.713C426.981 256.713 411.154 256.605 407.628 256.768C403.505 256.952 401.856 267.811 399.904 276.392C397.951 284.973 401.542 293.468 403.505 304.262C404.479 309.701 404.633 315.256 403.961 320.741Z" fill="#263238"/>
<path d="M416.584 256.678C421.726 256.678 427.031 256.678 427.031 256.678C427.031 256.678 430.188 256.482 434.289 256.569C435.927 257.654 438.086 260.279 436.372 265.769L432.792 267.146L433.443 270.672C433.443 270.672 429.32 277.181 424.764 279.676C424.764 279.242 424.764 279.004 424.764 279.004C424.764 279.004 438.661 259.249 430.839 258.218C423.017 257.187 414.089 256.352 414.783 262.612C415.547 267.959 416.615 273.258 417.984 278.483C417.984 278.483 417.984 278.591 417.984 278.776C415.814 276.812 413.916 273.352 412.56 269.208L414.024 265.15L410.77 263.371C411.048 261.836 411.734 260.404 412.758 259.226C413.781 258.048 415.103 257.168 416.584 256.678Z" fill="#37ED81"/>
<path d="M416.357 262.588C416.107 262.012 416.005 261.382 416.062 260.756C416.119 260.131 416.333 259.529 416.683 259.008C422.563 257.023 422.02 252.607 420.664 248.518L430.135 238.852C429.582 243.994 429.376 255.829 432.739 259.952V260.896C431.276 262.775 429.319 264.21 427.087 265.039C424.854 265.869 422.435 266.061 420.1 265.593C419.272 265.453 418.493 265.103 417.838 264.577C417.183 264.051 416.673 263.366 416.357 262.588Z" fill="#7F3E3B"/>
<path opacity="0.1" d="M420.656 248.524L428.185 240.844L429.921 241.473C429.867 242.395 429.834 243.404 429.823 244.467C428.869 246.42 426.569 249.164 421.231 250.542C421.076 249.86 420.884 249.186 420.656 248.524Z" fill="black"/>
<path d="M435.007 230.326C432.718 239.08 431.937 242.834 426.567 246.501C418.496 252.022 408.244 247.303 407.864 238.039C407.528 229.696 411.314 216.787 420.687 214.964C422.75 214.553 424.885 214.677 426.887 215.322C428.889 215.968 430.694 217.115 432.128 218.654C433.563 220.193 434.58 222.073 435.084 224.116C435.588 226.158 435.561 228.296 435.007 230.326Z" fill="#7F3E3B"/>
<path d="M414.163 232.59C413.196 234.11 412.028 235.493 410.691 236.701C411.005 237.035 411.388 237.297 411.814 237.467C412.239 237.638 412.696 237.713 413.154 237.689L414.163 232.59Z" fill="#630F0F"/>
<path d="M423.503 229.367C423.565 229.364 423.624 229.345 423.677 229.313C423.717 229.289 423.753 229.258 423.781 229.22C423.809 229.183 423.83 229.14 423.841 229.094C423.852 229.048 423.854 229.001 423.846 228.955C423.838 228.908 423.821 228.864 423.796 228.824C423.463 228.238 422.993 227.741 422.427 227.377C421.86 227.012 421.213 226.79 420.541 226.731C420.494 226.729 420.448 226.737 420.404 226.754C420.36 226.77 420.319 226.796 420.285 226.828C420.251 226.86 420.223 226.899 420.204 226.942C420.185 226.984 420.174 227.031 420.173 227.078C420.17 227.124 420.176 227.171 420.192 227.215C420.207 227.259 420.231 227.299 420.263 227.334C420.294 227.368 420.332 227.396 420.374 227.415C420.417 227.435 420.462 227.445 420.509 227.447C421.061 227.508 421.591 227.699 422.054 228.005C422.518 228.31 422.903 228.721 423.178 229.204C423.213 229.257 423.262 229.3 423.319 229.328C423.376 229.357 423.439 229.37 423.503 229.367Z" fill="#263238"/>
<path d="M408.985 226.731C409.041 226.747 409.102 226.747 409.158 226.731C409.634 226.448 410.17 226.282 410.723 226.246C411.275 226.21 411.828 226.306 412.337 226.525C412.422 226.568 412.521 226.576 412.612 226.547C412.703 226.519 412.779 226.457 412.825 226.373C412.847 226.331 412.861 226.284 412.864 226.236C412.868 226.188 412.862 226.14 412.847 226.095C412.832 226.049 412.808 226.007 412.776 225.971C412.744 225.935 412.706 225.906 412.662 225.885C412.048 225.611 411.377 225.488 410.705 225.526C410.033 225.564 409.38 225.761 408.8 226.102C408.717 226.148 408.654 226.224 408.626 226.315C408.598 226.406 408.606 226.505 408.648 226.59C408.681 226.65 408.73 226.698 408.79 226.731C408.849 226.764 408.917 226.779 408.985 226.774V226.731Z" fill="#263238"/>
<path d="M416.814 240.096C416.395 240.098 415.978 240.061 415.566 239.988C415.537 239.984 415.51 239.974 415.485 239.959C415.46 239.944 415.439 239.925 415.421 239.902C415.404 239.878 415.392 239.852 415.385 239.824C415.378 239.796 415.377 239.767 415.382 239.738C415.392 239.681 415.424 239.631 415.47 239.597C415.516 239.563 415.574 239.547 415.631 239.554C416.547 239.734 417.491 239.697 418.39 239.446C419.288 239.196 420.116 238.738 420.806 238.111C420.849 238.081 420.9 238.067 420.952 238.071C421.004 238.075 421.053 238.096 421.091 238.132C421.129 238.167 421.154 238.214 421.161 238.266C421.168 238.317 421.158 238.37 421.131 238.415C419.961 239.509 418.415 240.111 416.814 240.096Z" fill="#263238"/>
<path d="M432.021 237.176C430.962 235.973 430.176 234.555 429.717 233.02C429.258 231.484 429.138 229.867 429.363 228.28C429.363 228.28 425.837 224.668 426.011 220.806C426.011 220.806 424.926 223.887 426.011 226.078C426.011 226.078 416.866 225.416 417.083 220.806C417.083 220.806 416.475 223.127 417.853 224.332C417.853 224.332 409.727 224.668 410.834 220.459C411.941 216.25 418.298 214.199 418.298 214.199C418.298 214.199 424.362 209.046 432.748 218.148C432.748 218.148 442.62 224.31 435.623 234.594L432.021 237.176Z" fill="#263238"/>
<path d="M435.681 237.757C435.284 238.531 434.736 239.218 434.069 239.778C433.402 240.337 432.629 240.756 431.797 241.011C429.628 241.684 428.424 239.71 428.998 237.594C429.519 235.685 431.298 233.038 433.555 233.255C434.337 233.37 435.042 233.791 435.514 234.426C435.986 235.061 436.186 235.857 436.072 236.639C436.02 237.035 435.887 237.415 435.681 237.757Z" fill="#7F3E3B"/>
<path d="M420.736 231.334C420.649 232.083 420.183 232.658 419.651 232.603C419.12 232.549 418.827 231.909 418.914 231.139C419 230.369 419.456 229.826 419.944 229.87C420.432 229.913 420.812 230.575 420.736 231.334Z" fill="#2E353A"/>
<path d="M412.246 230.453C412.17 231.201 411.703 231.765 411.215 231.722C410.727 231.678 410.38 231.017 410.456 230.257C410.532 229.498 410.998 228.934 411.541 228.988C412.083 229.042 412.246 229.682 412.246 230.453Z" fill="#2E353A"/>
<path d="M411.632 229.048L409.875 228.332C409.875 228.332 410.656 229.84 411.632 229.048Z" fill="#2E353A"/>
<path d="M420.198 229.986L418.43 229.281C418.43 229.281 419.222 230.746 420.198 229.986Z" fill="#2E353A"/>
<path d="M431.254 245.077C431.823 245.078 432.379 244.914 432.856 244.604C433.333 244.295 433.709 243.853 433.939 243.333C434.169 242.813 434.243 242.238 434.151 241.677C434.06 241.116 433.807 240.593 433.424 240.173L433.044 240.521C433.453 240.964 433.678 241.545 433.673 242.148C433.676 242.627 433.535 243.096 433.27 243.496C433.005 243.895 432.627 244.207 432.185 244.392C431.742 244.576 431.255 244.625 430.785 244.532C430.315 244.439 429.883 244.208 429.544 243.869C429.205 243.53 428.974 243.098 428.881 242.628C428.788 242.158 428.837 241.67 429.021 241.228C429.206 240.785 429.517 240.408 429.917 240.143C430.316 239.878 430.786 239.737 431.265 239.739C431.605 239.736 431.942 239.807 432.252 239.946L432.458 239.479C432.084 239.306 431.677 239.217 431.265 239.219C430.88 239.219 430.499 239.295 430.144 239.442C429.789 239.589 429.466 239.805 429.194 240.077C428.922 240.349 428.706 240.672 428.559 241.027C428.412 241.382 428.336 241.763 428.336 242.148C428.336 242.532 428.412 242.913 428.559 243.269C428.706 243.624 428.922 243.947 429.194 244.219C429.466 244.491 429.789 244.707 430.144 244.854C430.499 245.001 430.88 245.077 431.265 245.077H431.254Z" fill="#37ED81"/>
<g opacity="0.6">
<path d="M431.254 245.065C431.823 245.066 432.379 244.902 432.856 244.592C433.333 244.283 433.709 243.841 433.939 243.321C434.169 242.802 434.243 242.226 434.151 241.665C434.06 241.104 433.807 240.582 433.424 240.162L433.044 240.509C433.453 240.952 433.678 241.534 433.673 242.136C433.676 242.615 433.535 243.085 433.27 243.484C433.005 243.884 432.627 244.195 432.185 244.38C431.742 244.564 431.255 244.613 430.785 244.52C430.315 244.427 429.883 244.197 429.544 243.858C429.205 243.519 428.974 243.087 428.881 242.616C428.788 242.146 428.837 241.659 429.021 241.216C429.206 240.774 429.517 240.396 429.917 240.131C430.316 239.866 430.786 239.726 431.265 239.728C431.605 239.725 431.942 239.795 432.252 239.934L432.458 239.467C432.084 239.294 431.677 239.205 431.265 239.207C430.88 239.207 430.499 239.283 430.144 239.43C429.789 239.577 429.466 239.793 429.194 240.065C428.922 240.337 428.706 240.66 428.559 241.015C428.412 241.371 428.336 241.751 428.336 242.136C428.336 242.521 428.412 242.902 428.559 243.257C428.706 243.612 428.922 243.935 429.194 244.207C429.466 244.479 429.789 244.695 430.144 244.842C430.499 244.989 430.88 245.065 431.265 245.065H431.254Z" fill="white"/>
</g>
<path d="M429.239 289.376L421.277 289.724L418.608 285.384C418.436 285.105 418.204 284.868 417.928 284.691C417.651 284.515 417.339 284.403 417.013 284.365L416.493 284.299C416.064 284.244 415.628 284.317 415.242 284.51C414.855 284.704 414.535 285.008 414.323 285.384L412.348 288.845C412.146 289.196 412.046 289.596 412.06 290C412.073 290.405 412.2 290.797 412.424 291.134L413.346 292.533C413.567 292.873 413.865 293.157 414.215 293.36C414.566 293.564 414.96 293.682 415.364 293.705L419.432 293.933L428.437 295.148L429.239 289.376Z" fill="#7F3E3B"/>
<path d="M443.393 260.361L447.353 288.751H424.256L423.703 295.466C423.703 295.466 455.435 301.617 456.943 296.139C458.451 290.661 459.004 273.227 456.726 266.23C455.565 262.704 452.159 258.636 445.606 258.039C445.299 258.012 444.99 258.054 444.701 258.163C444.413 258.272 444.153 258.444 443.94 258.667C443.727 258.89 443.568 259.158 443.473 259.451C443.378 259.745 443.351 260.056 443.393 260.361Z" fill="#37ED81"/>
<path d="M342.462 96.5502H317.11L291.551 388.806H316.904C322.696 388.701 328.249 386.477 332.512 382.555C336.776 378.633 339.455 373.285 340.043 367.522L361.881 117.846C362.182 115.135 361.902 112.391 361.059 109.797C360.215 107.203 358.829 104.819 356.991 102.803C355.153 100.788 352.907 99.1878 350.401 98.1095C347.896 97.0311 345.189 96.4995 342.462 96.5502Z" fill="#263238"/>
<path d="M358.178 125.841C358.232 125.296 358.482 124.79 358.881 124.415C359.279 124.04 359.8 123.822 360.347 123.801C360.609 123.797 360.868 123.848 361.108 123.951C361.348 124.054 361.564 124.207 361.74 124.4C361.916 124.593 362.05 124.821 362.131 125.069C362.213 125.318 362.241 125.581 362.213 125.841L360.499 145.368C360.473 145.936 360.234 146.475 359.83 146.876C359.427 147.278 358.887 147.514 358.319 147.537C358.058 147.54 357.8 147.488 357.561 147.384C357.322 147.28 357.108 147.127 356.933 146.934C356.758 146.742 356.625 146.514 356.544 146.266C356.463 146.019 356.436 145.757 356.464 145.498L358.178 125.841Z" fill="#37ED81"/>
<path opacity="0.3" d="M358.178 125.841C358.232 125.296 358.482 124.79 358.881 124.415C359.279 124.04 359.8 123.822 360.347 123.801C360.609 123.797 360.868 123.848 361.108 123.951C361.348 124.054 361.564 124.207 361.74 124.4C361.916 124.593 362.05 124.821 362.131 125.069C362.213 125.318 362.241 125.581 362.213 125.841L360.499 145.368C360.473 145.936 360.234 146.475 359.83 146.876C359.427 147.278 358.887 147.514 358.319 147.537C358.058 147.54 357.8 147.488 357.561 147.384C357.322 147.28 357.108 147.127 356.933 146.934C356.758 146.742 356.625 146.514 356.544 146.266C356.463 146.019 356.436 145.757 356.464 145.498L358.178 125.841Z" fill="white"/>
<path d="M311.712 388.806H207.252C204.527 388.855 201.822 388.322 199.319 387.244C196.815 386.166 194.57 384.567 192.732 382.553C190.895 380.539 189.508 378.157 188.663 375.565C187.819 372.973 187.536 370.231 187.834 367.522L209.682 117.845C210.263 112.078 212.94 106.725 217.205 102.8C221.47 98.8747 227.027 96.6509 232.822 96.5499H337.281C340.006 96.5014 342.71 97.0337 345.212 98.1113C347.715 99.189 349.96 100.787 351.797 102.8C353.634 104.812 355.021 107.193 355.867 109.784C356.712 112.374 356.996 115.115 356.7 117.824L334.851 367.522C334.263 373.285 331.584 378.633 327.321 382.555C323.057 386.477 317.504 388.701 311.712 388.806Z" fill="#37ED81"/>
<path d="M336.861 101.459H309.74C308.856 101.477 308.005 101.79 307.32 102.348C306.636 102.907 306.158 103.678 305.964 104.54L305.78 105.397C305.309 107.504 304.144 109.391 302.471 110.756C300.799 112.122 298.717 112.886 296.559 112.926H270.718C268.674 112.97 266.695 112.202 265.215 110.792C263.735 109.381 262.874 107.441 262.82 105.397V104.54C262.809 104.124 262.716 103.714 262.546 103.334C262.377 102.954 262.134 102.612 261.831 102.325C261.529 102.039 261.173 101.816 260.785 101.667C260.396 101.518 259.982 101.448 259.566 101.459H232.445C227.984 101.542 223.708 103.255 220.424 106.275C217.14 109.295 215.076 113.413 214.621 117.851L192.718 367.528C192.488 369.615 192.705 371.728 193.356 373.725C194.006 375.723 195.075 377.558 196.49 379.11C197.906 380.662 199.636 381.895 201.565 382.726C203.494 383.557 205.578 383.968 207.678 383.93H312.148C316.61 383.847 320.888 382.133 324.172 379.11C327.456 376.088 329.519 371.968 329.972 367.528L351.821 117.851C352.049 115.764 351.83 113.653 351.179 111.657C350.528 109.661 349.459 107.827 348.044 106.276C346.628 104.725 344.899 103.494 342.971 102.663C341.043 101.833 338.96 101.422 336.861 101.459Z" fill="#37ED81"/>
<path opacity="0.7" d="M336.861 101.459H309.74C308.856 101.477 308.005 101.79 307.32 102.348C306.636 102.907 306.158 103.678 305.964 104.54L305.78 105.397C305.309 107.504 304.144 109.391 302.471 110.756C300.799 112.122 298.717 112.886 296.559 112.926H270.718C268.674 112.97 266.695 112.202 265.215 110.792C263.735 109.381 262.874 107.441 262.82 105.397V104.54C262.809 104.124 262.716 103.714 262.546 103.334C262.377 102.954 262.134 102.612 261.831 102.325C261.529 102.039 261.173 101.816 260.785 101.667C260.396 101.518 259.982 101.448 259.566 101.459H232.445C227.984 101.542 223.708 103.255 220.424 106.275C217.14 109.295 215.076 113.413 214.621 117.851L192.718 367.528C192.488 369.615 192.705 371.728 193.356 373.725C194.006 375.723 195.075 377.558 196.49 379.11C197.906 380.662 199.636 381.895 201.565 382.726C203.494 383.557 205.578 383.968 207.678 383.93H312.148C316.61 383.847 320.888 382.133 324.172 379.11C327.456 376.088 329.519 371.968 329.972 367.528L351.821 117.851C352.049 115.764 351.83 113.653 351.179 111.657C350.528 109.661 349.459 107.827 348.044 106.276C346.628 104.725 344.899 103.494 342.971 102.663C341.043 101.833 338.96 101.422 336.861 101.459Z" fill="white"/>
<g opacity="0.2">
<path d="M277.372 105.649C278.237 104.82 278.324 103.507 277.566 102.715C276.808 101.923 275.491 101.952 274.626 102.781C273.76 103.61 273.673 104.923 274.431 105.715C275.19 106.507 276.506 106.478 277.372 105.649Z" fill="black"/>
<path d="M292.977 102.157H285.86C285.296 102.167 284.755 102.383 284.339 102.765C283.924 103.147 283.662 103.667 283.604 104.229C283.576 104.493 283.605 104.76 283.688 105.012C283.771 105.265 283.907 105.496 284.087 105.692C284.266 105.888 284.485 106.044 284.729 106.149C284.973 106.253 285.237 106.305 285.502 106.301H292.619C293.183 106.288 293.722 106.071 294.138 105.69C294.553 105.309 294.815 104.789 294.875 104.229C294.905 103.964 294.877 103.696 294.795 103.443C294.712 103.19 294.577 102.958 294.397 102.762C294.217 102.565 293.997 102.41 293.752 102.306C293.507 102.201 293.243 102.15 292.977 102.157Z" fill="black"/>
</g>
<path d="M226.379 112.89H228.57L228.766 110.688H226.563L226.379 112.89Z" fill="#37ED81"/>
<path d="M230.961 110.691L230.766 112.894H232.957L233.152 110.691L233.348 108.5H231.145L230.961 110.691Z" fill="#37ED81"/>
<path d="M235.743 106.301L235.548 108.503L235.352 110.694L235.168 112.897H237.359L237.555 110.694L237.75 108.503L237.934 106.301H235.743Z" fill="#37ED81"/>
<path d="M330.199 106.441L330.058 108.047H328.973L328.691 111.302H329.776L329.635 112.918H339.301L339.865 106.474L330.199 106.441ZM334.072 111.269H330.818L331.1 108.014H334.354L334.072 111.269Z" fill="#37ED81"/>
<g opacity="0.4">
<path d="M270.809 112.914L198.699 381.054C201.317 382.94 204.467 383.943 207.693 383.918H213.334L286.213 112.914H270.809Z" fill="white"/>
<path d="M336.873 101.444H309.752C308.869 101.461 308.017 101.774 307.332 102.333C306.648 102.891 306.171 103.663 305.977 104.525L305.792 105.382C305.334 107.433 304.218 109.277 302.614 110.635C301.009 111.992 299.006 112.787 296.907 112.9L223.984 383.915H279.582L351.833 115.243C351.601 111.458 349.915 107.908 347.127 105.336C344.339 102.764 340.665 101.37 336.873 101.444Z" fill="white"/>
</g>
<path d="M227.718 174.22L224.464 173.515C224.254 173.474 224.056 173.388 223.883 173.262C223.71 173.136 223.567 172.974 223.464 172.786C223.36 172.599 223.299 172.392 223.285 172.178C223.27 171.965 223.302 171.751 223.379 171.552L227.925 159.684L233.121 160.768L229.422 173.168C229.324 173.527 229.094 173.835 228.778 174.031C228.462 174.226 228.083 174.294 227.718 174.22Z" fill="#37ED81"/>
<path d="M240.333 159.032C240.119 158.986 239.916 158.897 239.736 158.772C239.556 158.647 239.403 158.488 239.285 158.304C239.167 158.119 239.087 157.913 239.049 157.697C239.011 157.481 239.016 157.26 239.064 157.047L239.498 155.007C239.544 154.792 239.632 154.588 239.758 154.407C239.884 154.227 240.044 154.073 240.23 153.955C240.416 153.836 240.623 153.756 240.84 153.719C241.057 153.682 241.279 153.688 241.494 153.738C241.927 153.831 242.305 154.093 242.545 154.465C242.785 154.838 242.867 155.29 242.774 155.723L242.329 157.752C242.233 158.186 241.969 158.564 241.595 158.804C241.221 159.043 240.767 159.125 240.333 159.032Z" fill="#37ED81"/>
<path d="M237.117 148.926C237.117 148.926 224.75 147.515 220.421 145.302C210.245 140.073 200.514 127.598 198.453 127.153C195.09 126.415 190.512 134.378 188.212 144.933C185.912 155.489 186.78 164.623 190.143 165.35C192.215 165.806 206.232 158.494 217.666 157.962C222.526 157.745 234.329 161.64 234.329 161.64L237.117 148.926Z" fill="#37ED81"/>
<path opacity="0.3" d="M237.117 148.926C237.117 148.926 224.75 147.515 220.421 145.302C210.245 140.073 200.514 127.598 198.453 127.153C195.09 126.415 190.512 134.378 188.212 144.933C185.912 155.489 186.78 164.623 190.143 165.35C192.215 165.806 206.232 158.494 217.666 157.962C222.526 157.745 234.329 161.64 234.329 161.64L237.117 148.926Z" fill="white"/>
<path d="M200.379 147.541C198.09 158.086 193.502 166.049 190.139 165.311C186.776 164.573 185.919 155.439 188.208 144.894C190.497 134.35 195.085 126.376 198.448 127.114C201.811 127.851 202.679 137.029 200.379 147.541Z" fill="#37ED81"/>
<path opacity="0.4" d="M200.379 147.541C198.09 158.086 193.502 166.049 190.139 165.311C186.776 164.573 185.919 155.439 188.208 144.894C190.497 134.35 195.085 126.376 198.448 127.114C201.811 127.851 202.679 137.029 200.379 147.541Z" fill="black"/>
<path d="M235.106 147.535L229.368 146.287C228.998 146.206 228.616 146.201 228.245 146.274C227.874 146.347 227.521 146.495 227.21 146.71C226.898 146.924 226.635 147.201 226.435 147.522C226.235 147.843 226.103 148.202 226.048 148.576C225.842 150.019 225.581 151.505 225.256 153.024C224.931 154.543 224.54 156.008 224.171 157.364C224.066 157.728 224.037 158.11 224.085 158.486C224.134 158.862 224.259 159.224 224.453 159.549C224.648 159.875 224.907 160.157 225.215 160.378C225.523 160.599 225.873 160.755 226.243 160.835L233.045 162.31C237.124 163.2 240.064 160.325 240.889 156.224C241.257 154.307 240.858 152.322 239.776 150.696C238.695 149.071 237.017 147.935 235.106 147.535Z" fill="#263238"/>
<path d="M194.481 145.42L194.123 147.08C194.019 147.544 194.083 148.03 194.303 148.451C194.524 148.872 194.887 149.201 195.327 149.38L199.493 151.116C199.818 149.976 200.122 148.794 200.383 147.579C200.643 146.364 200.871 145.149 201.055 143.977L196.531 143.825C196.057 143.809 195.592 143.96 195.218 144.252C194.843 144.543 194.582 144.956 194.481 145.42Z" fill="#263238"/>
<path opacity="0.8" d="M194.481 145.42L194.123 147.08C194.019 147.544 194.083 148.03 194.303 148.451C194.524 148.872 194.887 149.201 195.327 149.38L199.493 151.116C199.818 149.976 200.122 148.794 200.383 147.579C200.643 146.364 200.871 145.149 201.055 143.977L196.531 143.825C196.057 143.809 195.592 143.96 195.218 144.252C194.843 144.543 194.582 144.956 194.481 145.42Z" fill="white"/>
<path opacity="0.2" d="M197.624 146.971C197.396 148.056 197.146 149.032 196.875 150.03L199.489 151.115C199.815 149.976 200.119 148.793 200.379 147.578C200.639 146.363 200.867 145.148 201.052 143.977L198.209 143.879C198.05 144.87 197.855 145.9 197.624 146.971Z" fill="black"/>
<path d="M297.859 147.625C298.895 148.022 300.011 148.166 301.114 148.048C302.218 147.929 303.277 147.55 304.205 146.941C307.536 144.772 313.784 147.506 311.897 156.39C308.642 171.665 301.851 182.633 306.255 187.254C306.255 187.254 291.588 187.927 293.758 174.974C295.385 165.21 306.418 154.232 303.76 152.04C302.871 151.302 301.591 151.682 297.414 151.682L297.859 147.625Z" fill="#263238"/>
<path d="M297.41 151.687C299.42 151.62 301.429 151.862 303.366 152.403C304.05 150.436 304.316 148.349 304.147 146.273C302.01 146.519 299.903 146.973 297.855 147.629L297.41 151.687Z" fill="#37ED81"/>
<path d="M283.591 136.502C283.591 136.502 277.494 134.766 281.519 130.828C286.769 125.697 294.233 135.308 294.233 135.308C294.233 135.308 311.732 142.957 297.292 160.694C297.292 160.694 292.074 170.023 290.989 166.389C289.905 162.755 297.151 152.46 297.151 152.46L296.717 143.239L294.71 139.648L288.407 136.046L283.591 136.502Z" fill="#263238"/>
<path d="M259.422 188.439C259.008 187.763 258.465 187.175 257.824 186.708C257.183 186.242 256.457 185.906 255.686 185.721C254.915 185.536 254.115 185.504 253.332 185.628C252.549 185.752 251.798 186.029 251.123 186.443H251.036C249.137 187.604 247.12 188.895 245.123 190.088L239.103 193.701C236.282 195.357 233.447 196.966 230.597 198.528C230.435 196.363 230.398 194.189 230.489 192.019C230.565 189.481 230.749 186.888 230.945 184.295C231.14 181.702 231.4 179.045 231.617 176.474V176.408C231.672 175.686 231.465 174.967 231.033 174.385C230.602 173.802 229.975 173.395 229.268 173.237C228.56 173.079 227.82 173.181 227.181 173.524C226.543 173.867 226.05 174.429 225.792 175.107C224.826 177.721 224.067 180.303 223.307 182.95C222.548 185.597 221.973 188.266 221.463 191.021C220.906 193.882 220.602 196.786 220.552 199.7C220.509 201.533 220.747 203.363 221.257 205.124C221.722 206.699 222.625 208.11 223.861 209.192C224.797 209.984 225.915 210.532 227.115 210.787C228.161 210.99 229.237 210.99 230.283 210.787C230.534 210.731 230.781 210.655 231.021 210.559L231.379 210.418C233.689 209.464 235.989 208.509 238.224 207.424C240.459 206.339 242.693 205.254 244.874 204.115C247.054 202.976 249.213 201.75 251.383 200.481C253.553 199.212 255.571 197.943 257.708 196.467C258.95 195.589 259.816 194.276 260.133 192.788C260.451 191.301 260.197 189.748 259.422 188.439Z" fill="#CE7A63"/>
<path d="M264.702 180.511C268.358 187.877 263.097 194.267 253.452 204.508C248.415 200.423 244.897 194.765 243.461 188.441C243.461 188.441 254.613 179.242 264.702 180.511Z" fill="#37ED81"/>
<path opacity="0.2" d="M265.088 189.277C261.519 187.107 257.494 186.131 254.706 189.678C252.53 192.535 250.009 195.111 247.199 197.348C248.907 200.057 251.031 202.48 253.491 204.53C259.284 198.411 263.428 193.67 265.088 189.277Z" fill="black"/>
<path d="M228.909 162.723L231.383 164.361C231.844 164.662 232.226 165.069 232.496 165.549C232.766 166.029 232.917 166.566 232.934 167.117L233.129 172.335C233.162 173.362 232.95 174.382 232.513 175.311C232.076 176.241 231.424 177.054 230.612 177.683L229.582 178.475C225.242 176.034 222.433 170.241 222.433 170.241L221.435 168.679C221.221 168.364 221.071 168.01 220.995 167.637C220.919 167.264 220.918 166.88 220.992 166.506C221.066 166.133 221.213 165.778 221.425 165.462C221.637 165.146 221.909 164.875 222.227 164.665L225.286 162.647C225.833 162.309 226.466 162.136 227.109 162.149C227.752 162.163 228.377 162.362 228.909 162.723Z" fill="#CE7A63"/>
<path d="M256.233 383.931C261.853 366.573 265.693 347.296 261.875 333.225C285.09 265.032 274.621 245.18 274.621 245.18L246.991 235.102C246.991 235.102 243.042 296.514 241.848 326.228C241.187 342.837 238.355 364.436 235.09 383.942L256.233 383.931Z" fill="#263238"/>
<path opacity="0.5" d="M270.557 270.407L264.949 261.359L261.521 268.411C259.732 287.854 260.579 307.45 264.037 326.667C268.507 313.245 272.037 299.528 274.604 285.616L270.557 270.407Z" fill="black"/>
<path d="M273.209 383.911H294.157C296.327 365.87 296.327 346.462 289.927 333.487C299.69 262.116 285.587 244.639 285.587 244.639L256.535 240.039C256.535 240.039 264.422 301.072 268.946 330.439C271.278 345.648 272.602 365.382 273.209 383.911Z" fill="#263238"/>
<path d="M251.773 194.241C250.546 199.521 249.676 204.878 249.169 210.275C248.236 218.14 247.553 225.908 246.652 238.893L285.989 245.174C286.954 233.979 290.241 221.557 301.252 197.745C301.874 196.506 302.212 195.144 302.239 193.759C302.267 192.373 301.985 190.998 301.413 189.736C300.841 188.473 299.994 187.355 298.934 186.462C297.874 185.569 296.627 184.924 295.286 184.575C293.756 184.174 292.129 183.783 290.447 183.425C284.566 182.062 278.595 181.119 272.58 180.605C270.616 180.474 268.566 180.398 266.603 180.355C259.508 180.171 253.085 187.352 251.773 194.241Z" fill="#37ED81"/>
<path d="M292.362 163.047C289.899 168.547 286.33 178.777 289.454 183.203C289.454 183.203 284.139 181.522 271.457 186.837C268.864 181.511 271.598 180.328 271.598 180.328C278.356 179.84 279.3 175.11 279.192 170.565L292.362 163.047Z" fill="#CE7A63"/>
<path d="M274.125 185.8C274.807 186.051 275.427 186.445 275.944 186.956C276.46 187.467 276.861 188.083 277.119 188.762C277.335 189.256 277.653 189.698 278.052 190.06C278.451 190.422 278.922 190.696 279.435 190.863C279.947 191.03 280.489 191.087 281.025 191.029C281.56 190.972 282.078 190.802 282.543 190.53C285.798 188.697 289.899 186.082 291.949 183.761C290.887 182.952 289.869 182.087 288.901 181.168C288.901 181.168 276.696 183.956 274.125 185.8Z" fill="white"/>
<path d="M270.589 184.617C269.66 184.767 268.782 185.139 268.028 185.702C267.819 185.854 267.567 185.936 267.309 185.936C267.05 185.936 266.798 185.854 266.589 185.703C266.38 185.551 266.223 185.337 266.143 185.091C266.062 184.846 266.062 184.581 266.141 184.335C267.497 180.494 269.84 179.995 269.84 179.995C270.972 179.564 272.223 179.564 273.355 179.995C272.416 180.306 271.621 180.943 271.113 181.792C270.605 182.64 270.419 183.643 270.589 184.617Z" fill="white"/>
<path opacity="0.2" d="M287.01 166.129L279.242 170.577C279.278 171.665 279.213 172.755 279.047 173.831C281.585 173.831 285.556 171.748 286.424 169.264C286.811 168.264 287.01 167.201 287.01 166.129Z" fill="black"/>
<path d="M299.102 152.317C295.847 161.322 294.762 165.184 288.72 168.796C279.705 174.22 269.323 168.959 269.768 159.336C270.18 150.658 275.365 137.401 285.411 135.85C287.558 135.444 289.774 135.62 291.83 136.36C293.885 137.099 295.706 138.375 297.103 140.055C298.499 141.735 299.421 143.758 299.773 145.914C300.124 148.07 299.893 150.281 299.102 152.317Z" fill="#CE7A63"/>
<path d="M286.999 151.975C286.76 152.745 286.174 153.277 285.675 153.157C285.176 153.038 284.97 152.322 285.198 151.552C285.426 150.782 286.033 150.261 286.532 150.38C287.031 150.5 287.237 151.216 286.999 151.975Z" fill="#263238"/>
<path d="M277.396 149.419C277.157 150.178 276.561 150.71 276.062 150.591C275.563 150.471 275.357 149.755 275.595 148.996C275.834 148.236 276.431 147.694 276.93 147.813C277.429 147.933 277.635 148.627 277.396 149.419Z" fill="#263238"/>
<path d="M277.151 147.903L275.48 146.938C275.48 146.938 275.98 148.619 277.151 147.903Z" fill="#263238"/>
<path d="M280.196 151C278.973 152.593 277.552 154.022 275.965 155.253C276.279 155.623 276.672 155.919 277.115 156.118C277.558 156.317 278.04 156.414 278.525 156.403L280.196 151Z" fill="#BA4D3C"/>
<path d="M289.932 147.545C289.87 147.54 289.811 147.521 289.758 147.489C289.705 147.457 289.661 147.413 289.628 147.361C289.332 146.875 288.918 146.472 288.425 146.187C287.932 145.903 287.376 145.747 286.807 145.734C286.748 145.735 286.689 145.725 286.634 145.703C286.578 145.681 286.528 145.649 286.486 145.607C286.443 145.566 286.409 145.516 286.386 145.462C286.363 145.407 286.352 145.348 286.352 145.289C286.359 145.162 286.413 145.042 286.503 144.952C286.593 144.862 286.713 144.808 286.84 144.801C287.559 144.813 288.263 145.004 288.89 145.356C289.517 145.709 290.046 146.211 290.431 146.819C290.473 146.899 290.492 146.989 290.486 147.08C290.481 147.17 290.451 147.257 290.4 147.332C290.348 147.407 290.278 147.466 290.195 147.504C290.113 147.541 290.022 147.556 289.932 147.545Z" fill="#263238"/>
<path d="M275.351 142.979C275.298 142.957 275.249 142.924 275.208 142.883C275.167 142.842 275.135 142.794 275.113 142.74C275.075 142.623 275.084 142.497 275.139 142.387C275.194 142.277 275.29 142.194 275.406 142.154C276.1 141.862 276.853 141.733 277.606 141.778C278.358 141.824 279.09 142.041 279.745 142.414C279.794 142.449 279.835 142.493 279.866 142.544C279.897 142.594 279.917 142.651 279.925 142.71C279.933 142.769 279.929 142.829 279.913 142.887C279.897 142.944 279.869 142.997 279.832 143.044C279.756 143.142 279.646 143.209 279.524 143.232C279.402 143.254 279.275 143.229 279.17 143.163C278.647 142.871 278.064 142.703 277.465 142.673C276.867 142.643 276.27 142.751 275.72 142.989C275.661 143.012 275.598 143.023 275.535 143.021C275.471 143.019 275.409 143.005 275.351 142.979Z" fill="#263238"/>
<path d="M286.75 150.481L285.09 149.516C285.09 149.516 285.578 151.175 286.75 150.481Z" fill="#263238"/>
<path d="M250.973 223.819H241.6C241.144 223.799 240.707 223.631 240.355 223.342C240.003 223.052 239.755 222.656 239.647 222.213L235.308 201.905C235.252 201.714 235.243 201.513 235.281 201.318C235.319 201.123 235.403 200.939 235.526 200.783C235.649 200.627 235.808 200.503 235.989 200.421C236.169 200.338 236.367 200.3 236.566 200.31H245.939C246.393 200.329 246.829 200.495 247.181 200.783C247.533 201.07 247.782 201.464 247.892 201.905L252.231 222.213C252.286 222.404 252.295 222.606 252.257 222.802C252.219 222.997 252.135 223.181 252.012 223.337C251.889 223.494 251.731 223.619 251.55 223.703C251.37 223.787 251.172 223.826 250.973 223.819Z" fill="#263238"/>
<path d="M249.879 223.819H240.506C240.05 223.799 239.614 223.631 239.262 223.342C238.909 223.052 238.661 222.656 238.553 222.213L234.214 201.905C234.158 201.714 234.149 201.513 234.187 201.318C234.225 201.123 234.309 200.939 234.432 200.783C234.555 200.627 234.714 200.503 234.895 200.421C235.076 200.338 235.274 200.3 235.472 200.31H244.845C245.299 200.329 245.735 200.495 246.087 200.783C246.439 201.07 246.688 201.464 246.798 201.905L251.137 222.213C251.192 222.404 251.201 222.606 251.163 222.802C251.125 222.997 251.041 223.181 250.918 223.337C250.796 223.494 250.637 223.619 250.457 223.703C250.276 223.787 250.078 223.826 249.879 223.819Z" fill="#263238"/>
<path opacity="0.2" d="M249.879 223.819H240.506C240.05 223.799 239.614 223.631 239.262 223.342C238.909 223.052 238.661 222.656 238.553 222.213L234.214 201.905C234.158 201.714 234.149 201.513 234.187 201.318C234.225 201.123 234.309 200.939 234.432 200.783C234.555 200.627 234.714 200.503 234.895 200.421C235.076 200.338 235.274 200.3 235.472 200.31H244.845C245.299 200.329 245.735 200.495 246.087 200.783C246.439 201.07 246.688 201.464 246.798 201.905L251.137 222.213C251.192 222.404 251.201 222.606 251.163 222.802C251.125 222.997 251.041 223.181 250.918 223.337C250.796 223.494 250.637 223.619 250.457 223.703C250.276 223.787 250.078 223.826 249.879 223.819Z" fill="white"/>
<path d="M246.526 211.851L249.434 211.211C249.971 211.092 250.528 211.103 251.06 211.242C251.592 211.382 252.083 211.646 252.493 212.014L256.377 215.507C257.138 216.198 257.724 217.06 258.088 218.022C258.452 218.983 258.583 220.017 258.47 221.039L258.318 222.32C253.578 223.719 247.47 221.745 247.47 221.745L245.647 221.376C245.272 221.31 244.914 221.171 244.593 220.966C244.272 220.761 243.995 220.495 243.778 220.182C243.561 219.869 243.408 219.516 243.329 219.144C243.249 218.771 243.245 218.387 243.315 218.013L243.999 214.4C244.132 213.778 244.441 213.208 244.889 212.756C245.337 212.304 245.905 211.99 246.526 211.851Z" fill="#CE7A63"/>
<path d="M296.518 190.726C294.927 190.575 293.342 191.061 292.109 192.078C290.876 193.095 290.098 194.56 289.944 196.15V196.357C289.836 197.441 289.694 198.765 289.553 199.991C289.412 201.217 289.239 202.486 289.054 203.734C288.686 206.24 288.241 208.713 287.742 211.165C287.243 213.616 286.657 216.025 285.952 218.379C285.377 220.266 284.715 222.089 284.01 223.868C283.135 223.903 282.259 223.849 281.395 223.705C278.594 223.284 275.825 222.672 273.107 221.872C270.558 221.069 267.987 220.136 265.416 219.16C262.845 218.184 260.252 217.131 257.724 216.122H257.659C256.979 215.84 256.219 215.816 255.523 216.057C254.827 216.298 254.244 216.785 253.884 217.428C253.524 218.07 253.412 218.823 253.57 219.542C253.728 220.261 254.145 220.897 254.741 221.33C257.128 223.087 259.536 224.584 262.02 226.146C264.504 227.709 267.076 229.043 269.755 230.334C272.84 231.686 276.033 232.774 279.302 233.588C281.07 234.076 282.892 234.338 284.726 234.369C285.954 234.384 287.177 234.204 288.349 233.838C289.993 233.335 291.46 232.376 292.58 231.072C292.775 230.83 292.949 230.572 293.101 230.301L293.209 230.095C294.612 227.512 295.83 224.833 296.854 222.078C297.843 219.392 298.683 216.655 299.371 213.877C300.076 211.132 300.619 208.366 301.064 205.589C301.27 204.189 301.454 202.801 301.617 201.401C301.78 200.002 301.899 198.646 301.975 197.062C302.058 195.506 301.536 193.978 300.519 192.798C299.502 191.617 298.069 190.875 296.518 190.726Z" fill="#CE7A63"/>
<path d="M298.33 185.934C305.034 190.674 305.359 197.769 301.736 211.351C296.887 213.781 285.105 210.711 285.105 210.711C285.105 210.711 288.816 189.622 298.33 185.934Z" fill="#37ED81"/>
<path d="M274.208 158.991C274.208 158.991 277.462 158.35 286.304 158.622C285.219 161.269 283.18 163.373 278.612 163.232C277.516 163.304 276.437 162.937 275.611 162.213C274.785 161.489 274.28 160.466 274.208 159.37C274.208 159.24 274.197 159.121 274.208 158.991Z" fill="#263238"/>
<path d="M280.778 161.163C279.027 161.014 277.273 161.42 275.766 162.324C276.599 162.897 277.586 163.203 278.597 163.202C280.345 163.356 282.097 162.949 283.598 162.041C282.775 161.458 281.787 161.15 280.778 161.163Z" fill="#BA4D3C"/>
<path d="M274.598 158.943C274.679 159.271 274.848 159.571 275.087 159.81C275.326 160.049 275.626 160.218 275.954 160.299C278.594 160.373 281.236 160.225 283.851 159.854C284.268 159.826 284.672 159.697 285.027 159.478C285.383 159.259 285.679 158.956 285.891 158.596C282.123 158.413 278.347 158.529 274.598 158.943Z" fill="white"/>
<path d="M285.494 135.252C284.925 135.338 284.363 135.465 283.812 135.631V136.152C285.24 136.133 286.66 136.342 288.022 136.77C295.529 139.059 296.7 143.28 294.184 149.517C292.979 152.49 292.329 158.793 293.717 159.975C294.075 160.279 295.16 160.236 296.57 159.975C297.503 157.806 298.393 155.278 299.532 152.088C300.333 150.003 300.563 147.741 300.198 145.536C299.833 143.332 298.887 141.265 297.456 139.549C296.025 137.833 294.162 136.53 292.059 135.774C289.956 135.019 287.69 134.838 285.494 135.252Z" fill="#263238"/>
<path d="M299.96 160.557C299.265 161.284 298.432 161.865 297.51 162.267C296.588 162.67 295.596 162.885 294.59 162.9C291.986 162.9 291.574 160.21 293.039 157.975C294.351 155.968 297.28 153.549 299.548 154.645C301.815 155.74 301.761 158.702 299.96 160.557Z" fill="#CE7A63"/>
<g opacity="0.9">
<path d="M283.959 206.638C265.69 205.553 257.446 202.136 254.159 200.227C254.053 200.171 253.954 200.102 253.866 200.021C252.922 199.196 254.115 197.688 255.211 198.318C258.086 199.977 266.005 203.351 284.089 204.469C284.375 204.485 284.643 204.615 284.834 204.828C285.025 205.041 285.124 205.322 285.109 205.608C285.102 205.751 285.067 205.892 285.005 206.022C284.943 206.151 284.856 206.267 284.75 206.363C284.643 206.459 284.518 206.533 284.382 206.58C284.246 206.627 284.102 206.647 283.959 206.638Z" fill="white"/>
</g>
<g opacity="0.9">
<path d="M283.004 216.958C283.004 217.106 282.974 217.251 282.916 217.386C282.858 217.522 282.774 217.644 282.667 217.745C282.56 217.847 282.434 217.926 282.296 217.977C282.158 218.028 282.012 218.051 281.865 218.043C271.441 217.664 261.191 215.262 251.684 210.97C251.553 210.905 251.436 210.814 251.341 210.702C251.246 210.591 251.175 210.461 251.131 210.321C251.088 210.181 251.073 210.034 251.088 209.888C251.103 209.742 251.147 209.601 251.218 209.473C251.351 209.23 251.573 209.047 251.838 208.962C252.102 208.877 252.389 208.897 252.639 209.017C261.89 213.155 271.847 215.482 281.973 215.874C282.251 215.887 282.513 216.008 282.705 216.21C282.897 216.412 283.004 216.68 283.004 216.958Z" fill="white"/>
</g>
<g opacity="0.9">
<path d="M264.636 235.058C256.174 233.409 251.824 232.281 249.991 231.804C249.85 231.763 249.719 231.694 249.606 231.602C249.492 231.509 249.399 231.395 249.331 231.265C249.263 231.135 249.222 230.993 249.21 230.847C249.199 230.701 249.217 230.554 249.264 230.415C249.353 230.152 249.541 229.933 249.787 229.804C250.033 229.675 250.32 229.645 250.587 229.721C252.345 230.22 256.684 231.337 265.048 232.976C265.33 233.031 265.578 233.195 265.739 233.433C265.9 233.671 265.959 233.963 265.905 234.245C265.84 234.518 265.672 234.756 265.435 234.908C265.198 235.06 264.912 235.114 264.636 235.058Z" fill="white"/>
</g>
<path d="M283.924 138.857C283.56 139.011 283.149 139.017 282.781 138.873C282.412 138.729 282.114 138.447 281.95 138.087C281.802 137.72 281.753 137.321 281.806 136.929C281.859 136.537 282.014 136.166 282.254 135.852C282.74 135.224 283.373 134.725 284.098 134.398C283.484 135.128 283.056 135.995 282.85 136.926C282.872 137.772 283.132 139.128 283.924 138.857Z" fill="#263238"/>
<path d="M293.001 160.997C292.999 161.096 292.976 161.194 292.933 161.284C292.89 161.374 292.829 161.454 292.753 161.519C292.677 161.583 292.589 161.631 292.493 161.659C292.397 161.687 292.297 161.694 292.198 161.68C291.999 161.637 291.816 161.539 291.671 161.397C291.525 161.255 291.422 161.075 291.374 160.877C291.292 160.476 291.292 160.063 291.374 159.662C291.439 158.738 291.663 157.831 292.035 156.983C292.41 156.127 293.091 155.442 293.945 155.062C294.097 155.243 294.195 155.464 294.225 155.699C294.256 155.933 294.219 156.172 294.118 156.386C293.895 156.767 293.641 157.13 293.359 157.471C293.032 157.956 292.82 158.508 292.739 159.088C292.658 159.667 292.711 160.256 292.892 160.812C292.979 160.834 292.914 160.986 293.001 160.997Z" fill="#263238"/>
<path d="M170.758 229.797H93.5173C90.6689 229.797 87.9371 230.928 85.923 232.943C83.9089 234.957 82.7773 237.688 82.7773 240.537V299.248C82.7773 302.097 83.9089 304.829 85.923 306.843C87.9371 308.857 90.6689 309.988 93.5173 309.988H151.871C152.437 314.585 154.664 318.816 158.133 321.885C161.602 324.954 166.072 326.649 170.704 326.652C171.127 326.652 171.55 326.652 171.973 326.586C168.957 322.616 166.495 316.823 164.878 309.988H170.791C173.639 309.988 176.371 308.857 178.385 306.843C180.399 304.829 181.53 302.097 181.53 299.248V240.537C181.53 239.124 181.252 237.724 180.71 236.419C180.168 235.114 179.374 233.929 178.373 232.931C177.373 231.933 176.185 231.143 174.878 230.605C173.571 230.067 172.171 229.793 170.758 229.797Z" fill="#37ED81"/>
<path opacity="0.4" d="M170.758 229.797H93.5173C90.6689 229.797 87.9371 230.928 85.923 232.943C83.9089 234.957 82.7773 237.688 82.7773 240.537V299.248C82.7773 302.097 83.9089 304.829 85.923 306.843C87.9371 308.857 90.6689 309.988 93.5173 309.988H151.871C152.437 314.585 154.664 318.816 158.133 321.885C161.602 324.954 166.072 326.649 170.704 326.652C171.127 326.652 171.55 326.652 171.973 326.586C168.957 322.616 166.495 316.823 164.878 309.988H170.791C173.639 309.988 176.371 308.857 178.385 306.843C180.399 304.829 181.53 302.097 181.53 299.248V240.537C181.53 239.124 181.252 237.724 180.71 236.419C180.168 235.114 179.374 233.929 178.373 232.931C177.373 231.933 176.185 231.143 174.878 230.605C173.571 230.067 172.171 229.793 170.758 229.797Z" fill="white"/>
<path d="M186.227 254.749L192.237 249.184L197.379 258.698C197.379 258.698 191.423 263.243 187.897 260.444L186.227 254.749Z" fill="#FF8B7B"/>
<path d="M186.219 254.73L182.129 263.431L187.738 268.074L192.641 260.133L186.219 254.73Z" fill="#FF8B7B"/>
<path d="M197.951 250.476L198.938 254.067C199.183 254.906 199.164 255.8 198.885 256.628C198.606 257.457 198.079 258.179 197.376 258.699L195.207 260.142L189.066 249.359L194.328 248.035C194.726 247.953 195.137 247.952 195.536 248.031C195.935 248.11 196.315 248.267 196.652 248.495C196.99 248.722 197.278 249.014 197.501 249.354C197.724 249.695 197.877 250.076 197.951 250.476Z" fill="#FF8B7B"/>
<path d="M186.227 254.755C186.227 254.755 188.396 248.051 188.049 246.001C187.865 244.775 189.134 244.97 190.154 245.339C190.547 245.473 190.89 245.723 191.138 246.056C191.386 246.389 191.527 246.79 191.542 247.205C191.629 249.375 191.542 253.606 189.882 253.877C188.641 254.065 187.418 254.359 186.227 254.755Z" fill="#FF8B7B"/>
<path d="M193.248 261.711C191.562 259.826 189.314 258.533 186.837 258.023L185.014 257.643C183.929 257.426 183.723 257.643 183.593 257.958L183.072 258.771L181.988 260.388C181.272 261.473 180.556 262.557 179.818 263.642C178.375 265.812 176.867 267.841 175.348 269.815C173.926 271.702 172.363 273.479 170.673 275.131L170.228 275.543C169.664 274.935 169.143 274.295 168.579 273.634C166.992 271.626 165.511 269.537 164.142 267.374C162.743 265.204 158.208 258.63 156.971 256.265C156.353 255.094 155.745 253.9 155.17 252.707L154.335 250.917C154.085 250.342 153.782 249.669 153.608 249.236L153.489 248.953C152.599 246.996 150.971 245.47 148.96 244.71C146.949 243.949 144.719 244.015 142.757 244.894C140.794 245.773 139.26 247.392 138.488 249.399C137.716 251.406 137.77 253.636 138.637 255.604C139.028 256.482 139.332 257.111 139.722 257.838L140.807 259.921C141.53 261.303 142.253 262.659 142.977 263.989C144.517 266.669 149.421 273.503 151.221 276.074C153.046 278.692 155.043 281.185 157.199 283.538C159.467 286.041 161.978 288.312 164.695 290.318L165.032 290.568C165.866 291.173 166.827 291.58 167.842 291.759C168.857 291.937 169.899 291.883 170.89 291.599C173.1 290.953 175.161 289.876 176.954 288.431C178.323 287.345 179.597 286.144 180.762 284.84C182.797 282.551 184.651 280.106 186.305 277.528C187.9 275.066 189.299 272.549 190.645 270.032C191.285 268.752 191.914 267.483 192.5 266.181L193.368 264.228L193.791 263.241C193.921 262.894 193.986 262.514 193.248 261.711Z" fill="#263238"/>
<path opacity="0.4" d="M153.048 258.262L147.081 262.482L145.367 266.561C145.66 267.103 145.942 267.646 146.246 268.188C147.776 270.868 149.5 273.471 151.258 276.042C153.083 278.66 155.08 281.153 157.235 283.506C158.32 284.591 159.405 285.676 160.49 286.761C157.561 279.872 153.048 258.262 153.048 258.262Z" fill="black"/>
<path d="M99.7172 291.238C100.184 302.086 98.4696 301.587 98.4262 309.984H151.291C154.165 284.371 152.82 280.433 152.874 263.433C152.874 253.865 151.41 244.102 141.885 243.103C130.698 242.012 119.427 242.085 108.255 243.32C106.581 243.524 104.965 244.06 103.501 244.897C102.038 245.734 100.756 246.855 99.7313 248.194C98.7066 249.533 97.9597 251.063 97.5344 252.694C97.1091 254.326 97.014 256.026 97.2546 257.695C99.3917 272.156 98.231 280.346 99.7172 291.238Z" fill="#263238"/>
<path opacity="0.9" d="M137.057 242.71C130.013 242.25 122.948 242.228 115.902 242.645C116.054 244.815 117.703 250.239 129.712 254.937C129.712 254.937 132.392 249.122 134.648 251.736C134.648 251.736 136.46 248.395 140.344 254.546C140.344 254.546 146.137 248.341 137.057 242.71Z" fill="white"/>
<path opacity="0.4" d="M108.478 258.09C109.639 268.146 103.217 284.961 99.7997 293.087C99.7997 292.523 99.7997 291.904 99.7997 291.243C98.8667 284.451 98.9752 278.702 98.7148 271.846L108.478 258.09Z" fill="black"/>
<path d="M121.086 223.457C121.264 230.054 119.99 236.609 117.355 242.659C117.257 242.889 117.232 243.144 117.285 243.389C117.337 243.633 117.464 243.856 117.648 244.026C122.074 247.842 127.751 249.897 133.595 249.797C140.7 249.884 140.288 247.627 138.607 245.165C138.362 244.815 138.043 244.522 137.674 244.308C132.814 241.422 132.64 237.56 134.007 235.228L121.086 223.457Z" fill="#FF8B7B"/>
<path opacity="0.2" d="M121.095 223.457L134.004 235.228C133.573 235.969 133.324 236.801 133.276 237.658C133.229 238.514 133.386 239.369 133.733 240.153C131.009 240.238 128.354 239.288 126.302 237.495C122.971 234.663 121.843 231.322 121.008 226.646C121.073 225.627 121.095 224.542 121.095 223.457Z" fill="black"/>
<path d="M117.242 217.343C117.806 226.022 116.58 227.41 120.985 231.804C127.613 238.411 138.407 239.669 139.937 230.882C141.304 222.963 142.107 208.632 133.547 205.29C131.661 204.54 129.615 204.283 127.602 204.544C125.589 204.805 123.675 205.576 122.043 206.782C120.411 207.989 119.113 209.592 118.273 211.44C117.433 213.288 117.078 215.32 117.242 217.343Z" fill="#FF8B7B"/>
<path d="M138.312 226.717C138.312 226.717 135.263 225.752 126.617 225.383C127.539 228.485 129.351 231.067 133.777 231.208C138.203 231.349 138.312 226.717 138.312 226.717Z" fill="#263238"/>
<path d="M131.804 228.677C133.545 228.649 135.238 229.246 136.577 230.358C135.777 230.958 134.786 231.247 133.789 231.172C132.045 231.207 130.348 230.605 129.016 229.479C129.817 228.884 130.808 228.599 131.804 228.677Z" fill="#FF5652"/>
<path d="M137.915 226.57C137.655 227.211 137.384 227.861 136.516 228.035C133.956 227.914 131.413 227.551 128.922 226.95C128.494 226.873 128.094 226.685 127.761 226.405C127.428 226.126 127.173 225.764 127.023 225.355C130.684 225.426 134.329 225.833 137.915 226.57Z" fill="white"/>
<path d="M134.914 218.613C135.828 220.231 136.964 221.714 138.288 223.018C137.946 223.353 137.534 223.608 137.082 223.765C136.631 223.923 136.149 223.979 135.673 223.929L134.914 218.613Z" fill="#FF5652"/>
<path d="M126.356 214.878C126.282 214.868 126.213 214.834 126.161 214.78C126.12 214.74 126.087 214.692 126.065 214.639C126.043 214.585 126.031 214.529 126.031 214.471C126.031 214.413 126.043 214.356 126.065 214.303C126.087 214.25 126.12 214.202 126.161 214.162C126.61 213.634 127.18 213.222 127.822 212.959C128.463 212.697 129.159 212.592 129.849 212.654C129.964 212.671 130.068 212.733 130.137 212.827C130.206 212.921 130.235 213.038 130.218 213.153C130.201 213.268 130.138 213.371 130.045 213.441C129.951 213.51 129.834 213.539 129.719 213.522C129.17 213.479 128.619 213.568 128.112 213.781C127.604 213.995 127.155 214.326 126.801 214.748C126.747 214.809 126.676 214.854 126.597 214.877C126.518 214.9 126.435 214.9 126.356 214.878Z" fill="#263238"/>
<path d="M140.759 216.413C140.688 216.425 140.616 216.42 140.547 216.397C140.479 216.375 140.418 216.335 140.369 216.283C140.009 215.873 139.556 215.555 139.049 215.355C138.541 215.155 137.993 215.079 137.45 215.133C137.338 215.152 137.223 215.126 137.13 215.061C137.037 214.996 136.972 214.898 136.951 214.786C136.932 214.671 136.959 214.553 137.026 214.458C137.093 214.362 137.195 214.297 137.309 214.276C137.994 214.201 138.686 214.289 139.329 214.535C139.972 214.78 140.548 215.175 141.009 215.686C141.05 215.727 141.082 215.775 141.104 215.828C141.127 215.881 141.138 215.938 141.138 215.995C141.138 216.053 141.127 216.11 141.104 216.163C141.082 216.216 141.05 216.264 141.009 216.305C140.938 216.365 140.851 216.403 140.759 216.413Z" fill="#263238"/>
<path d="M83.614 293.013C83.6329 293.423 83.6947 293.831 83.7985 294.228C84.7786 297.697 86.0525 301.076 87.6063 304.328C88.3946 306.049 89.2082 307.742 90.0472 309.405C91.1647 309.788 92.3373 309.986 93.5186 309.991H105.224L104.063 307.398C102.772 304.567 101.579 301.724 100.494 298.915C99.5906 296.635 98.8297 294.302 98.216 291.928C98.3391 291.02 98.524 290.121 98.7693 289.238C99.1056 287.936 99.5612 286.526 100.082 285.094C101.167 282.241 102.36 279.301 103.662 276.415C104.964 273.529 106.407 270.568 107.86 267.649C109.314 264.731 110.833 261.78 112.341 259.025V258.927L112.417 258.765C113.401 256.844 113.581 254.611 112.919 252.558C112.257 250.504 110.806 248.797 108.885 247.813C106.965 246.829 104.732 246.648 102.678 247.311C100.625 247.973 98.9179 249.424 97.934 251.344C96.3067 254.534 94.8422 257.582 93.3668 260.739C91.8914 263.896 90.557 267.085 89.2552 270.34C87.9534 273.594 86.7818 276.881 85.6969 280.407C85.1654 282.175 84.688 283.998 84.2866 285.962C83.7876 288.197 83.5582 290.484 83.6032 292.774L83.614 293.013Z" fill="#263238"/>
<path d="M113.313 223.153C114.066 225.013 115.497 226.518 117.317 227.363C119.638 228.361 120.918 226.093 120.365 223.49C119.877 221.157 118.065 217.816 115.689 217.924C113.314 218.033 112.326 220.767 113.313 223.153Z" fill="#FF8B7B"/>
<path d="M128.414 217.829C128.414 218.577 128.729 219.217 129.239 219.25C129.748 219.282 130.171 218.697 130.204 217.926C130.237 217.156 129.889 216.538 129.39 216.505C128.891 216.473 128.457 217.058 128.414 217.829Z" fill="#2E353A"/>
<path d="M136.984 218.326C136.984 219.085 137.31 219.725 137.798 219.758C138.286 219.79 138.731 219.194 138.785 218.434C138.839 217.675 138.46 217.046 137.972 217.013C137.483 216.98 137.028 217.566 136.984 218.326Z" fill="#2E353A"/>
<path d="M161.798 77.6368H84.6002C81.7537 77.6397 79.0247 78.7725 77.0129 80.7863C75.0011 82.8001 73.8711 85.5302 73.8711 88.3767V147.088C73.8697 148.498 74.1461 149.895 74.6847 151.198C75.2232 152.5 76.0133 153.685 77.0097 154.682C78.0062 155.679 79.1894 156.471 80.4918 157.011C81.7943 157.55 83.1903 157.828 84.6002 157.828H142.932C143.491 162.427 145.714 166.662 149.182 169.734C152.65 172.805 157.122 174.502 161.754 174.502C162.188 174.502 162.611 174.502 163.034 174.437C160.018 170.456 157.545 164.674 155.939 157.828H161.852C164.7 157.828 167.432 156.697 169.446 154.683C171.46 152.669 172.592 149.937 172.592 147.088V88.3767C172.59 86.9622 172.31 85.5618 171.766 84.2559C171.222 82.9499 170.426 81.7641 169.424 80.7664C168.421 79.7687 167.231 78.9787 165.922 78.4416C164.614 77.9046 163.212 77.6311 161.798 77.6368Z" fill="#37ED81"/>
<path opacity="0.4" d="M161.798 77.6368H84.6002C81.7537 77.6397 79.0247 78.7725 77.0129 80.7863C75.0011 82.8001 73.8711 85.5302 73.8711 88.3767V147.088C73.8697 148.498 74.1461 149.895 74.6847 151.198C75.2232 152.5 76.0133 153.685 77.0097 154.682C78.0062 155.679 79.1894 156.471 80.4918 157.011C81.7943 157.55 83.1903 157.828 84.6002 157.828H142.932C143.491 162.427 145.714 166.662 149.182 169.734C152.65 172.805 157.122 174.502 161.754 174.502C162.188 174.502 162.611 174.502 163.034 174.437C160.018 170.456 157.545 164.674 155.939 157.828H161.852C164.7 157.828 167.432 156.697 169.446 154.683C171.46 152.669 172.592 149.937 172.592 147.088V88.3767C172.59 86.9622 172.31 85.5618 171.766 84.2559C171.222 82.9499 170.426 81.7641 169.424 80.7664C168.421 79.7687 167.231 78.9787 165.922 78.4416C164.614 77.9046 163.212 77.6311 161.798 77.6368Z" fill="white"/>
<path d="M142.872 157.828C142.429 151.522 142.429 145.193 142.872 138.887C143.544 127.778 140.225 115.769 137.719 113.718C134.106 110.735 130.743 107.925 129.55 111.679C128.856 113.848 128.65 117.428 128.693 121.442C128.801 131.141 130.863 143.237 131.839 148.824C132.197 150.798 133.097 157.839 133.097 157.839L142.872 157.828Z" fill="#37ED81"/>
<path d="M136.127 114.195C136.003 113.397 135.652 112.653 135.115 112.05C134.578 111.448 133.878 111.013 133.1 110.799C130.388 110.072 125.702 108.89 121.438 108.131C116.414 107.314 111.339 106.85 106.25 106.742C102.996 106.612 99.8716 106.742 97.3656 106.85C97.0687 106.874 96.7745 106.925 96.4869 107.002C95.9575 107.152 95.4629 107.405 95.0313 107.747C94.5997 108.088 94.2396 108.511 93.9716 108.992C93.7036 109.472 93.533 110.001 93.4694 110.547C93.4059 111.094 93.4507 111.648 93.6013 112.177C100.034 135.143 101.369 146.133 101.705 157.827H133.1C134.565 147.217 137.44 138.506 137.7 132.268C137.924 126.202 137.395 120.131 136.127 114.195Z" fill="#37ED81"/>
<path opacity="0.8" d="M136.127 114.195C136.003 113.397 135.652 112.653 135.115 112.05C134.578 111.448 133.878 111.013 133.1 110.799C130.388 110.072 125.702 108.89 121.438 108.131C116.414 107.314 111.339 106.85 106.25 106.742C102.996 106.612 99.8716 106.742 97.3656 106.85C97.0687 106.874 96.7745 106.925 96.4869 107.002C95.9575 107.152 95.4629 107.405 95.0313 107.747C94.5997 108.088 94.2396 108.511 93.9716 108.992C93.7036 109.472 93.533 110.001 93.4694 110.547C93.4059 111.094 93.4507 111.648 93.6013 112.177C100.034 135.143 101.369 146.133 101.705 157.827H133.1C134.565 147.217 137.44 138.506 137.7 132.268C137.924 126.202 137.395 120.131 136.127 114.195Z" fill="white"/>
<path d="M123.236 102.833C121.174 105.621 119.666 108.93 122.899 112.597C123.6 113.362 124.011 114.348 124.06 115.385C124.06 117.044 123.138 118.639 117.735 115.471C109.903 110.872 110.565 105.708 110.565 105.708C114.676 104.46 117.139 95.8141 118.093 90.8672L123.236 102.833Z" fill="#FFB573"/>
<path opacity="0.2" d="M118.513 98.2577C117.916 100.362 120.14 103.682 121.833 105.049C122.227 104.286 122.688 103.56 123.21 102.879L120.173 95.7734C119.463 96.4851 118.899 97.3291 118.513 98.2577Z" fill="black"/>
<path d="M139.133 76.8123C141.888 80.3055 135.683 90.8285 135.011 88.6262C133.926 85.0462 132.342 77.7778 132.364 74.7945C132.407 70.0863 136.388 73.33 139.133 76.8123Z" fill="#263238"/>
<path d="M116.29 77.9148C117.021 76.6701 117.991 75.5817 119.143 74.7117C120.295 73.8418 121.607 73.2073 123.004 72.8446C124.401 72.482 125.857 72.3982 127.286 72.598C128.716 72.7978 130.092 73.2774 131.337 74.0093C138.724 78.2836 138.16 90.2819 135.448 97.1815C132.476 104.873 122.43 105.86 117.234 98.863C113.74 94.1982 114.185 90.8027 114.804 82.764C114.912 81.0534 115.421 79.3922 116.29 77.9148Z" fill="#FFB573"/>
<path d="M126.104 86.7825C126.05 87.4443 126.343 88.0084 126.766 88.0518C127.189 88.0952 127.59 87.5962 127.666 86.967C127.742 86.3378 127.428 85.7411 127.005 85.6977C126.581 85.6543 126.202 86.2076 126.104 86.7825Z" fill="#263238"/>
<path d="M126.789 85.7929L128.405 85.5C128.405 85.5 127.494 86.6065 126.789 85.7929Z" fill="#263238"/>
<path d="M134.316 88.6577C134.316 89.3195 134.555 89.8836 134.978 89.927C135.401 89.9704 135.803 89.4714 135.879 88.8422C135.955 88.2129 135.64 87.6163 135.217 87.5729C134.794 87.5295 134.414 88.0394 134.316 88.6577Z" fill="#263238"/>
<path d="M135.016 87.6288L136.632 87.3359C136.632 87.3359 135.721 88.4425 135.016 87.6288Z" fill="#263238"/>
<path d="M131.254 93.621C131.634 93.7756 132.044 93.8459 132.454 93.8272C132.864 93.8085 133.265 93.7011 133.63 93.5125C132.849 92.1092 132.265 90.6053 131.894 89.043L131.254 93.621Z" fill="#ED893E"/>
<path d="M125.06 93.3469C125.04 93.3004 125.038 93.2481 125.054 93.2001C125.07 93.1521 125.103 93.1117 125.147 93.0865C125.193 93.0638 125.246 93.0602 125.295 93.0764C125.343 93.0927 125.384 93.1275 125.407 93.1733C125.808 93.8848 126.372 94.491 127.052 94.9418C127.733 95.3926 128.512 95.6751 129.323 95.766C129.37 95.7786 129.411 95.8072 129.439 95.8469C129.466 95.8866 129.479 95.9348 129.475 95.983C129.473 96.007 129.465 96.0301 129.453 96.051C129.441 96.0719 129.425 96.09 129.405 96.1043C129.386 96.1186 129.364 96.1287 129.34 96.134C129.317 96.1392 129.293 96.1395 129.269 96.1349C128.957 96.1007 128.648 96.039 128.347 95.9505C127.654 95.7563 127.006 95.4262 126.442 94.9792C125.877 94.5321 125.407 93.9773 125.06 93.3469Z" fill="#263238"/>
<path d="M125.822 82.6069C125.762 82.5264 125.736 82.4251 125.75 82.3254C125.764 82.2257 125.817 82.1358 125.898 82.0754C126.543 81.6847 127.263 81.4361 128.011 81.3463C128.76 81.2565 129.519 81.3275 130.237 81.5546C130.333 81.5891 130.411 81.6593 130.455 81.7504C130.5 81.8415 130.507 81.9464 130.476 82.0428C130.444 82.1374 130.376 82.2155 130.286 82.2602C130.197 82.3048 130.094 82.3125 129.999 82.2815C129.399 82.0882 128.766 82.023 128.14 82.0903C127.514 82.1576 126.909 82.3558 126.364 82.672C126.301 82.7222 126.223 82.7495 126.142 82.7495C126.061 82.7495 125.983 82.7222 125.92 82.672L125.822 82.6069Z" fill="#263238"/>
<path d="M137.658 85.1198C137.398 84.7121 137.043 84.3731 136.624 84.1314C136.204 83.8897 135.733 83.7525 135.25 83.7312C135.199 83.7326 135.149 83.7239 135.101 83.7054C135.054 83.687 135.011 83.6593 134.974 83.6239C134.938 83.5885 134.909 83.5461 134.889 83.4993C134.87 83.4525 134.859 83.4023 134.859 83.3515C134.859 83.2498 134.899 83.152 134.97 83.0791C135.041 83.0062 135.137 82.9638 135.239 82.9609C135.849 82.9824 136.444 83.1491 136.976 83.4472C137.509 83.7454 137.962 84.1663 138.298 84.675C138.326 84.716 138.346 84.7622 138.356 84.8109C138.365 84.8597 138.365 84.9098 138.355 84.9584C138.345 85.0071 138.325 85.0532 138.297 85.0939C138.268 85.1347 138.232 85.1693 138.19 85.1957C138.133 85.2326 138.067 85.2522 138 85.2522C137.933 85.2522 137.867 85.2326 137.81 85.1957L137.658 85.1198Z" fill="#263238"/>
<path d="M127.788 76.3062C126.576 76.5336 125.429 77.0272 124.431 77.7513C123.433 78.4754 122.608 79.4121 122.016 80.4937C121.463 81.5134 117.905 83.7482 117.297 84.7571C115.388 87.9357 117.471 96.9832 116.57 97.6667C115.67 98.3501 115.985 95.6706 115.128 95.1499C114.218 94.7394 113.347 94.2493 112.524 93.6853C111.439 92.7741 107.675 82.9562 112.318 77.0113C114.628 73.8755 118.01 71.698 121.821 70.8928C125.682 70.2367 129.645 71.1378 132.843 73.3988C133.852 74.1256 135.62 76.1109 132.843 77.0005C132.084 77.2391 132.051 76.6316 131.259 76.4363C130.125 76.1432 128.941 76.0988 127.788 76.3062Z" fill="#263238"/>
<path d="M109.315 84.7534C111.994 82.1498 115.335 82.1497 118.286 82.1497C119.688 82.2608 121.099 82.1024 122.441 81.6833C125.414 80.3923 127.236 76.1506 127.572 74.762C127.752 74.1937 128.074 73.6805 128.506 73.2706C128.939 72.8607 129.469 72.5676 130.046 72.4187C130.516 72.3957 130.984 72.4816 131.415 72.6698C131.846 72.858 132.228 73.1434 132.53 73.5036C133.062 74.2738 133.008 75.3912 132.367 76.7581L132.791 76.9425C133.496 75.3695 133.528 74.1111 132.91 73.1998C132.56 72.7775 132.118 72.4413 131.618 72.2174C131.117 71.9935 130.572 71.8879 130.024 71.9088C129.346 72.0601 128.721 72.389 128.212 72.8617C127.703 73.3345 127.328 73.9342 127.128 74.5992C126.824 75.8794 125.034 80.0235 122.257 81.2168C120.973 81.6112 119.625 81.7549 118.286 81.6399C115.401 81.6399 111.777 81.6399 109 84.3737L109.315 84.7534Z" fill="#263238"/>
<path opacity="0.1" d="M109.315 84.7534C111.994 82.1498 115.335 82.1497 118.286 82.1497C119.688 82.2608 121.099 82.1024 122.441 81.6833C125.414 80.3923 127.236 76.1506 127.572 74.762C127.752 74.1937 128.074 73.6805 128.506 73.2706C128.939 72.8607 129.469 72.5676 130.046 72.4187C130.516 72.3957 130.984 72.4816 131.415 72.6698C131.846 72.858 132.228 73.1434 132.53 73.5036C133.062 74.2738 133.008 75.3912 132.367 76.7581L132.791 76.9425C133.496 75.3695 133.528 74.1111 132.91 73.1998C132.56 72.7775 132.118 72.4413 131.618 72.2174C131.117 71.9935 130.572 71.8879 130.024 71.9088C129.346 72.0601 128.721 72.389 128.212 72.8617C127.703 73.3345 127.328 73.9342 127.128 74.5992C126.824 75.8794 125.034 80.0235 122.257 81.2168C120.973 81.6112 119.625 81.7549 118.286 81.6399C115.401 81.6399 111.777 81.6399 109 84.3737L109.315 84.7534Z" fill="white"/>
<path d="M111.631 87.8011C111.675 87.4567 111.787 87.1245 111.959 86.8234C112.132 86.5223 112.363 86.2584 112.638 86.0467C112.913 85.835 113.228 85.6798 113.563 85.5899C113.898 85.5 114.248 85.4772 114.592 85.5229C116.588 85.8267 117.5 88.5171 117.5 90.2745C117.5 92.2164 116.057 93.6592 114.299 92.5635C112.983 91.7239 112.051 90.3983 111.707 88.8751C111.606 88.5264 111.58 88.1604 111.631 87.8011Z" fill="#FFB573"/>
<path d="M115.174 116.428C114.751 121.983 109.62 142.964 98.5 143.549C96.7284 143.599 95.0024 142.984 93.6616 141.824C84.7008 136.4 91.7415 110.256 93.5423 108.737C94.3242 108.066 95.2618 107.602 96.2693 107.388C97.2768 107.173 98.322 107.214 99.3094 107.508C100.297 107.801 101.195 108.338 101.921 109.068C102.648 109.798 103.18 110.699 103.469 111.688C103.703 110.86 103.887 110.02 104.022 109.171C104.488 106.339 106.029 99.7434 108.871 99.2661C110.585 98.9732 114.111 98.8213 115.131 100.221C116.15 101.62 115.879 107.261 115.174 116.428Z" fill="#37ED81"/>
<g opacity="0.2">
<path d="M114.594 85.5273V86.0155L115.104 90.8322V97.0375L115.95 93.3491C116.165 92.388 116.212 91.3972 116.091 90.42L115.494 85.7986L114.594 85.5273Z" fill="black"/>
</g>
<path d="M109.006 100.387L107.672 90.7213L115.732 90.6562C115.732 90.6562 115.071 97.9138 113.053 100.42L109.006 100.387Z" fill="#FFB573"/>
<path d="M109.093 84.1211L115.06 85.1734L115.7 90.641L107.672 90.7278L109.093 84.1211Z" fill="#FFB573"/>
<path opacity="0.2" d="M100.991 120.5C100.991 120.5 96.163 131.652 96.0111 127.237C95.8592 122.431 100.991 120.5 100.991 120.5Z" fill="black"/>
<path d="M398.563 185.715H368.708C367.341 185.715 366.03 186.258 365.064 187.224C364.098 188.191 363.555 189.501 363.555 190.868V210.091C363.558 211.456 364.102 212.764 365.068 213.728C366.034 214.692 367.343 215.233 368.708 215.233H377.289L381.118 220.245C381.413 220.632 381.793 220.946 382.228 221.161C382.664 221.377 383.144 221.489 383.63 221.489C384.116 221.489 384.595 221.377 385.031 221.161C385.467 220.946 385.847 220.632 386.141 220.245L389.971 215.233H398.563C399.926 215.233 401.234 214.692 402.199 213.727C403.163 212.763 403.705 211.455 403.705 210.091V190.868C403.705 189.503 403.163 188.194 402.199 187.228C401.235 186.262 399.927 185.718 398.563 185.715Z" fill="#37ED81"/>
<path opacity="0.7" d="M398.563 185.715H368.708C367.341 185.715 366.03 186.258 365.064 187.224C364.098 188.191 363.555 189.501 363.555 190.868V210.091C363.558 211.456 364.102 212.764 365.068 213.728C366.034 214.692 367.343 215.233 368.708 215.233H377.289L381.118 220.245C381.413 220.632 381.793 220.946 382.228 221.161C382.664 221.377 383.144 221.489 383.63 221.489C384.116 221.489 384.595 221.377 385.031 221.161C385.467 220.946 385.847 220.632 386.141 220.245L389.971 215.233H398.563C399.926 215.233 401.234 214.692 402.199 213.727C403.163 212.763 403.705 211.455 403.705 210.091V190.868C403.705 189.503 403.163 188.194 402.199 187.228C401.235 186.262 399.927 185.718 398.563 185.715Z" fill="white"/>
<path d="M396.834 198.916L387.299 193.102V196.595H382.959C380.151 196.595 377.458 197.71 375.472 199.696C373.487 201.682 372.371 204.375 372.371 207.183C372.374 207.967 372.462 208.749 372.631 209.515C373.164 207.173 374.476 205.082 376.352 203.582C378.228 202.082 380.557 201.264 382.959 201.26H387.299V204.764L396.834 198.916Z" fill="#37ED81"/>
<path d="M188.5 68.0469H211.391C212.438 68.0469 213.442 68.4629 214.183 69.2035C214.923 69.944 215.339 70.9484 215.339 71.9957V86.7929C215.339 87.311 215.237 87.8239 215.039 88.3024C214.84 88.7809 214.549 89.2155 214.182 89.5813C213.815 89.9472 213.38 90.237 212.901 90.4343C212.422 90.6315 211.909 90.7323 211.391 90.7309H204.806L201.877 94.5821C201.651 94.8788 201.36 95.1194 201.026 95.2851C200.692 95.4507 200.324 95.5368 199.951 95.5368C199.578 95.5368 199.21 95.4507 198.876 95.2851C198.542 95.1194 198.251 94.8788 198.025 94.5821L195.085 90.7309H188.5C187.983 90.7323 187.47 90.6315 186.992 90.4341C186.513 90.2367 186.079 89.9467 185.713 89.5807C185.347 89.2147 185.057 88.78 184.859 88.3016C184.662 87.8232 184.561 87.3105 184.563 86.7929V71.9957C184.561 71.4776 184.662 70.9644 184.859 70.4854C185.056 70.0063 185.346 69.5709 185.712 69.2041C186.078 68.8373 186.513 68.5462 186.991 68.3477C187.469 68.1491 187.982 68.0469 188.5 68.0469Z" fill="#37ED81"/>
<path opacity="0.7" d="M188.5 68.0469H211.391C212.438 68.0469 213.442 68.4629 214.183 69.2035C214.923 69.944 215.339 70.9484 215.339 71.9957V86.7929C215.339 87.311 215.237 87.8239 215.039 88.3024C214.84 88.7809 214.549 89.2155 214.182 89.5813C213.815 89.9472 213.38 90.237 212.901 90.4343C212.422 90.6315 211.909 90.7323 211.391 90.7309H204.806L201.877 94.5821C201.651 94.8788 201.36 95.1194 201.026 95.2851C200.692 95.4507 200.324 95.5368 199.951 95.5368C199.578 95.5368 199.21 95.4507 198.876 95.2851C198.542 95.1194 198.251 94.8788 198.025 94.5821L195.085 90.7309H188.5C187.983 90.7323 187.47 90.6315 186.992 90.4341C186.513 90.2367 186.079 89.9467 185.713 89.5807C185.347 89.2147 185.057 88.78 184.859 88.3016C184.662 87.8232 184.561 87.3105 184.563 86.7929V71.9957C184.561 71.4776 184.662 70.9644 184.859 70.4854C185.056 70.0063 185.346 69.5709 185.712 69.2041C186.078 68.8373 186.513 68.5462 186.991 68.3477C187.469 68.1491 187.982 68.0469 188.5 68.0469Z" fill="white"/>
<path d="M189.848 78.1805L197.181 73.7109V76.3905H200.533C201.75 76.3939 202.951 76.6701 204.047 77.1988C205.142 77.7276 206.106 78.4954 206.866 79.4458C207.625 80.3961 208.163 81.5048 208.437 82.6901C208.712 83.8755 208.717 85.1074 208.453 86.2951C208.045 84.4995 207.039 82.8958 205.6 81.7468C204.161 80.5977 202.375 79.9714 200.533 79.9705H197.181V82.65L189.848 78.1805Z" fill="#37ED81"/>
</svg>
