<svg width="421" height="401" viewBox="0 0 421 401" fill="none" xmlns="http://www.w3.org/2000/svg">
<path d="M210.487 400.502C326.735 400.502 420.973 348.322 420.973 283.956C420.973 219.589 326.735 167.41 210.487 167.41C94.2381 167.41 0 219.589 0 283.956C0 348.322 94.2381 400.502 210.487 400.502Z" fill="#F5F5F5"/>
<path d="M35.3232 318.565C60.7159 331.404 101.872 331.404 127.256 318.565C152.639 305.727 152.648 284.865 127.256 271.999C101.863 259.133 60.7159 259.16 35.3232 271.999C9.93059 284.837 9.9581 305.727 35.3232 318.565Z" fill="#E6E6E6"/>
<path d="M385.63 318.565C360.247 331.404 319.081 331.404 293.698 318.565C268.314 305.727 268.314 284.865 293.698 271.999C319.081 259.133 360.247 259.16 385.63 271.999C411.014 284.837 410.995 305.727 385.63 318.565Z" fill="#E6E6E6"/>
<path d="M262.745 280.273L210.474 250.094L158.203 280.273L210.474 310.444L262.745 280.273Z" fill="#E6E6E6"/>
<path d="M285.171 105.498C302.412 89.9813 320.936 70.5219 321.192 58.8939C313.187 58.7105 311.353 58.8939 306.116 62.8647C301.458 66.4044 282.338 90.6049 275.854 94.7957C267.271 96.9508 251.828 99.4634 244.391 99.601C243.074 99.6149 241.798 99.145 240.805 98.2805C238.118 95.9695 236.028 96.0429 233.102 94.6123C230.81 93.4752 229.92 92.173 229.434 92.5765C228.948 92.98 228.013 94.6582 229.287 96.5198C230.125 97.6103 231.109 98.5794 232.213 99.3992C229.445 99.0839 226.735 98.3832 224.161 97.3176C217.99 94.8416 214.918 95.6119 217.384 103.737C218.925 108.817 223.318 111.889 235.725 112.21C240.285 112.419 244.855 112.3 249.398 111.853C258.477 110.67 268.912 110.486 276.322 109.551C279.614 109.127 282.7 107.713 285.171 105.498Z" fill="#FFB3B2"/>
<path d="M322.05 58.3856C316.126 57.2944 309.047 58.8442 304.324 63.4201C299.601 67.9961 289.367 79.9267 289.367 79.9267C289.367 79.9267 294.292 89.1613 301.701 90.9862L309.038 82.9805L322.05 58.3856Z" fill="#37ED81"/>
<path opacity="0.1" d="M322.05 58.3856C316.126 57.2944 309.047 58.8442 304.324 63.4201C299.601 67.9961 289.367 79.9267 289.367 79.9267C289.367 79.9267 294.292 89.1613 301.701 90.9862L309.038 82.9805L322.05 58.3856Z" fill="black"/>
<path d="M355.042 277.949H344.523V293.264H355.042V277.949Z" fill="#FFB3B2"/>
<path d="M318.043 258.994L307.531 259.355L308.058 274.661L318.57 274.299L318.043 258.994Z" fill="#FFB3B2"/>
<path d="M354.341 128.418C354.341 138.505 355.643 203.431 355.643 203.431C355.891 206.329 358.596 211.685 358.009 222.753C357.211 237.829 355.909 279.719 355.909 279.719C355.909 279.719 350.975 284.607 343.988 279.719C343.988 279.719 334.469 222.808 332.58 207.861C330.938 194.82 328.141 159.395 328.141 159.395L322.786 201.918C322.786 201.918 324.501 211.721 324.886 218.645C325.271 225.568 318.705 264.698 318.705 264.698C317.002 265.765 315.049 266.367 313.041 266.444C311.033 266.522 309.04 266.071 307.26 265.138C307.26 265.138 303.225 207.604 302.171 201.322C301.116 195.04 305.179 128.418 305.179 128.418H354.341Z" fill="#37474F"/>
<path d="M338.51 58.8675C339.299 59.0601 343.82 60.1238 348.121 61.2609C349.904 61.7312 351.482 62.779 352.606 64.2407C353.731 65.7024 354.34 67.4956 354.338 69.34V128.424C347.002 136.448 321.252 140.19 305.148 128.424V77.1531C305.148 68.964 309.734 59.1243 322.269 58.3906L338.51 58.8675Z" fill="#EBEBEB"/>
<path d="M342.052 16.9445C342.899 16.845 343.757 16.9403 344.561 17.2232C345.366 17.5061 346.094 17.9691 346.692 18.5768C348.682 20.6126 348.27 24.3816 346.692 33.0476L340.539 33.7537L342.052 16.9445Z" fill="#263238"/>
<path d="M306.165 14.4315C304.84 14.4371 303.529 14.1686 302.313 13.6429C300.424 12.5608 299.929 14.7066 300.965 16.5774C301.652 17.9127 302.669 19.0501 303.919 19.8816C305.169 20.713 306.612 21.2108 308.109 21.3276C308.164 21.0617 309.878 16.5224 309.878 16.5224L306.165 14.4315Z" fill="#263238"/>
<path d="M315.749 35.5876C322.389 35.5876 327.771 30.205 327.771 23.5653C327.771 16.9255 322.389 11.543 315.749 11.543C309.109 11.543 303.727 16.9255 303.727 23.5653C303.727 30.205 309.109 35.5876 315.749 35.5876Z" fill="#263238"/>
<path d="M339.163 33.747C340.08 34.2973 341.382 32.5365 342.51 31.3627C343.638 30.1889 347.316 28.6117 349.15 32.4357C350.984 36.2597 347.527 41.606 344.629 42.523C339.64 44.0912 338.888 40.8907 338.888 40.8907L338.512 58.8921C338.512 58.8921 335.238 66.8886 326.389 68.0624C317.54 69.2362 319.365 61.9641 322.272 58.3877V52.8855C322.272 52.8855 317.751 53.5733 315.55 53.2248C311.882 52.6563 309.561 49.7676 308.452 45.7877C306.664 39.3684 305.985 34.2514 307.535 21.7064C309.204 7.95089 325.206 7.80417 333.844 13.2422C342.483 18.6802 339.163 33.747 339.163 33.747Z" fill="#FFB3B2"/>
<path d="M338.707 36.2971C339.138 36.132 341.376 32.3997 342.513 31.3635C344.09 29.9237 342.054 16.9385 342.054 16.9385C342.054 16.9385 343.65 12.0141 340.532 8.74943C337.414 5.48479 331.362 5.99833 326.969 5.86994C322.384 5.70488 317.45 5.42977 311.187 2.70618C304.924 -0.0174055 304.447 -0.338367 303.667 2.41273C302.888 5.16383 302.594 11.473 306.336 15.7005L309.454 16.8377C309.454 16.8377 311.132 18.3324 316.983 19.0477C321.378 19.5267 325.811 19.5267 330.206 19.0477C331.903 18.8185 333.709 19.9647 334.278 25.3569C334.7 29.2635 336.103 37.2783 338.707 36.2971Z" fill="#263238"/>
<path d="M342.037 17.9418L347.54 14.9798C347.363 14.6064 347.113 14.2728 346.804 13.9991C346.495 13.7255 346.133 13.5176 345.741 13.3881C345.349 13.2586 344.935 13.2101 344.524 13.2457C344.112 13.2813 343.713 13.4001 343.349 13.595C342.614 14.0127 342.068 14.697 341.824 15.5062C341.58 16.3154 341.656 17.1874 342.037 17.9418Z" fill="#263238"/>
<path d="M322.281 52.9103C322.281 52.9103 330.48 51.2597 333.341 49.7374C335.026 48.8576 336.407 47.4897 337.302 45.8125C336.868 47.4759 336.104 49.0351 335.056 50.3977C332.956 53.0754 322.281 55.047 322.281 55.047V52.9103Z" fill="#F59595"/>
<path d="M322.281 31.7071C322.294 32.0309 322.402 32.3438 322.591 32.6069C322.78 32.87 323.043 33.0715 323.346 33.1863C323.649 33.3012 323.979 33.3243 324.295 33.2528C324.611 33.1813 324.899 33.0184 325.123 32.7843C325.347 32.5501 325.498 32.2553 325.555 31.9363C325.613 31.6174 325.575 31.2886 325.447 30.9909C325.319 30.6932 325.106 30.4397 324.835 30.2621C324.564 30.0845 324.247 29.9907 323.923 29.9922C323.479 30.0066 323.059 30.1942 322.752 30.5147C322.445 30.8353 322.276 31.2633 322.281 31.7071Z" fill="#263238"/>
<path d="M323.844 35.991C323.844 36.0518 323.868 36.1101 323.911 36.1531C323.954 36.1961 324.012 36.2202 324.073 36.2202C324.134 36.2202 324.192 36.1961 324.235 36.1531C324.278 36.1101 324.302 36.0518 324.302 35.991C324.302 35.9302 324.278 35.8719 324.235 35.8289C324.192 35.7859 324.134 35.7617 324.073 35.7617C324.012 35.7617 323.954 35.7859 323.911 35.8289C323.868 35.8719 323.844 35.9302 323.844 35.991Z" fill="#F59595"/>
<path d="M325.684 34.9529C325.683 34.9838 325.688 35.0146 325.699 35.0435C325.71 35.0724 325.727 35.0987 325.748 35.121C325.769 35.1433 325.795 35.161 325.824 35.1731C325.852 35.1852 325.883 35.1914 325.914 35.1914C325.977 35.1914 326.037 35.1662 326.082 35.1215C326.127 35.0768 326.152 35.0162 326.152 34.9529C326.159 34.9184 326.158 34.8827 326.149 34.8485C326.141 34.8143 326.125 34.7824 326.102 34.7551C326.08 34.7279 326.052 34.7059 326.02 34.6909C325.988 34.6758 325.953 34.668 325.918 34.668C325.883 34.668 325.848 34.6758 325.816 34.6909C325.784 34.7059 325.756 34.7279 325.734 34.7551C325.711 34.7824 325.695 34.8143 325.687 34.8485C325.678 34.8827 325.677 34.9184 325.684 34.9529Z" fill="#F59595"/>
<path d="M326.618 36.7814C326.615 36.8126 326.619 36.844 326.63 36.8735C326.64 36.903 326.657 36.9299 326.679 36.9525C326.7 36.9751 326.727 36.9928 326.756 37.0044C326.785 37.016 326.816 37.0212 326.847 37.0198C326.91 37.0198 326.971 36.9947 327.016 36.95C327.061 36.9053 327.086 36.8446 327.086 36.7814C327.086 36.7182 327.061 36.6575 327.016 36.6128C326.971 36.5681 326.91 36.543 326.847 36.543C326.786 36.5453 326.727 36.5715 326.685 36.616C326.642 36.6604 326.618 36.7197 326.618 36.7814Z" fill="#F59595"/>
<path d="M328.156 35.2033C328.156 35.2674 328.181 35.329 328.226 35.3752C328.27 35.4214 328.331 35.4485 328.395 35.4509C328.426 35.4497 328.457 35.4423 328.485 35.4293C328.514 35.4162 328.539 35.3976 328.561 35.3746C328.582 35.3516 328.599 35.3246 328.609 35.2952C328.62 35.2658 328.625 35.2346 328.624 35.2033C328.624 35.1416 328.6 35.0823 328.557 35.0378C328.515 34.9934 328.456 34.9672 328.395 34.9648C328.331 34.9648 328.271 34.99 328.226 35.0347C328.181 35.0794 328.156 35.14 328.156 35.2033Z" fill="#F59595"/>
<path d="M321.242 34.7136C321.242 34.7744 321.266 34.8328 321.309 34.8757C321.352 34.9187 321.411 34.9429 321.471 34.9429C321.532 34.9429 321.591 34.9187 321.634 34.8757C321.677 34.8328 321.701 34.7744 321.701 34.7136C321.701 34.6528 321.677 34.5945 321.634 34.5515C321.591 34.5085 321.532 34.4844 321.471 34.4844C321.411 34.4844 321.352 34.5085 321.309 34.5515C321.266 34.5945 321.242 34.6528 321.242 34.7136Z" fill="#F59595"/>
<path d="M321.79 36.7839C321.787 36.8151 321.791 36.8465 321.802 36.876C321.812 36.9056 321.829 36.9325 321.85 36.9551C321.872 36.9776 321.898 36.9953 321.928 37.0069C321.957 37.0185 321.988 37.0238 322.019 37.0224C322.05 37.0224 322.081 37.0162 322.109 37.0041C322.137 36.992 322.163 36.9743 322.185 36.952C322.206 36.9297 322.223 36.9034 322.234 36.8745C322.245 36.8456 322.25 36.8148 322.248 36.7839C322.248 36.7231 322.224 36.6648 322.181 36.6218C322.138 36.5788 322.08 36.5547 322.019 36.5547C321.958 36.5547 321.9 36.5788 321.857 36.6218C321.814 36.6648 321.79 36.7231 321.79 36.7839Z" fill="#F59595"/>
<path d="M319.234 35.4285C319.234 35.4893 319.259 35.5476 319.302 35.5906C319.345 35.6336 319.403 35.6577 319.464 35.6577C319.524 35.6577 319.583 35.6336 319.626 35.5906C319.669 35.5476 319.693 35.4893 319.693 35.4285C319.693 35.3677 319.669 35.3094 319.626 35.2664C319.583 35.2234 319.524 35.1992 319.464 35.1992C319.403 35.1992 319.345 35.2234 319.302 35.2664C319.259 35.3094 319.234 35.3677 319.234 35.4285Z" fill="#F59595"/>
<path d="M312.086 34.6148C312.086 34.6765 312.11 34.7358 312.153 34.7802C312.195 34.8247 312.254 34.8508 312.315 34.8532C312.347 34.852 312.377 34.8447 312.406 34.8316C312.434 34.8185 312.46 34.7999 312.481 34.7769C312.503 34.7539 312.519 34.727 312.53 34.6976C312.541 34.6682 312.546 34.6369 312.545 34.6056C312.545 34.5439 312.521 34.4846 312.478 34.4402C312.435 34.3957 312.377 34.3696 312.315 34.3672C312.284 34.3684 312.253 34.3757 312.225 34.3888C312.196 34.4019 312.171 34.4205 312.149 34.4435C312.128 34.4665 312.112 34.4934 312.101 34.5228C312.09 34.5522 312.085 34.5835 312.086 34.6148Z" fill="#F59595"/>
<path d="M310.473 35.741C310.472 35.7718 310.477 35.8026 310.488 35.8315C310.499 35.8604 310.515 35.8868 310.537 35.9091C310.558 35.9313 310.584 35.949 310.612 35.9611C310.641 35.9732 310.671 35.9794 310.702 35.9794C310.764 35.977 310.822 35.9509 310.865 35.9064C310.908 35.862 310.931 35.8027 310.931 35.741C310.931 35.6802 310.907 35.6219 310.864 35.5789C310.821 35.5359 310.763 35.5117 310.702 35.5117C310.641 35.5117 310.583 35.5359 310.54 35.5789C310.497 35.6219 310.473 35.6802 310.473 35.741Z" fill="#F59595"/>
<path d="M309.211 34.5392C309.21 34.5705 309.215 34.6018 309.226 34.6312C309.237 34.6606 309.253 34.6875 309.274 34.7105C309.296 34.7335 309.321 34.7521 309.35 34.7652C309.378 34.7783 309.409 34.7856 309.44 34.7868C309.497 34.7758 309.548 34.7455 309.584 34.7012C309.621 34.6569 309.641 34.6012 309.641 34.5438C309.641 34.4864 309.621 34.4307 309.584 34.3864C309.548 34.342 309.497 34.3118 309.44 34.3008C309.379 34.3032 309.32 34.3293 309.278 34.3738C309.235 34.4182 309.211 34.4775 309.211 34.5392Z" fill="#F59595"/>
<path d="M307.676 35.1017C307.67 35.1363 307.67 35.172 307.679 35.2062C307.688 35.2404 307.704 35.2722 307.726 35.2995C307.748 35.3267 307.776 35.3487 307.808 35.3638C307.84 35.3789 307.875 35.3867 307.91 35.3867C307.946 35.3867 307.98 35.3789 308.012 35.3638C308.044 35.3487 308.072 35.3267 308.095 35.2995C308.117 35.2722 308.133 35.2404 308.142 35.2062C308.15 35.172 308.151 35.1363 308.144 35.1017C308.144 35.04 308.12 34.9807 308.078 34.9363C308.035 34.8918 307.977 34.8657 307.915 34.8633C307.852 34.8633 307.791 34.8884 307.746 34.9331C307.702 34.9778 307.676 35.0385 307.676 35.1017Z" fill="#F59595"/>
<path d="M307.414 33.3048C307.413 33.3361 307.418 33.3674 307.429 33.3968C307.44 33.4262 307.456 33.4532 307.478 33.4762C307.499 33.4992 307.524 33.5177 307.553 33.5308C307.581 33.5439 307.612 33.5513 307.644 33.5524C307.7 33.5414 307.751 33.5112 307.787 33.4668C307.824 33.4225 307.844 33.3669 307.844 33.3094C307.844 33.252 307.824 33.1963 307.787 33.152C307.751 33.1077 307.7 33.0774 307.644 33.0664C307.582 33.0688 307.524 33.0949 307.481 33.1394C307.438 33.1839 307.414 33.2432 307.414 33.3048Z" fill="#F59595"/>
<path d="M324.027 25.5079L327.54 27.4428C327.778 26.9663 327.826 26.417 327.675 25.9061C327.523 25.3953 327.183 24.9612 326.723 24.6917C326.494 24.5643 326.241 24.4843 325.98 24.4564C325.718 24.4285 325.454 24.4534 325.203 24.5295C324.951 24.6056 324.718 24.7314 324.516 24.8995C324.314 25.0676 324.148 25.2744 324.027 25.5079Z" fill="#263238"/>
<path d="M323.024 43.0508L319.273 44.4538C319.356 44.7052 319.488 44.9374 319.662 45.1369C319.835 45.3364 320.047 45.4991 320.285 45.6153C320.523 45.7316 320.781 45.799 321.045 45.8137C321.309 45.8285 321.574 45.7901 321.823 45.701C322.328 45.5018 322.736 45.1138 322.96 44.6191C323.184 44.1245 323.207 43.562 323.024 43.0508Z" fill="#F59595"/>
<path d="M308.65 26.8681L311.859 24.4013C311.708 24.1906 311.517 24.0121 311.296 23.8762C311.076 23.7403 310.83 23.6496 310.574 23.6095C310.318 23.5694 310.057 23.5806 309.805 23.6425C309.553 23.7045 309.316 23.8159 309.108 23.9703C308.674 24.3021 308.385 24.7881 308.3 25.3275C308.214 25.867 308.34 26.4186 308.65 26.8681Z" fill="#263238"/>
<path d="M309.641 31.2383C309.655 31.5594 309.764 31.8693 309.952 32.1294C310.141 32.3895 310.402 32.5885 310.703 32.7015C311.004 32.8146 311.332 32.8368 311.645 32.7654C311.959 32.6941 312.244 32.5322 312.467 32.3C312.689 32.0678 312.838 31.7754 312.896 31.4591C312.953 31.1429 312.917 30.8167 312.791 30.521C312.665 30.2253 312.454 29.9731 312.186 29.7958C311.918 29.6185 311.604 29.5238 311.282 29.5234C310.838 29.5355 310.416 29.7223 310.109 30.0434C309.802 30.3645 309.633 30.7939 309.641 31.2383Z" fill="#263238"/>
<path d="M316.976 29.6797L316.435 39.5561L311.281 37.7954L316.976 29.6797Z" fill="#F59595"/>
<path d="M344.519 288.07V286.566C343.51 287.007 341.172 295.929 336.999 299.735C333.68 302.761 329.159 306.255 328.003 309.63C326.848 313.004 334.303 315.077 337.403 314.527C341.007 313.885 347.252 311.354 348.82 309.025C350.388 306.695 351.113 303.211 352.387 301.487C353.662 299.762 356.596 297.818 357.284 295.847C357.669 294.756 357.22 292.353 356.688 290.345C356.193 288.511 355.67 286.438 355.037 286.612C355.037 286.842 355.037 287.759 355.037 287.759C354.267 288.611 352.158 289.446 349.774 289.538C348.233 289.556 344.501 289.226 344.519 288.07Z" fill="#263238"/>
<path d="M307.947 271.405C307.397 271.405 306.957 272.194 305.746 273.496C303.946 275.313 301.858 276.819 299.566 277.953C295.622 279.924 287.965 282.951 284.499 284.519C282.335 285.491 282.435 288.104 284.673 289.59C286.911 291.076 292.312 292.158 298.804 290.7C302.335 289.911 306.939 286.646 309.809 286.82C312.679 286.995 318.172 286.958 320.327 285.482C322.482 284.005 321.611 280.832 321.006 278.145C320.346 275.183 319.392 270.644 318.411 270.809V271.726C317.145 273.634 310.708 274.422 307.929 273.01L307.947 271.405Z" fill="#263238"/>
<path d="M328.165 159.396C322.718 157.704 317.709 154.837 313.492 150.996C313.492 150.996 316.326 156.287 324.726 161.212L324.267 190.135L328.165 159.396Z" fill="#263238"/>
<path d="M135.798 105.49C118.549 89.9735 99.9883 70.5141 99.7773 58.8861C107.774 58.7027 109.617 58.8861 114.844 62.8568C119.503 66.3966 138.623 90.5971 145.106 94.7879C153.69 96.9429 169.142 99.4556 176.57 99.5932C177.886 99.6071 179.162 99.1372 180.155 98.2726C182.842 95.9617 184.933 96.0351 187.858 94.6045C190.16 93.4674 191.04 92.1652 191.526 92.5687C192.159 93.0822 192.948 94.6504 191.673 96.5119C190.836 97.6025 189.852 98.5716 188.748 99.3914C191.516 99.076 194.226 98.3754 196.799 97.3098C202.971 94.8338 206.043 95.6041 203.585 103.729C202.045 108.809 197.643 111.881 185.245 112.202C180.684 112.411 176.115 112.292 171.572 111.845C162.493 110.662 152.067 110.478 144.657 109.543C141.361 109.124 138.27 107.71 135.798 105.49Z" fill="#9C5456"/>
<path d="M89.927 5.9949H92.5956C98.6759 5.9949 104.507 8.4103 108.807 12.7097C113.106 17.0091 115.521 22.8404 115.521 28.9207V56.0832H87.0934C84.4548 56.0808 81.8426 55.5587 79.4058 54.5468C76.9691 53.5348 74.7555 52.0528 72.8914 50.1854C71.0274 48.318 69.5494 46.1017 68.5419 43.663C67.5344 41.2244 67.0171 38.6113 67.0195 35.9727V28.9024C67.0195 22.8221 69.4349 16.9908 73.7344 12.6914C78.0338 8.39195 83.8651 5.97656 89.9454 5.97656L89.927 5.9949Z" fill="#263238"/>
<path d="M45.1159 272.206L46.2164 271.069C45.3727 272.839 41.8696 280.606 42.2273 286.549C42.5116 291.271 43.3644 297.241 41.7504 300.634C40.0814 304.174 33.4971 299.552 31.608 296.856C29.3521 293.729 27.3255 288.759 27.7015 284.54C27.9674 281.578 29.0128 278.772 29.3155 276.535C29.6181 274.297 28.8203 270.684 29.7648 268.676C30.2783 267.566 32.3875 266.09 34.2766 264.943C36.0098 263.898 37.9447 262.743 38.2657 263.339L37.422 264.201C37.3762 265.402 38.3391 267.594 40.0906 269.409C41.2094 270.592 44.2539 273.105 45.1159 272.206Z" fill="#37ED81"/>
<path opacity="0.1" d="M45.1159 272.206L46.2164 271.069C45.3727 272.839 41.8696 280.606 42.2273 286.549C42.5116 291.271 43.3644 297.241 41.7504 300.634C40.0814 304.174 33.4971 299.552 31.608 296.856C29.3521 293.729 27.3255 288.759 27.7015 284.54C27.9674 281.578 29.0128 278.772 29.3155 276.535C29.6181 274.297 28.8203 270.684 29.7648 268.676C30.2783 267.566 32.3875 266.09 34.2766 264.943C36.0098 263.898 37.9447 262.743 38.2657 263.339L37.422 264.201C37.3762 265.402 38.3391 267.594 40.0906 269.409C41.2094 270.592 44.2539 273.105 45.1159 272.206Z" fill="black"/>
<path d="M42.5335 290.767C42.4326 289.318 42.3042 287.878 42.2217 286.54C41.9741 282.385 43.6064 277.369 44.9086 274.077C45.6514 272.243 52.575 262.367 52.575 262.367L42.9094 254.113L37.4072 264.201L37.2147 264.393V264.457C35.995 266.475 35.3806 274.416 34.6561 279.304C34.1793 282.578 34.4452 287.557 37.1871 291.07C39.8282 294.38 42.2675 294.921 42.5335 290.767Z" fill="#9C5456"/>
<path d="M103.685 276.516C103.535 276.558 103.402 276.646 103.305 276.768C103.208 276.889 103.151 277.039 103.144 277.194C103.015 278.111 102.869 279.78 102.594 281.321C102.218 283.375 101.842 286.328 102.208 287.96C102.575 289.593 106.418 291.913 109.004 292.252C111.59 292.591 116.037 295.003 118.119 296.837C120.668 299.075 126.07 300.872 129.701 300.918C133.956 300.964 137.294 300.001 138.266 296.883C138.67 295.59 137.606 294.013 132.113 291.5C132.113 291.5 129.362 290.106 127.757 289.152C119.806 284.356 117.074 281.596 114.698 276.598L103.685 276.516Z" fill="#37ED81"/>
<path opacity="0.1" d="M103.685 276.516C103.535 276.558 103.402 276.646 103.305 276.768C103.208 276.889 103.151 277.039 103.144 277.194C103.015 278.111 102.869 279.78 102.594 281.321C102.218 283.375 101.842 286.328 102.208 287.96C102.575 289.593 106.418 291.913 109.004 292.252C111.59 292.591 116.037 295.003 118.119 296.837C120.668 299.075 126.07 300.872 129.701 300.918C133.956 300.964 137.294 300.001 138.266 296.883C138.67 295.59 137.606 294.013 132.113 291.5C132.113 291.5 129.362 290.106 127.757 289.152C119.806 284.356 117.074 281.596 114.698 276.598L103.685 276.516Z" fill="black"/>
<path d="M117.73 280.671C116.392 278.578 115.636 276.166 115.538 273.683L115.364 266.906H103.645V276.498V277.966C104.305 282.624 108.697 283.174 112.366 285.751C114.2 287.035 121.334 292.519 126.121 293.408C130.028 294.124 131.486 292.583 132.008 291.483C126.848 288.442 122.056 284.814 117.73 280.671Z" fill="#9C5456"/>
<path d="M65.798 205.889C60.5856 210.512 56.5067 216.273 53.8766 222.725C50.2635 231.923 39.9102 258.875 39.9102 258.875C39.9102 258.875 44.4403 266.825 50.6028 267.366C50.6028 267.366 79.8653 224.33 83.2308 214.27C86.6422 209.135 90.9064 183.843 93.9968 166.346L94.1068 166.539L99.3706 203.66C98.0087 208.015 97.0239 212.479 96.4269 217.003C95.5099 226.109 103.222 270.191 103.222 270.191C103.222 270.191 108.458 272.942 115.703 270.512C115.703 270.512 116.868 213.032 117.693 202.055C119.068 183.632 119.738 131.673 116.363 120.77L68.0814 123.466C64.074 135.039 63.7622 142.43 64.2757 155.122C64.7526 168.235 65.798 205.889 65.798 205.889Z" fill="#37474F"/>
<path d="M94.0898 166.534L96.8409 149.395C96.8409 149.395 108.441 146.983 113.705 142.059C113.705 142.059 108.203 148.927 99.9497 151.174L96.8685 164.37L98.9685 200.804L94.0898 166.534Z" fill="#263238"/>
<path d="M82.9487 59.3832C72.1185 60.126 68.7163 64.5645 68.6429 71.0846C68.6872 76.292 69.5633 81.4589 71.2382 86.3899L76.1534 103.062C76.1534 103.062 72.0818 112.305 68.0469 123.53C86.9928 134.103 110.643 128.546 116.347 120.834C116.585 119.192 115.118 106.4 114.219 98.0362C117.557 89.6728 118.438 84.3632 117.026 78.8335C114.412 68.5627 104.27 58.5579 99.7854 58.9156L82.9487 59.3832Z" fill="#37ED81"/>
<path opacity="0.1" d="M82.9487 59.3832C72.1185 60.126 68.7163 64.5645 68.6429 71.0846C68.6872 76.292 69.5633 81.4589 71.2382 86.3899L76.1534 103.062C76.1534 103.062 72.0818 112.305 68.0469 123.53C86.9928 134.103 110.643 128.546 116.347 120.834C116.585 119.192 115.118 106.4 114.219 98.0362C117.557 89.6728 118.438 84.3632 117.026 78.8335C114.412 68.5627 104.27 58.5579 99.7854 58.9156L82.9487 59.3832Z" fill="black"/>
<path d="M106.993 126.767L90.2941 108.766L68.9823 76.3945C69.3929 79.7914 70.1488 83.1375 71.2382 86.381L76.1534 103.053C76.1534 103.053 72.0818 112.296 68.0469 123.521C81.3163 130.903 96.8967 130.389 106.993 126.767Z" fill="#37ED81"/>
<path opacity="0.1" d="M106.993 126.767L90.2941 108.766L68.9823 76.3945C69.3929 79.7914 70.1488 83.1375 71.2382 86.381L76.1534 103.053C76.1534 103.053 72.0818 112.296 68.0469 123.521C81.3163 130.903 96.8967 130.389 106.993 126.767Z" fill="black"/>
<path d="M66.5124 13.7773L69.7954 19.0411C69.4581 19.2727 69.0772 19.4332 68.6759 19.5125C68.2745 19.5919 67.8612 19.5886 67.4612 19.5027C67.0612 19.4169 66.6829 19.2504 66.3495 19.0133C66.016 18.7763 65.7345 18.4737 65.522 18.1241C65.1053 17.409 64.9758 16.5623 65.1597 15.7553C65.3436 14.9484 65.8271 14.2414 66.5124 13.7773Z" fill="#263238"/>
<path d="M62.9297 19.7842L69.0738 18.8672C69.1581 19.2733 69.1577 19.6924 69.0727 20.0984C68.9877 20.5044 68.8199 20.8884 68.5798 21.2266C68.3397 21.5648 68.0325 21.8499 67.6772 22.064C67.322 22.2782 66.9265 22.4167 66.5153 22.4711C65.6873 22.5675 64.8538 22.3426 64.1867 21.8427C63.5196 21.3428 63.0697 20.606 62.9297 19.7842Z" fill="#263238"/>
<path d="M107.546 15.793C110.105 17.3061 113.268 23.7528 112.956 37.2515C112.691 48.6961 108.986 51.5206 107.124 52.3367C105.263 53.1529 101.668 52.6577 98.1739 52.0708V58.9394C98.1739 58.9394 103.007 64.5516 102.695 67.697C102.383 70.8425 95.7254 71.5944 91.2136 68.5132C88.2836 66.4096 85.7709 63.7787 83.804 60.7551V44.1568C83.804 44.1568 81.4472 47.3022 77.5865 44.7437C73.7258 42.1852 73.5883 35.8393 75.8258 33.5651C78.0634 31.2908 82.8961 32.0061 83.804 35.1515C83.804 35.1515 89.3704 35.3533 96.7892 31.2817C99.6738 29.7276 102.151 27.5152 104.02 24.8239C105.889 22.1327 107.097 19.0387 107.546 15.793Z" fill="#9C5456"/>
<path d="M98.895 34.3792C98.8982 34.6615 98.8184 34.9385 98.6654 35.1758C98.5124 35.4131 98.2931 35.6001 98.0346 35.7137C97.7761 35.8273 97.49 35.8624 97.2117 35.8146C96.9334 35.7668 96.6754 35.6383 96.4696 35.445C96.2638 35.2517 96.1194 35.0022 96.0544 34.7274C95.9893 34.4527 96.0065 34.1649 96.1037 33.8998C96.2009 33.6348 96.3739 33.4042 96.6012 33.2367C96.8285 33.0692 97.1 32.9722 97.3819 32.9578C97.5746 32.9517 97.7666 32.9836 97.947 33.0517C98.1274 33.1199 98.2925 33.2229 98.433 33.3549C98.5736 33.4869 98.6867 33.6453 98.766 33.821C98.8452 33.9968 98.8891 34.1865 98.895 34.3792Z" fill="#263238"/>
<path d="M100.558 44.0742L103.896 45.1471C103.835 45.3702 103.73 45.5788 103.587 45.7604C103.444 45.942 103.265 46.0929 103.063 46.2041C102.86 46.3153 102.637 46.3846 102.407 46.4078C102.176 46.4311 101.944 46.4078 101.723 46.3393C101.273 46.1861 100.901 45.8644 100.683 45.4419C100.466 45.0194 100.421 44.5291 100.558 44.0742Z" fill="#7D3336"/>
<path d="M110.69 29.9608L107.773 27.9341C107.897 27.7392 108.058 27.5712 108.248 27.4402C108.438 27.3091 108.653 27.2177 108.879 27.1715C109.105 27.1253 109.338 27.1251 109.564 27.1711C109.79 27.217 110.004 27.3081 110.194 27.4389C110.591 27.7106 110.865 28.127 110.958 28.5986C111.05 29.0702 110.954 29.5594 110.69 29.9608Z" fill="#263238"/>
<path d="M110.028 33.3635C110.031 33.6459 109.951 33.9229 109.798 34.1602C109.645 34.3975 109.426 34.5845 109.167 34.6981C108.909 34.8117 108.623 34.8468 108.345 34.799C108.066 34.7512 107.808 34.6227 107.602 34.4294C107.397 34.2361 107.252 33.9865 107.187 33.7118C107.122 33.4371 107.139 33.1493 107.236 32.8842C107.334 32.6192 107.507 32.3885 107.734 32.221C107.961 32.0535 108.233 31.9565 108.515 31.9421C108.707 31.936 108.899 31.968 109.08 32.0361C109.26 32.1042 109.425 32.2073 109.566 32.3393C109.706 32.4713 109.82 32.6297 109.899 32.8054C109.978 32.9812 110.022 33.1708 110.028 33.3635Z" fill="#263238"/>
<path d="M102.996 32.5117L103.225 41.1777L107.783 39.7654L102.996 32.5117Z" fill="#7D3336"/>
<path d="M98.168 52.0825C94.4998 51.6057 86.916 49.4323 85.7422 46.4336C86.2109 47.9507 87.1364 49.2862 88.3924 50.2576C90.6575 52.1926 98.168 54.3751 98.168 54.3751V52.0825Z" fill="#7D3336"/>
<path d="M210.477 211.663L139.939 170.892V108.561L138.453 107.708V86.9102L210.477 128.498V211.663Z" fill="#37ED81"/>
<path opacity="0.1" d="M210.477 211.663L139.939 170.892V108.561L138.453 107.708V86.9102L210.477 128.498V211.663Z" fill="black"/>
<path opacity="0.15" d="M210.476 149.292L185.221 134.711L185.211 113.885L183.478 112.913L183.469 133.702L139.938 108.566V111.556L183.469 136.683L183.46 196.07L185.23 197.088L185.221 137.691L210.476 152.272V149.292Z" fill="black"/>
<path d="M210.473 211.663L280.626 171.185V108.781L282.496 107.708V86.9102L210.473 128.498V211.663Z" fill="#37ED81"/>
<path opacity="0.1" d="M280.626 108.773L237.479 133.689L237.47 112.9L235.737 113.872V134.698L210.473 149.279V152.259L235.728 137.687L235.719 197.075L237.488 196.057L237.479 136.688L280.626 111.8V108.773Z" fill="black"/>
<path d="M282.501 86.9025L210.477 45.3242L138.453 86.9025L210.477 128.49L282.501 86.9025Z" fill="#37ED81"/>
<path opacity="0.4" d="M282.501 86.9025L210.477 45.3242L138.453 86.9025L210.477 128.49L282.501 86.9025Z" fill="white"/>
<path opacity="0.15" d="M198.359 87.7274L163.934 72.2295L165.465 71.3125L200.184 86.9112" fill="black"/>
<path opacity="0.15" d="M222.592 87.7274L257.017 72.2295L255.477 71.3125L220.758 86.9112" fill="black"/>
<path opacity="0.15" d="M237.466 112.903L211.909 93.9297V93.9206L210.469 92.8477L210.46 92.8568V92.8477L209.011 93.9206L209.02 93.9297L183.453 112.903L185.195 113.875L210.46 95.0027L235.733 113.875L237.466 112.903Z" fill="black"/>
<path d="M255.496 102.512V187.741L237.495 198.14L237.477 112.911L255.496 102.512Z" fill="#37474F"/>
<path d="M237.489 198.139L235.719 197.084L237.489 196.066V198.139Z" fill="#263238"/>
<path d="M165.457 102.512V187.741L183.458 198.14L183.477 112.911L165.457 102.512Z" fill="#263238"/>
<path d="M183.453 198.139L185.223 197.084L183.453 196.066V198.139Z" fill="black"/>
<path d="M183.477 112.908L210.483 92.8621L220.782 86.9106L255.491 71.321L237.49 60.9219L210.483 80.9682L200.194 86.9198L165.457 102.509L183.477 112.908Z" fill="#455A64"/>
<path d="M200.197 86.9102L198.363 87.7263L204.425 90.4132L209.038 93.9163L210.486 92.8434L205.984 89.5054L200.197 86.9102Z" fill="#263238"/>
<path d="M237.472 112.908L205.981 89.515L165.457 71.321L183.468 60.9219L214.986 84.3154L255.491 102.509L237.472 112.908Z" fill="#455A64"/>
<path d="M204.829 83.5C204.829 83.5 183.674 101.061 149.129 97.0629C149.129 97.0629 163.801 106.664 181.739 104.491C181.739 104.491 179.162 111.038 164.049 119.008C164.049 119.008 201.803 119.356 211.56 88.0118L204.829 83.5Z" fill="#37474F"/>
<path d="M184.938 114.991C195.392 111.066 206.8 103.326 211.531 88.0391L204.8 83.5273C200.71 86.6278 196.238 89.1891 191.494 91.1479C191.494 91.1479 198.831 94.3575 206.314 92.3767C204.618 97.4781 201.825 102.146 198.132 106.053C194.439 109.96 189.935 113.01 184.938 114.991Z" fill="#263238"/>
<path d="M157.929 60.5237C157.929 60.5237 162.129 55.6084 175.013 57.8277C182.79 59.1757 195.995 68.236 202.524 83.3303C203.349 85.2378 205.202 85.8797 206.192 87.1635C206.422 87.451 206.674 87.7208 206.944 87.9705L211.025 88.0164C211.025 73.9124 203.111 59.6801 195.628 51.4451C188.145 43.2101 175.82 39.1844 167.035 38.8726C163.92 38.7286 160.814 39.3258 157.975 40.6149C155.581 47.2818 154.591 53.8936 157.929 60.5237Z" fill="#37474F"/>
<path d="M201.617 81.4316C201.617 81.4316 208.953 78.9556 205.936 67.1992C209.102 73.6958 210.826 80.8001 210.989 88.025L206.908 87.9792C206.638 87.7294 206.387 87.4597 206.156 87.1722C205.166 85.8883 203.314 85.2464 202.488 83.339C202.222 82.6787 201.92 82.0552 201.617 81.4316Z" fill="#263238"/>
<path d="M165.449 69.5511C162.358 67.0754 159.8 63.9997 157.93 60.5092C154.582 53.879 155.573 47.2672 157.93 40.582C150.373 43.92 145.861 53.7415 144.174 61.6738C143.257 66.1122 143.147 69.9271 143.899 71.7612C146.017 76.7498 158.425 96.9062 211.567 88.0293L211.512 82.4446C198.206 81.6193 174.968 77.566 165.449 69.5511Z" fill="#37474F"/>
<path d="M157.929 60.5237C157.929 60.5237 157.296 44.9892 167.035 38.8726C163.92 38.7286 160.814 39.3258 157.975 40.6149C155.581 47.2818 154.591 53.8936 157.929 60.5237Z" fill="#263238"/>
<path d="M216.133 83.5C216.133 83.5 237.289 101.061 271.834 97.0629C271.834 97.0629 257.161 106.664 239.224 104.491C239.224 104.491 241.801 111.038 256.914 119.008C256.914 119.008 219.16 119.356 209.402 88.0118L216.133 83.5Z" fill="#37474F"/>
<path d="M214.645 92.3519C222.092 94.3327 229.464 91.1231 229.464 91.1231L228.08 90.4995L227.869 90.4078L226.64 89.8301L226.365 89.7017L225.246 89.1423C225.152 89.0989 225.06 89.0499 224.971 88.9956C224.613 88.8213 224.274 88.6379 223.935 88.4637L223.66 88.317L222.743 87.7943L222.477 87.6475L221.615 87.1523L221.376 87.0148L220.569 86.5563L220.349 86.4279L219.652 85.9877L219.45 85.8593L218.836 85.4558L218.653 85.3366L218.121 84.979L217.965 84.8689L217.516 84.5571L217.378 84.4563L217.02 84.1995L216.901 84.1078L216.635 83.9061L216.516 83.8143L216.351 83.6951L216.241 83.6126L216.186 83.5576L216.122 83.5117L213.921 84.9881L209.391 88.0235C219.139 119.368 256.893 119.019 256.902 119.019C237.479 118.102 217.075 103.365 214.645 92.3519Z" fill="#263238"/>
<path d="M263.034 60.5237C263.034 60.5237 258.834 55.6084 245.949 57.8277C238.173 59.1757 224.968 68.236 218.438 83.3303C217.613 85.2378 215.761 85.8797 214.77 87.1635C214.54 87.451 214.289 87.7208 214.018 87.9705L209.938 88.0164C209.938 73.9124 217.852 59.6801 225.334 51.4451C232.817 43.2101 245.142 39.1844 253.928 38.8726C257.043 38.7286 260.148 39.3258 262.988 40.6149C265.381 47.2818 266.418 53.8936 263.034 60.5237Z" fill="#37474F"/>
<path d="M219.337 81.4316C219.337 81.4316 212.001 78.9556 215.018 67.1992C211.852 73.6958 210.128 80.8001 209.965 88.025L214.046 87.9792C214.316 87.7294 214.568 87.4597 214.798 87.1722C215.788 85.8883 217.64 85.2464 218.466 83.339C218.732 82.6787 219.034 82.0552 219.337 81.4316Z" fill="#263238"/>
<path d="M255.52 69.5511C258.611 67.0754 261.169 63.9997 263.04 60.5092C266.387 53.879 265.396 47.2672 263.04 40.582C270.596 43.92 275.108 53.7415 276.795 61.6738C277.712 66.1122 277.822 69.9271 277.07 71.7612C274.952 76.7498 262.544 96.9062 209.402 88.0293L209.457 82.4446C222.764 81.6193 246.001 77.566 255.52 69.5511Z" fill="#37474F"/>
<path d="M263.028 60.5237C263.028 60.5237 263.661 44.9892 253.922 38.8726C257.037 38.7286 260.142 39.3258 262.982 40.6149C265.376 47.2818 266.412 53.8936 263.028 60.5237Z" fill="#263238"/>
<path d="M217.815 84.3329C217.757 83.7933 217.557 83.2789 217.234 82.8422C216.912 82.4056 216.48 82.0624 215.981 81.8477C214.216 81.2281 212.347 80.9602 210.479 81.0591C208.558 80.9602 206.639 81.2728 204.848 81.9761C204.39 82.1968 203.996 82.5323 203.705 82.95C203.414 83.3678 203.236 83.8536 203.189 84.3604C202.996 86.0294 202.877 88.8539 203.977 90.4587C205.79 92.0116 208.111 92.8439 210.497 92.7971C212.874 92.8487 215.184 92.0152 216.981 90.4587C218.072 88.8264 217.962 86.0019 217.815 84.3329Z" fill="#455A64"/>
<path d="M88.2857 114.929C69.349 86.3636 60.197 62.8784 75.539 60.8242C80.225 61.9155 83.5263 67.3168 87.6163 79.3575C87.6163 79.3575 96.0071 97.533 99.7761 105.309C106.837 110.968 120.437 123.65 127.287 126.52C128.507 127.016 130.295 125.952 131.533 125.512C134.871 124.347 136.797 125.163 140.052 124.879C142.602 124.659 143.904 123.769 144.216 124.32C144.594 124.95 144.71 125.704 144.539 126.419C144.367 127.134 143.922 127.754 143.299 128.144C142.317 128.893 141.151 129.362 139.924 129.501C139.924 129.501 141.464 130.665 147.388 130.647C154.037 130.647 156.623 132.417 151.378 139.093C148.085 143.265 142.877 144.531 131.203 140.331C126.881 138.868 122.671 137.097 118.603 135.031C110.579 130.629 113.422 132.472 107.112 128.474C102.005 125.237 90.129 117.735 88.2857 114.929Z" fill="#9C5456"/>
<path d="M332.678 114.928C355.2 84.2623 363.527 63.3081 348.176 61.2539C343.499 62.3452 340.189 67.7557 336.099 79.7963C336.099 79.7963 324.957 97.5409 321.197 105.317C314.127 110.975 300.527 123.658 293.686 126.528C292.475 127.024 290.678 125.96 289.44 125.52C286.102 124.355 284.176 125.171 280.921 124.887C278.371 124.667 277.069 123.777 276.757 124.327C276.379 124.958 276.263 125.712 276.434 126.427C276.606 127.142 277.051 127.761 277.674 128.151C278.656 128.901 279.822 129.37 281.049 129.509C281.049 129.509 279.509 130.673 273.584 130.655C266.945 130.655 264.359 132.425 269.595 139.101C272.888 143.273 278.096 144.539 289.77 140.339C294.092 138.876 298.302 137.105 302.37 135.038C310.403 130.637 307.551 132.48 313.861 128.482C318.968 125.235 330.706 117.615 332.678 114.928Z" fill="#FFB3B2"/>
<path d="M346.203 60.7461C346.203 60.7461 351.641 60.7461 354.383 63.4238C357.125 66.1016 358.152 71.026 355.383 78.5916C352.613 86.1571 345.048 98.537 345.048 98.537C345.048 98.537 336.134 99.023 328.211 90.9898L336.116 76.2623C336.116 76.2623 339.169 65.1754 346.203 60.7461Z" fill="#37ED81"/>
<path opacity="0.1" d="M346.203 60.7461C346.203 60.7461 351.641 60.7461 354.383 63.4238C357.125 66.1016 358.152 71.026 355.383 78.5916C352.613 86.1571 345.048 98.537 345.048 98.537C345.048 98.537 336.134 99.023 328.211 90.9898L336.116 76.2623C336.116 76.2623 339.169 65.1754 346.203 60.7461Z" fill="black"/>
</svg>
