<svg width="408" height="400" viewBox="0 0 408 400" fill="none" xmlns="http://www.w3.org/2000/svg">
<path d="M407.496 269.142H251.164V178.676H407.496V269.142ZM252.118 268.188H406.542V179.63H252.118V268.188Z" fill="#E0E0E0"/>
<path d="M375.253 226.922H272.109V229.946H375.253V226.922Z" fill="#F0F0F0"/>
<path d="M382.359 238.18H272.109V241.48H382.359V238.18Z" fill="#F0F0F0"/>
<path d="M382.359 249.598H272.109V252.898H382.359V249.598Z" fill="#F0F0F0"/>
<path d="M308.157 210.531H272.109V218.382H308.157V210.531Z" fill="#F0F0F0"/>
<path d="M407.021 179.152H251.672V193.556H407.021V179.152Z" fill="#E0E0E0"/>
<path d="M395.088 191.405C394.888 191.215 396.891 188.801 399.552 186.016C402.214 183.231 404.551 181.123 404.741 181.304C404.932 181.485 402.938 183.908 400.277 186.703C397.616 189.498 395.279 191.596 395.088 191.405Z" fill="white"/>
<path d="M404.745 191.407C404.555 191.597 402.227 189.499 399.556 186.704C396.885 183.909 394.892 181.496 395.092 181.305C395.292 181.114 397.61 183.213 400.281 186.017C402.952 188.822 404.927 191.216 404.745 191.407Z" fill="white"/>
<path d="M215.142 0H59.793V89.5219H215.142V0Z" fill="#E6E6E6"/>
<path d="M183.378 47.7734H80.2344V50.7973H183.378V47.7734Z" fill="#F0F0F0"/>
<path d="M190.484 59.0508H80.2344V62.3512H190.484V59.0508Z" fill="#F0F0F0"/>
<path d="M190.484 70.457H80.2344V73.7575H190.484V70.457Z" fill="#F0F0F0"/>
<path d="M116.282 31.3945H80.2344V39.245H116.282V31.3945Z" fill="#F0F0F0"/>
<path d="M215.142 0H59.793V14.4036H215.142V0Z" fill="#E0E0E0"/>
<path d="M202.654 12.1744C202.454 11.9931 204.457 9.57028 207.119 6.78494C209.78 3.99961 212.117 1.89153 212.308 2.08231C212.499 2.27308 210.505 4.6864 207.844 7.47174C205.182 10.2571 202.845 12.3461 202.654 12.1744Z" fill="white"/>
<path d="M212.308 12.1744C212.117 12.3652 209.79 10.2667 207.119 7.47179C204.448 4.67691 202.454 2.27313 202.654 2.08235C202.855 1.89158 205.173 3.99012 207.844 6.78499C210.514 9.57987 212.508 11.9932 212.308 12.1744Z" fill="white"/>
<path d="M156.303 166.296H0V75.8203H156.303V166.296ZM0.953883 165.342H155.349V76.7742H0.953883V165.342Z" fill="#E0E0E0"/>
<path d="M124.069 124.074H20.9258V127.098H124.069V124.074Z" fill="#F0F0F0"/>
<path d="M131.176 135.352H20.9258V138.652H131.176V135.352Z" fill="#F0F0F0"/>
<path d="M131.176 146.762H20.9258V150.062H131.176V146.762Z" fill="#F0F0F0"/>
<path d="M56.973 107.695H20.9258V115.546H56.973V107.695Z" fill="#F0F0F0"/>
<path d="M155.83 76.3086H0.480469V90.7122H155.83V76.3086Z" fill="#E0E0E0"/>
<path d="M336.686 187.035H153.254V351.256H336.686V187.035Z" fill="#E6E6E6"/>
<path d="M162.482 135.297H18.7891V284.589H162.482V135.297Z" fill="#F0F0F0"/>
<path d="M162.482 135.297H18.7891V151.561H162.482V135.297Z" fill="#E0E0E0"/>
<path d="M30.6623 143.265C30.6361 143.855 30.4374 144.424 30.0907 144.902C29.744 145.38 29.2646 145.745 28.712 145.953C28.1594 146.161 27.558 146.202 26.9824 146.071C26.4067 145.94 25.8822 145.643 25.4739 145.216C25.0656 144.79 24.7915 144.253 24.6856 143.672C24.5797 143.091 24.6467 142.492 24.8782 141.949C25.1098 141.406 25.4957 140.943 25.9881 140.617C26.4805 140.292 27.0577 140.118 27.648 140.117C28.4644 140.137 29.2397 140.48 29.8045 141.069C30.3693 141.659 30.6777 142.449 30.6623 143.265Z" fill="white"/>
<path d="M42.8927 143.265C42.8684 143.858 42.6704 144.43 42.3233 144.911C41.9761 145.392 41.4953 145.76 40.9405 145.97C40.3857 146.179 39.7816 146.221 39.2032 146.09C38.6248 145.959 38.0977 145.661 37.6875 145.232C37.2773 144.804 37.0021 144.264 36.8963 143.681C36.7904 143.097 36.8584 142.496 37.0919 141.95C37.3254 141.405 37.7141 140.941 38.2096 140.615C38.705 140.289 39.2854 140.116 39.8785 140.117C40.6948 140.137 41.4701 140.48 42.0349 141.069C42.5997 141.659 42.9081 142.449 42.8927 143.265Z" fill="white"/>
<path d="M55.1349 143.265C55.1106 143.858 54.9126 144.43 54.5654 144.911C54.2183 145.392 53.7375 145.76 53.1827 145.97C52.6279 146.179 52.0237 146.221 51.4453 146.09C50.8669 145.959 50.3399 145.661 49.9297 145.232C49.5195 144.804 49.2443 144.264 49.1384 143.681C49.0325 143.097 49.1006 142.496 49.3341 141.95C49.5676 141.405 49.9563 140.941 50.4517 140.615C50.9472 140.289 51.5276 140.116 52.1206 140.117C52.937 140.137 53.7123 140.48 54.2771 141.069C54.8419 141.659 55.1503 142.449 55.1349 143.265Z" fill="white"/>
<path d="M386.994 32.6562H203.562V215.477H386.994V32.6562Z" fill="#F0F0F0"/>
<path d="M386.994 32.6562H203.562V54.0709H386.994V32.6562Z" fill="#E0E0E0"/>
<path d="M219.186 43.1494C219.152 43.9279 218.891 44.6794 218.434 45.3106C217.977 45.9417 217.345 46.4247 216.615 46.6996C215.886 46.9745 215.092 47.0292 214.332 46.8569C213.572 46.6846 212.88 46.2928 212.341 45.7303C211.801 45.1678 211.439 44.4593 211.299 43.6927C211.159 42.9262 211.247 42.1353 211.553 41.4185C211.858 40.7016 212.367 40.0902 213.017 39.6603C213.667 39.2303 214.429 39.0007 215.208 39C216.285 39.025 217.309 39.4757 218.054 40.2534C218.799 41.031 219.207 42.0723 219.186 43.1494Z" fill="white"/>
<path d="M234.138 40.3406C234.667 40.9149 235.015 41.6321 235.139 42.4028C235.263 43.1735 235.158 43.9638 234.836 44.675C234.514 45.3862 233.99 45.987 233.329 46.4025C232.668 46.818 231.9 47.0299 231.119 47.0117C230.339 46.9935 229.581 46.746 228.94 46.3001C228.299 45.8542 227.804 45.2297 227.516 44.5042C227.227 43.7787 227.159 42.9844 227.319 42.2203C227.479 41.4562 227.86 40.756 228.415 40.2071C229.192 39.4673 230.231 39.0659 231.304 39.0909C232.377 39.116 233.396 39.5654 234.138 40.3406Z" fill="white"/>
<path d="M251.405 43.1494C251.371 43.9279 251.11 44.6794 250.653 45.3106C250.196 45.9417 249.563 46.4247 248.834 46.6996C248.105 46.9745 247.311 47.0292 246.551 46.8569C245.791 46.6846 245.099 46.2928 244.559 45.7303C244.02 45.1678 243.658 44.4593 243.518 43.6927C243.378 42.9262 243.466 42.1353 243.771 41.4185C244.077 40.7016 244.586 40.0902 245.236 39.6603C245.886 39.2303 246.648 39.0007 247.427 39C248.504 39.025 249.527 39.4757 250.273 40.2534C251.018 41.031 251.425 42.0723 251.405 43.1494Z" fill="white"/>
<path d="M347.362 399.752C347.362 399.885 281.124 400 199.443 400C117.762 400 51.4961 399.885 51.4961 399.752C51.4961 399.618 117.724 399.504 199.443 399.504C281.162 399.504 347.362 399.628 347.362 399.752Z" fill="#263238"/>
<path d="M282.83 282.982C268.092 272.69 264.754 253.584 265.335 236.404C265.431 233.543 265.116 230.509 266.48 228.001C267.844 225.492 271.03 223.765 273.596 224.967C275.723 225.969 276.649 228.449 277.841 230.5C279.432 233.231 281.763 235.457 284.566 236.919C286.388 237.873 288.648 238.446 290.451 237.454C292.931 236.09 293.217 232.684 293.198 229.823C293.198 224.5 293.167 219.184 293.103 213.874C292.932 211.022 293.221 208.162 293.961 205.403C294.849 202.694 296.823 200.185 299.523 199.422C302.222 198.659 305.589 200.233 306.2 203.018C306.305 204.198 306.334 205.383 306.286 206.567C306.362 207.759 306.915 209.066 308.031 209.429C309.147 209.791 310.311 208.961 311.17 208.122C314.107 205.26 316.111 201.53 317.971 197.848C319.831 194.166 321.653 190.379 324.324 187.241C326.994 184.103 330.686 181.613 334.816 181.375C338.947 181.136 343.249 183.674 344.279 187.68C345.309 191.686 342.972 195.778 340.463 199.031C336.678 203.859 332.215 208.116 327.214 211.67C326.238 212.203 325.458 213.036 324.991 214.045C324.371 215.953 326.174 217.861 328.053 218.462C330.18 219.168 332.489 218.948 334.73 219.215C336.972 219.482 339.357 220.455 340.206 222.554C341.369 225.473 338.928 228.525 336.533 230.528C331.726 234.535 326.267 237.687 320.394 239.848C318.295 240.611 316.092 241.288 314.394 242.757C312.696 244.226 311.685 246.792 312.705 248.805C313.726 250.818 316.349 251.457 318.553 251.046C320.756 250.636 322.711 249.453 324.81 248.662C328.73 247.183 333.786 247.45 336.257 250.837C337.022 252.003 337.506 253.331 337.672 254.716C337.838 256.102 337.68 257.507 337.211 258.821C336.256 261.436 334.786 263.833 332.889 265.87C326.642 273.334 318.524 279.006 309.367 282.305C300.276 285.453 291.853 286.312 282.82 283.002" fill="#37ED81"/>
<path d="M340.078 183.73C340.078 183.73 339.993 183.826 339.802 183.998L338.953 184.751C338.209 185.419 337.112 186.392 335.729 187.68C331.807 191.321 328.166 195.252 324.835 199.441C322.708 202.083 320.505 205.078 318.158 208.331C315.812 211.584 313.389 215.094 310.985 218.824C308.422 222.757 306.075 226.826 303.955 231.014C302.848 233.199 301.875 235.479 300.874 237.806L297.917 244.913C294.019 253.864 290.624 263.026 287.748 272.356C285.432 279.989 283.835 287.823 282.979 295.754C282.424 301.107 282.335 306.498 282.712 311.866C282.865 313.773 283.008 315.233 283.141 316.225C283.198 316.702 283.237 317.083 283.275 317.36V317.751C283.234 317.627 283.205 317.499 283.189 317.369C283.141 317.093 283.084 316.721 283.008 316.244C282.836 315.29 282.655 313.783 282.483 311.875C282.023 306.497 282.055 301.088 282.578 295.716C283.381 287.751 284.943 279.881 287.243 272.213C290.095 262.857 293.48 253.671 297.383 244.703L300.416 237.625C301.418 235.307 302.4 233.008 303.516 230.814C305.651 226.613 308.017 222.534 310.603 218.595C313.045 214.779 315.506 211.326 317.824 208.102C320.142 204.878 322.384 201.864 324.501 199.231C327.866 195.053 331.556 191.149 335.538 187.556C336.95 186.287 338.075 185.333 338.838 184.694L339.725 183.978C339.834 183.884 339.952 183.801 340.078 183.73Z" fill="#263238"/>
<path d="M303.639 230.791C303.505 230.398 303.412 229.992 303.363 229.58C303.21 228.788 303.038 227.672 302.838 226.222C302.428 223.36 302.008 219.44 301.56 215.1C301.112 210.76 300.606 206.83 300.186 203.997C299.967 202.585 299.776 201.45 299.643 200.658C299.538 200.253 299.484 199.836 299.48 199.418C299.645 199.8 299.763 200.2 299.833 200.61C300.043 201.393 300.282 202.518 300.549 203.939C301.093 206.801 301.627 210.693 302.075 215.043C302.523 219.392 302.905 223.208 303.201 226.174C303.344 227.51 303.468 228.645 303.563 229.551C303.637 229.96 303.663 230.376 303.639 230.791Z" fill="#263238"/>
<path d="M340.349 223.951C339.885 224.052 339.412 224.11 338.937 224.123C337.984 224.209 336.629 224.323 334.95 224.514C331.593 224.877 326.976 225.544 321.911 226.498C316.846 227.452 312.296 228.53 309.024 229.36C307.393 229.78 306.076 230.161 305.208 230.419C304.745 230.583 304.265 230.698 303.777 230.762C304.218 230.54 304.678 230.358 305.151 230.218C306.048 229.904 307.345 229.465 308.966 228.997C312.219 228.043 316.769 226.908 321.853 225.935C326.16 225.112 330.506 224.507 334.874 224.123C336.562 223.98 337.926 223.923 338.88 223.904C339.37 223.87 339.862 223.886 340.349 223.951Z" fill="#263238"/>
<path d="M287.715 271.543C287.614 271.405 287.53 271.254 287.467 271.094L286.838 269.768C286.294 268.614 285.56 266.907 284.682 264.818C282.908 260.621 280.647 254.745 278.243 248.22C275.84 241.696 273.627 235.82 271.948 231.575C271.127 229.515 270.45 227.826 269.945 226.567L269.41 225.203C269.336 225.046 269.285 224.879 269.258 224.707C269.36 224.845 269.443 224.996 269.506 225.155L270.135 226.481C270.67 227.635 271.414 229.343 272.291 231.432C274.065 235.629 276.326 241.505 278.73 248.029C281.134 254.554 283.347 260.43 285.025 264.675C285.846 266.735 286.523 268.423 287.019 269.683C287.238 270.226 287.42 270.637 287.563 271.047C287.637 271.204 287.688 271.371 287.715 271.543Z" fill="#263238"/>
<path d="M336.441 255.84C336.288 255.928 336.125 255.995 335.954 256.04L334.543 256.517L329.325 258.205C324.918 259.636 318.832 261.678 312.155 263.929C305.478 266.18 299.363 268.183 294.928 269.519C292.715 270.196 290.912 270.711 289.662 271.054L288.222 271.426C288.055 271.479 287.882 271.515 287.707 271.531C287.86 271.444 288.023 271.376 288.193 271.331L289.605 270.854L294.823 269.166C299.23 267.735 305.316 265.693 311.993 263.442C318.67 261.191 324.775 259.188 329.21 257.853C331.433 257.175 333.226 256.66 334.485 256.317L335.926 255.945C336.093 255.892 336.266 255.856 336.441 255.84Z" fill="#263238"/>
<path d="M316.555 24.447L311.642 26.2022L309.534 19.7825C305.661 7.94484 293.318 1.65875 281.977 5.65552C270.635 9.65229 264.597 22.6346 268.47 34.4723L270.578 40.892L265.646 42.6566C263.766 43.386 262.239 44.812 261.382 46.6383C260.526 48.4645 260.406 50.5504 261.048 52.4626L274.718 94.2331C275.001 95.1796 275.472 96.0595 276.103 96.8204C276.733 97.5813 277.51 98.2077 278.388 98.6624C279.265 99.1171 280.225 99.3908 281.21 99.4672C282.195 99.5437 283.186 99.4213 284.123 99.1074L335.032 80.8978C336.937 80.1697 338.486 78.731 339.352 76.8844C340.218 75.0378 340.335 72.9272 339.677 70.9965L325.998 29.226C325.707 28.2821 325.229 27.4065 324.592 26.6514C323.955 25.8964 323.173 25.2774 322.291 24.8314C321.41 24.3854 320.448 24.1215 319.462 24.0554C318.477 23.9894 317.488 24.1226 316.555 24.447ZM277.751 31.1242C276.707 28.0462 276.894 24.6836 278.274 21.7407C279.654 18.7979 282.119 16.5032 285.153 15.3374C286.651 14.8248 288.237 14.6193 289.817 14.733C291.396 14.8468 292.936 15.2775 294.345 15.9995C295.755 16.7215 297.004 17.7199 298.019 18.9353C299.034 20.1507 299.794 21.558 300.253 23.0734L302.352 29.4931L279.849 37.5438L277.751 31.1242ZM306.367 68.1921L309.859 78.8565C309.923 79.0703 309.902 79.3006 309.801 79.4996C309.699 79.6985 309.525 79.8508 309.315 79.9248L304.421 81.6704C304.227 81.7244 304.019 81.701 303.841 81.6049C303.663 81.5089 303.529 81.3478 303.468 81.1553L299.948 70.5386C298.007 70.4329 296.145 69.7368 294.61 68.5434C293.076 67.3501 291.943 65.7165 291.363 63.8615C290.533 61.409 290.684 58.7306 291.785 56.3872C292.886 54.0437 294.85 52.2169 297.267 51.2893C298.461 50.8815 299.724 50.7182 300.982 50.8091C302.24 50.8999 303.467 51.2431 304.589 51.8181C305.711 52.3931 306.707 53.1882 307.515 54.1561C308.324 55.1239 308.929 56.2446 309.296 57.4514C309.91 59.3358 309.96 61.3583 309.442 63.2712C308.923 65.184 307.858 66.9041 306.377 68.2207L306.367 68.1921Z" fill="#37ED81"/>
<path d="M311.42 26.0854C311.42 26.219 302.311 29.6434 290.979 33.7165C279.646 37.7896 270.403 41.0614 270.356 40.966C270.308 40.8706 279.465 37.4176 290.807 33.3349C302.149 29.2523 311.373 25.9614 311.42 26.0854Z" fill="#263238"/>
<path d="M322.246 27.8398C322.288 27.9226 322.323 28.0088 322.351 28.0974C322.427 28.2882 322.513 28.5362 322.628 28.8414C322.876 29.5378 323.219 30.5012 323.648 31.7031L327.311 42.3675C328.837 46.8889 330.659 52.2497 332.682 58.2019C333.636 61.1876 334.761 64.2972 335.81 67.5691C336.372 69.2551 336.615 71.031 336.526 72.8059C336.445 73.7289 336.182 74.6269 335.753 75.4481C335.295 76.2666 334.683 76.9889 333.95 77.5753C332.477 78.651 330.841 79.485 329.105 80.0459L324.192 81.8105L314.892 85.1396L299.143 90.7484L288.507 94.4876L285.646 95.4415L284.883 95.6895C284.801 95.7258 284.714 95.7484 284.625 95.7563C284.625 95.7563 284.701 95.7563 284.863 95.6418L285.607 95.3461L288.469 94.2682L299.048 90.3764L314.768 84.6531L324.049 81.2954L328.961 79.5212C330.648 78.9832 332.237 78.1746 333.664 77.127C334.345 76.5828 334.915 75.9124 335.343 75.1524C335.747 74.3929 335.99 73.5585 336.058 72.701C336.146 70.9908 335.913 69.2794 335.372 67.6549C334.341 64.4117 333.254 61.2734 332.271 58.2878C330.287 52.326 328.456 46.9461 327.006 42.4247C325.556 37.9033 324.335 34.269 323.496 31.7126C323.095 30.463 322.79 29.4901 322.542 28.7842L322.313 28.0211C322.284 27.9633 322.262 27.9025 322.246 27.8398Z" fill="#263238"/>
<path d="M295.373 14.6886C295.373 14.6886 294.867 14.4406 293.933 14.059C292.6 13.547 291.191 13.2633 289.764 13.2196C287.649 13.1471 285.545 13.5445 283.602 14.3833C281.24 15.4278 279.22 17.1172 277.774 19.2577C276.318 21.392 275.537 23.9143 275.532 26.4976C275.552 28.615 275.873 30.7188 276.486 32.7456C276.982 34.4816 277.497 35.8648 277.841 36.8282C278.043 37.3176 278.209 37.8213 278.337 38.3353C278.066 37.8778 277.839 37.3955 277.659 36.895C277.268 35.9411 276.705 34.5866 276.152 32.841C275.473 30.7929 275.103 28.6549 275.055 26.4976C275.03 23.8167 275.829 21.1927 277.345 18.9811C278.841 16.7624 280.943 15.0208 283.402 13.9636C285.405 13.1202 287.575 12.7482 289.745 12.8762C291.203 12.9505 292.635 13.2899 293.971 13.8778C294.328 14.0426 294.672 14.2339 295.001 14.4501C295.137 14.5097 295.262 14.5902 295.373 14.6886Z" fill="#263238"/>
<path d="M295.822 52.0152C295.974 51.9229 296.134 51.8432 296.299 51.7767C296.776 51.5613 297.271 51.3858 297.777 51.2521C298.581 51.0148 299.411 50.8739 300.248 50.8324C301.387 50.7712 302.526 50.9432 303.596 51.3379C306.038 52.1964 308.28 54.6861 309.386 58.0151C309.917 59.8017 309.917 61.7039 309.386 63.4904C308.798 65.4294 307.743 67.1947 306.315 68.6318L306.372 68.3743C307.64 71.856 309.024 75.6333 310.454 79.5729L310.54 79.8113L310.302 79.8972L308.117 80.6221L303.348 82.2151L303.109 82.2914L303.033 82.053C301.726 78.1039 300.296 74.4219 299.218 70.8067L299.427 70.9688C297.563 70.814 295.785 70.114 294.315 68.9562C292.985 67.9318 291.894 66.6297 291.119 65.1406C290.42 63.8201 290.072 62.342 290.108 60.8482C290.152 59.3214 290.533 57.8233 291.224 56.4612C291.915 55.099 292.899 53.9065 294.105 52.9691C294.601 52.5662 295.158 52.2442 295.755 52.0152C295.216 52.3349 294.694 52.6819 294.191 53.0549C292.866 54.1756 291.851 55.6174 291.243 57.2425C290.721 58.4679 290.477 59.7936 290.528 61.1245C290.579 62.4555 290.925 63.7586 291.539 64.9403C292.301 66.3728 293.365 67.6227 294.658 68.6032C296.06 69.7038 297.756 70.3673 299.532 70.511H299.695L299.742 70.6541C300.792 74.2025 302.232 77.9131 303.558 81.8813L303.243 81.7287L308.012 80.1357L310.187 79.4012L310.035 79.7255C308.613 75.786 307.24 71.999 305.981 68.5174V68.3743L306.095 68.2598C307.482 66.8823 308.516 65.1906 309.109 63.3283C309.615 61.6193 309.615 59.8004 309.109 58.0914C308.07 54.8864 305.923 52.454 303.596 51.5955C302.566 51.1982 301.466 51.0133 300.362 51.0518C299.538 51.0707 298.719 51.1826 297.92 51.3856C296.499 51.7386 295.831 52.0629 295.822 52.0152Z" fill="#263238"/>
<path d="M266.314 327.439L171.031 327C165.528 326.97 160.263 324.757 156.39 320.847C152.518 316.937 150.356 311.651 150.379 306.148L151.39 67.2864C151.401 64.5602 151.95 61.863 153.004 59.3489C154.058 56.8349 155.598 54.5532 157.534 52.6344C159.471 50.7156 161.766 49.1972 164.29 48.1661C166.814 47.1351 169.516 46.6115 172.242 46.6253L267.516 47.0641C273.018 47.0918 278.285 49.3024 282.159 53.2103C286.033 57.1182 288.197 62.4038 288.177 67.9064L287.166 306.759C287.155 309.486 286.606 312.184 285.552 314.699C284.498 317.214 282.959 319.497 281.023 321.417C279.087 323.338 276.791 324.858 274.267 325.891C271.744 326.924 269.041 327.45 266.314 327.439Z" fill="#455A64"/>
<path d="M267.369 55.2816H248.902C248.3 55.2928 247.705 55.4225 247.153 55.6635C246.6 55.9045 246.101 56.2519 245.683 56.6859C245.265 57.12 244.936 57.6321 244.716 58.1932C244.496 58.7542 244.388 59.3531 244.4 59.9556V63.3038C244.411 63.9059 244.304 64.5043 244.083 65.0648C243.863 65.6252 243.535 66.1368 243.116 66.5701C242.698 67.0033 242.199 67.3499 241.646 67.5898C241.094 67.8297 240.5 67.9583 239.897 67.9683L203.898 67.8061C202.68 67.7736 201.525 67.2591 200.686 66.3756C199.847 65.4921 199.393 64.3118 199.424 63.0939V59.7458C199.455 58.5295 199.002 57.3506 198.166 56.4674C197.329 55.5841 196.176 55.0685 194.96 55.0336H188.464L172.296 54.9573C168.45 54.9344 164.752 56.4363 162.011 59.1341C159.271 61.8319 157.711 65.5058 157.673 69.3514L156.719 302.499C156.71 304.407 157.077 306.298 157.799 308.064C158.521 309.83 159.584 311.436 160.927 312.792C162.27 314.147 163.866 315.224 165.625 315.962C167.385 316.701 169.272 317.085 171.18 317.094L266.263 317.533C268.172 317.541 270.064 317.174 271.831 316.452C273.598 315.729 275.206 314.666 276.562 313.322C277.918 311.978 278.996 310.381 279.735 308.62C280.473 306.86 280.858 304.971 280.867 303.062L281.821 69.9142C281.843 66.0578 280.334 62.3501 277.624 59.6062C274.914 56.8623 271.226 55.3068 267.369 55.2816Z" fill="white"/>
<path d="M254.585 286.42L183.883 286.115C183.148 286.115 182.557 285.313 182.567 284.34L182.643 265.845C182.643 264.891 183.244 264.07 183.978 264.07L254.68 264.395C255.087 264.465 255.451 264.69 255.696 265.022C255.942 265.355 256.049 265.769 255.996 266.178L255.93 284.655C255.93 285.638 255.319 286.429 254.585 286.42Z" fill="#37ED81"/>
<path d="M207.024 273.135C206.99 272.842 206.849 272.615 206.603 272.454C206.356 272.292 206.054 272.211 205.696 272.211C205.434 272.211 205.205 272.253 205.009 272.338C204.814 272.423 204.662 272.539 204.553 272.687C204.445 272.836 204.391 273.004 204.391 273.193C204.391 273.351 204.428 273.486 204.504 273.6C204.581 273.712 204.679 273.805 204.798 273.88C204.917 273.953 205.043 274.014 205.173 274.062C205.304 274.108 205.425 274.146 205.534 274.175L206.135 274.336C206.289 274.377 206.46 274.433 206.649 274.504C206.84 274.575 207.021 274.672 207.195 274.795C207.37 274.917 207.514 275.073 207.628 275.263C207.741 275.454 207.798 275.688 207.798 275.965C207.798 276.284 207.714 276.573 207.547 276.831C207.381 277.089 207.139 277.294 206.819 277.446C206.502 277.598 206.116 277.674 205.661 277.674C205.238 277.674 204.871 277.606 204.561 277.469C204.253 277.333 204.011 277.142 203.834 276.898C203.658 276.653 203.559 276.369 203.536 276.046H204.275C204.295 276.269 204.37 276.454 204.501 276.6C204.633 276.744 204.801 276.852 205.003 276.924C205.207 276.993 205.427 277.027 205.661 277.027C205.935 277.027 206.18 276.983 206.398 276.895C206.615 276.804 206.788 276.679 206.915 276.519C207.042 276.358 207.105 276.169 207.105 275.953C207.105 275.757 207.05 275.597 206.941 275.474C206.831 275.351 206.687 275.251 206.507 275.174C206.328 275.097 206.135 275.029 205.927 274.972L205.199 274.764C204.737 274.631 204.372 274.441 204.102 274.195C203.833 273.948 203.698 273.626 203.698 273.227C203.698 272.896 203.787 272.608 203.966 272.361C204.147 272.113 204.39 271.92 204.694 271.784C205 271.645 205.342 271.576 205.719 271.576C206.1 271.576 206.439 271.644 206.736 271.781C207.032 271.916 207.267 272.1 207.44 272.335C207.615 272.57 207.708 272.837 207.717 273.135H207.024ZM209.692 271.657V277.57H208.976V271.657H209.692ZM215.817 271.657V277.57H215.124L211.901 272.927H211.844V277.57H211.128V271.657H211.821L215.055 276.311H215.112V271.657H215.817ZM221.292 273.505C221.229 273.31 221.145 273.136 221.041 272.982C220.939 272.826 220.817 272.693 220.674 272.584C220.534 272.474 220.374 272.39 220.195 272.332C220.016 272.275 219.82 272.246 219.606 272.246C219.256 272.246 218.937 272.336 218.65 272.517C218.363 272.698 218.135 272.965 217.966 273.317C217.797 273.669 217.712 274.101 217.712 274.613C217.712 275.126 217.797 275.558 217.969 275.91C218.14 276.262 218.372 276.529 218.665 276.71C218.957 276.891 219.287 276.981 219.652 276.981C219.991 276.981 220.289 276.909 220.547 276.765C220.807 276.618 221.009 276.412 221.154 276.147C221.3 275.879 221.373 275.564 221.373 275.203L221.593 275.249H219.814V274.613H222.066V275.249C222.066 275.736 221.962 276.159 221.754 276.519C221.548 276.879 221.263 277.158 220.9 277.357C220.538 277.553 220.122 277.651 219.652 277.651C219.129 277.651 218.669 277.528 218.272 277.282C217.877 277.035 217.569 276.685 217.348 276.23C217.129 275.776 217.019 275.237 217.019 274.613C217.019 274.146 217.081 273.725 217.207 273.352C217.334 272.976 217.513 272.657 217.744 272.393C217.975 272.129 218.248 271.927 218.564 271.787C218.879 271.646 219.227 271.576 219.606 271.576C219.918 271.576 220.209 271.623 220.478 271.717C220.75 271.81 220.991 271.942 221.203 272.113C221.417 272.282 221.595 272.485 221.737 272.722C221.88 272.957 221.978 273.218 222.032 273.505H221.292ZM207.671 281.657H208.387V285.572C208.387 285.976 208.292 286.337 208.101 286.655C207.913 286.971 207.646 287.22 207.302 287.403C206.957 287.584 206.553 287.674 206.089 287.674C205.625 287.674 205.221 287.584 204.876 287.403C204.531 287.22 204.264 286.971 204.073 286.655C203.885 286.337 203.79 285.976 203.79 285.572V281.657H204.506V285.514C204.506 285.803 204.57 286.06 204.697 286.285C204.824 286.509 205.005 286.685 205.24 286.814C205.477 286.941 205.76 287.004 206.089 287.004C206.418 287.004 206.701 286.941 206.938 286.814C207.175 286.685 207.355 286.509 207.481 286.285C207.608 286.06 207.671 285.803 207.671 285.514V281.657ZM209.817 287.57V281.657H211.815C212.279 281.657 212.659 281.74 212.953 281.908C213.25 282.073 213.469 282.298 213.612 282.581C213.754 282.864 213.825 283.179 213.825 283.528C213.825 283.876 213.754 284.193 213.612 284.478C213.471 284.763 213.253 284.99 212.959 285.159C212.664 285.327 212.287 285.41 211.827 285.41H210.395V284.775H211.804C212.122 284.775 212.377 284.72 212.569 284.611C212.762 284.501 212.901 284.353 212.988 284.166C213.076 283.977 213.121 283.765 213.121 283.528C213.121 283.291 213.076 283.079 212.988 282.893C212.901 282.706 212.761 282.559 212.566 282.454C212.372 282.346 212.114 282.292 211.792 282.292H210.533V287.57H209.817Z" fill="#E8E8E3"/>
<path d="M197.987 123.807L173.453 123.695L173.433 128.198L197.966 128.309L197.987 123.807Z" fill="#37ED81"/>
<path opacity="0.1" d="M197.987 123.807L173.453 123.695L173.433 128.198L197.966 128.309L197.987 123.807Z" fill="black"/>
<path d="M269.898 151.448C270.091 151.429 270.28 151.384 270.461 151.315C270.725 151.211 270.955 151.036 271.123 150.808C271.292 150.58 271.393 150.31 271.415 150.027C271.415 148.51 271.415 146.297 271.415 143.455C271.415 142.033 271.415 140.44 271.415 138.685C271.415 138.256 271.415 137.808 271.415 137.359C271.477 136.924 271.382 136.481 271.148 136.11C271.017 135.932 270.846 135.786 270.649 135.685C270.452 135.584 270.234 135.53 270.013 135.528H268.525H254.741L174.958 135.232C174.754 135.229 174.552 135.275 174.369 135.366C174.187 135.457 174.029 135.591 173.909 135.757C173.679 136.13 173.591 136.574 173.661 137.006C173.661 137.96 173.661 138.914 173.661 139.868C173.661 141.776 173.661 143.684 173.661 145.591C173.661 146.545 173.661 147.499 173.661 148.453C173.622 148.897 173.622 149.344 173.661 149.788C173.711 149.979 173.804 150.155 173.933 150.304C174.062 150.453 174.224 150.57 174.405 150.647C174.593 150.722 174.794 150.757 174.997 150.752H179.852L201.038 150.866L236.904 151.086L261.084 151.276L267.657 151.353H269.364C269.755 151.353 269.946 151.353 269.946 151.353H269.364H267.657H261.084H236.904L201.038 151.238L179.852 151.152H174.997C174.729 151.163 174.463 151.118 174.214 151.019C173.963 150.912 173.74 150.749 173.561 150.542C173.383 150.335 173.254 150.091 173.184 149.827C173.129 149.576 173.11 149.319 173.127 149.063V148.358C173.127 147.404 173.127 146.45 173.127 145.496C173.127 143.588 173.127 141.68 173.127 139.773C173.127 138.819 173.127 137.865 173.127 136.911C173.109 136.657 173.109 136.402 173.127 136.148C173.163 135.867 173.271 135.601 173.442 135.375C173.606 135.145 173.824 134.958 174.077 134.83C174.329 134.702 174.609 134.637 174.892 134.641L254.674 135.08L268.458 135.175H269.946C270.208 135.175 270.466 135.239 270.699 135.36C270.931 135.481 271.131 135.656 271.281 135.871C271.55 136.286 271.659 136.785 271.587 137.273C271.587 137.722 271.587 138.17 271.587 138.599C271.587 140.335 271.587 141.928 271.587 143.369C271.587 146.23 271.52 148.424 271.501 149.951C271.478 150.244 271.371 150.525 271.193 150.76C271.016 150.994 270.775 151.174 270.499 151.276C270.319 151.388 270.111 151.448 269.898 151.448Z" fill="#E0E0E0"/>
<path d="M225.691 140.023H180.82V144.23H225.691V140.023Z" fill="#37ED81"/>
<path opacity="0.2" d="M225.691 140.023H180.82V144.23H225.691V140.023Z" fill="white"/>
<path d="M197.815 164.885L173.281 164.773L173.261 169.276L197.794 169.387L197.815 164.885Z" fill="#37ED81"/>
<path opacity="0.1" d="M197.815 164.885L173.281 164.773L173.261 169.276L197.794 169.387L197.815 164.885Z" fill="black"/>
<path d="M269.276 192.531C269.469 192.507 269.66 192.472 269.849 192.426C270.115 192.341 270.36 192.2 270.568 192.012C270.775 191.825 270.94 191.595 271.051 191.338C271.201 190.953 271.26 190.538 271.222 190.127C271.222 189.669 271.222 189.173 271.222 188.62C271.222 187.513 271.222 186.254 271.222 184.804V178.747C271.268 178.308 271.171 177.867 270.946 177.488C270.71 177.099 270.34 176.811 269.906 176.677C269.431 176.592 268.947 176.567 268.466 176.601H254.739L175.233 176.305C174.806 176.306 174.393 176.462 174.072 176.745C173.751 177.027 173.543 177.417 173.488 177.841C173.488 178.747 173.488 179.749 173.488 180.702C173.488 182.61 173.488 184.518 173.488 186.426C173.488 187.38 173.488 188.334 173.488 189.287C173.452 189.733 173.471 190.182 173.545 190.623C173.664 191.01 173.909 191.345 174.241 191.577C174.593 191.8 175.007 191.907 175.424 191.882H176.75H179.507L200.616 191.987L236.358 192.206L260.453 192.397L267.006 192.473H260.453H236.358L200.597 192.435L179.487 192.359H175.338C174.822 192.389 174.31 192.252 173.879 191.968C173.445 191.667 173.128 191.226 172.982 190.718C172.896 190.234 172.871 189.74 172.906 189.249C172.906 188.295 172.906 187.341 172.906 186.388C172.906 184.48 172.906 182.572 172.906 180.664C172.906 179.71 172.906 178.757 172.906 177.803C172.975 177.257 173.241 176.756 173.654 176.392C174.067 176.029 174.597 175.828 175.147 175.828L254.653 176.267L268.38 176.372C268.891 176.34 269.404 176.376 269.906 176.477C270.402 176.639 270.82 176.979 271.079 177.431C271.326 177.851 271.433 178.338 271.385 178.823C271.385 179.272 271.385 179.71 271.385 180.149C271.385 181.876 271.385 183.459 271.385 184.919C271.385 186.378 271.385 187.609 271.385 188.734C271.385 189.278 271.385 189.783 271.385 190.251C271.419 190.677 271.351 191.106 271.184 191.5C271.06 191.764 270.881 191.997 270.659 192.185C270.437 192.372 270.177 192.51 269.896 192.588C269.688 192.605 269.478 192.586 269.276 192.531Z" fill="#E0E0E0"/>
<path d="M197.635 207.736L173.102 207.625L173.081 212.127L197.615 212.239L197.635 207.736Z" fill="#37ED81"/>
<path opacity="0.1" d="M197.635 207.736L173.102 207.625L173.081 212.127L197.615 212.239L197.635 207.736Z" fill="black"/>
<path d="M269.089 235.369C269.282 235.347 269.473 235.312 269.661 235.265C269.927 235.18 270.171 235.041 270.378 234.855C270.585 234.669 270.751 234.441 270.863 234.187C271.013 233.801 271.072 233.387 271.035 232.975C271.035 232.508 271.035 232.021 271.035 231.459C271.035 230.362 271.035 229.093 271.035 227.643V221.586C271.08 221.147 270.983 220.706 270.758 220.327C270.517 219.945 270.149 219.661 269.719 219.525C269.244 219.437 268.76 219.408 268.278 219.44H254.552L175.046 219.144C174.618 219.145 174.205 219.301 173.884 219.584C173.563 219.866 173.356 220.256 173.3 220.68C173.3 221.634 173.3 222.587 173.3 223.541C173.3 225.449 173.3 227.357 173.3 229.265C173.3 230.218 173.3 231.172 173.3 232.126C173.265 232.569 173.284 233.014 173.357 233.452C173.472 233.841 173.718 234.179 174.054 234.406C174.404 234.635 174.819 234.742 175.237 234.711H179.386L200.495 234.826L236.237 235.045L260.332 235.236L266.886 235.312H260.332H236.237L200.495 235.207L179.386 235.121H175.237C174.72 235.156 174.207 235.019 173.777 234.73C173.343 234.43 173.026 233.988 172.88 233.481C172.795 232.996 172.769 232.503 172.804 232.012C172.804 231.058 172.804 230.104 172.804 229.15C172.804 227.242 172.804 225.335 172.804 223.427C172.804 222.473 172.804 221.519 172.804 220.518C172.872 219.973 173.136 219.472 173.547 219.108C173.958 218.744 174.487 218.543 175.036 218.543L254.542 218.982L268.269 219.087C268.78 219.055 269.293 219.091 269.795 219.192C270.291 219.354 270.709 219.693 270.968 220.145C271.215 220.566 271.322 221.053 271.273 221.538C271.273 221.986 271.273 222.435 271.273 222.864C271.273 224.591 271.273 226.174 271.273 227.633C271.273 229.093 271.273 230.323 271.273 231.449C271.273 231.993 271.273 232.498 271.273 232.966C271.31 233.392 271.241 233.821 271.073 234.215C270.949 234.478 270.77 234.712 270.548 234.9C270.326 235.087 270.066 235.225 269.785 235.303C269.562 235.379 269.323 235.402 269.089 235.369Z" fill="#E0E0E0"/>
<path d="M224.73 182.297L179.859 182.094L179.84 186.3L224.71 186.504L224.73 182.297Z" fill="#37ED81"/>
<path opacity="0.2" d="M224.73 182.297L179.859 182.094L179.84 186.3L224.71 186.504L224.73 182.297Z" fill="white"/>
<path d="M183.913 227.585C183.885 227.969 183.745 228.336 183.51 228.641C183.275 228.946 182.956 229.175 182.592 229.3C182.228 229.425 181.836 229.44 181.463 229.344C181.091 229.249 180.754 229.045 180.496 228.76C180.238 228.475 180.069 228.12 180.011 227.74C179.953 227.36 180.007 226.97 180.168 226.621C180.329 226.271 180.588 225.977 180.915 225.773C181.242 225.57 181.621 225.467 182.005 225.477C182.537 225.507 183.035 225.745 183.392 226.139C183.749 226.534 183.936 227.054 183.913 227.585Z" fill="#37ED81"/>
<path d="M189.996 227.617C190.014 227.886 189.978 228.156 189.888 228.41C189.798 228.664 189.656 228.897 189.472 229.094C189.288 229.292 189.066 229.449 188.819 229.556C188.572 229.664 188.305 229.719 188.035 229.719C187.766 229.719 187.499 229.664 187.252 229.556C187.005 229.449 186.782 229.292 186.598 229.094C186.414 228.897 186.273 228.664 186.183 228.41C186.093 228.156 186.056 227.886 186.075 227.617C186.056 227.349 186.093 227.079 186.183 226.825C186.273 226.57 186.414 226.338 186.598 226.14C186.782 225.943 187.005 225.786 187.252 225.679C187.499 225.571 187.766 225.516 188.035 225.516C188.305 225.516 188.572 225.571 188.819 225.679C189.066 225.786 189.288 225.943 189.472 226.14C189.656 226.338 189.798 226.57 189.888 226.825C189.978 227.079 190.014 227.349 189.996 227.617Z" fill="#37ED81"/>
<path d="M196.077 227.644C196.049 228.028 195.909 228.395 195.674 228.699C195.439 229.004 195.12 229.233 194.756 229.358C194.392 229.483 194 229.499 193.627 229.403C193.255 229.307 192.919 229.104 192.66 228.819C192.402 228.533 192.233 228.179 192.175 227.798C192.117 227.418 192.171 227.029 192.332 226.679C192.493 226.33 192.752 226.035 193.079 225.832C193.406 225.629 193.785 225.526 194.169 225.536C194.7 225.568 195.197 225.807 195.553 226.201C195.91 226.595 196.098 227.113 196.077 227.644Z" fill="#37ED81"/>
<path d="M202.155 227.663C202.127 228.047 201.987 228.414 201.752 228.719C201.517 229.024 201.198 229.253 200.834 229.378C200.471 229.503 200.078 229.519 199.705 229.423C199.333 229.327 198.997 229.123 198.739 228.838C198.48 228.553 198.312 228.198 198.253 227.818C198.195 227.438 198.249 227.049 198.41 226.699C198.571 226.349 198.83 226.055 199.157 225.851C199.484 225.648 199.863 225.545 200.247 225.555C200.778 225.587 201.275 225.826 201.631 226.22C201.988 226.614 202.176 227.132 202.155 227.663Z" fill="#37ED81"/>
<path d="M208.238 227.693C208.212 228.077 208.073 228.445 207.839 228.751C207.605 229.058 207.287 229.288 206.923 229.415C206.559 229.541 206.166 229.558 205.793 229.463C205.42 229.368 205.083 229.166 204.824 228.881C204.564 228.596 204.395 228.241 204.336 227.86C204.277 227.479 204.331 227.09 204.491 226.74C204.652 226.39 204.912 226.094 205.239 225.891C205.566 225.687 205.945 225.584 206.33 225.594C206.859 225.626 207.354 225.864 207.711 226.256C208.067 226.648 208.256 227.164 208.238 227.693Z" fill="#37ED81"/>
<path d="M214.32 227.72C214.294 228.102 214.157 228.468 213.925 228.774C213.694 229.079 213.378 229.31 213.017 229.438C212.656 229.566 212.265 229.586 211.893 229.495C211.521 229.404 211.183 229.206 210.922 228.926C210.661 228.645 210.487 228.295 210.423 227.917C210.358 227.539 210.405 227.151 210.559 226.8C210.712 226.449 210.965 226.15 211.285 225.941C211.606 225.731 211.981 225.62 212.365 225.621C212.902 225.641 213.409 225.873 213.776 226.266C214.142 226.66 214.338 227.182 214.32 227.72Z" fill="#37ED81"/>
<path d="M220.398 227.754C220.417 228.023 220.38 228.293 220.29 228.547C220.2 228.801 220.059 229.034 219.875 229.231C219.691 229.428 219.468 229.586 219.221 229.693C218.974 229.801 218.707 229.856 218.438 229.856C218.168 229.856 217.901 229.801 217.654 229.693C217.407 229.586 217.184 229.428 217.001 229.231C216.817 229.034 216.675 228.801 216.585 228.547C216.495 228.293 216.459 228.023 216.477 227.754C216.459 227.485 216.495 227.215 216.585 226.961C216.675 226.707 216.817 226.474 217.001 226.277C217.184 226.08 217.407 225.923 217.654 225.815C217.901 225.708 218.168 225.652 218.438 225.652C218.707 225.652 218.974 225.708 219.221 225.815C219.468 225.923 219.691 226.08 219.875 226.277C220.059 226.474 220.2 226.707 220.29 226.961C220.38 227.215 220.417 227.485 220.398 227.754Z" fill="#37ED81"/>
<path d="M226.472 227.77C226.446 228.153 226.309 228.519 226.077 228.824C225.846 229.13 225.53 229.361 225.169 229.489C224.808 229.617 224.417 229.637 224.045 229.546C223.673 229.455 223.335 229.257 223.074 228.976C222.813 228.696 222.639 228.346 222.575 227.968C222.51 227.59 222.558 227.202 222.711 226.851C222.864 226.5 223.117 226.201 223.438 225.991C223.759 225.782 224.134 225.671 224.517 225.672C225.054 225.692 225.562 225.924 225.928 226.317C226.295 226.71 226.49 227.233 226.472 227.77Z" fill="#37ED81"/>
<path d="M232.546 227.798C232.52 228.183 232.382 228.551 232.148 228.857C231.914 229.163 231.595 229.394 231.232 229.52C230.868 229.647 230.475 229.664 230.102 229.569C229.728 229.474 229.391 229.271 229.132 228.986C228.873 228.701 228.703 228.346 228.644 227.966C228.585 227.585 228.639 227.195 228.8 226.845C228.96 226.495 229.22 226.2 229.547 225.996C229.874 225.793 230.254 225.69 230.639 225.7C231.168 225.732 231.663 225.969 232.019 226.361C232.376 226.753 232.565 227.269 232.546 227.798Z" fill="#37ED81"/>
<g opacity="0.2">
<path d="M183.913 227.589C183.885 227.973 183.745 228.34 183.51 228.645C183.275 228.949 182.956 229.179 182.592 229.304C182.228 229.429 181.836 229.444 181.463 229.348C181.091 229.252 180.754 229.049 180.496 228.764C180.238 228.479 180.069 228.124 180.011 227.744C179.953 227.363 180.007 226.974 180.168 226.625C180.329 226.275 180.588 225.981 180.915 225.777C181.242 225.574 181.621 225.471 182.005 225.481C182.537 225.511 183.035 225.749 183.392 226.143C183.749 226.538 183.936 227.058 183.913 227.589Z" fill="white"/>
<path d="M189.996 227.621C190.014 227.89 189.978 228.16 189.888 228.414C189.798 228.668 189.656 228.901 189.472 229.098C189.288 229.296 189.066 229.453 188.819 229.56C188.572 229.668 188.305 229.723 188.035 229.723C187.766 229.723 187.499 229.668 187.252 229.56C187.005 229.453 186.782 229.296 186.598 229.098C186.414 228.901 186.273 228.668 186.183 228.414C186.093 228.16 186.056 227.89 186.075 227.621C186.056 227.352 186.093 227.083 186.183 226.828C186.273 226.574 186.414 226.341 186.598 226.144C186.782 225.947 187.005 225.79 187.252 225.682C187.499 225.575 187.766 225.52 188.035 225.52C188.305 225.52 188.572 225.575 188.819 225.682C189.066 225.79 189.288 225.947 189.472 226.144C189.656 226.341 189.798 226.574 189.888 226.828C189.978 227.083 190.014 227.352 189.996 227.621Z" fill="white"/>
<path d="M196.073 227.64C196.045 228.024 195.905 228.391 195.67 228.695C195.435 229 195.116 229.229 194.752 229.354C194.389 229.48 193.996 229.495 193.623 229.399C193.251 229.303 192.915 229.1 192.656 228.815C192.398 228.53 192.23 228.175 192.171 227.794C192.113 227.414 192.167 227.025 192.328 226.676C192.489 226.326 192.748 226.031 193.075 225.828C193.402 225.625 193.781 225.522 194.165 225.532C194.696 225.564 195.193 225.803 195.549 226.197C195.906 226.591 196.094 227.109 196.073 227.64Z" fill="white"/>
<path d="M202.155 227.679C202.127 228.063 201.987 228.43 201.752 228.735C201.517 229.039 201.198 229.268 200.834 229.394C200.471 229.519 200.078 229.534 199.705 229.438C199.333 229.342 198.997 229.139 198.739 228.854C198.48 228.569 198.312 228.214 198.253 227.834C198.195 227.453 198.249 227.064 198.41 226.715C198.571 226.365 198.83 226.07 199.157 225.867C199.484 225.664 199.863 225.561 200.247 225.571C200.778 225.603 201.275 225.842 201.631 226.236C201.988 226.63 202.176 227.148 202.155 227.679Z" fill="white"/>
<path d="M208.222 227.697C208.196 228.081 208.057 228.449 207.824 228.755C207.59 229.061 207.271 229.292 206.907 229.419C206.544 229.545 206.151 229.562 205.777 229.467C205.404 229.372 205.067 229.169 204.808 228.884C204.549 228.599 204.379 228.245 204.32 227.864C204.261 227.483 204.315 227.094 204.476 226.744C204.636 226.394 204.896 226.098 205.223 225.895C205.55 225.691 205.929 225.588 206.315 225.598C206.843 225.63 207.339 225.868 207.695 226.26C208.052 226.652 208.241 227.167 208.222 227.697Z" fill="white"/>
<path d="M214.316 227.724C214.29 228.106 214.153 228.472 213.921 228.777C213.69 229.083 213.374 229.314 213.013 229.442C212.652 229.57 212.261 229.59 211.889 229.499C211.517 229.408 211.179 229.21 210.918 228.93C210.657 228.649 210.483 228.299 210.419 227.921C210.354 227.543 210.401 227.155 210.555 226.804C210.708 226.453 210.961 226.154 211.282 225.945C211.602 225.735 211.977 225.624 212.361 225.625C212.898 225.645 213.405 225.877 213.772 226.27C214.138 226.664 214.334 227.186 214.316 227.724Z" fill="white"/>
<path d="M220.386 227.75C220.405 228.019 220.368 228.289 220.278 228.543C220.188 228.797 220.047 229.03 219.863 229.227C219.679 229.424 219.457 229.582 219.209 229.689C218.962 229.797 218.696 229.852 218.426 229.852C218.156 229.852 217.89 229.797 217.642 229.689C217.395 229.582 217.173 229.424 216.989 229.227C216.805 229.03 216.664 228.797 216.574 228.543C216.484 228.289 216.447 228.019 216.466 227.75C216.447 227.481 216.484 227.211 216.574 226.957C216.664 226.703 216.805 226.47 216.989 226.273C217.173 226.076 217.395 225.919 217.642 225.811C217.89 225.704 218.156 225.648 218.426 225.648C218.696 225.648 218.962 225.704 219.209 225.811C219.457 225.919 219.679 226.076 219.863 226.273C220.047 226.47 220.188 226.703 220.278 226.957C220.368 227.211 220.405 227.481 220.386 227.75Z" fill="white"/>
<path d="M226.468 227.774C226.442 228.157 226.305 228.523 226.074 228.828C225.842 229.134 225.526 229.364 225.165 229.493C224.804 229.621 224.413 229.641 224.041 229.55C223.669 229.459 223.332 229.261 223.07 228.98C222.809 228.7 222.636 228.349 222.571 227.972C222.507 227.594 222.554 227.206 222.707 226.855C222.86 226.503 223.113 226.205 223.434 225.995C223.755 225.786 224.13 225.675 224.513 225.676C225.05 225.696 225.558 225.928 225.924 226.321C226.291 226.714 226.486 227.237 226.468 227.774Z" fill="white"/>
<path d="M232.546 227.814C232.52 228.198 232.382 228.566 232.148 228.872C231.914 229.179 231.595 229.409 231.232 229.536C230.868 229.662 230.475 229.679 230.102 229.584C229.728 229.489 229.391 229.287 229.132 229.002C228.873 228.717 228.703 228.362 228.644 227.981C228.585 227.601 228.639 227.211 228.8 226.861C228.96 226.511 229.22 226.216 229.547 226.012C229.874 225.808 230.254 225.705 230.639 225.716C231.168 225.748 231.663 225.985 232.019 226.377C232.376 226.769 232.565 227.285 232.546 227.814Z" fill="white"/>
</g>
<path d="M223.92 90.1097C224.583 89.8179 225.145 89.3377 225.537 88.7288C225.928 88.12 226.132 87.4093 226.123 86.6853C226.148 86.2147 226.077 85.7439 225.914 85.3018C225.751 84.8596 225.499 84.4553 225.175 84.1134C224.85 83.7715 224.46 83.4993 224.027 83.3132C223.594 83.1272 223.127 83.0312 222.656 83.0312C222.185 83.0312 221.718 83.1272 221.285 83.3132C220.852 83.4993 220.462 83.7715 220.137 84.1134C219.813 84.4553 219.562 84.8596 219.399 85.3018C219.235 85.7439 219.164 86.2147 219.189 86.6853C219.174 87.4165 219.377 88.1357 219.771 88.752C220.164 89.3682 220.732 89.854 221.402 90.1479C216.06 90.9492 216.298 96.7488 216.298 96.7488L228.928 96.806C228.928 96.806 229.224 90.9015 223.92 90.1097Z" fill="#37ED81"/>
<path opacity="0.1" d="M223.92 90.1097C224.583 89.8179 225.145 89.3377 225.537 88.7288C225.928 88.12 226.132 87.4093 226.123 86.6853C226.148 86.2147 226.077 85.7439 225.914 85.3018C225.751 84.8596 225.499 84.4553 225.175 84.1134C224.85 83.7715 224.46 83.4993 224.027 83.3132C223.594 83.1272 223.127 83.0312 222.656 83.0312C222.185 83.0312 221.718 83.1272 221.285 83.3132C220.852 83.4993 220.462 83.7715 220.137 84.1134C219.813 84.4553 219.562 84.8596 219.399 85.3018C219.235 85.7439 219.164 86.2147 219.189 86.6853C219.174 87.4165 219.377 88.1357 219.771 88.752C220.164 89.3682 220.732 89.854 221.402 90.1479C216.06 90.9492 216.298 96.7488 216.298 96.7488L228.928 96.806C228.928 96.806 229.224 90.9015 223.92 90.1097Z" fill="black"/>
<path d="M244.443 100.54L199.43 100.336L199.405 105.716L244.419 105.92L244.443 100.54Z" fill="#37ED81"/>
<path opacity="0.2" d="M244.443 100.54L199.43 100.336L199.405 105.716L244.419 105.92L244.443 100.54Z" fill="white"/>
<path d="M78.9645 128.426H78.5162L77.2189 128.521C76.5169 128.563 75.8187 128.656 75.1299 128.798C74.6838 128.861 74.2412 128.946 73.804 129.055L72.3255 129.466C69.809 130.238 67.4347 131.414 65.2954 132.947C62.4689 134.999 60.1088 137.626 58.3702 140.655C57.3483 142.401 56.5351 144.261 55.9473 146.197C55.3297 148.301 54.9741 150.473 54.8885 152.664C54.8317 153.815 54.8508 154.969 54.9458 156.117C54.9458 156.699 55.1079 157.281 55.1842 157.872C55.2484 158.468 55.36 159.058 55.5181 159.637C56.3758 163.465 58.1162 167.039 60.6005 170.075C63.0847 173.11 66.244 175.523 69.8263 177.122C72.4191 178.24 75.1981 178.865 78.0202 178.963C80.935 179.123 83.8527 178.705 86.6051 177.732L87.4445 177.417H87.559L87.6544 177.475L99.6829 183.579L99.3299 183.885C98.0422 179.897 96.8021 176.034 95.6002 172.324V172.18L95.7052 172.076C98.6231 169.137 100.789 165.537 102.02 161.583C103.135 157.968 103.46 154.155 102.974 150.403C102.541 147.069 101.469 143.85 99.8164 140.922C98.3916 138.407 96.5535 136.149 94.3793 134.245C92.5855 132.737 90.6001 131.473 88.4747 130.486C86.8666 129.793 85.1918 129.265 83.4764 128.912L81.5686 128.598L80.1855 128.493L79.3461 128.435H79.0599C79.155 128.425 79.251 128.425 79.3461 128.435H80.195L81.5782 128.493L83.4859 128.769C85.2227 129.096 86.9203 129.605 88.551 130.286C90.7129 131.261 92.7341 132.522 94.5605 134.035C96.7747 135.931 98.6518 138.189 100.112 140.712C101.812 143.671 102.917 146.934 103.365 150.317C103.891 154.127 103.589 158.006 102.478 161.688C101.239 165.724 99.0394 169.4 96.0676 172.4L96.1249 172.152C97.3268 175.862 98.5764 179.726 99.8736 183.703L100.055 184.285L99.5112 184.009L87.4827 177.913H87.6925L86.8341 178.228C84.0286 179.215 81.0569 179.643 78.087 179.487C75.204 179.377 72.3669 178.73 69.7214 177.579C64.6751 175.418 60.4766 171.662 57.7692 166.886C56.5234 164.681 55.6135 162.302 55.0698 159.828C54.9208 159.234 54.8093 158.632 54.7359 158.025C54.6596 157.424 54.5356 156.832 54.507 156.241C54.2488 152.847 54.6075 149.434 55.5658 146.168C56.1682 144.206 57.0041 142.322 58.0554 140.559C59.8355 137.503 62.2448 134.859 65.1237 132.804C67.2982 131.267 69.7124 130.1 72.2683 129.351L73.7659 128.97C74.2066 128.867 74.6524 128.788 75.1013 128.731C75.7973 128.602 76.5019 128.526 77.2094 128.502L78.5162 128.454C78.6648 128.434 78.8146 128.425 78.9645 128.426Z" fill="#37ED81"/>
<path d="M84.3976 150.667H82.633L78.8174 145.306V141.786C78.8174 141.786 76.0893 141.614 76.4136 146.222C76.738 150.829 76.4136 149.656 76.4136 149.656C76.4136 149.656 70.6236 149.656 70.1466 150.18C69.6697 150.705 69.6411 156.295 69.5743 159.414C69.5377 160.166 69.7535 160.908 70.1873 161.523C70.6211 162.139 71.248 162.591 71.9685 162.81C72.1705 162.866 72.379 162.894 72.5886 162.895C74.0385 162.895 81.412 161.722 81.412 161.722H84.4549L84.3976 150.667Z" fill="#37ED81"/>
<path d="M89.4533 149.727L88.3658 161.784H85.3516V149.975L89.4533 149.727Z" fill="#37ED81"/>
<path d="M125.407 395.179V387.023L110.784 386.918L110.66 399.252L111.566 399.318C115.601 399.576 132.094 399.958 134.803 399.118C137.817 398.183 125.407 395.179 125.407 395.179Z" fill="#37ED81"/>
<path d="M135.153 398.353C135.153 398.487 129.678 398.601 122.934 398.601C116.19 398.601 110.715 398.487 110.715 398.353C110.715 398.22 116.19 398.105 122.934 398.105C129.678 398.105 135.153 398.22 135.153 398.353Z" fill="#263238"/>
<path d="M125.673 396.847C125.549 396.781 125.673 396.351 125.968 395.894C126.264 395.436 126.665 395.245 126.76 395.34C126.856 395.436 126.655 395.798 126.369 396.189C126.083 396.58 125.797 396.914 125.673 396.847Z" fill="#263238"/>
<path d="M126.601 397.387C126.468 397.387 126.534 396.853 126.821 396.348C127.107 395.842 127.488 395.537 127.593 395.613C127.698 395.69 127.527 396.119 127.259 396.567C126.992 397.015 126.725 397.435 126.601 397.387Z" fill="#263238"/>
<path d="M115.128 398.312C115.071 398.312 114.852 398.14 114.537 397.777C114.153 397.311 113.725 396.883 113.259 396.499C112.801 396.133 112.255 395.893 111.675 395.803C111.227 395.746 110.941 395.803 110.912 395.746C110.884 395.688 111.16 395.488 111.685 395.45C112.377 395.435 113.053 395.665 113.593 396.099C114.099 396.511 114.525 397.012 114.852 397.577C115.071 397.997 115.186 398.273 115.128 398.312Z" fill="#263238"/>
<path d="M125.721 395.303C125.788 395.417 125.54 395.703 125.12 395.856C124.701 396.009 124.329 395.951 124.309 395.856C124.29 395.761 124.586 395.56 124.949 395.427C125.311 395.293 125.645 395.188 125.721 395.303Z" fill="#263238"/>
<path d="M125.49 394.516C125.49 394.659 125.108 394.774 124.612 394.783C124.116 394.793 123.725 394.679 123.735 394.545C123.744 394.411 124.135 394.287 124.612 394.278C125.089 394.268 125.471 394.383 125.49 394.516Z" fill="#263238"/>
<path d="M161.431 395.179V387.023L146.808 386.918L146.684 399.128L147.59 399.194C151.625 399.452 168.127 399.958 170.826 399.118C173.841 398.183 161.431 395.179 161.431 395.179Z" fill="#37ED81"/>
<path d="M171.159 398.377C171.159 398.51 165.694 398.625 158.94 398.625C152.187 398.625 146.73 398.51 146.73 398.377C146.73 398.243 152.196 398.129 158.94 398.129C165.684 398.129 171.159 398.243 171.159 398.377Z" fill="#263238"/>
<path d="M161.677 396.847C161.562 396.781 161.677 396.351 161.972 395.894C162.268 395.436 162.669 395.245 162.764 395.34C162.859 395.436 162.659 395.798 162.373 396.189C162.087 396.58 161.801 396.914 161.677 396.847Z" fill="#263238"/>
<path d="M162.612 397.387C162.488 397.387 162.546 396.853 162.841 396.348C163.137 395.842 163.509 395.537 163.614 395.613C163.719 395.69 163.538 396.119 163.27 396.567C163.003 397.015 162.746 397.435 162.612 397.387Z" fill="#263238"/>
<path d="M151.136 398.312C151.079 398.312 150.869 398.14 150.545 397.777C150.16 397.311 149.732 396.883 149.267 396.499C148.808 396.133 148.263 395.893 147.683 395.803C147.244 395.746 146.949 395.803 146.92 395.746C146.891 395.688 147.168 395.488 147.693 395.45C148.385 395.435 149.06 395.665 149.6 396.099C150.109 396.508 150.536 397.01 150.86 397.577C151.079 397.997 151.193 398.273 151.136 398.312Z" fill="#263238"/>
<path d="M161.717 395.303C161.784 395.417 161.536 395.703 161.116 395.856C160.697 396.009 160.325 395.951 160.306 395.856C160.286 395.761 160.582 395.56 160.945 395.427C161.307 395.293 161.641 395.188 161.717 395.303Z" fill="#263238"/>
<path d="M161.523 394.516C161.523 394.659 161.142 394.774 160.646 394.783C160.15 394.793 159.768 394.679 159.778 394.545C159.787 394.411 160.169 394.287 160.646 394.278C161.122 394.268 161.523 394.383 161.523 394.516Z" fill="#263238"/>
<path d="M215.298 152.991C214.916 152.6 213.972 152.791 213.972 152.791C214.066 152.242 214.066 151.68 213.972 151.131C213.8 150.597 212.598 150.702 212.598 150.702C212.543 150.252 212.543 149.797 212.598 149.347C212.608 149.248 212.586 149.147 212.537 149.06C212.487 148.973 212.412 148.904 212.322 148.861C211.753 148.629 211.142 148.518 210.528 148.537C209.794 148.012 212.77 143.843 213.876 142.508C214.983 141.173 214.783 140.133 213.8 140.133C213.123 140.133 209.651 144.139 208.582 145.484C207.514 146.829 204.681 150.568 204.586 147.583C204.49 144.597 203.288 142.346 202.535 141.964C201.781 141.583 200.98 142.479 201.39 143.309C201.75 144.252 201.975 145.241 202.058 146.247C202.161 147.049 202.126 147.862 201.953 148.651C201.637 150.12 201.206 151.561 200.665 152.963H200.589C200.589 152.963 179.775 172.927 178.268 174.349C176.923 175.627 149.871 172.832 144.443 172.26C142.599 171.99 140.737 171.862 138.873 171.878C136.516 171.983 136.097 172.317 133.75 172.345C127.824 172.411 121.912 172.931 116.065 173.9C113.418 174.35 110.945 175.519 108.916 177.278C106.888 179.038 105.381 181.321 104.561 183.878C99.0957 200.952 86.7143 241.368 84.5299 264.071C82.8792 267.064 81.3891 270.143 80.0657 273.295C78.53 277.473 78.902 277.616 79.4171 277.711C80.8097 277.969 82.3932 270.471 82.9846 272.284C83.576 274.096 79.9799 281.222 81.4393 281.431C83.3471 281.699 84.8637 273.8 85.045 273.171C85.2262 272.541 86.1706 272.742 85.9989 273.333C85.7222 274.172 83.0418 283.072 84.9114 283.358C85.9416 283.511 86.0561 281.632 86.0561 281.632C86.0561 281.632 87.9639 273.114 88.8319 273.285C89.6999 273.457 88.7747 278.484 88.3359 280.163C87.8971 281.842 88.5076 282.691 89.4042 282.28C90.0147 281.994 91.4742 276.891 91.8748 275.231C92.2754 273.571 93.277 268.974 94.622 271.635C95.9669 274.296 98.0082 275.842 98.8477 275.88C99.0368 275.858 99.2151 275.78 99.3596 275.656C99.5041 275.532 99.6082 275.368 99.6584 275.184C99.7087 275.001 99.7029 274.806 99.6417 274.626C99.5805 274.445 99.4667 274.288 99.3151 274.172C98.5931 273.467 97.9734 272.665 97.4741 271.788C97.0291 271.105 96.7063 270.349 96.5202 269.556C96.1358 267.973 95.9121 266.356 95.8525 264.729L95.6998 263.775C97.8365 253.197 103.989 222.148 112.87 202.316L116.514 209.814L118.097 215.366L108.386 239.337L149.804 238.793L143.623 215.003L151.13 190.202C159.248 190.383 180.09 190.689 183.562 189.115C187.931 187.207 210.528 158.667 210.528 158.667C212.001 157.522 213.412 156.299 214.754 155.004C214.754 155.004 216.128 153.85 215.298 152.991Z" fill="#FFBE9D"/>
<path d="M106.564 221.62C107.766 217.518 113.938 197.239 113.938 197.239C113.938 197.239 116.971 213.77 116.17 215.763C115.433 217.47 114.562 219.116 113.566 220.685C106.564 231.34 107.48 236.672 107.48 236.672L149.785 235.385C149.88 229.471 146.38 215.716 145.655 213.522C144.93 211.328 147.343 204.145 147.343 204.145C147.343 204.145 152.112 199.29 151.941 196.791C151.85 194.546 151.572 192.312 151.111 190.113L176.866 191.067L176.055 173.611L139.063 169.91C137.776 173.544 126.129 171.761 126.129 171.761C113.556 172.18 112.774 174.489 107.547 178.552C102.32 182.616 93.668 217.49 93.668 217.49L106.564 221.62Z" fill="#37ED81"/>
<path d="M131.577 217.489C130.844 217.62 130.097 217.659 129.354 217.604C127.971 217.604 126.073 217.508 123.984 217.299C121.895 217.089 120.006 216.793 118.661 216.526C117.92 216.43 117.193 216.245 116.496 215.973C117.242 215.973 117.986 216.043 118.719 216.183C120.073 216.354 121.952 216.593 124.032 216.803C126.111 217.012 128 217.155 129.364 217.251C130.108 217.26 130.848 217.34 131.577 217.489Z" fill="#263238"/>
<path d="M134.483 213.895C133.75 214.254 132.974 214.52 132.175 214.686C128.369 215.686 124.443 216.152 120.509 216.069C119.695 216.096 118.881 216.019 118.086 215.84C118.889 215.739 119.699 215.698 120.509 215.716C122.006 215.669 124.067 215.564 126.337 215.297C128.607 215.03 130.629 214.648 132.06 214.343C132.855 214.131 133.665 213.981 134.483 213.895Z" fill="#263238"/>
<path d="M148.709 197.859C148.69 198.587 148.591 199.31 148.413 200.015C148.165 201.341 147.784 203.153 147.297 205.138C146.811 207.122 146.343 208.953 145.924 210.193C145.755 210.903 145.505 211.591 145.18 212.244C145.233 211.519 145.367 210.802 145.58 210.107C145.943 208.619 146.353 206.902 146.811 205.023C147.269 203.144 147.707 201.427 148.07 199.939C148.199 199.223 148.414 198.524 148.709 197.859Z" fill="#263238"/>
<path d="M107.019 219.18C104.813 218.839 102.635 218.332 100.504 217.663C98.3274 217.154 96.1912 216.485 94.1133 215.66C96.319 216.006 98.4964 216.513 100.628 217.177C102.806 217.684 104.942 218.354 107.019 219.18Z" fill="#263238"/>
<path d="M151.567 189.906C151.208 189.968 150.84 189.968 150.48 189.906C149.484 189.804 148.505 189.57 147.571 189.21C146.01 188.623 144.59 187.717 143.4 186.549C142.211 185.381 141.279 183.977 140.665 182.428C139.985 180.723 139.695 178.888 139.816 177.057C139.858 175.547 140.31 174.077 141.122 172.803C141.694 171.945 142.548 171.314 143.536 171.019C143.8 170.946 144.073 170.911 144.347 170.914C144.537 170.914 144.633 170.914 144.633 170.914C144.633 170.914 144.232 170.914 143.593 171.172C142.687 171.507 141.918 172.134 141.409 172.956C140.111 174.997 139.749 178.727 141.132 182.208C141.776 183.85 142.783 185.324 144.079 186.52C145.141 187.498 146.364 188.286 147.695 188.847C148.943 189.341 150.242 189.696 151.567 189.906Z" fill="#263238"/>
<path d="M173.802 190.732C173.564 187.807 173.487 184.871 173.573 181.938C173.499 179.006 173.588 176.074 173.84 173.152C174.079 176.074 174.156 179.007 174.069 181.938C174.15 184.872 174.06 187.808 173.802 190.732Z" fill="#263238"/>
<path d="M138.816 170.981C138.921 168.854 139.14 166.45 139.14 166.45C139.14 166.45 144.406 165.868 144.721 160.431C145.035 154.994 144.721 142.45 144.721 142.45L135.182 137.566L124.594 145.894L126.225 173.079L135.935 173.699C136.678 173.72 137.398 173.445 137.938 172.936C138.478 172.426 138.794 171.723 138.816 170.981Z" fill="#FFBE9D"/>
<path d="M139.763 156.125C139.763 156.125 139.763 156.23 139.677 156.354C139.606 156.444 139.515 156.515 139.41 156.562C139.305 156.608 139.191 156.629 139.076 156.621C138.466 156.621 137.875 155.915 137.665 155.095C137.565 154.697 137.565 154.281 137.665 153.884C137.684 153.71 137.747 153.544 137.847 153.401C137.947 153.258 138.081 153.141 138.237 153.063C138.365 153.01 138.509 153.01 138.638 153.063C138.733 153.11 138.81 153.187 138.857 153.283C138.924 153.445 138.857 153.55 138.857 153.54C138.857 153.531 138.857 153.445 138.762 153.349C138.712 153.281 138.638 153.234 138.556 153.216C138.473 153.198 138.387 153.212 138.313 153.254C138.196 153.325 138.099 153.424 138.031 153.542C137.962 153.661 137.925 153.795 137.922 153.931C137.842 154.286 137.842 154.654 137.922 155.009C138.113 155.753 138.628 156.354 139.086 156.411C139.176 156.423 139.267 156.417 139.354 156.392C139.441 156.368 139.522 156.326 139.591 156.268C139.706 156.192 139.744 156.116 139.763 156.125Z" fill="#EB996E"/>
<path d="M147.985 139.513C147.25 137.014 144.589 135.774 142.166 135.087C138.474 134.038 134.487 133.58 130.881 134.906C127.276 136.232 122.945 138.559 122.945 142.537C120.818 142.365 119.597 144.225 118.758 146.534C118.221 147.94 117.899 149.419 117.804 150.921C117.537 156.13 116.077 163.322 112.7 167.137C110.793 169.265 108.15 170.734 107.063 173.385C106.109 175.684 106.605 178.412 105.718 180.74C104.926 182.791 103.181 184.25 101.902 186.034C100.6 188.057 99.8339 190.379 99.6754 192.78C99.5168 195.181 99.9714 197.583 100.996 199.76C102.029 201.882 103.482 203.771 105.268 205.312C107.054 206.854 109.135 208.015 111.384 208.727C115.84 210.082 120.591 210.129 125.072 208.86C128.435 208.056 131.573 206.5 134.249 204.31C136.987 202.074 138.867 198.96 139.571 195.496C140.249 191.604 139.161 187.646 138.35 183.773C135.813 171.535 136.538 170.896 139.743 159.535C139.819 159.335 139.857 159.125 139.915 158.924C139.972 158.724 140.001 158.629 140.039 158.476C140.13 158.027 140.178 157.57 140.182 157.112C139.714 157.286 139.206 157.323 138.717 157.218C138.229 157.113 137.781 156.871 137.425 156.521C137.069 156.147 136.82 155.683 136.706 155.179C136.592 154.676 136.616 154.15 136.776 153.659C137.001 153.122 137.337 152.638 137.761 152.239C138.185 151.839 138.688 151.534 139.237 151.341C140.296 150.902 141.431 150.673 142.471 150.187C144.675 149.138 146.201 146.963 147.241 144.683C148.095 143.103 148.359 141.27 147.985 139.513Z" fill="#263238"/>
<path d="M140.139 156.383C140.341 156.681 140.507 157.001 140.635 157.337C140.922 157.938 141.303 158.787 141.723 159.769L141.799 159.95H141.599L140.645 160.036C139.987 160.036 139.434 160.16 138.785 160.151C138.728 160.138 138.676 160.111 138.633 160.073C138.589 160.034 138.556 159.986 138.537 159.931C138.509 159.844 138.509 159.751 138.537 159.664C138.559 159.536 138.588 159.408 138.623 159.283L138.794 158.605C138.881 158.154 139.015 157.712 139.195 157.289C139.177 157.75 139.11 158.207 138.995 158.653L138.861 159.33C138.814 159.559 138.728 159.912 138.861 159.884C139.338 159.884 140.015 159.779 140.645 159.74L141.599 159.655L141.475 159.864C141.065 158.911 140.721 158.014 140.521 157.394C140.345 157.077 140.217 156.737 140.139 156.383Z" fill="#37ED81"/>
<path d="M107.483 236.674L149.788 235.387L168.198 307.252L164.812 389.687H142.443L145.181 309.007L128.822 258.976L131.34 392.882L108.733 393.216L106.358 267.351C106.253 263.851 105.108 255.962 105.537 252.49L107.483 236.674Z" fill="#263238"/>
<path d="M134.442 259.991C133.749 260.034 133.054 259.993 132.372 259.867C131.093 259.714 129.348 259.447 127.431 259.065C125.513 258.684 123.796 258.245 122.556 257.892C121.893 257.746 121.252 257.516 120.648 257.205C120.648 257.062 123.758 257.806 127.574 258.579C131.389 259.352 134.461 259.848 134.442 259.991Z" fill="#455A64"/>
<path d="M164.593 385.174C164.593 385.307 159.528 385.422 153.28 385.422C147.032 385.422 141.957 385.307 141.957 385.174C141.957 385.04 147.022 384.926 153.28 384.926C159.537 384.926 164.593 385.031 164.593 385.174Z" fill="#455A64"/>
<path d="M131.132 389.404C131.132 389.547 126.21 389.652 120.143 389.652C114.077 389.652 109.164 389.547 109.164 389.404C109.164 389.261 114.086 389.156 120.143 389.156C126.2 389.156 131.132 389.271 131.132 389.404Z" fill="#455A64"/>
<path d="M128.22 389.06C128.086 389.06 127.495 359.805 126.894 323.719C126.293 287.634 125.94 258.359 126.064 258.359C126.188 258.359 126.798 287.605 127.39 323.71C127.981 359.814 128.363 389.06 128.22 389.06Z" fill="#455A64"/>
<path d="M161.585 385.167C161.574 385.037 161.574 384.906 161.585 384.776V383.631C161.585 382.601 161.661 381.122 161.718 379.243C161.852 375.428 162.042 369.886 162.281 363.094C162.796 349.434 163.521 330.605 164.313 309.82C164.313 309.619 164.313 309.428 164.313 309.257V309.323C159.305 289.292 154.774 271.111 151.483 257.957L147.667 242.399C147.229 240.577 146.895 239.156 146.656 238.164C146.542 237.696 146.466 237.334 146.399 237.057C146.362 236.933 146.339 236.805 146.332 236.676C146.382 236.796 146.42 236.921 146.446 237.048C146.523 237.315 146.618 237.677 146.752 238.135C147.009 239.089 147.381 240.539 147.858 242.351C148.812 246.033 150.157 251.337 151.836 257.871C155.155 271.016 159.734 289.149 164.809 309.209V309.276C164.809 309.447 164.809 309.648 164.809 309.839C163.96 330.624 163.187 349.444 162.624 363.103C162.329 369.905 162.081 375.409 161.909 379.243C161.814 381.151 161.737 382.601 161.69 383.631C161.69 384.117 161.632 384.499 161.623 384.776C161.624 384.907 161.611 385.038 161.585 385.167Z" fill="#455A64"/>
<path d="M154.272 307.578C152.665 308.106 151.01 308.474 149.331 308.675C147.271 309.028 145.515 309.276 144.724 309.314V309.123C144.981 309.2 145.115 309.247 145.115 309.286C145.115 309.324 144.953 309.286 144.686 309.286H144.113L144.686 309.114C145.43 308.894 147.185 308.532 149.245 308.16C150.898 307.801 152.581 307.607 154.272 307.578Z" fill="#455A64"/>
<path d="M153.894 310.312C152.406 310.38 150.915 310.313 149.439 310.111C147.949 310.081 146.465 309.918 145.004 309.625C147.985 309.382 150.986 309.613 153.894 310.312Z" fill="#455A64"/>
<path opacity="0.2" d="M107.301 238.191C107.802 238.834 108.433 239.365 109.153 239.748C109.873 240.131 110.665 240.358 111.479 240.414C113.183 240.616 114.906 240.583 116.601 240.318C127.523 239.107 139.094 237.991 149.787 235.387C135.946 236.159 121.323 235.902 107.482 236.674L107.339 237.857" fill="black"/>
<g opacity="0.2">
<path d="M121.551 257.695L129.354 287.972L128.81 258.974L121.551 257.695Z" fill="black"/>
</g>
</svg>
