<svg width="24" height="25" viewBox="0 0 24 25" fill="none" xmlns="http://www.w3.org/2000/svg">
<path d="M12.75 7.5C12.75 7.30109 12.671 7.11032 12.5303 6.96967C12.3897 6.82902 12.1989 6.75 12 6.75C11.8011 6.75 11.6103 6.82902 11.4697 6.96967C11.329 7.11032 11.25 7.30109 11.25 7.5V12.5C11.2499 12.6272 11.2822 12.7522 11.3438 12.8635C11.4054 12.9747 11.4942 13.0685 11.602 13.136L14.602 15.011C14.7707 15.1166 14.9744 15.1508 15.1683 15.1061C15.2643 15.084 15.355 15.0433 15.4353 14.9861C15.5155 14.9289 15.5837 14.8565 15.636 14.773C15.6883 14.6895 15.7236 14.5965 15.7399 14.4993C15.7562 14.4022 15.7532 14.3027 15.7311 14.2067C15.709 14.1107 15.6683 14.02 15.6111 13.9397C15.5539 13.8595 15.4815 13.7913 15.398 13.739L12.75 12.084V7.5Z" fill="#4BA25D"/>
<path fill-rule="evenodd" clip-rule="evenodd" d="M12 3.75C9.67936 3.75 7.45376 4.67187 5.81282 6.31282C4.17187 7.95376 3.25 10.1794 3.25 12.5C3.25 14.8206 4.17187 17.0462 5.81282 18.6872C7.45376 20.3281 9.67936 21.25 12 21.25C14.3206 21.25 16.5462 20.3281 18.1872 18.6872C19.8281 17.0462 20.75 14.8206 20.75 12.5C20.75 10.1794 19.8281 7.95376 18.1872 6.31282C16.5462 4.67187 14.3206 3.75 12 3.75ZM4.75 12.5C4.75 11.5479 4.93753 10.6052 5.30187 9.72554C5.66622 8.84593 6.20025 8.0467 6.87348 7.37348C7.5467 6.70025 8.34593 6.16622 9.22554 5.80187C10.1052 5.43753 11.0479 5.25 12 5.25C12.9521 5.25 13.8948 5.43753 14.7745 5.80187C15.6541 6.16622 16.4533 6.70025 17.1265 7.37348C17.7997 8.0467 18.3338 8.84593 18.6981 9.72554C19.0625 10.6052 19.25 11.5479 19.25 12.5C19.25 14.4228 18.4862 16.2669 17.1265 17.6265C15.7669 18.9862 13.9228 19.75 12 19.75C10.0772 19.75 8.23311 18.9862 6.87348 17.6265C5.51384 16.2669 4.75 14.4228 4.75 12.5Z" fill="#4BA25D"/>
</svg>
