<svg width="24" height="25" viewBox="0 0 24 25" fill="none" xmlns="http://www.w3.org/2000/svg">
<path d="M7.5376 20H16.4566C16.3756 19.22 16.1866 18.698 15.9916 18.329C15.7441 17.864 15.4126 17.504 14.9686 17.12C14.8036 16.9775 14.6566 16.859 14.4856 16.7195C14.3919 16.6443 14.2984 16.5688 14.2051 16.493C13.8809 16.2335 13.5743 15.9529 13.2871 15.653C12.6016 14.921 12.0001 13.9055 12.0001 12.5C12.0001 13.907 11.3971 14.921 10.7101 15.6545C10.4229 15.9544 10.1163 16.235 9.7921 16.4945L9.5116 16.7195C9.34829 16.8507 9.18727 16.9847 9.0286 17.1215C8.5831 17.5055 8.2516 17.864 8.0041 18.329C7.8091 18.6995 7.6186 19.2215 7.5376 20ZM4.5046 4.4675C4.4686 3.0215 5.7001 2 7.0201 2H16.9771C18.2971 2 19.5301 3.0215 19.4941 4.4675C19.4566 5.993 19.1341 7.154 18.6436 8.078C18.1561 8.999 17.5231 9.638 16.9336 10.148C16.7296 10.325 16.5196 10.493 16.3291 10.6475L16.1086 10.8275C15.8865 11.0032 15.6761 11.1931 15.4786 11.396C15.1606 11.735 15.0001 12.05 15.0001 12.5C15.0001 12.95 15.1606 13.265 15.4801 13.604C15.6481 13.7855 15.8551 13.9655 16.1086 14.174C16.1776 14.2295 16.2526 14.2895 16.3291 14.354C16.5196 14.507 16.7296 14.675 16.9321 14.852C17.5216 15.362 18.1531 16.001 18.6421 16.922C19.1311 17.8445 19.4536 19.0055 19.4941 20.5295C19.5316 21.977 18.2971 23 16.9756 23H7.0201C5.7001 23 4.4641 21.977 4.5031 20.5295C4.5421 19.004 4.8646 17.8445 5.3551 16.922C5.8441 16.001 6.4771 15.3605 7.0666 14.852C7.2706 14.675 7.4791 14.507 7.6696 14.3525L7.8916 14.1725C8.1451 13.9655 8.3521 13.7855 8.5216 13.604C8.8381 13.265 9.0001 12.95 9.0001 12.5C9.0001 12.05 8.8381 11.735 8.5201 11.396C8.32264 11.1926 8.1122 11.0022 7.8901 10.826C7.81629 10.7663 7.74229 10.7068 7.6681 10.6475C7.46436 10.4843 7.26334 10.3178 7.0651 10.148C6.4756 9.638 5.8426 8.999 5.3536 8.078C4.8631 7.154 4.5421 5.993 4.5046 4.4675ZM7.0201 3.5C6.4126 3.5 5.9896 3.95 6.0016 4.43C6.0346 5.756 6.3106 6.683 6.6766 7.3745C7.0441 8.0675 7.5271 8.567 8.0431 9.014C8.2276 9.173 8.4061 9.317 8.5876 9.464L8.8381 9.6665C9.1006 9.881 9.3721 10.1135 9.6136 10.3715C10.1146 10.907 10.4986 11.5715 10.4986 12.5C10.4986 13.427 10.1161 14.093 9.6136 14.63C9.3736 14.885 9.1021 15.1175 8.8396 15.3335L8.5876 15.5375C8.4061 15.6845 8.2276 15.827 8.0446 15.9875C7.5271 16.433 7.0456 16.9325 6.6766 17.6255C6.3106 18.3155 6.0331 19.2425 5.9986 20.5685C5.9866 21.0485 6.4096 21.5 7.0171 21.5H16.9741C17.5816 21.5 18.0046 21.0485 17.9926 20.5685C17.9581 19.2425 17.6821 18.3155 17.3161 17.6255C16.9471 16.9325 16.4656 16.433 15.9496 15.986C15.7651 15.827 15.5896 15.683 15.4066 15.536L15.1561 15.3335C14.8829 15.1157 14.6244 14.8802 14.3821 14.6285C13.8796 14.093 13.4971 13.4285 13.4971 12.5C13.4971 11.573 13.8811 10.907 14.3821 10.37C14.6236 10.1135 14.8951 9.881 15.1576 9.6665L15.4081 9.464C15.5911 9.317 15.7681 9.173 15.9526 9.014C16.4686 8.567 16.9516 8.0675 17.3191 7.3745C17.6851 6.6845 17.9611 5.756 17.9941 4.43C18.0061 3.95 17.5831 3.5 16.9771 3.5H7.0201Z" fill="#4BA25D"/>
</svg>
