<svg width="24" height="25" viewBox="0 0 24 25" fill="none" xmlns="http://www.w3.org/2000/svg">
<path d="M2.57306 8.96249L11.2321 4.63349C11.3153 4.59194 11.407 4.57031 11.5001 4.57031C11.5931 4.57031 11.6848 4.59194 11.7681 4.63349L20.4271 8.96349C20.5266 9.01336 20.6104 9.08995 20.6689 9.1847C20.7274 9.27945 20.7584 9.38862 20.7584 9.49999C20.7584 9.61136 20.7274 9.72053 20.6689 9.81528C20.6104 9.91003 20.5266 9.98663 20.4271 10.0365L11.7681 14.3655C11.6848 14.407 11.5931 14.4287 11.5001 14.4287C11.407 14.4287 11.3153 14.407 11.2321 14.3655L2.57306 10.0355C2.47348 9.98563 2.38974 9.90903 2.33122 9.81428C2.27269 9.71953 2.2417 9.61036 2.2417 9.49899C2.2417 9.38762 2.27269 9.27845 2.33122 9.1837C2.38974 9.08895 2.47348 9.01236 2.57306 8.96249Z" stroke="#4BA25D" stroke-width="1.5" stroke-linecap="round" stroke-linejoin="round"/>
<path d="M22.5 13.5V10L20.5 9M4.5 11V16.412C4.49993 16.7904 4.60719 17.161 4.80933 17.4809C5.01148 17.8007 5.30021 18.0567 5.642 18.219L10.642 20.593C10.9101 20.7203 11.2032 20.7864 11.5 20.7864C11.7968 20.7864 12.0899 20.7203 12.358 20.593L17.358 18.219C17.6998 18.0567 17.9885 17.8007 18.1907 17.4809C18.3928 17.161 18.5001 16.7904 18.5 16.412V11" stroke="#4BA25D" stroke-width="1.5" stroke-linecap="round" stroke-linejoin="round"/>
</svg>
