<svg width="24" height="25" viewBox="0 0 24 25" fill="none" xmlns="http://www.w3.org/2000/svg">
<path d="M19 9.49867C19.0004 8.29358 18.6898 7.10877 18.098 6.05895C17.5063 5.00913 16.6536 4.12986 15.6224 3.50624C14.5912 2.88262 13.4165 2.53579 12.2119 2.4993C11.0074 2.46282 9.81381 2.73793 8.74676 3.298C7.67972 3.85806 6.77533 4.68412 6.12116 5.6962C5.46698 6.70829 5.08517 7.87212 5.01268 9.07503C4.94019 10.2779 5.17948 11.4792 5.70739 12.5625C6.23529 13.6458 7.03393 14.5745 8.026 15.2587L5 20.4987L7.256 20.5917L8.464 22.4987L11.93 16.4947C11.954 16.4947 11.976 16.4987 12 16.4987C12.024 16.4987 12.046 16.4957 12.07 16.4947L15.536 22.4987L16.768 20.6327L19 20.4987L15.974 15.2587C16.9076 14.6159 17.6709 13.7557 18.198 12.7522C18.7252 11.7488 19.0004 10.6322 19 9.49867ZM7 9.49867C7 8.50977 7.29325 7.54307 7.84265 6.72082C8.39206 5.89858 9.17295 5.25771 10.0866 4.87928C11.0002 4.50084 12.0055 4.40182 12.9755 4.59475C13.9454 4.78767 14.8363 5.26388 15.5355 5.96314C16.2348 6.6624 16.711 7.55332 16.9039 8.52322C17.0969 9.49313 16.9978 10.4985 16.6194 11.4121C16.241 12.3257 15.6001 13.1066 14.7779 13.656C13.9556 14.2054 12.9889 14.4987 12 14.4987C10.6739 14.4987 9.40215 13.9719 8.46447 13.0342C7.52679 12.0965 7 10.8248 7 9.49867Z" fill="#4BA25D"/>
<path d="M12 12.5C13.6569 12.5 15 11.1569 15 9.5C15 7.84315 13.6569 6.5 12 6.5C10.3431 6.5 9 7.84315 9 9.5C9 11.1569 10.3431 12.5 12 12.5Z" fill="#4BA25D"/>
</svg>
