<svg width="40" height="40" viewBox="0 0 40 40" fill="none" xmlns="http://www.w3.org/2000/svg">
<g id="wallet/fees">
<g id="Group">
<g id="Vector">
<path d="M10 13.332H16.6667H10Z" fill="#4BA25D"/>
<path d="M10 13.332H16.6667" stroke="#4BA25D" stroke-width="1.5" stroke-linecap="round" stroke-linejoin="round"/>
</g>
<path id="Vector_2" d="M34.7217 15H30.385C27.41 15 25 17.2383 25 20C25 22.7617 27.4117 25 30.3833 25H34.7217C34.8617 25 34.93 25 34.9883 24.9967C35.8883 24.9417 36.605 24.2767 36.6633 23.4417C36.6667 23.3883 36.6667 23.3233 36.6667 23.195V16.805C36.6667 16.6767 36.6667 16.6117 36.6633 16.5583C36.6033 15.7233 35.8883 15.0583 34.9883 15.0033C34.9317 15 34.8617 15 34.7217 15Z" stroke="#37ED81" stroke-width="1.5"/>
<path id="Vector_3" d="M34.9413 14.9993C34.8113 11.8793 34.3947 9.96602 33.0463 8.61935C31.0947 6.66602 27.9513 6.66602 21.6663 6.66602H16.6663C10.3813 6.66602 7.23801 6.66602 5.28634 8.61935C3.33301 10.571 3.33301 13.7143 3.33301 19.9993C3.33301 26.2843 3.33301 29.4277 5.28634 31.3793C7.23801 33.3327 10.3813 33.3327 16.6663 33.3327H21.6663C27.9513 33.3327 31.0947 33.3327 33.0463 31.3793C34.3947 30.0327 34.813 28.1193 34.9413 24.9993" stroke="#37ED81" stroke-width="1.5"/>
<path id="Vector_4" d="M29.9844 20H30.001" stroke="#37ED81" stroke-width="2" stroke-linecap="round" stroke-linejoin="round"/>
</g>
</g>
</svg>
