<svg width="40" height="40" viewBox="0 0 40 40" fill="none" xmlns="http://www.w3.org/2000/svg">
<g id="Live Mock Interviews">
<g id="Group">
<path id="Vector" d="M1.66699 33.3333V31.6667C1.66699 28.5725 2.89616 25.605 5.08408 23.4171C7.272 21.2292 10.2395 20 13.3337 20C16.4279 20 19.3953 21.2292 21.5832 23.4171C23.7712 25.605 25.0003 28.5725 25.0003 31.6667V33.3333" stroke="#37ED81" stroke-width="1.5" stroke-linecap="round"/>
<path id="Vector_2" d="M21.667 23.3333C21.667 21.1232 22.545 19.0036 24.1078 17.4408C25.6706 15.878 27.7902 15 30.0003 15C31.0947 15 32.1783 15.2155 33.1894 15.6343C34.2004 16.0531 35.1191 16.667 35.8929 17.4408C36.6667 18.2146 37.2805 19.1333 37.6993 20.1443C38.1181 21.1554 38.3337 22.239 38.3337 23.3333V24.1667" stroke="#37ED81" stroke-width="1.5" stroke-linecap="round"/>
<path id="Vector_3" d="M13.3337 20C15.1018 20 16.7975 19.2976 18.0477 18.0474C19.2979 16.7971 20.0003 15.1014 20.0003 13.3333C20.0003 11.5652 19.2979 9.86953 18.0477 8.61929C16.7975 7.36905 15.1018 6.66667 13.3337 6.66667C11.5655 6.66667 9.86986 7.36905 8.61961 8.61929C7.36937 9.86953 6.66699 11.5652 6.66699 13.3333C6.66699 15.1014 7.36937 16.7971 8.61961 18.0474C9.86986 19.2976 11.5655 20 13.3337 20ZM30.0003 15C31.3264 15 32.5982 14.4732 33.5359 13.5355C34.4735 12.5979 35.0003 11.3261 35.0003 10C35.0003 8.67392 34.4735 7.40215 33.5359 6.46447C32.5982 5.52678 31.3264 5 30.0003 5C28.6742 5 27.4025 5.52678 26.4648 6.46447C25.5271 7.40215 25.0003 8.67392 25.0003 10C25.0003 11.3261 25.5271 12.5979 26.4648 13.5355C27.4025 14.4732 28.6742 15 30.0003 15Z" stroke="#37ED81" stroke-width="1.5" stroke-linecap="round" stroke-linejoin="round"/>
</g>
</g>
</svg>
