<svg width="48" height="19" viewBox="0 0 48 19" fill="none" xmlns="http://www.w3.org/2000/svg">
<path d="M3.66 13.08C3.788 13.784 4.076 14.328 4.524 14.712C4.988 15.08 5.604 15.264 6.372 15.264C7.364 15.264 8.084 14.856 8.532 14.04C8.98 13.208 9.204 11.816 9.204 9.864C8.836 10.376 8.316 10.776 7.644 11.064C6.988 11.352 6.276 11.496 5.508 11.496C4.484 11.496 3.556 11.288 2.724 10.872C1.908 10.44 1.26 9.808 0.78 8.976C0.3 8.128 0.0600001 7.104 0.0600001 5.904C0.0600001 4.128 0.588 2.72 1.644 1.68C2.7 0.623999 4.14 0.0959988 5.964 0.0959988C8.236 0.0959988 9.836 0.823999 10.764 2.28C11.708 3.736 12.18 5.928 12.18 8.856C12.18 10.936 11.996 12.64 11.628 13.968C11.276 15.296 10.66 16.304 9.78 16.992C8.916 17.68 7.732 18.024 6.228 18.024C5.044 18.024 4.036 17.8 3.204 17.352C2.372 16.888 1.732 16.288 1.284 15.552C0.852 14.8 0.604 13.976 0.54 13.08H3.66ZM6.204 8.76C7.036 8.76 7.692 8.504 8.172 7.992C8.652 7.48 8.892 6.792 8.892 5.928C8.892 4.984 8.636 4.256 8.124 3.744C7.628 3.216 6.948 2.952 6.084 2.952C5.22 2.952 4.532 3.224 4.02 3.768C3.524 4.296 3.276 5 3.276 5.88C3.276 6.728 3.516 7.424 3.996 7.968C4.492 8.496 5.228 8.76 6.204 8.76ZM23.8674 4.872C23.7074 4.2 23.4274 3.696 23.0274 3.36C22.6434 3.024 22.0834 2.856 21.3474 2.856C20.2434 2.856 19.4274 3.304 18.8994 4.2C18.3874 5.08 18.1234 6.52 18.1074 8.52C18.4914 7.88 19.0514 7.384 19.7874 7.032C20.5234 6.664 21.3234 6.48 22.1874 6.48C23.2274 6.48 24.1474 6.704 24.9474 7.152C25.7474 7.6 26.3714 8.256 26.8194 9.12C27.2674 9.968 27.4914 10.992 27.4914 12.192C27.4914 13.328 27.2594 14.344 26.7954 15.24C26.3474 16.12 25.6834 16.808 24.8034 17.304C23.9234 17.8 22.8754 18.048 21.6594 18.048C19.9954 18.048 18.6834 17.68 17.7234 16.944C16.7794 16.208 16.1154 15.184 15.7314 13.872C15.3634 12.544 15.1794 10.912 15.1794 8.976C15.1794 6.048 15.6834 3.84 16.6914 2.352C17.6994 0.847999 19.2914 0.0959988 21.4674 0.0959988C23.1474 0.0959988 24.4514 0.551999 25.3794 1.464C26.3074 2.376 26.8434 3.512 26.9874 4.872H23.8674ZM21.4194 9.24C20.5714 9.24 19.8594 9.488 19.2834 9.984C18.7074 10.48 18.4194 11.2 18.4194 12.144C18.4194 13.088 18.6834 13.832 19.2114 14.376C19.7554 14.92 20.5154 15.192 21.4914 15.192C22.3554 15.192 23.0354 14.928 23.5314 14.4C24.0434 13.872 24.2994 13.16 24.2994 12.264C24.2994 11.336 24.0514 10.6 23.5554 10.056C23.0754 9.512 22.3634 9.24 21.4194 9.24ZM29.763 4.8C29.763 3.584 30.115 2.632 30.819 1.944C31.539 1.256 32.459 0.912 33.579 0.912C34.699 0.912 35.611 1.256 36.315 1.944C37.035 2.632 37.395 3.584 37.395 4.8C37.395 6.032 37.035 6.992 36.315 7.68C35.611 8.368 34.699 8.712 33.579 8.712C32.459 8.712 31.539 8.368 30.819 7.68C30.115 6.992 29.763 6.032 29.763 4.8ZM45.171 1.2L35.739 18H32.475L41.883 1.2H45.171ZM33.555 2.928C32.675 2.928 32.235 3.552 32.235 4.8C32.235 6.064 32.675 6.696 33.555 6.696C33.987 6.696 34.323 6.544 34.563 6.24C34.803 5.92 34.923 5.44 34.923 4.8C34.923 3.552 34.467 2.928 33.555 2.928ZM40.299 14.376C40.299 13.144 40.651 12.192 41.355 11.52C42.075 10.832 42.995 10.488 44.115 10.488C45.235 10.488 46.139 10.832 46.827 11.52C47.531 12.192 47.883 13.144 47.883 14.376C47.883 15.608 47.531 16.568 46.827 17.256C46.139 17.944 45.235 18.288 44.115 18.288C42.979 18.288 42.059 17.944 41.355 17.256C40.651 16.568 40.299 15.608 40.299 14.376ZM44.091 12.504C43.179 12.504 42.723 13.128 42.723 14.376C42.723 15.64 43.179 16.272 44.091 16.272C44.987 16.272 45.435 15.64 45.435 14.376C45.435 13.128 44.987 12.504 44.091 12.504Z" fill="#37ED81"/>
</svg>
