<svg width="40" height="40" viewBox="0 0 40 40" fill="none" xmlns="http://www.w3.org/2000/svg">
<g id="partners">
<path id="Vector" d="M35.6831 15.5008H36.1665V20.0008C36.1665 21.5829 35.275 23.7607 32.9915 24.35L32.7179 24.4206L32.6372 24.6915C32.2568 25.9698 31.3288 27.2398 29.6548 27.6842L29.384 27.7561L29.304 28.0246C29.0675 28.818 28.6258 29.6024 27.937 30.1859C27.2552 30.7636 26.3047 31.1674 24.9998 31.1674H19.0165H18.8088L18.6623 31.3145L14.1629 35.8306C13.5888 36.4046 12.6273 36.9174 11.5998 36.9174C10.8179 36.9174 9.97781 36.6383 9.17002 35.8306L4.17395 30.8345C3.66923 30.306 3.2104 29.5047 3.10683 28.6197C3.00579 27.7565 3.23697 26.7792 4.16952 25.8382L5.35084 24.6735L5.4998 24.5266V24.3174V17.8579L12.7534 10.6043L12.8126 10.5451L12.8493 10.4697C13.7115 8.69911 15.3849 7.16744 18.3331 7.16744H22.6498H22.8578L23.0044 7.01996L25.8333 4.17444C26.3618 3.66991 27.1629 3.21135 28.0475 3.1078C28.9111 3.00672 29.8889 3.23815 30.8303 4.1717C30.8305 4.17194 30.8308 4.17217 30.831 4.1724L35.8257 9.16709C36.3298 9.69499 36.7891 10.5003 36.8928 11.388C36.9939 12.2536 36.7624 13.2295 35.8325 14.161L35.3356 14.6413L34.4465 15.5008H35.6831ZM27.1665 26.6674V25.5008H28.3331C29.133 25.5008 29.7096 25.2217 30.0693 24.7532C30.4105 24.3088 30.4998 23.7666 30.4998 23.3341V22.1674H31.6665C32.4664 22.1674 33.043 21.8884 33.4027 21.4198C33.7439 20.9754 33.8331 20.4332 33.8331 20.0008V18.3341V17.8341H33.3331H21.6665H21.1665V18.3341C21.1665 19.2459 20.8618 20.3821 20.1498 21.2796C19.452 22.1592 18.3456 22.8341 16.6665 22.8341C14.9873 22.8341 13.881 22.1592 13.1832 21.2796C12.4711 20.3821 12.1665 19.2459 12.1665 18.3341V15.6841V14.477L11.3129 15.3306L7.97958 18.6639L7.83313 18.8103V19.0174V25.4781L5.82958 27.4972C5.82933 27.4975 5.82908 27.4977 5.82882 27.498C5.82609 27.5007 5.8232 27.5036 5.82016 27.5066C5.73141 27.595 5.51658 27.8088 5.45167 28.1253C5.37449 28.5016 5.52704 28.8635 5.83466 29.1924L5.84064 29.1987L5.84684 29.2049L10.8296 34.171C10.8297 34.1711 10.8298 34.1712 10.8299 34.1713C10.8327 34.1742 10.8358 34.1772 10.839 34.1804C10.9273 34.2692 11.1412 34.484 11.4577 34.5489C11.8339 34.6261 12.1959 34.4735 12.5247 34.1659L12.5308 34.1602L12.5367 34.1543L17.8569 28.8341H24.9998C25.7997 28.8341 26.3763 28.555 26.736 28.0865C27.0772 27.6421 27.1665 27.0999 27.1665 26.6674ZM30.9831 15.5008H31.1911L31.3377 15.3533L34.17 12.5043C34.1702 12.5041 34.1705 12.5039 34.1707 12.5037C34.1735 12.5009 34.1764 12.498 34.1795 12.4949C34.2682 12.4066 34.483 12.1927 34.5479 11.8762C34.6251 11.5 34.4726 11.138 34.1649 10.8092L34.159 10.8028L34.1528 10.7966L29.17 5.83056C29.1699 5.83042 29.1698 5.83029 29.1696 5.83015C29.1668 5.82731 29.1638 5.8243 29.1606 5.82113C29.0723 5.73238 28.8584 5.51756 28.5419 5.45264C28.1657 5.37546 27.8037 5.52801 27.4749 5.83564L27.4688 5.84133L27.4629 5.84722L23.8094 9.50078H18.3331C16.6373 9.50078 15.641 10.2302 15.0964 11.1186C14.5753 11.9688 14.4998 12.9088 14.4998 13.3341V18.3341C14.4998 18.7666 14.5891 19.3088 14.9303 19.7532C15.29 20.2217 15.8666 20.5008 16.6665 20.5008C17.4664 20.5008 18.043 20.2217 18.4026 19.7532C18.7439 19.3088 18.8331 18.7666 18.8331 18.3341V15.5008H30.9831Z" fill="#4BA25D" stroke="#37ED81"/>
</g>
</svg>
