<svg width="16" height="16" viewBox="0 0 16 16" fill="none" xmlns="http://www.w3.org/2000/svg">
<g id="arrow down">
<path id="Vector" d="M4.76758 14.068C4.60091 13.9013 4.51758 13.704 4.51758 13.476C4.51758 13.248 4.60091 13.0509 4.76758 12.8846L9.65091 8.0013L4.75091 3.1013C4.59536 2.94575 4.51758 2.7513 4.51758 2.51797C4.51758 2.28464 4.60091 2.08464 4.76758 1.91797C4.93424 1.7513 5.13158 1.66797 5.35958 1.66797C5.58758 1.66797 5.78469 1.7513 5.95091 1.91797L11.5509 7.53464C11.6176 7.6013 11.6649 7.67352 11.6929 7.7513C11.7209 7.82908 11.7347 7.91241 11.7342 8.0013C11.7342 8.09019 11.7202 8.17352 11.6922 8.2513C11.6642 8.32908 11.6171 8.4013 11.5509 8.46797L5.93424 14.0846C5.77869 14.2402 5.58691 14.318 5.35891 14.318C5.13091 14.318 4.9338 14.2346 4.76758 14.068Z" fill="black"/>
</g>
</svg>
