<svg width="460" height="440" viewBox="0 0 460 440" fill="none" xmlns="http://www.w3.org/2000/svg">
<path d="M10 430C173.395 418.262 417.692 319.278 450 10" stroke="url(#paint0_linear_3_19)" stroke-width="20" stroke-linecap="round"/>
<rect y="420" width="20" height="20" rx="10" fill="#E1FFE8"/>
<rect x="356" y="231" width="20" height="20" rx="10" fill="#37ED81"/>
<path d="M8.172 341.49V350.508C8.172 351.624 7.83 352.506 7.146 353.154C6.474 353.802 5.586 354.126 4.482 354.126C3.378 354.126 2.484 353.802 1.8 353.154C1.128 352.506 0.792 351.624 0.792 350.508H2.862C2.874 351.06 3.012 351.498 3.276 351.822C3.552 352.146 3.954 352.308 4.482 352.308C5.01 352.308 5.412 352.146 5.688 351.822C5.964 351.486 6.102 351.048 6.102 350.508V341.49H8.172ZM13.5622 345.522C13.8622 345.018 14.2582 344.628 14.7502 344.352C15.2542 344.064 15.8482 343.92 16.5322 343.92V346.044H16.0102C15.2062 346.044 14.5942 346.248 14.1742 346.656C13.7662 347.064 13.5622 347.772 13.5622 348.78V354H11.5102V344.082H13.5622V345.522ZM19.2464 354.126C18.8744 354.126 18.5624 354 18.3104 353.748C18.0584 353.496 17.9324 353.184 17.9324 352.812C17.9324 352.44 18.0584 352.128 18.3104 351.876C18.5624 351.624 18.8744 351.498 19.2464 351.498C19.6064 351.498 19.9124 351.624 20.1644 351.876C20.4164 352.128 20.5424 352.44 20.5424 352.812C20.5424 353.184 20.4164 353.496 20.1644 353.748C19.9124 354 19.6064 354.126 19.2464 354.126ZM26.8822 354.126C26.0422 354.126 25.2862 353.982 24.6142 353.694C23.9422 353.394 23.4142 352.974 23.0302 352.434C22.6462 351.894 22.4542 351.264 22.4542 350.544H24.6502C24.6982 351.084 24.9082 351.528 25.2802 351.876C25.6642 352.224 26.1982 352.398 26.8822 352.398C27.5902 352.398 28.1422 352.23 28.5382 351.894C28.9342 351.546 29.1322 351.102 29.1322 350.562C29.1322 350.142 29.0062 349.8 28.7542 349.536C28.5142 349.272 28.2082 349.068 27.8362 348.924C27.4762 348.78 26.9722 348.624 26.3242 348.456C25.5082 348.24 24.8422 348.024 24.3262 347.808C23.8222 347.58 23.3902 347.232 23.0302 346.764C22.6702 346.296 22.4902 345.672 22.4902 344.892C22.4902 344.172 22.6702 343.542 23.0302 343.002C23.3902 342.462 23.8942 342.048 24.5422 341.76C25.1902 341.472 25.9402 341.328 26.7922 341.328C28.0042 341.328 28.9942 341.634 29.7622 342.246C30.5422 342.846 30.9742 343.674 31.0582 344.73H28.7902C28.7542 344.274 28.5382 343.884 28.1422 343.56C27.7462 343.236 27.2242 343.074 26.5762 343.074C25.9882 343.074 25.5082 343.224 25.1362 343.524C24.7642 343.824 24.5782 344.256 24.5782 344.82C24.5782 345.204 24.6922 345.522 24.9202 345.774C25.1602 346.014 25.4602 346.206 25.8202 346.35C26.1802 346.494 26.6722 346.65 27.2962 346.818C28.1242 347.046 28.7962 347.274 29.3122 347.502C29.8402 347.73 30.2842 348.084 30.6442 348.564C31.0162 349.032 31.2022 349.662 31.2022 350.454C31.2022 351.09 31.0282 351.69 30.6802 352.254C30.3442 352.818 29.8462 353.274 29.1862 353.622C28.5382 353.958 27.7702 354.126 26.8822 354.126ZM37.9254 354.162C36.9894 354.162 36.1434 353.952 35.3874 353.532C34.6314 353.1 34.0374 352.5 33.6054 351.732C33.1734 350.952 32.9574 350.052 32.9574 349.032C32.9574 348.024 33.1794 347.13 33.6234 346.35C34.0674 345.57 34.6734 344.97 35.4414 344.55C36.2094 344.13 37.0674 343.92 38.0154 343.92C38.9634 343.92 39.8214 344.13 40.5894 344.55C41.3574 344.97 41.9634 345.57 42.4074 346.35C42.8514 347.13 43.0734 348.024 43.0734 349.032C43.0734 350.04 42.8454 350.934 42.3894 351.714C41.9334 352.494 41.3094 353.1 40.5174 353.532C39.7374 353.952 38.8734 354.162 37.9254 354.162ZM37.9254 352.38C38.4534 352.38 38.9454 352.254 39.4014 352.002C39.8694 351.75 40.2474 351.372 40.5354 350.868C40.8234 350.364 40.9674 349.752 40.9674 349.032C40.9674 348.312 40.8294 347.706 40.5534 347.214C40.2774 346.71 39.9114 346.332 39.4554 346.08C38.9994 345.828 38.5074 345.702 37.9794 345.702C37.4514 345.702 36.9594 345.828 36.5034 346.08C36.0594 346.332 35.7054 346.71 35.4414 347.214C35.1774 347.706 35.0454 348.312 35.0454 349.032C35.0454 350.1 35.3154 350.928 35.8554 351.516C36.4074 352.092 37.0974 352.38 37.9254 352.38ZM49.26 345.756H47.424V354H45.354V345.756H44.184V344.082H45.354V343.38C45.354 342.24 45.654 341.412 46.254 340.896C46.866 340.368 47.82 340.104 49.116 340.104V341.814C48.492 341.814 48.054 341.934 47.802 342.174C47.55 342.402 47.424 342.804 47.424 343.38V344.082H49.26V345.756ZM53.4725 345.756V351.246C53.4725 351.618 53.5565 351.888 53.7245 352.056C53.9045 352.212 54.2045 352.29 54.6245 352.29H55.8845V354H54.2645C53.3405 354 52.6325 353.784 52.1405 353.352C51.6485 352.92 51.4025 352.218 51.4025 351.246V345.756H50.2325V344.082H51.4025V341.616H53.4725V344.082H55.8845V345.756H53.4725ZM71.0958 344.082L68.0178 354H65.8578L63.8598 346.674L61.8618 354H59.7018L56.6058 344.082H58.6938L60.7638 352.056L62.8698 344.082H65.0118L67.0278 352.02L69.0798 344.082H71.0958ZM71.9453 348.996C71.9453 348 72.1493 347.118 72.5573 346.35C72.9773 345.582 73.5413 344.988 74.2493 344.568C74.9693 344.136 75.7613 343.92 76.6253 343.92C77.4053 343.92 78.0833 344.076 78.6593 344.388C79.2473 344.688 79.7153 345.066 80.0633 345.522V344.082H82.1333V354H80.0633V352.524C79.7153 352.992 79.2413 353.382 78.6413 353.694C78.0413 354.006 77.3573 354.162 76.5893 354.162C75.7373 354.162 74.9573 353.946 74.2493 353.514C73.5413 353.07 72.9773 352.458 72.5573 351.678C72.1493 350.886 71.9453 349.992 71.9453 348.996ZM80.0633 349.032C80.0633 348.348 79.9193 347.754 79.6313 347.25C79.3553 346.746 78.9893 346.362 78.5333 346.098C78.0773 345.834 77.5853 345.702 77.0573 345.702C76.5293 345.702 76.0373 345.834 75.5813 346.098C75.1253 346.35 74.7533 346.728 74.4653 347.232C74.1893 347.724 74.0513 348.312 74.0513 348.996C74.0513 349.68 74.1893 350.28 74.4653 350.796C74.7533 351.312 75.1253 351.708 75.5813 351.984C76.0493 352.248 76.5413 352.38 77.0573 352.38C77.5853 352.38 78.0773 352.248 78.5333 351.984C78.9893 351.72 79.3553 351.336 79.6313 350.832C79.9193 350.316 80.0633 349.716 80.0633 349.032ZM86.8805 345.522C87.1805 345.018 87.5765 344.628 88.0685 344.352C88.5725 344.064 89.1665 343.92 89.8505 343.92V346.044H89.3285C88.5245 346.044 87.9125 346.248 87.4925 346.656C87.0845 347.064 86.8805 347.772 86.8805 348.78V354H84.8285V344.082H86.8805V345.522ZM100.827 348.798C100.827 349.17 100.803 349.506 100.755 349.806H93.1767C93.2367 350.598 93.5307 351.234 94.0587 351.714C94.5867 352.194 95.2347 352.434 96.0027 352.434C97.1067 352.434 97.8867 351.972 98.3427 351.048H100.557C100.257 351.96 99.7107 352.71 98.9187 353.298C98.1387 353.874 97.1667 354.162 96.0027 354.162C95.0547 354.162 94.2027 353.952 93.4467 353.532C92.7027 353.1 92.1147 352.5 91.6827 351.732C91.2627 350.952 91.0527 350.052 91.0527 349.032C91.0527 348.012 91.2567 347.118 91.6647 346.35C92.0847 345.57 92.6667 344.97 93.4107 344.55C94.1667 344.13 95.0307 343.92 96.0027 343.92C96.9387 343.92 97.7727 344.124 98.5047 344.532C99.2367 344.94 99.8067 345.516 100.215 346.26C100.623 346.992 100.827 347.838 100.827 348.798ZM98.6847 348.15C98.6727 347.394 98.4027 346.788 97.8747 346.332C97.3467 345.876 96.6927 345.648 95.9127 345.648C95.2047 345.648 94.5987 345.876 94.0947 346.332C93.5907 346.776 93.2907 347.382 93.1947 348.15H98.6847ZM111.608 341.49C112.94 341.49 114.104 341.748 115.1 342.264C116.108 342.768 116.882 343.5 117.422 344.46C117.974 345.408 118.25 346.518 118.25 347.79C118.25 349.062 117.974 350.166 117.422 351.102C116.882 352.038 116.108 352.758 115.1 353.262C114.104 353.754 112.94 354 111.608 354H107.522V341.49H111.608ZM111.608 352.326C113.072 352.326 114.194 351.93 114.974 351.138C115.754 350.346 116.144 349.23 116.144 347.79C116.144 346.338 115.754 345.204 114.974 344.388C114.194 343.572 113.072 343.164 111.608 343.164H109.574V352.326H111.608ZM129.374 348.798C129.374 349.17 129.35 349.506 129.302 349.806H121.724C121.784 350.598 122.078 351.234 122.606 351.714C123.134 352.194 123.782 352.434 124.55 352.434C125.654 352.434 126.434 351.972 126.89 351.048H129.104C128.804 351.96 128.258 352.71 127.466 353.298C126.686 353.874 125.714 354.162 124.55 354.162C123.602 354.162 122.75 353.952 121.994 353.532C121.25 353.1 120.662 352.5 120.23 351.732C119.81 350.952 119.6 350.052 119.6 349.032C119.6 348.012 119.804 347.118 120.212 346.35C120.632 345.57 121.214 344.97 121.958 344.55C122.714 344.13 123.578 343.92 124.55 343.92C125.486 343.92 126.32 344.124 127.052 344.532C127.784 344.94 128.354 345.516 128.762 346.26C129.17 346.992 129.374 347.838 129.374 348.798ZM127.232 348.15C127.22 347.394 126.95 346.788 126.422 346.332C125.894 345.876 125.24 345.648 124.46 345.648C123.752 345.648 123.146 345.876 122.642 346.332C122.138 346.776 121.838 347.382 121.742 348.15H127.232ZM135.227 352.164L138.035 344.082H140.213L136.433 354H133.985L130.223 344.082H132.419L135.227 352.164ZM150.854 348.798C150.854 349.17 150.83 349.506 150.782 349.806H143.204C143.264 350.598 143.558 351.234 144.086 351.714C144.614 352.194 145.262 352.434 146.03 352.434C147.134 352.434 147.914 351.972 148.37 351.048H150.584C150.284 351.96 149.738 352.71 148.946 353.298C148.166 353.874 147.194 354.162 146.03 354.162C145.082 354.162 144.23 353.952 143.474 353.532C142.73 353.1 142.142 352.5 141.71 351.732C141.29 350.952 141.08 350.052 141.08 349.032C141.08 348.012 141.284 347.118 141.692 346.35C142.112 345.57 142.694 344.97 143.438 344.55C144.194 344.13 145.058 343.92 146.03 343.92C146.966 343.92 147.8 344.124 148.532 344.532C149.264 344.94 149.834 345.516 150.242 346.26C150.65 346.992 150.854 347.838 150.854 348.798ZM148.712 348.15C148.7 347.394 148.43 346.788 147.902 346.332C147.374 345.876 146.72 345.648 145.94 345.648C145.232 345.648 144.626 345.876 144.122 346.332C143.618 346.776 143.318 347.382 143.222 348.15H148.712ZM154.925 340.68V354H152.873V340.68H154.925ZM161.922 354.162C160.986 354.162 160.14 353.952 159.384 353.532C158.628 353.1 158.034 352.5 157.602 351.732C157.17 350.952 156.954 350.052 156.954 349.032C156.954 348.024 157.176 347.13 157.62 346.35C158.064 345.57 158.67 344.97 159.438 344.55C160.206 344.13 161.064 343.92 162.012 343.92C162.96 343.92 163.818 344.13 164.586 344.55C165.354 344.97 165.96 345.57 166.404 346.35C166.848 347.13 167.07 348.024 167.07 349.032C167.07 350.04 166.842 350.934 166.386 351.714C165.93 352.494 165.306 353.1 164.514 353.532C163.734 353.952 162.87 354.162 161.922 354.162ZM161.922 352.38C162.45 352.38 162.942 352.254 163.398 352.002C163.866 351.75 164.244 351.372 164.532 350.868C164.82 350.364 164.964 349.752 164.964 349.032C164.964 348.312 164.826 347.706 164.55 347.214C164.274 346.71 163.908 346.332 163.452 346.08C162.996 345.828 162.504 345.702 161.976 345.702C161.448 345.702 160.956 345.828 160.5 346.08C160.056 346.332 159.702 346.71 159.438 347.214C159.174 347.706 159.042 348.312 159.042 349.032C159.042 350.1 159.312 350.928 159.852 351.516C160.404 352.092 161.094 352.38 161.922 352.38ZM171.15 345.54C171.498 345.084 171.972 344.7 172.572 344.388C173.172 344.076 173.85 343.92 174.606 343.92C175.47 343.92 176.256 344.136 176.964 344.568C177.684 344.988 178.248 345.582 178.656 346.35C179.064 347.118 179.268 348 179.268 348.996C179.268 349.992 179.064 350.886 178.656 351.678C178.248 352.458 177.684 353.07 176.964 353.514C176.256 353.946 175.47 354.162 174.606 354.162C173.85 354.162 173.178 354.012 172.59 353.712C172.002 353.4 171.522 353.016 171.15 352.56V358.716H169.098V344.082H171.15V345.54ZM177.18 348.996C177.18 348.312 177.036 347.724 176.748 347.232C176.472 346.728 176.1 346.35 175.632 346.098C175.176 345.834 174.684 345.702 174.156 345.702C173.64 345.702 173.148 345.834 172.68 346.098C172.224 346.362 171.852 346.746 171.564 347.25C171.288 347.754 171.15 348.348 171.15 349.032C171.15 349.716 171.288 350.316 171.564 350.832C171.852 351.336 172.224 351.72 172.68 351.984C173.148 352.248 173.64 352.38 174.156 352.38C174.684 352.38 175.176 352.248 175.632 351.984C176.1 351.708 176.472 351.312 176.748 350.796C177.036 350.28 177.18 349.68 177.18 348.996ZM190.387 348.798C190.387 349.17 190.363 349.506 190.315 349.806H182.737C182.797 350.598 183.091 351.234 183.619 351.714C184.147 352.194 184.795 352.434 185.563 352.434C186.667 352.434 187.447 351.972 187.903 351.048H190.117C189.817 351.96 189.271 352.71 188.479 353.298C187.699 353.874 186.727 354.162 185.563 354.162C184.615 354.162 183.763 353.952 183.007 353.532C182.263 353.1 181.675 352.5 181.243 351.732C180.823 350.952 180.613 350.052 180.613 349.032C180.613 348.012 180.817 347.118 181.225 346.35C181.645 345.57 182.227 344.97 182.971 344.55C183.727 344.13 184.591 343.92 185.563 343.92C186.499 343.92 187.333 344.124 188.065 344.532C188.797 344.94 189.367 345.516 189.775 346.26C190.183 346.992 190.387 347.838 190.387 348.798ZM188.245 348.15C188.233 347.394 187.963 346.788 187.435 346.332C186.907 345.876 186.253 345.648 185.473 345.648C184.765 345.648 184.159 345.876 183.655 346.332C183.151 346.776 182.851 347.382 182.755 348.15H188.245ZM194.459 345.522C194.759 345.018 195.155 344.628 195.647 344.352C196.151 344.064 196.745 343.92 197.429 343.92V346.044H196.907C196.103 346.044 195.491 346.248 195.071 346.656C194.663 347.064 194.459 347.772 194.459 348.78V354H192.407V344.082H194.459V345.522Z" fill="white"/>
<path d="M9.38352 371.054L8.93608 372.633H0.556108L1.00355 371.054H9.38352ZM5.3054 381L0.728693 375.445L0.715909 374.199H2.98509C3.55185 374.199 4.03125 374.112 4.4233 373.937C4.81534 373.762 5.11364 373.509 5.31818 373.176C5.52273 372.839 5.625 372.43 5.625 371.949C5.625 371.233 5.41193 370.664 4.9858 370.242C4.55966 369.82 3.89276 369.609 2.98509 369.609H0.556108L1.02273 367.909H2.98509C4.0419 367.909 4.91335 368.077 5.59943 368.414C6.28551 368.751 6.79688 369.217 7.13352 369.814C7.47017 370.411 7.63849 371.099 7.63849 371.879C7.63849 372.573 7.5 373.202 7.22301 373.764C6.94602 374.327 6.50497 374.785 5.89986 375.138C5.29474 375.492 4.5 375.699 3.51562 375.759L3.4581 375.771L7.63849 380.891V381H5.3054ZM9.38991 367.909L8.93608 369.501L2.23722 369.462L2.69105 367.909H9.38991ZM23.8101 369.462L18.8061 381H16.7361L21.7941 369.678H15.1341V367.932H23.8101V369.462ZM28.0863 378.534L25.9083 383.502H24.5763L25.8543 378.534H28.0863ZM38.0693 369.642H32.0393V373.224C32.2913 372.888 32.6633 372.606 33.1553 372.378C33.6593 372.15 34.1933 372.036 34.7573 372.036C35.7653 372.036 36.5813 372.252 37.2053 372.684C37.8413 373.116 38.2913 373.662 38.5553 374.322C38.8313 374.982 38.9693 375.678 38.9693 376.41C38.9693 377.298 38.7953 378.09 38.4473 378.786C38.1113 379.47 37.6013 380.01 36.9173 380.406C36.2453 380.802 35.4173 381 34.4333 381C33.1253 381 32.0753 380.676 31.2833 380.028C30.4913 379.38 30.0173 378.522 29.8613 377.454H31.8593C31.9913 378.018 32.2853 378.468 32.7413 378.804C33.1973 379.128 33.7673 379.29 34.4513 379.29C35.3033 379.29 35.9393 379.032 36.3593 378.516C36.7913 378 37.0073 377.316 37.0073 376.464C37.0073 375.6 36.7913 374.94 36.3593 374.484C35.9273 374.016 35.2913 373.782 34.4513 373.782C33.8633 373.782 33.3653 373.932 32.9573 374.232C32.5613 374.52 32.2733 374.916 32.0933 375.42H30.1493V367.842H38.0693V369.642ZM41.1054 374.268C41.1054 372.192 41.4534 370.572 42.1494 369.408C42.8574 368.232 44.0694 367.644 45.7854 367.644C47.5014 367.644 48.7074 368.232 49.4034 369.408C50.1114 370.572 50.4654 372.192 50.4654 374.268C50.4654 376.368 50.1114 378.012 49.4034 379.2C48.7074 380.376 47.5014 380.964 45.7854 380.964C44.0694 380.964 42.8574 380.376 42.1494 379.2C41.4534 378.012 41.1054 376.368 41.1054 374.268ZM48.4494 374.268C48.4494 373.296 48.3834 372.474 48.2514 371.802C48.1314 371.13 47.8794 370.584 47.4954 370.164C47.1114 369.732 46.5414 369.516 45.7854 369.516C45.0294 369.516 44.4594 369.732 44.0754 370.164C43.6914 370.584 43.4334 371.13 43.3014 371.802C43.1814 372.474 43.1214 373.296 43.1214 374.268C43.1214 375.276 43.1814 376.122 43.3014 376.806C43.4214 377.49 43.6734 378.042 44.0574 378.462C44.4534 378.882 45.0294 379.092 45.7854 379.092C46.5414 379.092 47.1114 378.882 47.4954 378.462C47.8914 378.042 48.1494 377.49 48.2694 376.806C48.3894 376.122 48.4494 375.276 48.4494 374.268ZM55.1566 378.534L52.9786 383.502H51.6466L52.9246 378.534H55.1566ZM56.6796 374.268C56.6796 372.192 57.0276 370.572 57.7236 369.408C58.4316 368.232 59.6436 367.644 61.3596 367.644C63.0756 367.644 64.2816 368.232 64.9776 369.408C65.6856 370.572 66.0396 372.192 66.0396 374.268C66.0396 376.368 65.6856 378.012 64.9776 379.2C64.2816 380.376 63.0756 380.964 61.3596 380.964C59.6436 380.964 58.4316 380.376 57.7236 379.2C57.0276 378.012 56.6796 376.368 56.6796 374.268ZM64.0236 374.268C64.0236 373.296 63.9576 372.474 63.8256 371.802C63.7056 371.13 63.4536 370.584 63.0696 370.164C62.6856 369.732 62.1156 369.516 61.3596 369.516C60.6036 369.516 60.0336 369.732 59.6496 370.164C59.2656 370.584 59.0076 371.13 58.8756 371.802C58.7556 372.474 58.6956 373.296 58.6956 374.268C58.6956 375.276 58.7556 376.122 58.8756 376.806C58.9956 377.49 59.2476 378.042 59.6316 378.462C60.0276 378.882 60.6036 379.092 61.3596 379.092C62.1156 379.092 62.6856 378.882 63.0696 378.462C63.4656 378.042 63.7236 377.49 63.8436 376.806C63.9636 376.122 64.0236 375.276 64.0236 374.268ZM68.2109 374.268C68.2109 372.192 68.5589 370.572 69.2549 369.408C69.9629 368.232 71.1749 367.644 72.8909 367.644C74.6069 367.644 75.8129 368.232 76.5089 369.408C77.2169 370.572 77.5709 372.192 77.5709 374.268C77.5709 376.368 77.2169 378.012 76.5089 379.2C75.8129 380.376 74.6069 380.964 72.8909 380.964C71.1749 380.964 69.9629 380.376 69.2549 379.2C68.5589 378.012 68.2109 376.368 68.2109 374.268ZM75.5549 374.268C75.5549 373.296 75.4889 372.474 75.3569 371.802C75.2369 371.13 74.9849 370.584 74.6009 370.164C74.2169 369.732 73.6469 369.516 72.8909 369.516C72.1349 369.516 71.5649 369.732 71.1809 370.164C70.7969 370.584 70.5389 371.13 70.4069 371.802C70.2869 372.474 70.2269 373.296 70.2269 374.268C70.2269 375.276 70.2869 376.122 70.4069 376.806C70.5269 377.49 70.7789 378.042 71.1629 378.462C71.5589 378.882 72.1349 379.092 72.8909 379.092C73.6469 379.092 74.2169 378.882 74.6009 378.462C74.9969 378.042 75.2549 377.49 75.3749 376.806C75.4949 376.122 75.5549 375.276 75.5549 374.268ZM79.7421 374.268C79.7421 372.192 80.0901 370.572 80.7861 369.408C81.4941 368.232 82.7061 367.644 84.4221 367.644C86.1381 367.644 87.3441 368.232 88.0401 369.408C88.7481 370.572 89.1021 372.192 89.1021 374.268C89.1021 376.368 88.7481 378.012 88.0401 379.2C87.3441 380.376 86.1381 380.964 84.4221 380.964C82.7061 380.964 81.4941 380.376 80.7861 379.2C80.0901 378.012 79.7421 376.368 79.7421 374.268ZM87.0861 374.268C87.0861 373.296 87.0201 372.474 86.8881 371.802C86.7681 371.13 86.5161 370.584 86.1321 370.164C85.7481 369.732 85.1781 369.516 84.4221 369.516C83.6661 369.516 83.0961 369.732 82.7121 370.164C82.3281 370.584 82.0701 371.13 81.9381 371.802C81.8181 372.474 81.7581 373.296 81.7581 374.268C81.7581 375.276 81.8181 376.122 81.9381 376.806C82.0581 377.49 82.3101 378.042 82.6941 378.462C83.0901 378.882 83.6661 379.092 84.4221 379.092C85.1781 379.092 85.7481 378.882 86.1321 378.462C86.5281 378.042 86.7861 377.49 86.9061 376.806C87.0261 376.122 87.0861 375.276 87.0861 374.268Z" fill="#37ED81"/>
<path d="M253.472 222.126C252.632 222.126 251.876 221.982 251.204 221.694C250.532 221.394 250.004 220.974 249.62 220.434C249.236 219.894 249.044 219.264 249.044 218.544H251.24C251.288 219.084 251.498 219.528 251.87 219.876C252.254 220.224 252.788 220.398 253.472 220.398C254.18 220.398 254.732 220.23 255.128 219.894C255.524 219.546 255.722 219.102 255.722 218.562C255.722 218.142 255.596 217.8 255.344 217.536C255.104 217.272 254.798 217.068 254.426 216.924C254.066 216.78 253.562 216.624 252.914 216.456C252.098 216.24 251.432 216.024 250.916 215.808C250.412 215.58 249.98 215.232 249.62 214.764C249.26 214.296 249.08 213.672 249.08 212.892C249.08 212.172 249.26 211.542 249.62 211.002C249.98 210.462 250.484 210.048 251.132 209.76C251.78 209.472 252.53 209.328 253.382 209.328C254.594 209.328 255.584 209.634 256.352 210.246C257.132 210.846 257.564 211.674 257.648 212.73H255.38C255.344 212.274 255.128 211.884 254.732 211.56C254.336 211.236 253.814 211.074 253.166 211.074C252.578 211.074 252.098 211.224 251.726 211.524C251.354 211.824 251.168 212.256 251.168 212.82C251.168 213.204 251.282 213.522 251.51 213.774C251.75 214.014 252.05 214.206 252.41 214.35C252.77 214.494 253.262 214.65 253.886 214.818C254.714 215.046 255.386 215.274 255.902 215.502C256.43 215.73 256.874 216.084 257.234 216.564C257.606 217.032 257.792 217.662 257.792 218.454C257.792 219.09 257.618 219.69 257.27 220.254C256.934 220.818 256.436 221.274 255.776 221.622C255.128 221.958 254.36 222.126 253.472 222.126ZM264.299 209.49C265.631 209.49 266.795 209.748 267.791 210.264C268.799 210.768 269.573 211.5 270.113 212.46C270.665 213.408 270.941 214.518 270.941 215.79C270.941 217.062 270.665 218.166 270.113 219.102C269.573 220.038 268.799 220.758 267.791 221.262C266.795 221.754 265.631 222 264.299 222H260.213V209.49H264.299ZM264.299 220.326C265.763 220.326 266.885 219.93 267.665 219.138C268.445 218.346 268.835 217.23 268.835 215.79C268.835 214.338 268.445 213.204 267.665 212.388C266.885 211.572 265.763 211.164 264.299 211.164H262.265V220.326H264.299ZM275.027 211.146V214.818H279.347V216.492H275.027V220.326H279.887V222H272.975V209.472H279.887V211.146H275.027ZM290.028 214.62V216.348H282.63V214.62H290.028ZM299.672 209.49V222H297.62V209.49H299.672Z" fill="white"/>
<path d="M257.384 239.054L256.936 240.633H248.556L249.004 239.054H257.384ZM253.305 249L248.729 243.445L248.716 242.199H250.985C251.552 242.199 252.031 242.112 252.423 241.937C252.815 241.762 253.114 241.509 253.318 241.176C253.523 240.839 253.625 240.43 253.625 239.949C253.625 239.233 253.412 238.664 252.986 238.242C252.56 237.82 251.893 237.609 250.985 237.609H248.556L249.023 235.909H250.985C252.042 235.909 252.913 236.077 253.599 236.414C254.286 236.751 254.797 237.217 255.134 237.814C255.47 238.411 255.638 239.099 255.638 239.879C255.638 240.573 255.5 241.202 255.223 241.764C254.946 242.327 254.505 242.785 253.9 243.138C253.295 243.492 252.5 243.699 251.516 243.759L251.458 243.771L255.638 248.891V249H253.305ZM257.39 235.909L256.936 237.501L250.237 237.462L250.691 235.909H257.39ZM263.224 237.75V235.878H266.968V249H264.898V237.75H263.224ZM269.517 237.75V235.878H273.261V249H271.191V237.75H269.517ZM278.6 246.534L276.422 251.502H275.09L276.368 246.534H278.6ZM280.123 242.268C280.123 240.192 280.471 238.572 281.167 237.408C281.875 236.232 283.087 235.644 284.803 235.644C286.519 235.644 287.725 236.232 288.421 237.408C289.129 238.572 289.483 240.192 289.483 242.268C289.483 244.368 289.129 246.012 288.421 247.2C287.725 248.376 286.519 248.964 284.803 248.964C283.087 248.964 281.875 248.376 281.167 247.2C280.471 246.012 280.123 244.368 280.123 242.268ZM287.467 242.268C287.467 241.296 287.401 240.474 287.269 239.802C287.149 239.13 286.897 238.584 286.513 238.164C286.129 237.732 285.559 237.516 284.803 237.516C284.047 237.516 283.477 237.732 283.093 238.164C282.709 238.584 282.451 239.13 282.319 239.802C282.199 240.474 282.139 241.296 282.139 242.268C282.139 243.276 282.199 244.122 282.319 244.806C282.439 245.49 282.691 246.042 283.075 246.462C283.471 246.882 284.047 247.092 284.803 247.092C285.559 247.092 286.129 246.882 286.513 246.462C286.909 246.042 287.167 245.49 287.287 244.806C287.407 244.122 287.467 243.276 287.467 242.268ZM291.654 242.268C291.654 240.192 292.002 238.572 292.698 237.408C293.406 236.232 294.618 235.644 296.334 235.644C298.05 235.644 299.256 236.232 299.952 237.408C300.66 238.572 301.014 240.192 301.014 242.268C301.014 244.368 300.66 246.012 299.952 247.2C299.256 248.376 298.05 248.964 296.334 248.964C294.618 248.964 293.406 248.376 292.698 247.2C292.002 246.012 291.654 244.368 291.654 242.268ZM298.998 242.268C298.998 241.296 298.932 240.474 298.8 239.802C298.68 239.13 298.428 238.584 298.044 238.164C297.66 237.732 297.09 237.516 296.334 237.516C295.578 237.516 295.008 237.732 294.624 238.164C294.24 238.584 293.982 239.13 293.85 239.802C293.73 240.474 293.67 241.296 293.67 242.268C293.67 243.276 293.73 244.122 293.85 244.806C293.97 245.49 294.222 246.042 294.606 246.462C295.002 246.882 295.578 247.092 296.334 247.092C297.09 247.092 297.66 246.882 298.044 246.462C298.44 246.042 298.698 245.49 298.818 244.806C298.938 244.122 298.998 243.276 298.998 242.268ZM305.705 246.534L303.527 251.502H302.195L303.473 246.534H305.705ZM307.228 242.268C307.228 240.192 307.576 238.572 308.272 237.408C308.98 236.232 310.192 235.644 311.908 235.644C313.624 235.644 314.83 236.232 315.526 237.408C316.234 238.572 316.588 240.192 316.588 242.268C316.588 244.368 316.234 246.012 315.526 247.2C314.83 248.376 313.624 248.964 311.908 248.964C310.192 248.964 308.98 248.376 308.272 247.2C307.576 246.012 307.228 244.368 307.228 242.268ZM314.572 242.268C314.572 241.296 314.506 240.474 314.374 239.802C314.254 239.13 314.002 238.584 313.618 238.164C313.234 237.732 312.664 237.516 311.908 237.516C311.152 237.516 310.582 237.732 310.198 238.164C309.814 238.584 309.556 239.13 309.424 239.802C309.304 240.474 309.244 241.296 309.244 242.268C309.244 243.276 309.304 244.122 309.424 244.806C309.544 245.49 309.796 246.042 310.18 246.462C310.576 246.882 311.152 247.092 311.908 247.092C312.664 247.092 313.234 246.882 313.618 246.462C314.014 246.042 314.272 245.49 314.392 244.806C314.512 244.122 314.572 243.276 314.572 242.268ZM318.76 242.268C318.76 240.192 319.108 238.572 319.804 237.408C320.512 236.232 321.724 235.644 323.44 235.644C325.156 235.644 326.362 236.232 327.058 237.408C327.766 238.572 328.12 240.192 328.12 242.268C328.12 244.368 327.766 246.012 327.058 247.2C326.362 248.376 325.156 248.964 323.44 248.964C321.724 248.964 320.512 248.376 319.804 247.2C319.108 246.012 318.76 244.368 318.76 242.268ZM326.104 242.268C326.104 241.296 326.038 240.474 325.906 239.802C325.786 239.13 325.534 238.584 325.15 238.164C324.766 237.732 324.196 237.516 323.44 237.516C322.684 237.516 322.114 237.732 321.73 238.164C321.346 238.584 321.088 239.13 320.956 239.802C320.836 240.474 320.776 241.296 320.776 242.268C320.776 243.276 320.836 244.122 320.956 244.806C321.076 245.49 321.328 246.042 321.712 246.462C322.108 246.882 322.684 247.092 323.44 247.092C324.196 247.092 324.766 246.882 325.15 246.462C325.546 246.042 325.804 245.49 325.924 244.806C326.044 244.122 326.104 243.276 326.104 242.268ZM330.291 242.268C330.291 240.192 330.639 238.572 331.335 237.408C332.043 236.232 333.255 235.644 334.971 235.644C336.687 235.644 337.893 236.232 338.589 237.408C339.297 238.572 339.651 240.192 339.651 242.268C339.651 244.368 339.297 246.012 338.589 247.2C337.893 248.376 336.687 248.964 334.971 248.964C333.255 248.964 332.043 248.376 331.335 247.2C330.639 246.012 330.291 244.368 330.291 242.268ZM337.635 242.268C337.635 241.296 337.569 240.474 337.437 239.802C337.317 239.13 337.065 238.584 336.681 238.164C336.297 237.732 335.727 237.516 334.971 237.516C334.215 237.516 333.645 237.732 333.261 238.164C332.877 238.584 332.619 239.13 332.487 239.802C332.367 240.474 332.307 241.296 332.307 242.268C332.307 243.276 332.367 244.122 332.487 244.806C332.607 245.49 332.859 246.042 333.243 246.462C333.639 246.882 334.215 247.092 334.971 247.092C335.727 247.092 336.297 246.882 336.681 246.462C337.077 246.042 337.335 245.49 337.455 244.806C337.575 244.122 337.635 243.276 337.635 242.268Z" fill="#37ED81"/>
<path d="M323.472 81.126C322.632 81.126 321.876 80.982 321.204 80.694C320.532 80.394 320.004 79.974 319.62 79.434C319.236 78.894 319.044 78.264 319.044 77.544H321.24C321.288 78.084 321.498 78.528 321.87 78.876C322.254 79.224 322.788 79.398 323.472 79.398C324.18 79.398 324.732 79.23 325.128 78.894C325.524 78.546 325.722 78.102 325.722 77.562C325.722 77.142 325.596 76.8 325.344 76.536C325.104 76.272 324.798 76.068 324.426 75.924C324.066 75.78 323.562 75.624 322.914 75.456C322.098 75.24 321.432 75.024 320.916 74.808C320.412 74.58 319.98 74.232 319.62 73.764C319.26 73.296 319.08 72.672 319.08 71.892C319.08 71.172 319.26 70.542 319.62 70.002C319.98 69.462 320.484 69.048 321.132 68.76C321.78 68.472 322.53 68.328 323.382 68.328C324.594 68.328 325.584 68.634 326.352 69.246C327.132 69.846 327.564 70.674 327.648 71.73H325.38C325.344 71.274 325.128 70.884 324.732 70.56C324.336 70.236 323.814 70.074 323.166 70.074C322.578 70.074 322.098 70.224 321.726 70.524C321.354 70.824 321.168 71.256 321.168 71.82C321.168 72.204 321.282 72.522 321.51 72.774C321.75 73.014 322.05 73.206 322.41 73.35C322.77 73.494 323.262 73.65 323.886 73.818C324.714 74.046 325.386 74.274 325.902 74.502C326.43 74.73 326.874 75.084 327.234 75.564C327.606 76.032 327.792 76.662 327.792 77.454C327.792 78.09 327.618 78.69 327.27 79.254C326.934 79.818 326.436 80.274 325.776 80.622C325.128 80.958 324.36 81.126 323.472 81.126ZM334.299 68.49C335.631 68.49 336.795 68.748 337.791 69.264C338.799 69.768 339.573 70.5 340.113 71.46C340.665 72.408 340.941 73.518 340.941 74.79C340.941 76.062 340.665 77.166 340.113 78.102C339.573 79.038 338.799 79.758 337.791 80.262C336.795 80.754 335.631 81 334.299 81H330.213V68.49H334.299ZM334.299 79.326C335.763 79.326 336.885 78.93 337.665 78.138C338.445 77.346 338.835 76.23 338.835 74.79C338.835 73.338 338.445 72.204 337.665 71.388C336.885 70.572 335.763 70.164 334.299 70.164H332.265V79.326H334.299ZM345.027 70.146V73.818H349.347V75.492H345.027V79.326H349.887V81H342.975V68.472H349.887V70.146H345.027ZM360.028 73.62V75.348H352.63V73.62H360.028ZM369.672 68.49V81H367.62V68.49H369.672ZM374.418 68.49V81H372.366V68.49H374.418Z" fill="white"/>
<path d="M327.384 98.054L326.936 99.6328H318.556L319.004 98.054H327.384ZM323.305 108L318.729 102.445L318.716 101.199H320.985C321.552 101.199 322.031 101.112 322.423 100.937C322.815 100.762 323.114 100.509 323.318 100.176C323.523 99.8395 323.625 99.4304 323.625 98.9489C323.625 98.233 323.412 97.6641 322.986 97.2422C322.56 96.8203 321.893 96.6094 320.985 96.6094H318.556L319.023 94.9091H320.985C322.042 94.9091 322.913 95.0774 323.599 95.4141C324.286 95.7507 324.797 96.2173 325.134 96.8139C325.47 97.4105 325.638 98.0987 325.638 98.8786C325.638 99.5732 325.5 100.202 325.223 100.764C324.946 101.327 324.505 101.785 323.9 102.138C323.295 102.492 322.5 102.699 321.516 102.759L321.458 102.771L325.638 107.891V108H323.305ZM327.39 94.9091L326.936 96.5007L320.237 96.4624L320.691 94.9091H327.39ZM333.224 96.75V94.878H336.968V108H334.898V96.75H333.224ZM348.247 96.642H342.217V100.224C342.469 99.888 342.841 99.606 343.333 99.378C343.837 99.15 344.371 99.036 344.935 99.036C345.943 99.036 346.759 99.252 347.383 99.684C348.019 100.116 348.469 100.662 348.733 101.322C349.009 101.982 349.147 102.678 349.147 103.41C349.147 104.298 348.973 105.09 348.625 105.786C348.289 106.47 347.779 107.01 347.095 107.406C346.423 107.802 345.595 108 344.611 108C343.303 108 342.253 107.676 341.461 107.028C340.669 106.38 340.195 105.522 340.039 104.454H342.037C342.169 105.018 342.463 105.468 342.919 105.804C343.375 106.128 343.945 106.29 344.629 106.29C345.481 106.29 346.117 106.032 346.537 105.516C346.969 105 347.185 104.316 347.185 103.464C347.185 102.6 346.969 101.94 346.537 101.484C346.105 101.016 345.469 100.782 344.629 100.782C344.041 100.782 343.543 100.932 343.135 101.232C342.739 101.52 342.451 101.916 342.271 102.42H340.327V94.842H348.247V96.642ZM353.803 105.534L351.625 110.502H350.293L351.571 105.534H353.803ZM355.326 101.268C355.326 99.192 355.674 97.572 356.37 96.408C357.078 95.232 358.29 94.644 360.006 94.644C361.722 94.644 362.928 95.232 363.624 96.408C364.332 97.572 364.686 99.192 364.686 101.268C364.686 103.368 364.332 105.012 363.624 106.2C362.928 107.376 361.722 107.964 360.006 107.964C358.29 107.964 357.078 107.376 356.37 106.2C355.674 105.012 355.326 103.368 355.326 101.268ZM362.67 101.268C362.67 100.296 362.604 99.474 362.472 98.802C362.352 98.13 362.1 97.584 361.716 97.164C361.332 96.732 360.762 96.516 360.006 96.516C359.25 96.516 358.68 96.732 358.296 97.164C357.912 97.584 357.654 98.13 357.522 98.802C357.402 99.474 357.342 100.296 357.342 101.268C357.342 102.276 357.402 103.122 357.522 103.806C357.642 104.49 357.894 105.042 358.278 105.462C358.674 105.882 359.25 106.092 360.006 106.092C360.762 106.092 361.332 105.882 361.716 105.462C362.112 105.042 362.37 104.49 362.49 103.806C362.61 103.122 362.67 102.276 362.67 101.268ZM366.857 101.268C366.857 99.192 367.205 97.572 367.901 96.408C368.609 95.232 369.821 94.644 371.537 94.644C373.253 94.644 374.459 95.232 375.155 96.408C375.863 97.572 376.217 99.192 376.217 101.268C376.217 103.368 375.863 105.012 375.155 106.2C374.459 107.376 373.253 107.964 371.537 107.964C369.821 107.964 368.609 107.376 367.901 106.2C367.205 105.012 366.857 103.368 366.857 101.268ZM374.201 101.268C374.201 100.296 374.135 99.474 374.003 98.802C373.883 98.13 373.631 97.584 373.247 97.164C372.863 96.732 372.293 96.516 371.537 96.516C370.781 96.516 370.211 96.732 369.827 97.164C369.443 97.584 369.185 98.13 369.053 98.802C368.933 99.474 368.873 100.296 368.873 101.268C368.873 102.276 368.933 103.122 369.053 103.806C369.173 104.49 369.425 105.042 369.809 105.462C370.205 105.882 370.781 106.092 371.537 106.092C372.293 106.092 372.863 105.882 373.247 105.462C373.643 105.042 373.901 104.49 374.021 103.806C374.141 103.122 374.201 102.276 374.201 101.268ZM380.909 105.534L378.731 110.502H377.399L378.677 105.534H380.909ZM382.432 101.268C382.432 99.192 382.78 97.572 383.476 96.408C384.184 95.232 385.396 94.644 387.112 94.644C388.828 94.644 390.034 95.232 390.73 96.408C391.438 97.572 391.792 99.192 391.792 101.268C391.792 103.368 391.438 105.012 390.73 106.2C390.034 107.376 388.828 107.964 387.112 107.964C385.396 107.964 384.184 107.376 383.476 106.2C382.78 105.012 382.432 103.368 382.432 101.268ZM389.776 101.268C389.776 100.296 389.71 99.474 389.578 98.802C389.458 98.13 389.206 97.584 388.822 97.164C388.438 96.732 387.868 96.516 387.112 96.516C386.356 96.516 385.786 96.732 385.402 97.164C385.018 97.584 384.76 98.13 384.628 98.802C384.508 99.474 384.448 100.296 384.448 101.268C384.448 102.276 384.508 103.122 384.628 103.806C384.748 104.49 385 105.042 385.384 105.462C385.78 105.882 386.356 106.092 387.112 106.092C387.868 106.092 388.438 105.882 388.822 105.462C389.218 105.042 389.476 104.49 389.596 103.806C389.716 103.122 389.776 102.276 389.776 101.268ZM393.963 101.268C393.963 99.192 394.311 97.572 395.007 96.408C395.715 95.232 396.927 94.644 398.643 94.644C400.359 94.644 401.565 95.232 402.261 96.408C402.969 97.572 403.323 99.192 403.323 101.268C403.323 103.368 402.969 105.012 402.261 106.2C401.565 107.376 400.359 107.964 398.643 107.964C396.927 107.964 395.715 107.376 395.007 106.2C394.311 105.012 393.963 103.368 393.963 101.268ZM401.307 101.268C401.307 100.296 401.241 99.474 401.109 98.802C400.989 98.13 400.737 97.584 400.353 97.164C399.969 96.732 399.399 96.516 398.643 96.516C397.887 96.516 397.317 96.732 396.933 97.164C396.549 97.584 396.291 98.13 396.159 98.802C396.039 99.474 395.979 100.296 395.979 101.268C395.979 102.276 396.039 103.122 396.159 103.806C396.279 104.49 396.531 105.042 396.915 105.462C397.311 105.882 397.887 106.092 398.643 106.092C399.399 106.092 399.969 105.882 400.353 105.462C400.749 105.042 401.007 104.49 401.127 103.806C401.247 103.122 401.307 102.276 401.307 101.268ZM405.494 101.268C405.494 99.192 405.842 97.572 406.538 96.408C407.246 95.232 408.458 94.644 410.174 94.644C411.89 94.644 413.096 95.232 413.792 96.408C414.5 97.572 414.854 99.192 414.854 101.268C414.854 103.368 414.5 105.012 413.792 106.2C413.096 107.376 411.89 107.964 410.174 107.964C408.458 107.964 407.246 107.376 406.538 106.2C405.842 105.012 405.494 103.368 405.494 101.268ZM412.838 101.268C412.838 100.296 412.772 99.474 412.64 98.802C412.52 98.13 412.268 97.584 411.884 97.164C411.5 96.732 410.93 96.516 410.174 96.516C409.418 96.516 408.848 96.732 408.464 97.164C408.08 97.584 407.822 98.13 407.69 98.802C407.57 99.474 407.51 100.296 407.51 101.268C407.51 102.276 407.57 103.122 407.69 103.806C407.81 104.49 408.062 105.042 408.446 105.462C408.842 105.882 409.418 106.092 410.174 106.092C410.93 106.092 411.5 105.882 411.884 105.462C412.28 105.042 412.538 104.49 412.658 103.806C412.778 103.122 412.838 102.276 412.838 101.268Z" fill="#37ED81"/>
<rect x="422" y="92" width="20" height="20" rx="10" fill="#119045"/>
<defs>
<linearGradient id="paint0_linear_3_19" x1="-1.282" y1="373.582" x2="376.262" y2="-60.9981" gradientUnits="userSpaceOnUse">
<stop stop-color="#37ED81"/>
<stop offset="1" stop-color="#37ED81" stop-opacity="0"/>
</linearGradient>
</defs>
</svg>
