<svg width="460" height="440" viewBox="0 0 460 440" fill="none" xmlns="http://www.w3.org/2000/svg">
<path d="M10 430C173.395 418.262 417.692 319.278 450 10" stroke="url(#paint0_linear_13_30)" stroke-width="20" stroke-linecap="round"/>
<rect y="420" width="20" height="20" rx="10" fill="#E1FFE8"/>
<rect x="356" y="231" width="20" height="20" rx="10" fill="#37ED81"/>
<path d="M8.172 341.49V350.508C8.172 351.624 7.83 352.506 7.146 353.154C6.474 353.802 5.586 354.126 4.482 354.126C3.378 354.126 2.484 353.802 1.8 353.154C1.128 352.506 0.792 351.624 0.792 350.508H2.862C2.874 351.06 3.012 351.498 3.276 351.822C3.552 352.146 3.954 352.308 4.482 352.308C5.01 352.308 5.412 352.146 5.688 351.822C5.964 351.486 6.102 351.048 6.102 350.508V341.49H8.172ZM13.5622 345.522C13.8622 345.018 14.2582 344.628 14.7502 344.352C15.2542 344.064 15.8482 343.92 16.5322 343.92V346.044H16.0102C15.2062 346.044 14.5942 346.248 14.1742 346.656C13.7662 347.064 13.5622 347.772 13.5622 348.78V354H11.5102V344.082H13.5622V345.522ZM19.2464 354.126C18.8744 354.126 18.5624 354 18.3104 353.748C18.0584 353.496 17.9324 353.184 17.9324 352.812C17.9324 352.44 18.0584 352.128 18.3104 351.876C18.5624 351.624 18.8744 351.498 19.2464 351.498C19.6064 351.498 19.9124 351.624 20.1644 351.876C20.4164 352.128 20.5424 352.44 20.5424 352.812C20.5424 353.184 20.4164 353.496 20.1644 353.748C19.9124 354 19.6064 354.126 19.2464 354.126ZM26.8462 341.49C28.1782 341.49 29.3422 341.748 30.3382 342.264C31.3462 342.768 32.1202 343.5 32.6602 344.46C33.2122 345.408 33.4882 346.518 33.4882 347.79C33.4882 349.062 33.2122 350.166 32.6602 351.102C32.1202 352.038 31.3462 352.758 30.3382 353.262C29.3422 353.754 28.1782 354 26.8462 354H22.7602V341.49H26.8462ZM26.8462 352.326C28.3102 352.326 29.4322 351.93 30.2122 351.138C30.9922 350.346 31.3822 349.23 31.3822 347.79C31.3822 346.338 30.9922 345.204 30.2122 344.388C29.4322 343.572 28.3102 343.164 26.8462 343.164H24.8122V352.326H26.8462ZM34.8379 348.996C34.8379 348 35.0419 347.118 35.4499 346.35C35.8699 345.582 36.4339 344.988 37.1419 344.568C37.8619 344.136 38.6539 343.92 39.5179 343.92C40.2979 343.92 40.9759 344.076 41.5519 344.388C42.1399 344.688 42.6079 345.066 42.9559 345.522V344.082H45.0259V354H42.9559V352.524C42.6079 352.992 42.1339 353.382 41.5339 353.694C40.9339 354.006 40.2499 354.162 39.4819 354.162C38.6299 354.162 37.8499 353.946 37.1419 353.514C36.4339 353.07 35.8699 352.458 35.4499 351.678C35.0419 350.886 34.8379 349.992 34.8379 348.996ZM42.9559 349.032C42.9559 348.348 42.8119 347.754 42.5239 347.25C42.2479 346.746 41.8819 346.362 41.4259 346.098C40.9699 345.834 40.4779 345.702 39.9499 345.702C39.4219 345.702 38.9299 345.834 38.4739 346.098C38.0179 346.35 37.6459 346.728 37.3579 347.232C37.0819 347.724 36.9439 348.312 36.9439 348.996C36.9439 349.68 37.0819 350.28 37.3579 350.796C37.6459 351.312 38.0179 351.708 38.4739 351.984C38.9419 352.248 39.4339 352.38 39.9499 352.38C40.4779 352.38 40.9699 352.248 41.4259 351.984C41.8819 351.72 42.2479 351.336 42.5239 350.832C42.8119 350.316 42.9559 349.716 42.9559 349.032ZM50.1151 345.756V351.246C50.1151 351.618 50.1991 351.888 50.3671 352.056C50.5471 352.212 50.8471 352.29 51.2671 352.29H52.5271V354H50.9071C49.9831 354 49.2751 353.784 48.7831 353.352C48.2911 352.92 48.0451 352.218 48.0451 351.246V345.756H46.8751V344.082H48.0451V341.616H50.1151V344.082H52.5271V345.756H50.1151ZM53.7344 348.996C53.7344 348 53.9384 347.118 54.3464 346.35C54.7664 345.582 55.3304 344.988 56.0384 344.568C56.7584 344.136 57.5504 343.92 58.4144 343.92C59.1944 343.92 59.8724 344.076 60.4484 344.388C61.0364 344.688 61.5044 345.066 61.8524 345.522V344.082H63.9224V354H61.8524V352.524C61.5044 352.992 61.0304 353.382 60.4304 353.694C59.8304 354.006 59.1464 354.162 58.3784 354.162C57.5264 354.162 56.7464 353.946 56.0384 353.514C55.3304 353.07 54.7664 352.458 54.3464 351.678C53.9384 350.886 53.7344 349.992 53.7344 348.996ZM61.8524 349.032C61.8524 348.348 61.7084 347.754 61.4204 347.25C61.1444 346.746 60.7784 346.362 60.3224 346.098C59.8664 345.834 59.3744 345.702 58.8464 345.702C58.3184 345.702 57.8264 345.834 57.3704 346.098C56.9144 346.35 56.5424 346.728 56.2544 347.232C55.9784 347.724 55.8404 348.312 55.8404 348.996C55.8404 349.68 55.9784 350.28 56.2544 350.796C56.5424 351.312 56.9144 351.708 57.3704 351.984C57.8384 352.248 58.3304 352.38 58.8464 352.38C59.3744 352.38 59.8664 352.248 60.3224 351.984C60.7784 351.72 61.1444 351.336 61.4204 350.832C61.7084 350.316 61.8524 349.716 61.8524 349.032ZM78.8354 351.444H73.5974L72.6974 354H70.5554L75.0374 341.472H77.4134L81.8954 354H79.7354L78.8354 351.444ZM78.2594 349.77L76.2254 343.956L74.1734 349.77H78.2594ZM88.8481 343.92C89.6281 343.92 90.3241 344.082 90.9361 344.406C91.5601 344.73 92.0461 345.21 92.3941 345.846C92.7421 346.482 92.9161 347.25 92.9161 348.15V354H90.8821V348.456C90.8821 347.568 90.6601 346.89 90.2161 346.422C89.7721 345.942 89.1661 345.702 88.3981 345.702C87.6301 345.702 87.0181 345.942 86.5621 346.422C86.1181 346.89 85.8961 347.568 85.8961 348.456V354H83.8441V344.082H85.8961V345.216C86.2321 344.808 86.6581 344.49 87.1741 344.262C87.7021 344.034 88.2601 343.92 88.8481 343.92ZM94.8496 348.996C94.8496 348 95.0536 347.118 95.4616 346.35C95.8816 345.582 96.4456 344.988 97.1536 344.568C97.8736 344.136 98.6656 343.92 99.5296 343.92C100.31 343.92 100.988 344.076 101.564 344.388C102.152 344.688 102.62 345.066 102.968 345.522V344.082H105.038V354H102.968V352.524C102.62 352.992 102.146 353.382 101.546 353.694C100.946 354.006 100.262 354.162 99.4936 354.162C98.6416 354.162 97.8616 353.946 97.1536 353.514C96.4456 353.07 95.8816 352.458 95.4616 351.678C95.0536 350.886 94.8496 349.992 94.8496 348.996ZM102.968 349.032C102.968 348.348 102.824 347.754 102.536 347.25C102.26 346.746 101.894 346.362 101.438 346.098C100.982 345.834 100.49 345.702 99.9616 345.702C99.4336 345.702 98.9416 345.834 98.4856 346.098C98.0296 346.35 97.6576 346.728 97.3696 347.232C97.0936 347.724 96.9556 348.312 96.9556 348.996C96.9556 349.68 97.0936 350.28 97.3696 350.796C97.6576 351.312 98.0296 351.708 98.4856 351.984C98.9536 352.248 99.4456 352.38 99.9616 352.38C100.49 352.38 100.982 352.248 101.438 351.984C101.894 351.72 102.26 351.336 102.536 350.832C102.824 350.316 102.968 349.716 102.968 349.032ZM109.785 340.68V354H107.733V340.68H109.785ZM121.407 344.082L115.323 358.662H113.199L115.215 353.838L111.309 344.082H113.595L116.385 351.642L119.283 344.082H121.407ZM126.555 354.162C125.775 354.162 125.073 354.024 124.449 353.748C123.837 353.46 123.351 353.076 122.991 352.596C122.631 352.104 122.439 351.558 122.415 350.958H124.539C124.575 351.378 124.773 351.732 125.133 352.02C125.505 352.296 125.967 352.434 126.519 352.434C127.095 352.434 127.539 352.326 127.851 352.11C128.175 351.882 128.337 351.594 128.337 351.246C128.337 350.874 128.157 350.598 127.797 350.418C127.449 350.238 126.891 350.04 126.123 349.824C125.379 349.62 124.773 349.422 124.305 349.23C123.837 349.038 123.429 348.744 123.081 348.348C122.745 347.952 122.577 347.43 122.577 346.782C122.577 346.254 122.733 345.774 123.045 345.342C123.357 344.898 123.801 344.55 124.377 344.298C124.965 344.046 125.637 343.92 126.393 343.92C127.521 343.92 128.427 344.208 129.111 344.784C129.807 345.348 130.179 346.122 130.227 347.106H128.175C128.139 346.662 127.959 346.308 127.635 346.044C127.311 345.78 126.873 345.648 126.321 345.648C125.781 345.648 125.367 345.75 125.079 345.954C124.791 346.158 124.647 346.428 124.647 346.764C124.647 347.028 124.743 347.25 124.935 347.43C125.127 347.61 125.361 347.754 125.637 347.862C125.913 347.958 126.321 348.084 126.861 348.24C127.581 348.432 128.169 348.63 128.625 348.834C129.093 349.026 129.495 349.314 129.831 349.698C130.167 350.082 130.341 350.592 130.353 351.228C130.353 351.792 130.197 352.296 129.885 352.74C129.573 353.184 129.129 353.532 128.553 353.784C127.989 354.036 127.323 354.162 126.555 354.162ZM134.965 345.756V351.246C134.965 351.618 135.049 351.888 135.217 352.056C135.397 352.212 135.697 352.29 136.117 352.29H137.377V354H135.757C134.833 354 134.125 353.784 133.633 353.352C133.141 352.92 132.895 352.218 132.895 351.246V345.756H131.725V344.082H132.895V341.616H134.965V344.082H137.377V345.756H134.965Z" fill="white"/>
<path d="M9.38352 371.054L8.93608 372.633H0.556108L1.00355 371.054H9.38352ZM5.3054 381L0.728693 375.445L0.715909 374.199H2.98509C3.55185 374.199 4.03125 374.112 4.4233 373.937C4.81534 373.762 5.11364 373.509 5.31818 373.176C5.52273 372.839 5.625 372.43 5.625 371.949C5.625 371.233 5.41193 370.664 4.9858 370.242C4.55966 369.82 3.89276 369.609 2.98509 369.609H0.556108L1.02273 367.909H2.98509C4.0419 367.909 4.91335 368.077 5.59943 368.414C6.28551 368.751 6.79688 369.217 7.13352 369.814C7.47017 370.411 7.63849 371.099 7.63849 371.879C7.63849 372.573 7.5 373.202 7.22301 373.764C6.94602 374.327 6.50497 374.785 5.89986 375.138C5.29474 375.492 4.5 375.699 3.51562 375.759L3.4581 375.771L7.63849 380.891V381H5.3054ZM9.38991 367.909L8.93608 369.501L2.23722 369.462L2.69105 367.909H9.38991ZM23.8101 369.462L18.8061 381H16.7361L21.7941 369.678H15.1341V367.932H23.8101V369.462ZM28.0863 378.534L25.9083 383.502H24.5763L25.8543 378.534H28.0863ZM38.0693 369.642H32.0393V373.224C32.2913 372.888 32.6633 372.606 33.1553 372.378C33.6593 372.15 34.1933 372.036 34.7573 372.036C35.7653 372.036 36.5813 372.252 37.2053 372.684C37.8413 373.116 38.2913 373.662 38.5553 374.322C38.8313 374.982 38.9693 375.678 38.9693 376.41C38.9693 377.298 38.7953 378.09 38.4473 378.786C38.1113 379.47 37.6013 380.01 36.9173 380.406C36.2453 380.802 35.4173 381 34.4333 381C33.1253 381 32.0753 380.676 31.2833 380.028C30.4913 379.38 30.0173 378.522 29.8613 377.454H31.8593C31.9913 378.018 32.2853 378.468 32.7413 378.804C33.1973 379.128 33.7673 379.29 34.4513 379.29C35.3033 379.29 35.9393 379.032 36.3593 378.516C36.7913 378 37.0073 377.316 37.0073 376.464C37.0073 375.6 36.7913 374.94 36.3593 374.484C35.9273 374.016 35.2913 373.782 34.4513 373.782C33.8633 373.782 33.3653 373.932 32.9573 374.232C32.5613 374.52 32.2733 374.916 32.0933 375.42H30.1493V367.842H38.0693V369.642ZM41.1054 374.268C41.1054 372.192 41.4534 370.572 42.1494 369.408C42.8574 368.232 44.0694 367.644 45.7854 367.644C47.5014 367.644 48.7074 368.232 49.4034 369.408C50.1114 370.572 50.4654 372.192 50.4654 374.268C50.4654 376.368 50.1114 378.012 49.4034 379.2C48.7074 380.376 47.5014 380.964 45.7854 380.964C44.0694 380.964 42.8574 380.376 42.1494 379.2C41.4534 378.012 41.1054 376.368 41.1054 374.268ZM48.4494 374.268C48.4494 373.296 48.3834 372.474 48.2514 371.802C48.1314 371.13 47.8794 370.584 47.4954 370.164C47.1114 369.732 46.5414 369.516 45.7854 369.516C45.0294 369.516 44.4594 369.732 44.0754 370.164C43.6914 370.584 43.4334 371.13 43.3014 371.802C43.1814 372.474 43.1214 373.296 43.1214 374.268C43.1214 375.276 43.1814 376.122 43.3014 376.806C43.4214 377.49 43.6734 378.042 44.0574 378.462C44.4534 378.882 45.0294 379.092 45.7854 379.092C46.5414 379.092 47.1114 378.882 47.4954 378.462C47.8914 378.042 48.1494 377.49 48.2694 376.806C48.3894 376.122 48.4494 375.276 48.4494 374.268ZM55.1566 378.534L52.9786 383.502H51.6466L52.9246 378.534H55.1566ZM56.6796 374.268C56.6796 372.192 57.0276 370.572 57.7236 369.408C58.4316 368.232 59.6436 367.644 61.3596 367.644C63.0756 367.644 64.2816 368.232 64.9776 369.408C65.6856 370.572 66.0396 372.192 66.0396 374.268C66.0396 376.368 65.6856 378.012 64.9776 379.2C64.2816 380.376 63.0756 380.964 61.3596 380.964C59.6436 380.964 58.4316 380.376 57.7236 379.2C57.0276 378.012 56.6796 376.368 56.6796 374.268ZM64.0236 374.268C64.0236 373.296 63.9576 372.474 63.8256 371.802C63.7056 371.13 63.4536 370.584 63.0696 370.164C62.6856 369.732 62.1156 369.516 61.3596 369.516C60.6036 369.516 60.0336 369.732 59.6496 370.164C59.2656 370.584 59.0076 371.13 58.8756 371.802C58.7556 372.474 58.6956 373.296 58.6956 374.268C58.6956 375.276 58.7556 376.122 58.8756 376.806C58.9956 377.49 59.2476 378.042 59.6316 378.462C60.0276 378.882 60.6036 379.092 61.3596 379.092C62.1156 379.092 62.6856 378.882 63.0696 378.462C63.4656 378.042 63.7236 377.49 63.8436 376.806C63.9636 376.122 64.0236 375.276 64.0236 374.268ZM68.2109 374.268C68.2109 372.192 68.5589 370.572 69.2549 369.408C69.9629 368.232 71.1749 367.644 72.8909 367.644C74.6069 367.644 75.8129 368.232 76.5089 369.408C77.2169 370.572 77.5709 372.192 77.5709 374.268C77.5709 376.368 77.2169 378.012 76.5089 379.2C75.8129 380.376 74.6069 380.964 72.8909 380.964C71.1749 380.964 69.9629 380.376 69.2549 379.2C68.5589 378.012 68.2109 376.368 68.2109 374.268ZM75.5549 374.268C75.5549 373.296 75.4889 372.474 75.3569 371.802C75.2369 371.13 74.9849 370.584 74.6009 370.164C74.2169 369.732 73.6469 369.516 72.8909 369.516C72.1349 369.516 71.5649 369.732 71.1809 370.164C70.7969 370.584 70.5389 371.13 70.4069 371.802C70.2869 372.474 70.2269 373.296 70.2269 374.268C70.2269 375.276 70.2869 376.122 70.4069 376.806C70.5269 377.49 70.7789 378.042 71.1629 378.462C71.5589 378.882 72.1349 379.092 72.8909 379.092C73.6469 379.092 74.2169 378.882 74.6009 378.462C74.9969 378.042 75.2549 377.49 75.3749 376.806C75.4949 376.122 75.5549 375.276 75.5549 374.268ZM79.7421 374.268C79.7421 372.192 80.0901 370.572 80.7861 369.408C81.4941 368.232 82.7061 367.644 84.4221 367.644C86.1381 367.644 87.3441 368.232 88.0401 369.408C88.7481 370.572 89.1021 372.192 89.1021 374.268C89.1021 376.368 88.7481 378.012 88.0401 379.2C87.3441 380.376 86.1381 380.964 84.4221 380.964C82.7061 380.964 81.4941 380.376 80.7861 379.2C80.0901 378.012 79.7421 376.368 79.7421 374.268ZM87.0861 374.268C87.0861 373.296 87.0201 372.474 86.8881 371.802C86.7681 371.13 86.5161 370.584 86.1321 370.164C85.7481 369.732 85.1781 369.516 84.4221 369.516C83.6661 369.516 83.0961 369.732 82.7121 370.164C82.3281 370.584 82.0701 371.13 81.9381 371.802C81.8181 372.474 81.7581 373.296 81.7581 374.268C81.7581 375.276 81.8181 376.122 81.9381 376.806C82.0581 377.49 82.3101 378.042 82.6941 378.462C83.0901 378.882 83.6661 379.092 84.4221 379.092C85.1781 379.092 85.7481 378.882 86.1321 378.462C86.5281 378.042 86.7861 377.49 86.9061 376.806C87.0261 376.122 87.0861 375.276 87.0861 374.268Z" fill="#37ED81"/>
<path d="M219.769 209.49C221.101 209.49 222.265 209.748 223.261 210.264C224.269 210.768 225.043 211.5 225.583 212.46C226.135 213.408 226.411 214.518 226.411 215.79C226.411 217.062 226.135 218.166 225.583 219.102C225.043 220.038 224.269 220.758 223.261 221.262C222.265 221.754 221.101 222 219.769 222H215.683V209.49H219.769ZM219.769 220.326C221.233 220.326 222.355 219.93 223.135 219.138C223.915 218.346 224.305 217.23 224.305 215.79C224.305 214.338 223.915 213.204 223.135 212.388C222.355 211.572 221.233 211.164 219.769 211.164H217.735V220.326H219.769ZM227.761 216.996C227.761 216 227.965 215.118 228.373 214.35C228.793 213.582 229.357 212.988 230.065 212.568C230.785 212.136 231.577 211.92 232.441 211.92C233.221 211.92 233.899 212.076 234.475 212.388C235.063 212.688 235.531 213.066 235.879 213.522V212.082H237.949V222H235.879V220.524C235.531 220.992 235.057 221.382 234.457 221.694C233.857 222.006 233.173 222.162 232.405 222.162C231.553 222.162 230.773 221.946 230.065 221.514C229.357 221.07 228.793 220.458 228.373 219.678C227.965 218.886 227.761 217.992 227.761 216.996ZM235.879 217.032C235.879 216.348 235.735 215.754 235.447 215.25C235.171 214.746 234.805 214.362 234.349 214.098C233.893 213.834 233.401 213.702 232.873 213.702C232.345 213.702 231.853 213.834 231.397 214.098C230.941 214.35 230.569 214.728 230.281 215.232C230.005 215.724 229.867 216.312 229.867 216.996C229.867 217.68 230.005 218.28 230.281 218.796C230.569 219.312 230.941 219.708 231.397 219.984C231.865 220.248 232.357 220.38 232.873 220.38C233.401 220.38 233.893 220.248 234.349 219.984C234.805 219.72 235.171 219.336 235.447 218.832C235.735 218.316 235.879 217.716 235.879 217.032ZM243.038 213.756V219.246C243.038 219.618 243.122 219.888 243.29 220.056C243.47 220.212 243.77 220.29 244.19 220.29H245.45V222H243.83C242.906 222 242.198 221.784 241.706 221.352C241.214 220.92 240.968 220.218 240.968 219.246V213.756H239.798V212.082H240.968V209.616H243.038V212.082H245.45V213.756H243.038ZM246.658 216.996C246.658 216 246.862 215.118 247.27 214.35C247.69 213.582 248.254 212.988 248.962 212.568C249.682 212.136 250.474 211.92 251.338 211.92C252.118 211.92 252.796 212.076 253.372 212.388C253.96 212.688 254.428 213.066 254.776 213.522V212.082H256.846V222H254.776V220.524C254.428 220.992 253.954 221.382 253.354 221.694C252.754 222.006 252.07 222.162 251.302 222.162C250.45 222.162 249.67 221.946 248.962 221.514C248.254 221.07 247.69 220.458 247.27 219.678C246.862 218.886 246.658 217.992 246.658 216.996ZM254.776 217.032C254.776 216.348 254.632 215.754 254.344 215.25C254.068 214.746 253.702 214.362 253.246 214.098C252.79 213.834 252.298 213.702 251.77 213.702C251.242 213.702 250.75 213.834 250.294 214.098C249.838 214.35 249.466 214.728 249.178 215.232C248.902 215.724 248.764 216.312 248.764 216.996C248.764 217.68 248.902 218.28 249.178 218.796C249.466 219.312 249.838 219.708 250.294 219.984C250.762 220.248 251.254 220.38 251.77 220.38C252.298 220.38 252.79 220.248 253.246 219.984C253.702 219.72 254.068 219.336 254.344 218.832C254.632 218.316 254.776 217.716 254.776 217.032ZM271.759 219.444H266.521L265.621 222H263.479L267.961 209.472H270.337L274.819 222H272.659L271.759 219.444ZM271.183 217.77L269.149 211.956L267.097 217.77H271.183ZM281.771 211.92C282.551 211.92 283.247 212.082 283.859 212.406C284.483 212.73 284.969 213.21 285.317 213.846C285.665 214.482 285.839 215.25 285.839 216.15V222H283.805V216.456C283.805 215.568 283.583 214.89 283.139 214.422C282.695 213.942 282.089 213.702 281.321 213.702C280.553 213.702 279.941 213.942 279.485 214.422C279.041 214.89 278.819 215.568 278.819 216.456V222H276.767V212.082H278.819V213.216C279.155 212.808 279.581 212.49 280.097 212.262C280.625 212.034 281.183 211.92 281.771 211.92ZM287.773 216.996C287.773 216 287.977 215.118 288.385 214.35C288.805 213.582 289.369 212.988 290.077 212.568C290.797 212.136 291.589 211.92 292.453 211.92C293.233 211.92 293.911 212.076 294.487 212.388C295.075 212.688 295.543 213.066 295.891 213.522V212.082H297.961V222H295.891V220.524C295.543 220.992 295.069 221.382 294.469 221.694C293.869 222.006 293.185 222.162 292.417 222.162C291.565 222.162 290.785 221.946 290.077 221.514C289.369 221.07 288.805 220.458 288.385 219.678C287.977 218.886 287.773 217.992 287.773 216.996ZM295.891 217.032C295.891 216.348 295.747 215.754 295.459 215.25C295.183 214.746 294.817 214.362 294.361 214.098C293.905 213.834 293.413 213.702 292.885 213.702C292.357 213.702 291.865 213.834 291.409 214.098C290.953 214.35 290.581 214.728 290.293 215.232C290.017 215.724 289.879 216.312 289.879 216.996C289.879 217.68 290.017 218.28 290.293 218.796C290.581 219.312 290.953 219.708 291.409 219.984C291.877 220.248 292.369 220.38 292.885 220.38C293.413 220.38 293.905 220.248 294.361 219.984C294.817 219.72 295.183 219.336 295.459 218.832C295.747 218.316 295.891 217.716 295.891 217.032ZM302.708 208.68V222H300.656V208.68H302.708ZM314.33 212.082L308.246 226.662H306.122L308.138 221.838L304.232 212.082H306.518L309.308 219.642L312.206 212.082H314.33ZM319.479 222.162C318.699 222.162 317.997 222.024 317.373 221.748C316.761 221.46 316.275 221.076 315.915 220.596C315.555 220.104 315.363 219.558 315.339 218.958H317.463C317.499 219.378 317.697 219.732 318.057 220.02C318.429 220.296 318.891 220.434 319.443 220.434C320.019 220.434 320.463 220.326 320.775 220.11C321.099 219.882 321.261 219.594 321.261 219.246C321.261 218.874 321.081 218.598 320.721 218.418C320.373 218.238 319.815 218.04 319.047 217.824C318.303 217.62 317.697 217.422 317.229 217.23C316.761 217.038 316.353 216.744 316.005 216.348C315.669 215.952 315.501 215.43 315.501 214.782C315.501 214.254 315.657 213.774 315.969 213.342C316.281 212.898 316.725 212.55 317.301 212.298C317.889 212.046 318.561 211.92 319.317 211.92C320.445 211.92 321.351 212.208 322.035 212.784C322.731 213.348 323.103 214.122 323.151 215.106H321.099C321.063 214.662 320.883 214.308 320.559 214.044C320.235 213.78 319.797 213.648 319.245 213.648C318.705 213.648 318.291 213.75 318.003 213.954C317.715 214.158 317.571 214.428 317.571 214.764C317.571 215.028 317.667 215.25 317.859 215.43C318.051 215.61 318.285 215.754 318.561 215.862C318.837 215.958 319.245 216.084 319.785 216.24C320.505 216.432 321.093 216.63 321.549 216.834C322.017 217.026 322.419 217.314 322.755 217.698C323.091 218.082 323.265 218.592 323.277 219.228C323.277 219.792 323.121 220.296 322.809 220.74C322.497 221.184 322.053 221.532 321.477 221.784C320.913 222.036 320.247 222.162 319.479 222.162ZM327.888 213.756V219.246C327.888 219.618 327.972 219.888 328.14 220.056C328.32 220.212 328.62 220.29 329.04 220.29H330.3V222H328.68C327.756 222 327.048 221.784 326.556 221.352C326.064 220.92 325.818 220.218 325.818 219.246V213.756H324.648V212.082H325.818V209.616H327.888V212.082H330.3V213.756H327.888ZM339.805 214.62V216.348H332.407V214.62H339.805ZM349.448 209.49V222H347.396V209.49H349.448Z" fill="white"/>
<path d="M223.717 239.054L223.269 240.633H214.889L215.337 239.054H223.717ZM219.639 249L215.062 243.445L215.049 242.199H217.318C217.885 242.199 218.365 242.112 218.757 241.937C219.149 241.762 219.447 241.509 219.652 241.176C219.856 240.839 219.958 240.43 219.958 239.949C219.958 239.233 219.745 238.664 219.319 238.242C218.893 237.82 218.226 237.609 217.318 237.609H214.889L215.356 235.909H217.318C218.375 235.909 219.247 236.077 219.933 236.414C220.619 236.751 221.13 237.217 221.467 237.814C221.804 238.411 221.972 239.099 221.972 239.879C221.972 240.573 221.833 241.202 221.556 241.764C221.279 242.327 220.838 242.785 220.233 243.138C219.628 243.492 218.833 243.699 217.849 243.759L217.791 243.771L221.972 248.891V249H219.639ZM223.723 235.909L223.269 237.501L216.571 237.462L217.024 235.909H223.723ZM229.557 237.75V235.878H233.301V249H231.231V237.75H229.557ZM235.85 237.75V235.878H239.594V249H237.524V237.75H235.85ZM244.933 246.534L242.755 251.502H241.423L242.701 246.534H244.933ZM246.456 242.268C246.456 240.192 246.804 238.572 247.5 237.408C248.208 236.232 249.42 235.644 251.136 235.644C252.852 235.644 254.058 236.232 254.754 237.408C255.462 238.572 255.816 240.192 255.816 242.268C255.816 244.368 255.462 246.012 254.754 247.2C254.058 248.376 252.852 248.964 251.136 248.964C249.42 248.964 248.208 248.376 247.5 247.2C246.804 246.012 246.456 244.368 246.456 242.268ZM253.8 242.268C253.8 241.296 253.734 240.474 253.602 239.802C253.482 239.13 253.23 238.584 252.846 238.164C252.462 237.732 251.892 237.516 251.136 237.516C250.38 237.516 249.81 237.732 249.426 238.164C249.042 238.584 248.784 239.13 248.652 239.802C248.532 240.474 248.472 241.296 248.472 242.268C248.472 243.276 248.532 244.122 248.652 244.806C248.772 245.49 249.024 246.042 249.408 246.462C249.804 246.882 250.38 247.092 251.136 247.092C251.892 247.092 252.462 246.882 252.846 246.462C253.242 246.042 253.5 245.49 253.62 244.806C253.74 244.122 253.8 243.276 253.8 242.268ZM257.988 242.268C257.988 240.192 258.336 238.572 259.032 237.408C259.74 236.232 260.952 235.644 262.668 235.644C264.384 235.644 265.59 236.232 266.286 237.408C266.994 238.572 267.348 240.192 267.348 242.268C267.348 244.368 266.994 246.012 266.286 247.2C265.59 248.376 264.384 248.964 262.668 248.964C260.952 248.964 259.74 248.376 259.032 247.2C258.336 246.012 257.988 244.368 257.988 242.268ZM265.332 242.268C265.332 241.296 265.266 240.474 265.134 239.802C265.014 239.13 264.762 238.584 264.378 238.164C263.994 237.732 263.424 237.516 262.668 237.516C261.912 237.516 261.342 237.732 260.958 238.164C260.574 238.584 260.316 239.13 260.184 239.802C260.064 240.474 260.004 241.296 260.004 242.268C260.004 243.276 260.064 244.122 260.184 244.806C260.304 245.49 260.556 246.042 260.94 246.462C261.336 246.882 261.912 247.092 262.668 247.092C263.424 247.092 263.994 246.882 264.378 246.462C264.774 246.042 265.032 245.49 265.152 244.806C265.272 244.122 265.332 243.276 265.332 242.268ZM272.039 246.534L269.861 251.502H268.529L269.807 246.534H272.039ZM273.562 242.268C273.562 240.192 273.91 238.572 274.606 237.408C275.314 236.232 276.526 235.644 278.242 235.644C279.958 235.644 281.164 236.232 281.86 237.408C282.568 238.572 282.922 240.192 282.922 242.268C282.922 244.368 282.568 246.012 281.86 247.2C281.164 248.376 279.958 248.964 278.242 248.964C276.526 248.964 275.314 248.376 274.606 247.2C273.91 246.012 273.562 244.368 273.562 242.268ZM280.906 242.268C280.906 241.296 280.84 240.474 280.708 239.802C280.588 239.13 280.336 238.584 279.952 238.164C279.568 237.732 278.998 237.516 278.242 237.516C277.486 237.516 276.916 237.732 276.532 238.164C276.148 238.584 275.89 239.13 275.758 239.802C275.638 240.474 275.578 241.296 275.578 242.268C275.578 243.276 275.638 244.122 275.758 244.806C275.878 245.49 276.13 246.042 276.514 246.462C276.91 246.882 277.486 247.092 278.242 247.092C278.998 247.092 279.568 246.882 279.952 246.462C280.348 246.042 280.606 245.49 280.726 244.806C280.846 244.122 280.906 243.276 280.906 242.268ZM285.093 242.268C285.093 240.192 285.441 238.572 286.137 237.408C286.845 236.232 288.057 235.644 289.773 235.644C291.489 235.644 292.695 236.232 293.391 237.408C294.099 238.572 294.453 240.192 294.453 242.268C294.453 244.368 294.099 246.012 293.391 247.2C292.695 248.376 291.489 248.964 289.773 248.964C288.057 248.964 286.845 248.376 286.137 247.2C285.441 246.012 285.093 244.368 285.093 242.268ZM292.437 242.268C292.437 241.296 292.371 240.474 292.239 239.802C292.119 239.13 291.867 238.584 291.483 238.164C291.099 237.732 290.529 237.516 289.773 237.516C289.017 237.516 288.447 237.732 288.063 238.164C287.679 238.584 287.421 239.13 287.289 239.802C287.169 240.474 287.109 241.296 287.109 242.268C287.109 243.276 287.169 244.122 287.289 244.806C287.409 245.49 287.661 246.042 288.045 246.462C288.441 246.882 289.017 247.092 289.773 247.092C290.529 247.092 291.099 246.882 291.483 246.462C291.879 246.042 292.137 245.49 292.257 244.806C292.377 244.122 292.437 243.276 292.437 242.268ZM296.624 242.268C296.624 240.192 296.972 238.572 297.668 237.408C298.376 236.232 299.588 235.644 301.304 235.644C303.02 235.644 304.226 236.232 304.922 237.408C305.63 238.572 305.984 240.192 305.984 242.268C305.984 244.368 305.63 246.012 304.922 247.2C304.226 248.376 303.02 248.964 301.304 248.964C299.588 248.964 298.376 248.376 297.668 247.2C296.972 246.012 296.624 244.368 296.624 242.268ZM303.968 242.268C303.968 241.296 303.902 240.474 303.77 239.802C303.65 239.13 303.398 238.584 303.014 238.164C302.63 237.732 302.06 237.516 301.304 237.516C300.548 237.516 299.978 237.732 299.594 238.164C299.21 238.584 298.952 239.13 298.82 239.802C298.7 240.474 298.64 241.296 298.64 242.268C298.64 243.276 298.7 244.122 298.82 244.806C298.94 245.49 299.192 246.042 299.576 246.462C299.972 246.882 300.548 247.092 301.304 247.092C302.06 247.092 302.63 246.882 303.014 246.462C303.41 246.042 303.668 245.49 303.788 244.806C303.908 244.122 303.968 243.276 303.968 242.268Z" fill="#37ED81"/>
<path d="M266.769 68.49C268.101 68.49 269.265 68.748 270.261 69.264C271.269 69.768 272.043 70.5 272.583 71.46C273.135 72.408 273.411 73.518 273.411 74.79C273.411 76.062 273.135 77.166 272.583 78.102C272.043 79.038 271.269 79.758 270.261 80.262C269.265 80.754 268.101 81 266.769 81H262.683V68.49H266.769ZM266.769 79.326C268.233 79.326 269.355 78.93 270.135 78.138C270.915 77.346 271.305 76.23 271.305 74.79C271.305 73.338 270.915 72.204 270.135 71.388C269.355 70.572 268.233 70.164 266.769 70.164H264.735V79.326H266.769ZM274.761 75.996C274.761 75 274.965 74.118 275.373 73.35C275.793 72.582 276.357 71.988 277.065 71.568C277.785 71.136 278.577 70.92 279.441 70.92C280.221 70.92 280.899 71.076 281.475 71.388C282.063 71.688 282.531 72.066 282.879 72.522V71.082H284.949V81H282.879V79.524C282.531 79.992 282.057 80.382 281.457 80.694C280.857 81.006 280.173 81.162 279.405 81.162C278.553 81.162 277.773 80.946 277.065 80.514C276.357 80.07 275.793 79.458 275.373 78.678C274.965 77.886 274.761 76.992 274.761 75.996ZM282.879 76.032C282.879 75.348 282.735 74.754 282.447 74.25C282.171 73.746 281.805 73.362 281.349 73.098C280.893 72.834 280.401 72.702 279.873 72.702C279.345 72.702 278.853 72.834 278.397 73.098C277.941 73.35 277.569 73.728 277.281 74.232C277.005 74.724 276.867 75.312 276.867 75.996C276.867 76.68 277.005 77.28 277.281 77.796C277.569 78.312 277.941 78.708 278.397 78.984C278.865 79.248 279.357 79.38 279.873 79.38C280.401 79.38 280.893 79.248 281.349 78.984C281.805 78.72 282.171 78.336 282.447 77.832C282.735 77.316 282.879 76.716 282.879 76.032ZM290.038 72.756V78.246C290.038 78.618 290.122 78.888 290.29 79.056C290.47 79.212 290.77 79.29 291.19 79.29H292.45V81H290.83C289.906 81 289.198 80.784 288.706 80.352C288.214 79.92 287.968 79.218 287.968 78.246V72.756H286.798V71.082H287.968V68.616H290.038V71.082H292.45V72.756H290.038ZM293.658 75.996C293.658 75 293.862 74.118 294.27 73.35C294.69 72.582 295.254 71.988 295.962 71.568C296.682 71.136 297.474 70.92 298.338 70.92C299.118 70.92 299.796 71.076 300.372 71.388C300.96 71.688 301.428 72.066 301.776 72.522V71.082H303.846V81H301.776V79.524C301.428 79.992 300.954 80.382 300.354 80.694C299.754 81.006 299.07 81.162 298.302 81.162C297.45 81.162 296.67 80.946 295.962 80.514C295.254 80.07 294.69 79.458 294.27 78.678C293.862 77.886 293.658 76.992 293.658 75.996ZM301.776 76.032C301.776 75.348 301.632 74.754 301.344 74.25C301.068 73.746 300.702 73.362 300.246 73.098C299.79 72.834 299.298 72.702 298.77 72.702C298.242 72.702 297.75 72.834 297.294 73.098C296.838 73.35 296.466 73.728 296.178 74.232C295.902 74.724 295.764 75.312 295.764 75.996C295.764 76.68 295.902 77.28 296.178 77.796C296.466 78.312 296.838 78.708 297.294 78.984C297.762 79.248 298.254 79.38 298.77 79.38C299.298 79.38 299.79 79.248 300.246 78.984C300.702 78.72 301.068 78.336 301.344 77.832C301.632 77.316 301.776 76.716 301.776 76.032ZM318.759 78.444H313.521L312.621 81H310.479L314.961 68.472H317.337L321.819 81H319.659L318.759 78.444ZM318.183 76.77L316.149 70.956L314.097 76.77H318.183ZM328.771 70.92C329.551 70.92 330.247 71.082 330.859 71.406C331.483 71.73 331.969 72.21 332.317 72.846C332.665 73.482 332.839 74.25 332.839 75.15V81H330.805V75.456C330.805 74.568 330.583 73.89 330.139 73.422C329.695 72.942 329.089 72.702 328.321 72.702C327.553 72.702 326.941 72.942 326.485 73.422C326.041 73.89 325.819 74.568 325.819 75.456V81H323.767V71.082H325.819V72.216C326.155 71.808 326.581 71.49 327.097 71.262C327.625 71.034 328.183 70.92 328.771 70.92ZM334.773 75.996C334.773 75 334.977 74.118 335.385 73.35C335.805 72.582 336.369 71.988 337.077 71.568C337.797 71.136 338.589 70.92 339.453 70.92C340.233 70.92 340.911 71.076 341.487 71.388C342.075 71.688 342.543 72.066 342.891 72.522V71.082H344.961V81H342.891V79.524C342.543 79.992 342.069 80.382 341.469 80.694C340.869 81.006 340.185 81.162 339.417 81.162C338.565 81.162 337.785 80.946 337.077 80.514C336.369 80.07 335.805 79.458 335.385 78.678C334.977 77.886 334.773 76.992 334.773 75.996ZM342.891 76.032C342.891 75.348 342.747 74.754 342.459 74.25C342.183 73.746 341.817 73.362 341.361 73.098C340.905 72.834 340.413 72.702 339.885 72.702C339.357 72.702 338.865 72.834 338.409 73.098C337.953 73.35 337.581 73.728 337.293 74.232C337.017 74.724 336.879 75.312 336.879 75.996C336.879 76.68 337.017 77.28 337.293 77.796C337.581 78.312 337.953 78.708 338.409 78.984C338.877 79.248 339.369 79.38 339.885 79.38C340.413 79.38 340.905 79.248 341.361 78.984C341.817 78.72 342.183 78.336 342.459 77.832C342.747 77.316 342.891 76.716 342.891 76.032ZM349.708 67.68V81H347.656V67.68H349.708ZM361.33 71.082L355.246 85.662H353.122L355.138 80.838L351.232 71.082H353.518L356.308 78.642L359.206 71.082H361.33ZM366.479 81.162C365.699 81.162 364.997 81.024 364.373 80.748C363.761 80.46 363.275 80.076 362.915 79.596C362.555 79.104 362.363 78.558 362.339 77.958H364.463C364.499 78.378 364.697 78.732 365.057 79.02C365.429 79.296 365.891 79.434 366.443 79.434C367.019 79.434 367.463 79.326 367.775 79.11C368.099 78.882 368.261 78.594 368.261 78.246C368.261 77.874 368.081 77.598 367.721 77.418C367.373 77.238 366.815 77.04 366.047 76.824C365.303 76.62 364.697 76.422 364.229 76.23C363.761 76.038 363.353 75.744 363.005 75.348C362.669 74.952 362.501 74.43 362.501 73.782C362.501 73.254 362.657 72.774 362.969 72.342C363.281 71.898 363.725 71.55 364.301 71.298C364.889 71.046 365.561 70.92 366.317 70.92C367.445 70.92 368.351 71.208 369.035 71.784C369.731 72.348 370.103 73.122 370.151 74.106H368.099C368.063 73.662 367.883 73.308 367.559 73.044C367.235 72.78 366.797 72.648 366.245 72.648C365.705 72.648 365.291 72.75 365.003 72.954C364.715 73.158 364.571 73.428 364.571 73.764C364.571 74.028 364.667 74.25 364.859 74.43C365.051 74.61 365.285 74.754 365.561 74.862C365.837 74.958 366.245 75.084 366.785 75.24C367.505 75.432 368.093 75.63 368.549 75.834C369.017 76.026 369.419 76.314 369.755 76.698C370.091 77.082 370.265 77.592 370.277 78.228C370.277 78.792 370.121 79.296 369.809 79.74C369.497 80.184 369.053 80.532 368.477 80.784C367.913 81.036 367.247 81.162 366.479 81.162ZM374.888 72.756V78.246C374.888 78.618 374.972 78.888 375.14 79.056C375.32 79.212 375.62 79.29 376.04 79.29H377.3V81H375.68C374.756 81 374.048 80.784 373.556 80.352C373.064 79.92 372.818 79.218 372.818 78.246V72.756H371.648V71.082H372.818V68.616H374.888V71.082H377.3V72.756H374.888ZM391.481 73.62V75.348H384.083V73.62H391.481ZM401.124 68.49V81H399.072V68.49H401.124ZM405.87 68.49V81H403.818V68.49H405.87Z" fill="white"/>
<path d="M270.717 98.054L270.269 99.6328H261.889L262.337 98.054H270.717ZM266.639 108L262.062 102.445L262.049 101.199H264.318C264.885 101.199 265.365 101.112 265.757 100.937C266.149 100.762 266.447 100.509 266.652 100.176C266.856 99.8395 266.958 99.4304 266.958 98.9489C266.958 98.233 266.745 97.6641 266.319 97.2422C265.893 96.8203 265.226 96.6094 264.318 96.6094H261.889L262.356 94.9091H264.318C265.375 94.9091 266.247 95.0774 266.933 95.4141C267.619 95.7507 268.13 96.2173 268.467 96.8139C268.804 97.4105 268.972 98.0987 268.972 98.8786C268.972 99.5732 268.833 100.202 268.556 100.764C268.279 101.327 267.838 101.785 267.233 102.138C266.628 102.492 265.833 102.699 264.849 102.759L264.791 102.771L268.972 107.891V108H266.639ZM270.723 94.9091L270.269 96.5007L263.571 96.4624L264.024 94.9091H270.723ZM276.557 96.75V94.878H280.301V108H278.231V96.75H276.557ZM291.58 96.642H285.55V100.224C285.802 99.888 286.174 99.606 286.666 99.378C287.17 99.15 287.704 99.036 288.268 99.036C289.276 99.036 290.092 99.252 290.716 99.684C291.352 100.116 291.802 100.662 292.066 101.322C292.342 101.982 292.48 102.678 292.48 103.41C292.48 104.298 292.306 105.09 291.958 105.786C291.622 106.47 291.112 107.01 290.428 107.406C289.756 107.802 288.928 108 287.944 108C286.636 108 285.586 107.676 284.794 107.028C284.002 106.38 283.528 105.522 283.372 104.454H285.37C285.502 105.018 285.796 105.468 286.252 105.804C286.708 106.128 287.278 106.29 287.962 106.29C288.814 106.29 289.45 106.032 289.87 105.516C290.302 105 290.518 104.316 290.518 103.464C290.518 102.6 290.302 101.94 289.87 101.484C289.438 101.016 288.802 100.782 287.962 100.782C287.374 100.782 286.876 100.932 286.468 101.232C286.072 101.52 285.784 101.916 285.604 102.42H283.66V94.842H291.58V96.642ZM297.136 105.534L294.958 110.502H293.626L294.904 105.534H297.136ZM298.659 101.268C298.659 99.192 299.007 97.572 299.703 96.408C300.411 95.232 301.623 94.644 303.339 94.644C305.055 94.644 306.261 95.232 306.957 96.408C307.665 97.572 308.019 99.192 308.019 101.268C308.019 103.368 307.665 105.012 306.957 106.2C306.261 107.376 305.055 107.964 303.339 107.964C301.623 107.964 300.411 107.376 299.703 106.2C299.007 105.012 298.659 103.368 298.659 101.268ZM306.003 101.268C306.003 100.296 305.937 99.474 305.805 98.802C305.685 98.13 305.433 97.584 305.049 97.164C304.665 96.732 304.095 96.516 303.339 96.516C302.583 96.516 302.013 96.732 301.629 97.164C301.245 97.584 300.987 98.13 300.855 98.802C300.735 99.474 300.675 100.296 300.675 101.268C300.675 102.276 300.735 103.122 300.855 103.806C300.975 104.49 301.227 105.042 301.611 105.462C302.007 105.882 302.583 106.092 303.339 106.092C304.095 106.092 304.665 105.882 305.049 105.462C305.445 105.042 305.703 104.49 305.823 103.806C305.943 103.122 306.003 102.276 306.003 101.268ZM310.191 101.268C310.191 99.192 310.539 97.572 311.235 96.408C311.943 95.232 313.155 94.644 314.871 94.644C316.587 94.644 317.793 95.232 318.489 96.408C319.197 97.572 319.551 99.192 319.551 101.268C319.551 103.368 319.197 105.012 318.489 106.2C317.793 107.376 316.587 107.964 314.871 107.964C313.155 107.964 311.943 107.376 311.235 106.2C310.539 105.012 310.191 103.368 310.191 101.268ZM317.535 101.268C317.535 100.296 317.469 99.474 317.337 98.802C317.217 98.13 316.965 97.584 316.581 97.164C316.197 96.732 315.627 96.516 314.871 96.516C314.115 96.516 313.545 96.732 313.161 97.164C312.777 97.584 312.519 98.13 312.387 98.802C312.267 99.474 312.207 100.296 312.207 101.268C312.207 102.276 312.267 103.122 312.387 103.806C312.507 104.49 312.759 105.042 313.143 105.462C313.539 105.882 314.115 106.092 314.871 106.092C315.627 106.092 316.197 105.882 316.581 105.462C316.977 105.042 317.235 104.49 317.355 103.806C317.475 103.122 317.535 102.276 317.535 101.268ZM324.242 105.534L322.064 110.502H320.732L322.01 105.534H324.242ZM325.765 101.268C325.765 99.192 326.113 97.572 326.809 96.408C327.517 95.232 328.729 94.644 330.445 94.644C332.161 94.644 333.367 95.232 334.063 96.408C334.771 97.572 335.125 99.192 335.125 101.268C335.125 103.368 334.771 105.012 334.063 106.2C333.367 107.376 332.161 107.964 330.445 107.964C328.729 107.964 327.517 107.376 326.809 106.2C326.113 105.012 325.765 103.368 325.765 101.268ZM333.109 101.268C333.109 100.296 333.043 99.474 332.911 98.802C332.791 98.13 332.539 97.584 332.155 97.164C331.771 96.732 331.201 96.516 330.445 96.516C329.689 96.516 329.119 96.732 328.735 97.164C328.351 97.584 328.093 98.13 327.961 98.802C327.841 99.474 327.781 100.296 327.781 101.268C327.781 102.276 327.841 103.122 327.961 103.806C328.081 104.49 328.333 105.042 328.717 105.462C329.113 105.882 329.689 106.092 330.445 106.092C331.201 106.092 331.771 105.882 332.155 105.462C332.551 105.042 332.809 104.49 332.929 103.806C333.049 103.122 333.109 102.276 333.109 101.268ZM337.296 101.268C337.296 99.192 337.644 97.572 338.34 96.408C339.048 95.232 340.26 94.644 341.976 94.644C343.692 94.644 344.898 95.232 345.594 96.408C346.302 97.572 346.656 99.192 346.656 101.268C346.656 103.368 346.302 105.012 345.594 106.2C344.898 107.376 343.692 107.964 341.976 107.964C340.26 107.964 339.048 107.376 338.34 106.2C337.644 105.012 337.296 103.368 337.296 101.268ZM344.64 101.268C344.64 100.296 344.574 99.474 344.442 98.802C344.322 98.13 344.07 97.584 343.686 97.164C343.302 96.732 342.732 96.516 341.976 96.516C341.22 96.516 340.65 96.732 340.266 97.164C339.882 97.584 339.624 98.13 339.492 98.802C339.372 99.474 339.312 100.296 339.312 101.268C339.312 102.276 339.372 103.122 339.492 103.806C339.612 104.49 339.864 105.042 340.248 105.462C340.644 105.882 341.22 106.092 341.976 106.092C342.732 106.092 343.302 105.882 343.686 105.462C344.082 105.042 344.34 104.49 344.46 103.806C344.58 103.122 344.64 102.276 344.64 101.268ZM348.827 101.268C348.827 99.192 349.175 97.572 349.871 96.408C350.579 95.232 351.791 94.644 353.507 94.644C355.223 94.644 356.429 95.232 357.125 96.408C357.833 97.572 358.187 99.192 358.187 101.268C358.187 103.368 357.833 105.012 357.125 106.2C356.429 107.376 355.223 107.964 353.507 107.964C351.791 107.964 350.579 107.376 349.871 106.2C349.175 105.012 348.827 103.368 348.827 101.268ZM356.171 101.268C356.171 100.296 356.105 99.474 355.973 98.802C355.853 98.13 355.601 97.584 355.217 97.164C354.833 96.732 354.263 96.516 353.507 96.516C352.751 96.516 352.181 96.732 351.797 97.164C351.413 97.584 351.155 98.13 351.023 98.802C350.903 99.474 350.843 100.296 350.843 101.268C350.843 102.276 350.903 103.122 351.023 103.806C351.143 104.49 351.395 105.042 351.779 105.462C352.175 105.882 352.751 106.092 353.507 106.092C354.263 106.092 354.833 105.882 355.217 105.462C355.613 105.042 355.871 104.49 355.991 103.806C356.111 103.122 356.171 102.276 356.171 101.268Z" fill="#37ED81"/>
<rect x="422" y="92" width="20" height="20" rx="10" fill="#119045"/>
<defs>
<linearGradient id="paint0_linear_13_30" x1="-1.282" y1="373.582" x2="376.262" y2="-60.9981" gradientUnits="userSpaceOnUse">
<stop stop-color="#37ED81"/>
<stop offset="1" stop-color="#37ED81" stop-opacity="0"/>
</linearGradient>
</defs>
</svg>
