<svg width="460" height="407" viewBox="0 0 460 407" fill="none" xmlns="http://www.w3.org/2000/svg">
<path d="M10 397C173.395 385.262 417.692 286.278 450 -23" stroke="url(#paint0_linear_13_31)" stroke-width="20" stroke-linecap="round"/>
<rect y="387" width="20" height="20" rx="10" fill="#4BA25D"/>
<rect x="356" y="198" width="20" height="20" rx="10" fill="#37ED81"/>
<path d="M8.172 308.49V317.508C8.172 318.624 7.83 319.506 7.146 320.154C6.474 320.802 5.586 321.126 4.482 321.126C3.378 321.126 2.484 320.802 1.8 320.154C1.128 319.506 0.792 318.624 0.792 317.508H2.862C2.874 318.06 3.012 318.498 3.276 318.822C3.552 319.146 3.954 319.308 4.482 319.308C5.01 319.308 5.412 319.146 5.688 318.822C5.964 318.486 6.102 318.048 6.102 317.508V308.49H8.172ZM13.5622 312.522C13.8622 312.018 14.2582 311.628 14.7502 311.352C15.2542 311.064 15.8482 310.92 16.5322 310.92V313.044H16.0102C15.2062 313.044 14.5942 313.248 14.1742 313.656C13.7662 314.064 13.5622 314.772 13.5622 315.78V321H11.5102V311.082H13.5622V312.522ZM19.2464 321.126C18.8744 321.126 18.5624 321 18.3104 320.748C18.0584 320.496 17.9324 320.184 17.9324 319.812C17.9324 319.44 18.0584 319.128 18.3104 318.876C18.5624 318.624 18.8744 318.498 19.2464 318.498C19.6064 318.498 19.9124 318.624 20.1644 318.876C20.4164 319.128 20.5424 319.44 20.5424 319.812C20.5424 320.184 20.4164 320.496 20.1644 320.748C19.9124 321 19.6064 321.126 19.2464 321.126ZM26.8462 308.49C28.1782 308.49 29.3422 308.748 30.3382 309.264C31.3462 309.768 32.1202 310.5 32.6602 311.46C33.2122 312.408 33.4882 313.518 33.4882 314.79C33.4882 316.062 33.2122 317.166 32.6602 318.102C32.1202 319.038 31.3462 319.758 30.3382 320.262C29.3422 320.754 28.1782 321 26.8462 321H22.7602V308.49H26.8462ZM26.8462 319.326C28.3102 319.326 29.4322 318.93 30.2122 318.138C30.9922 317.346 31.3822 316.23 31.3822 314.79C31.3822 313.338 30.9922 312.204 30.2122 311.388C29.4322 310.572 28.3102 310.164 26.8462 310.164H24.8122V319.326H26.8462ZM34.8379 315.996C34.8379 315 35.0419 314.118 35.4499 313.35C35.8699 312.582 36.4339 311.988 37.1419 311.568C37.8619 311.136 38.6539 310.92 39.5179 310.92C40.2979 310.92 40.9759 311.076 41.5519 311.388C42.1399 311.688 42.6079 312.066 42.9559 312.522V311.082H45.0259V321H42.9559V319.524C42.6079 319.992 42.1339 320.382 41.5339 320.694C40.9339 321.006 40.2499 321.162 39.4819 321.162C38.6299 321.162 37.8499 320.946 37.1419 320.514C36.4339 320.07 35.8699 319.458 35.4499 318.678C35.0419 317.886 34.8379 316.992 34.8379 315.996ZM42.9559 316.032C42.9559 315.348 42.8119 314.754 42.5239 314.25C42.2479 313.746 41.8819 313.362 41.4259 313.098C40.9699 312.834 40.4779 312.702 39.9499 312.702C39.4219 312.702 38.9299 312.834 38.4739 313.098C38.0179 313.35 37.6459 313.728 37.3579 314.232C37.0819 314.724 36.9439 315.312 36.9439 315.996C36.9439 316.68 37.0819 317.28 37.3579 317.796C37.6459 318.312 38.0179 318.708 38.4739 318.984C38.9419 319.248 39.4339 319.38 39.9499 319.38C40.4779 319.38 40.9699 319.248 41.4259 318.984C41.8819 318.72 42.2479 318.336 42.5239 317.832C42.8119 317.316 42.9559 316.716 42.9559 316.032ZM50.1151 312.756V318.246C50.1151 318.618 50.1991 318.888 50.3671 319.056C50.5471 319.212 50.8471 319.29 51.2671 319.29H52.5271V321H50.9071C49.9831 321 49.2751 320.784 48.7831 320.352C48.2911 319.92 48.0451 319.218 48.0451 318.246V312.756H46.8751V311.082H48.0451V308.616H50.1151V311.082H52.5271V312.756H50.1151ZM53.7344 315.996C53.7344 315 53.9384 314.118 54.3464 313.35C54.7664 312.582 55.3304 311.988 56.0384 311.568C56.7584 311.136 57.5504 310.92 58.4144 310.92C59.1944 310.92 59.8724 311.076 60.4484 311.388C61.0364 311.688 61.5044 312.066 61.8524 312.522V311.082H63.9224V321H61.8524V319.524C61.5044 319.992 61.0304 320.382 60.4304 320.694C59.8304 321.006 59.1464 321.162 58.3784 321.162C57.5264 321.162 56.7464 320.946 56.0384 320.514C55.3304 320.07 54.7664 319.458 54.3464 318.678C53.9384 317.886 53.7344 316.992 53.7344 315.996ZM61.8524 316.032C61.8524 315.348 61.7084 314.754 61.4204 314.25C61.1444 313.746 60.7784 313.362 60.3224 313.098C59.8664 312.834 59.3744 312.702 58.8464 312.702C58.3184 312.702 57.8264 312.834 57.3704 313.098C56.9144 313.35 56.5424 313.728 56.2544 314.232C55.9784 314.724 55.8404 315.312 55.8404 315.996C55.8404 316.68 55.9784 317.28 56.2544 317.796C56.5424 318.312 56.9144 318.708 57.3704 318.984C57.8384 319.248 58.3304 319.38 58.8464 319.38C59.3744 319.38 59.8664 319.248 60.3224 318.984C60.7784 318.72 61.1444 318.336 61.4204 317.832C61.7084 317.316 61.8524 316.716 61.8524 316.032ZM78.8354 318.444H73.5974L72.6974 321H70.5554L75.0374 308.472H77.4134L81.8954 321H79.7354L78.8354 318.444ZM78.2594 316.77L76.2254 310.956L74.1734 316.77H78.2594ZM88.8481 310.92C89.6281 310.92 90.3241 311.082 90.9361 311.406C91.5601 311.73 92.0461 312.21 92.3941 312.846C92.7421 313.482 92.9161 314.25 92.9161 315.15V321H90.8821V315.456C90.8821 314.568 90.6601 313.89 90.2161 313.422C89.7721 312.942 89.1661 312.702 88.3981 312.702C87.6301 312.702 87.0181 312.942 86.5621 313.422C86.1181 313.89 85.8961 314.568 85.8961 315.456V321H83.8441V311.082H85.8961V312.216C86.2321 311.808 86.6581 311.49 87.1741 311.262C87.7021 311.034 88.2601 310.92 88.8481 310.92ZM94.8496 315.996C94.8496 315 95.0536 314.118 95.4616 313.35C95.8816 312.582 96.4456 311.988 97.1536 311.568C97.8736 311.136 98.6656 310.92 99.5296 310.92C100.31 310.92 100.988 311.076 101.564 311.388C102.152 311.688 102.62 312.066 102.968 312.522V311.082H105.038V321H102.968V319.524C102.62 319.992 102.146 320.382 101.546 320.694C100.946 321.006 100.262 321.162 99.4936 321.162C98.6416 321.162 97.8616 320.946 97.1536 320.514C96.4456 320.07 95.8816 319.458 95.4616 318.678C95.0536 317.886 94.8496 316.992 94.8496 315.996ZM102.968 316.032C102.968 315.348 102.824 314.754 102.536 314.25C102.26 313.746 101.894 313.362 101.438 313.098C100.982 312.834 100.49 312.702 99.9616 312.702C99.4336 312.702 98.9416 312.834 98.4856 313.098C98.0296 313.35 97.6576 313.728 97.3696 314.232C97.0936 314.724 96.9556 315.312 96.9556 315.996C96.9556 316.68 97.0936 317.28 97.3696 317.796C97.6576 318.312 98.0296 318.708 98.4856 318.984C98.9536 319.248 99.4456 319.38 99.9616 319.38C100.49 319.38 100.982 319.248 101.438 318.984C101.894 318.72 102.26 318.336 102.536 317.832C102.824 317.316 102.968 316.716 102.968 316.032ZM109.785 307.68V321H107.733V307.68H109.785ZM121.407 311.082L115.323 325.662H113.199L115.215 320.838L111.309 311.082H113.595L116.385 318.642L119.283 311.082H121.407ZM126.555 321.162C125.775 321.162 125.073 321.024 124.449 320.748C123.837 320.46 123.351 320.076 122.991 319.596C122.631 319.104 122.439 318.558 122.415 317.958H124.539C124.575 318.378 124.773 318.732 125.133 319.02C125.505 319.296 125.967 319.434 126.519 319.434C127.095 319.434 127.539 319.326 127.851 319.11C128.175 318.882 128.337 318.594 128.337 318.246C128.337 317.874 128.157 317.598 127.797 317.418C127.449 317.238 126.891 317.04 126.123 316.824C125.379 316.62 124.773 316.422 124.305 316.23C123.837 316.038 123.429 315.744 123.081 315.348C122.745 314.952 122.577 314.43 122.577 313.782C122.577 313.254 122.733 312.774 123.045 312.342C123.357 311.898 123.801 311.55 124.377 311.298C124.965 311.046 125.637 310.92 126.393 310.92C127.521 310.92 128.427 311.208 129.111 311.784C129.807 312.348 130.179 313.122 130.227 314.106H128.175C128.139 313.662 127.959 313.308 127.635 313.044C127.311 312.78 126.873 312.648 126.321 312.648C125.781 312.648 125.367 312.75 125.079 312.954C124.791 313.158 124.647 313.428 124.647 313.764C124.647 314.028 124.743 314.25 124.935 314.43C125.127 314.61 125.361 314.754 125.637 314.862C125.913 314.958 126.321 315.084 126.861 315.24C127.581 315.432 128.169 315.63 128.625 315.834C129.093 316.026 129.495 316.314 129.831 316.698C130.167 317.082 130.341 317.592 130.353 318.228C130.353 318.792 130.197 319.296 129.885 319.74C129.573 320.184 129.129 320.532 128.553 320.784C127.989 321.036 127.323 321.162 126.555 321.162ZM134.965 312.756V318.246C134.965 318.618 135.049 318.888 135.217 319.056C135.397 319.212 135.697 319.29 136.117 319.29H137.377V321H135.757C134.833 321 134.125 320.784 133.633 320.352C133.141 319.92 132.895 319.218 132.895 318.246V312.756H131.725V311.082H132.895V308.616H134.965V311.082H137.377V312.756H134.965Z" fill="#1E1E1E"/>
<path d="M9.38352 338.054L8.93608 339.633H0.556108L1.00355 338.054H9.38352ZM5.3054 348L0.728693 342.445L0.715909 341.199H2.98509C3.55185 341.199 4.03125 341.112 4.4233 340.937C4.81534 340.762 5.11364 340.509 5.31818 340.176C5.52273 339.839 5.625 339.43 5.625 338.949C5.625 338.233 5.41193 337.664 4.9858 337.242C4.55966 336.82 3.89276 336.609 2.98509 336.609H0.556108L1.02273 334.909H2.98509C4.0419 334.909 4.91335 335.077 5.59943 335.414C6.28551 335.751 6.79688 336.217 7.13352 336.814C7.47017 337.411 7.63849 338.099 7.63849 338.879C7.63849 339.573 7.5 340.202 7.22301 340.764C6.94602 341.327 6.50497 341.785 5.89986 342.138C5.29474 342.492 4.5 342.699 3.51562 342.759L3.4581 342.771L7.63849 347.891V348H5.3054ZM9.38991 334.909L8.93608 336.501L2.23722 336.462L2.69105 334.909H9.38991ZM23.8101 336.462L18.8061 348H16.7361L21.7941 336.678H15.1341V334.932H23.8101V336.462ZM28.0863 345.534L25.9083 350.502H24.5763L25.8543 345.534H28.0863ZM38.0693 336.642H32.0393V340.224C32.2913 339.888 32.6633 339.606 33.1553 339.378C33.6593 339.15 34.1933 339.036 34.7573 339.036C35.7653 339.036 36.5813 339.252 37.2053 339.684C37.8413 340.116 38.2913 340.662 38.5553 341.322C38.8313 341.982 38.9693 342.678 38.9693 343.41C38.9693 344.298 38.7953 345.09 38.4473 345.786C38.1113 346.47 37.6013 347.01 36.9173 347.406C36.2453 347.802 35.4173 348 34.4333 348C33.1253 348 32.0753 347.676 31.2833 347.028C30.4913 346.38 30.0173 345.522 29.8613 344.454H31.8593C31.9913 345.018 32.2853 345.468 32.7413 345.804C33.1973 346.128 33.7673 346.29 34.4513 346.29C35.3033 346.29 35.9393 346.032 36.3593 345.516C36.7913 345 37.0073 344.316 37.0073 343.464C37.0073 342.6 36.7913 341.94 36.3593 341.484C35.9273 341.016 35.2913 340.782 34.4513 340.782C33.8633 340.782 33.3653 340.932 32.9573 341.232C32.5613 341.52 32.2733 341.916 32.0933 342.42H30.1493V334.842H38.0693V336.642ZM41.1054 341.268C41.1054 339.192 41.4534 337.572 42.1494 336.408C42.8574 335.232 44.0694 334.644 45.7854 334.644C47.5014 334.644 48.7074 335.232 49.4034 336.408C50.1114 337.572 50.4654 339.192 50.4654 341.268C50.4654 343.368 50.1114 345.012 49.4034 346.2C48.7074 347.376 47.5014 347.964 45.7854 347.964C44.0694 347.964 42.8574 347.376 42.1494 346.2C41.4534 345.012 41.1054 343.368 41.1054 341.268ZM48.4494 341.268C48.4494 340.296 48.3834 339.474 48.2514 338.802C48.1314 338.13 47.8794 337.584 47.4954 337.164C47.1114 336.732 46.5414 336.516 45.7854 336.516C45.0294 336.516 44.4594 336.732 44.0754 337.164C43.6914 337.584 43.4334 338.13 43.3014 338.802C43.1814 339.474 43.1214 340.296 43.1214 341.268C43.1214 342.276 43.1814 343.122 43.3014 343.806C43.4214 344.49 43.6734 345.042 44.0574 345.462C44.4534 345.882 45.0294 346.092 45.7854 346.092C46.5414 346.092 47.1114 345.882 47.4954 345.462C47.8914 345.042 48.1494 344.49 48.2694 343.806C48.3894 343.122 48.4494 342.276 48.4494 341.268ZM55.1566 345.534L52.9786 350.502H51.6466L52.9246 345.534H55.1566ZM56.6796 341.268C56.6796 339.192 57.0276 337.572 57.7236 336.408C58.4316 335.232 59.6436 334.644 61.3596 334.644C63.0756 334.644 64.2816 335.232 64.9776 336.408C65.6856 337.572 66.0396 339.192 66.0396 341.268C66.0396 343.368 65.6856 345.012 64.9776 346.2C64.2816 347.376 63.0756 347.964 61.3596 347.964C59.6436 347.964 58.4316 347.376 57.7236 346.2C57.0276 345.012 56.6796 343.368 56.6796 341.268ZM64.0236 341.268C64.0236 340.296 63.9576 339.474 63.8256 338.802C63.7056 338.13 63.4536 337.584 63.0696 337.164C62.6856 336.732 62.1156 336.516 61.3596 336.516C60.6036 336.516 60.0336 336.732 59.6496 337.164C59.2656 337.584 59.0076 338.13 58.8756 338.802C58.7556 339.474 58.6956 340.296 58.6956 341.268C58.6956 342.276 58.7556 343.122 58.8756 343.806C58.9956 344.49 59.2476 345.042 59.6316 345.462C60.0276 345.882 60.6036 346.092 61.3596 346.092C62.1156 346.092 62.6856 345.882 63.0696 345.462C63.4656 345.042 63.7236 344.49 63.8436 343.806C63.9636 343.122 64.0236 342.276 64.0236 341.268ZM68.2109 341.268C68.2109 339.192 68.5589 337.572 69.2549 336.408C69.9629 335.232 71.1749 334.644 72.8909 334.644C74.6069 334.644 75.8129 335.232 76.5089 336.408C77.2169 337.572 77.5709 339.192 77.5709 341.268C77.5709 343.368 77.2169 345.012 76.5089 346.2C75.8129 347.376 74.6069 347.964 72.8909 347.964C71.1749 347.964 69.9629 347.376 69.2549 346.2C68.5589 345.012 68.2109 343.368 68.2109 341.268ZM75.5549 341.268C75.5549 340.296 75.4889 339.474 75.3569 338.802C75.2369 338.13 74.9849 337.584 74.6009 337.164C74.2169 336.732 73.6469 336.516 72.8909 336.516C72.1349 336.516 71.5649 336.732 71.1809 337.164C70.7969 337.584 70.5389 338.13 70.4069 338.802C70.2869 339.474 70.2269 340.296 70.2269 341.268C70.2269 342.276 70.2869 343.122 70.4069 343.806C70.5269 344.49 70.7789 345.042 71.1629 345.462C71.5589 345.882 72.1349 346.092 72.8909 346.092C73.6469 346.092 74.2169 345.882 74.6009 345.462C74.9969 345.042 75.2549 344.49 75.3749 343.806C75.4949 343.122 75.5549 342.276 75.5549 341.268ZM79.7421 341.268C79.7421 339.192 80.0901 337.572 80.7861 336.408C81.4941 335.232 82.7061 334.644 84.4221 334.644C86.1381 334.644 87.3441 335.232 88.0401 336.408C88.7481 337.572 89.1021 339.192 89.1021 341.268C89.1021 343.368 88.7481 345.012 88.0401 346.2C87.3441 347.376 86.1381 347.964 84.4221 347.964C82.7061 347.964 81.4941 347.376 80.7861 346.2C80.0901 345.012 79.7421 343.368 79.7421 341.268ZM87.0861 341.268C87.0861 340.296 87.0201 339.474 86.8881 338.802C86.7681 338.13 86.5161 337.584 86.1321 337.164C85.7481 336.732 85.1781 336.516 84.4221 336.516C83.6661 336.516 83.0961 336.732 82.7121 337.164C82.3281 337.584 82.0701 338.13 81.9381 338.802C81.8181 339.474 81.7581 340.296 81.7581 341.268C81.7581 342.276 81.8181 343.122 81.9381 343.806C82.0581 344.49 82.3101 345.042 82.6941 345.462C83.0901 345.882 83.6661 346.092 84.4221 346.092C85.1781 346.092 85.7481 345.882 86.1321 345.462C86.5281 345.042 86.7861 344.49 86.9061 343.806C87.0261 343.122 87.0861 342.276 87.0861 341.268Z" fill="#37ED81"/>
<path d="M219.769 176.49C221.101 176.49 222.265 176.748 223.261 177.264C224.269 177.768 225.043 178.5 225.583 179.46C226.135 180.408 226.411 181.518 226.411 182.79C226.411 184.062 226.135 185.166 225.583 186.102C225.043 187.038 224.269 187.758 223.261 188.262C222.265 188.754 221.101 189 219.769 189H215.683V176.49H219.769ZM219.769 187.326C221.233 187.326 222.355 186.93 223.135 186.138C223.915 185.346 224.305 184.23 224.305 182.79C224.305 181.338 223.915 180.204 223.135 179.388C222.355 178.572 221.233 178.164 219.769 178.164H217.735V187.326H219.769ZM227.761 183.996C227.761 183 227.965 182.118 228.373 181.35C228.793 180.582 229.357 179.988 230.065 179.568C230.785 179.136 231.577 178.92 232.441 178.92C233.221 178.92 233.899 179.076 234.475 179.388C235.063 179.688 235.531 180.066 235.879 180.522V179.082H237.949V189H235.879V187.524C235.531 187.992 235.057 188.382 234.457 188.694C233.857 189.006 233.173 189.162 232.405 189.162C231.553 189.162 230.773 188.946 230.065 188.514C229.357 188.07 228.793 187.458 228.373 186.678C227.965 185.886 227.761 184.992 227.761 183.996ZM235.879 184.032C235.879 183.348 235.735 182.754 235.447 182.25C235.171 181.746 234.805 181.362 234.349 181.098C233.893 180.834 233.401 180.702 232.873 180.702C232.345 180.702 231.853 180.834 231.397 181.098C230.941 181.35 230.569 181.728 230.281 182.232C230.005 182.724 229.867 183.312 229.867 183.996C229.867 184.68 230.005 185.28 230.281 185.796C230.569 186.312 230.941 186.708 231.397 186.984C231.865 187.248 232.357 187.38 232.873 187.38C233.401 187.38 233.893 187.248 234.349 186.984C234.805 186.72 235.171 186.336 235.447 185.832C235.735 185.316 235.879 184.716 235.879 184.032ZM243.038 180.756V186.246C243.038 186.618 243.122 186.888 243.29 187.056C243.47 187.212 243.77 187.29 244.19 187.29H245.45V189H243.83C242.906 189 242.198 188.784 241.706 188.352C241.214 187.92 240.968 187.218 240.968 186.246V180.756H239.798V179.082H240.968V176.616H243.038V179.082H245.45V180.756H243.038ZM246.658 183.996C246.658 183 246.862 182.118 247.27 181.35C247.69 180.582 248.254 179.988 248.962 179.568C249.682 179.136 250.474 178.92 251.338 178.92C252.118 178.92 252.796 179.076 253.372 179.388C253.96 179.688 254.428 180.066 254.776 180.522V179.082H256.846V189H254.776V187.524C254.428 187.992 253.954 188.382 253.354 188.694C252.754 189.006 252.07 189.162 251.302 189.162C250.45 189.162 249.67 188.946 248.962 188.514C248.254 188.07 247.69 187.458 247.27 186.678C246.862 185.886 246.658 184.992 246.658 183.996ZM254.776 184.032C254.776 183.348 254.632 182.754 254.344 182.25C254.068 181.746 253.702 181.362 253.246 181.098C252.79 180.834 252.298 180.702 251.77 180.702C251.242 180.702 250.75 180.834 250.294 181.098C249.838 181.35 249.466 181.728 249.178 182.232C248.902 182.724 248.764 183.312 248.764 183.996C248.764 184.68 248.902 185.28 249.178 185.796C249.466 186.312 249.838 186.708 250.294 186.984C250.762 187.248 251.254 187.38 251.77 187.38C252.298 187.38 252.79 187.248 253.246 186.984C253.702 186.72 254.068 186.336 254.344 185.832C254.632 185.316 254.776 184.716 254.776 184.032ZM271.759 186.444H266.521L265.621 189H263.479L267.961 176.472H270.337L274.819 189H272.659L271.759 186.444ZM271.183 184.77L269.149 178.956L267.097 184.77H271.183ZM281.771 178.92C282.551 178.92 283.247 179.082 283.859 179.406C284.483 179.73 284.969 180.21 285.317 180.846C285.665 181.482 285.839 182.25 285.839 183.15V189H283.805V183.456C283.805 182.568 283.583 181.89 283.139 181.422C282.695 180.942 282.089 180.702 281.321 180.702C280.553 180.702 279.941 180.942 279.485 181.422C279.041 181.89 278.819 182.568 278.819 183.456V189H276.767V179.082H278.819V180.216C279.155 179.808 279.581 179.49 280.097 179.262C280.625 179.034 281.183 178.92 281.771 178.92ZM287.773 183.996C287.773 183 287.977 182.118 288.385 181.35C288.805 180.582 289.369 179.988 290.077 179.568C290.797 179.136 291.589 178.92 292.453 178.92C293.233 178.92 293.911 179.076 294.487 179.388C295.075 179.688 295.543 180.066 295.891 180.522V179.082H297.961V189H295.891V187.524C295.543 187.992 295.069 188.382 294.469 188.694C293.869 189.006 293.185 189.162 292.417 189.162C291.565 189.162 290.785 188.946 290.077 188.514C289.369 188.07 288.805 187.458 288.385 186.678C287.977 185.886 287.773 184.992 287.773 183.996ZM295.891 184.032C295.891 183.348 295.747 182.754 295.459 182.25C295.183 181.746 294.817 181.362 294.361 181.098C293.905 180.834 293.413 180.702 292.885 180.702C292.357 180.702 291.865 180.834 291.409 181.098C290.953 181.35 290.581 181.728 290.293 182.232C290.017 182.724 289.879 183.312 289.879 183.996C289.879 184.68 290.017 185.28 290.293 185.796C290.581 186.312 290.953 186.708 291.409 186.984C291.877 187.248 292.369 187.38 292.885 187.38C293.413 187.38 293.905 187.248 294.361 186.984C294.817 186.72 295.183 186.336 295.459 185.832C295.747 185.316 295.891 184.716 295.891 184.032ZM302.708 175.68V189H300.656V175.68H302.708ZM314.33 179.082L308.246 193.662H306.122L308.138 188.838L304.232 179.082H306.518L309.308 186.642L312.206 179.082H314.33ZM319.479 189.162C318.699 189.162 317.997 189.024 317.373 188.748C316.761 188.46 316.275 188.076 315.915 187.596C315.555 187.104 315.363 186.558 315.339 185.958H317.463C317.499 186.378 317.697 186.732 318.057 187.02C318.429 187.296 318.891 187.434 319.443 187.434C320.019 187.434 320.463 187.326 320.775 187.11C321.099 186.882 321.261 186.594 321.261 186.246C321.261 185.874 321.081 185.598 320.721 185.418C320.373 185.238 319.815 185.04 319.047 184.824C318.303 184.62 317.697 184.422 317.229 184.23C316.761 184.038 316.353 183.744 316.005 183.348C315.669 182.952 315.501 182.43 315.501 181.782C315.501 181.254 315.657 180.774 315.969 180.342C316.281 179.898 316.725 179.55 317.301 179.298C317.889 179.046 318.561 178.92 319.317 178.92C320.445 178.92 321.351 179.208 322.035 179.784C322.731 180.348 323.103 181.122 323.151 182.106H321.099C321.063 181.662 320.883 181.308 320.559 181.044C320.235 180.78 319.797 180.648 319.245 180.648C318.705 180.648 318.291 180.75 318.003 180.954C317.715 181.158 317.571 181.428 317.571 181.764C317.571 182.028 317.667 182.25 317.859 182.43C318.051 182.61 318.285 182.754 318.561 182.862C318.837 182.958 319.245 183.084 319.785 183.24C320.505 183.432 321.093 183.63 321.549 183.834C322.017 184.026 322.419 184.314 322.755 184.698C323.091 185.082 323.265 185.592 323.277 186.228C323.277 186.792 323.121 187.296 322.809 187.74C322.497 188.184 322.053 188.532 321.477 188.784C320.913 189.036 320.247 189.162 319.479 189.162ZM327.888 180.756V186.246C327.888 186.618 327.972 186.888 328.14 187.056C328.32 187.212 328.62 187.29 329.04 187.29H330.3V189H328.68C327.756 189 327.048 188.784 326.556 188.352C326.064 187.92 325.818 187.218 325.818 186.246V180.756H324.648V179.082H325.818V176.616H327.888V179.082H330.3V180.756H327.888ZM339.805 181.62V183.348H332.407V181.62H339.805ZM349.448 176.49V189H347.396V176.49H349.448Z" fill="#1E1E1E"/>
<path d="M223.717 206.054L223.269 207.633H214.889L215.337 206.054H223.717ZM219.639 216L215.062 210.445L215.049 209.199H217.318C217.885 209.199 218.365 209.112 218.757 208.937C219.149 208.762 219.447 208.509 219.652 208.176C219.856 207.839 219.958 207.43 219.958 206.949C219.958 206.233 219.745 205.664 219.319 205.242C218.893 204.82 218.226 204.609 217.318 204.609H214.889L215.356 202.909H217.318C218.375 202.909 219.247 203.077 219.933 203.414C220.619 203.751 221.13 204.217 221.467 204.814C221.804 205.411 221.972 206.099 221.972 206.879C221.972 207.573 221.833 208.202 221.556 208.764C221.279 209.327 220.838 209.785 220.233 210.138C219.628 210.492 218.833 210.699 217.849 210.759L217.791 210.771L221.972 215.891V216H219.639ZM223.723 202.909L223.269 204.501L216.571 204.462L217.024 202.909H223.723ZM229.557 204.75V202.878H233.301V216H231.231V204.75H229.557ZM235.85 204.75V202.878H239.594V216H237.524V204.75H235.85ZM244.933 213.534L242.755 218.502H241.423L242.701 213.534H244.933ZM246.456 209.268C246.456 207.192 246.804 205.572 247.5 204.408C248.208 203.232 249.42 202.644 251.136 202.644C252.852 202.644 254.058 203.232 254.754 204.408C255.462 205.572 255.816 207.192 255.816 209.268C255.816 211.368 255.462 213.012 254.754 214.2C254.058 215.376 252.852 215.964 251.136 215.964C249.42 215.964 248.208 215.376 247.5 214.2C246.804 213.012 246.456 211.368 246.456 209.268ZM253.8 209.268C253.8 208.296 253.734 207.474 253.602 206.802C253.482 206.13 253.23 205.584 252.846 205.164C252.462 204.732 251.892 204.516 251.136 204.516C250.38 204.516 249.81 204.732 249.426 205.164C249.042 205.584 248.784 206.13 248.652 206.802C248.532 207.474 248.472 208.296 248.472 209.268C248.472 210.276 248.532 211.122 248.652 211.806C248.772 212.49 249.024 213.042 249.408 213.462C249.804 213.882 250.38 214.092 251.136 214.092C251.892 214.092 252.462 213.882 252.846 213.462C253.242 213.042 253.5 212.49 253.62 211.806C253.74 211.122 253.8 210.276 253.8 209.268ZM257.988 209.268C257.988 207.192 258.336 205.572 259.032 204.408C259.74 203.232 260.952 202.644 262.668 202.644C264.384 202.644 265.59 203.232 266.286 204.408C266.994 205.572 267.348 207.192 267.348 209.268C267.348 211.368 266.994 213.012 266.286 214.2C265.59 215.376 264.384 215.964 262.668 215.964C260.952 215.964 259.74 215.376 259.032 214.2C258.336 213.012 257.988 211.368 257.988 209.268ZM265.332 209.268C265.332 208.296 265.266 207.474 265.134 206.802C265.014 206.13 264.762 205.584 264.378 205.164C263.994 204.732 263.424 204.516 262.668 204.516C261.912 204.516 261.342 204.732 260.958 205.164C260.574 205.584 260.316 206.13 260.184 206.802C260.064 207.474 260.004 208.296 260.004 209.268C260.004 210.276 260.064 211.122 260.184 211.806C260.304 212.49 260.556 213.042 260.94 213.462C261.336 213.882 261.912 214.092 262.668 214.092C263.424 214.092 263.994 213.882 264.378 213.462C264.774 213.042 265.032 212.49 265.152 211.806C265.272 211.122 265.332 210.276 265.332 209.268ZM272.039 213.534L269.861 218.502H268.529L269.807 213.534H272.039ZM273.562 209.268C273.562 207.192 273.91 205.572 274.606 204.408C275.314 203.232 276.526 202.644 278.242 202.644C279.958 202.644 281.164 203.232 281.86 204.408C282.568 205.572 282.922 207.192 282.922 209.268C282.922 211.368 282.568 213.012 281.86 214.2C281.164 215.376 279.958 215.964 278.242 215.964C276.526 215.964 275.314 215.376 274.606 214.2C273.91 213.012 273.562 211.368 273.562 209.268ZM280.906 209.268C280.906 208.296 280.84 207.474 280.708 206.802C280.588 206.13 280.336 205.584 279.952 205.164C279.568 204.732 278.998 204.516 278.242 204.516C277.486 204.516 276.916 204.732 276.532 205.164C276.148 205.584 275.89 206.13 275.758 206.802C275.638 207.474 275.578 208.296 275.578 209.268C275.578 210.276 275.638 211.122 275.758 211.806C275.878 212.49 276.13 213.042 276.514 213.462C276.91 213.882 277.486 214.092 278.242 214.092C278.998 214.092 279.568 213.882 279.952 213.462C280.348 213.042 280.606 212.49 280.726 211.806C280.846 211.122 280.906 210.276 280.906 209.268ZM285.093 209.268C285.093 207.192 285.441 205.572 286.137 204.408C286.845 203.232 288.057 202.644 289.773 202.644C291.489 202.644 292.695 203.232 293.391 204.408C294.099 205.572 294.453 207.192 294.453 209.268C294.453 211.368 294.099 213.012 293.391 214.2C292.695 215.376 291.489 215.964 289.773 215.964C288.057 215.964 286.845 215.376 286.137 214.2C285.441 213.012 285.093 211.368 285.093 209.268ZM292.437 209.268C292.437 208.296 292.371 207.474 292.239 206.802C292.119 206.13 291.867 205.584 291.483 205.164C291.099 204.732 290.529 204.516 289.773 204.516C289.017 204.516 288.447 204.732 288.063 205.164C287.679 205.584 287.421 206.13 287.289 206.802C287.169 207.474 287.109 208.296 287.109 209.268C287.109 210.276 287.169 211.122 287.289 211.806C287.409 212.49 287.661 213.042 288.045 213.462C288.441 213.882 289.017 214.092 289.773 214.092C290.529 214.092 291.099 213.882 291.483 213.462C291.879 213.042 292.137 212.49 292.257 211.806C292.377 211.122 292.437 210.276 292.437 209.268ZM296.624 209.268C296.624 207.192 296.972 205.572 297.668 204.408C298.376 203.232 299.588 202.644 301.304 202.644C303.02 202.644 304.226 203.232 304.922 204.408C305.63 205.572 305.984 207.192 305.984 209.268C305.984 211.368 305.63 213.012 304.922 214.2C304.226 215.376 303.02 215.964 301.304 215.964C299.588 215.964 298.376 215.376 297.668 214.2C296.972 213.012 296.624 211.368 296.624 209.268ZM303.968 209.268C303.968 208.296 303.902 207.474 303.77 206.802C303.65 206.13 303.398 205.584 303.014 205.164C302.63 204.732 302.06 204.516 301.304 204.516C300.548 204.516 299.978 204.732 299.594 205.164C299.21 205.584 298.952 206.13 298.82 206.802C298.7 207.474 298.64 208.296 298.64 209.268C298.64 210.276 298.7 211.122 298.82 211.806C298.94 212.49 299.192 213.042 299.576 213.462C299.972 213.882 300.548 214.092 301.304 214.092C302.06 214.092 302.63 213.882 303.014 213.462C303.41 213.042 303.668 212.49 303.788 211.806C303.908 211.122 303.968 210.276 303.968 209.268Z" fill="#37ED81"/>
<path d="M266.769 35.49C268.101 35.49 269.265 35.748 270.261 36.264C271.269 36.768 272.043 37.5 272.583 38.46C273.135 39.408 273.411 40.518 273.411 41.79C273.411 43.062 273.135 44.166 272.583 45.102C272.043 46.038 271.269 46.758 270.261 47.262C269.265 47.754 268.101 48 266.769 48H262.683V35.49H266.769ZM266.769 46.326C268.233 46.326 269.355 45.93 270.135 45.138C270.915 44.346 271.305 43.23 271.305 41.79C271.305 40.338 270.915 39.204 270.135 38.388C269.355 37.572 268.233 37.164 266.769 37.164H264.735V46.326H266.769ZM274.761 42.996C274.761 42 274.965 41.118 275.373 40.35C275.793 39.582 276.357 38.988 277.065 38.568C277.785 38.136 278.577 37.92 279.441 37.92C280.221 37.92 280.899 38.076 281.475 38.388C282.063 38.688 282.531 39.066 282.879 39.522V38.082H284.949V48H282.879V46.524C282.531 46.992 282.057 47.382 281.457 47.694C280.857 48.006 280.173 48.162 279.405 48.162C278.553 48.162 277.773 47.946 277.065 47.514C276.357 47.07 275.793 46.458 275.373 45.678C274.965 44.886 274.761 43.992 274.761 42.996ZM282.879 43.032C282.879 42.348 282.735 41.754 282.447 41.25C282.171 40.746 281.805 40.362 281.349 40.098C280.893 39.834 280.401 39.702 279.873 39.702C279.345 39.702 278.853 39.834 278.397 40.098C277.941 40.35 277.569 40.728 277.281 41.232C277.005 41.724 276.867 42.312 276.867 42.996C276.867 43.68 277.005 44.28 277.281 44.796C277.569 45.312 277.941 45.708 278.397 45.984C278.865 46.248 279.357 46.38 279.873 46.38C280.401 46.38 280.893 46.248 281.349 45.984C281.805 45.72 282.171 45.336 282.447 44.832C282.735 44.316 282.879 43.716 282.879 43.032ZM290.038 39.756V45.246C290.038 45.618 290.122 45.888 290.29 46.056C290.47 46.212 290.77 46.29 291.19 46.29H292.45V48H290.83C289.906 48 289.198 47.784 288.706 47.352C288.214 46.92 287.968 46.218 287.968 45.246V39.756H286.798V38.082H287.968V35.616H290.038V38.082H292.45V39.756H290.038ZM293.658 42.996C293.658 42 293.862 41.118 294.27 40.35C294.69 39.582 295.254 38.988 295.962 38.568C296.682 38.136 297.474 37.92 298.338 37.92C299.118 37.92 299.796 38.076 300.372 38.388C300.96 38.688 301.428 39.066 301.776 39.522V38.082H303.846V48H301.776V46.524C301.428 46.992 300.954 47.382 300.354 47.694C299.754 48.006 299.07 48.162 298.302 48.162C297.45 48.162 296.67 47.946 295.962 47.514C295.254 47.07 294.69 46.458 294.27 45.678C293.862 44.886 293.658 43.992 293.658 42.996ZM301.776 43.032C301.776 42.348 301.632 41.754 301.344 41.25C301.068 40.746 300.702 40.362 300.246 40.098C299.79 39.834 299.298 39.702 298.77 39.702C298.242 39.702 297.75 39.834 297.294 40.098C296.838 40.35 296.466 40.728 296.178 41.232C295.902 41.724 295.764 42.312 295.764 42.996C295.764 43.68 295.902 44.28 296.178 44.796C296.466 45.312 296.838 45.708 297.294 45.984C297.762 46.248 298.254 46.38 298.77 46.38C299.298 46.38 299.79 46.248 300.246 45.984C300.702 45.72 301.068 45.336 301.344 44.832C301.632 44.316 301.776 43.716 301.776 43.032ZM318.759 45.444H313.521L312.621 48H310.479L314.961 35.472H317.337L321.819 48H319.659L318.759 45.444ZM318.183 43.77L316.149 37.956L314.097 43.77H318.183ZM328.771 37.92C329.551 37.92 330.247 38.082 330.859 38.406C331.483 38.73 331.969 39.21 332.317 39.846C332.665 40.482 332.839 41.25 332.839 42.15V48H330.805V42.456C330.805 41.568 330.583 40.89 330.139 40.422C329.695 39.942 329.089 39.702 328.321 39.702C327.553 39.702 326.941 39.942 326.485 40.422C326.041 40.89 325.819 41.568 325.819 42.456V48H323.767V38.082H325.819V39.216C326.155 38.808 326.581 38.49 327.097 38.262C327.625 38.034 328.183 37.92 328.771 37.92ZM334.773 42.996C334.773 42 334.977 41.118 335.385 40.35C335.805 39.582 336.369 38.988 337.077 38.568C337.797 38.136 338.589 37.92 339.453 37.92C340.233 37.92 340.911 38.076 341.487 38.388C342.075 38.688 342.543 39.066 342.891 39.522V38.082H344.961V48H342.891V46.524C342.543 46.992 342.069 47.382 341.469 47.694C340.869 48.006 340.185 48.162 339.417 48.162C338.565 48.162 337.785 47.946 337.077 47.514C336.369 47.07 335.805 46.458 335.385 45.678C334.977 44.886 334.773 43.992 334.773 42.996ZM342.891 43.032C342.891 42.348 342.747 41.754 342.459 41.25C342.183 40.746 341.817 40.362 341.361 40.098C340.905 39.834 340.413 39.702 339.885 39.702C339.357 39.702 338.865 39.834 338.409 40.098C337.953 40.35 337.581 40.728 337.293 41.232C337.017 41.724 336.879 42.312 336.879 42.996C336.879 43.68 337.017 44.28 337.293 44.796C337.581 45.312 337.953 45.708 338.409 45.984C338.877 46.248 339.369 46.38 339.885 46.38C340.413 46.38 340.905 46.248 341.361 45.984C341.817 45.72 342.183 45.336 342.459 44.832C342.747 44.316 342.891 43.716 342.891 43.032ZM349.708 34.68V48H347.656V34.68H349.708ZM361.33 38.082L355.246 52.662H353.122L355.138 47.838L351.232 38.082H353.518L356.308 45.642L359.206 38.082H361.33ZM366.479 48.162C365.699 48.162 364.997 48.024 364.373 47.748C363.761 47.46 363.275 47.076 362.915 46.596C362.555 46.104 362.363 45.558 362.339 44.958H364.463C364.499 45.378 364.697 45.732 365.057 46.02C365.429 46.296 365.891 46.434 366.443 46.434C367.019 46.434 367.463 46.326 367.775 46.11C368.099 45.882 368.261 45.594 368.261 45.246C368.261 44.874 368.081 44.598 367.721 44.418C367.373 44.238 366.815 44.04 366.047 43.824C365.303 43.62 364.697 43.422 364.229 43.23C363.761 43.038 363.353 42.744 363.005 42.348C362.669 41.952 362.501 41.43 362.501 40.782C362.501 40.254 362.657 39.774 362.969 39.342C363.281 38.898 363.725 38.55 364.301 38.298C364.889 38.046 365.561 37.92 366.317 37.92C367.445 37.92 368.351 38.208 369.035 38.784C369.731 39.348 370.103 40.122 370.151 41.106H368.099C368.063 40.662 367.883 40.308 367.559 40.044C367.235 39.78 366.797 39.648 366.245 39.648C365.705 39.648 365.291 39.75 365.003 39.954C364.715 40.158 364.571 40.428 364.571 40.764C364.571 41.028 364.667 41.25 364.859 41.43C365.051 41.61 365.285 41.754 365.561 41.862C365.837 41.958 366.245 42.084 366.785 42.24C367.505 42.432 368.093 42.63 368.549 42.834C369.017 43.026 369.419 43.314 369.755 43.698C370.091 44.082 370.265 44.592 370.277 45.228C370.277 45.792 370.121 46.296 369.809 46.74C369.497 47.184 369.053 47.532 368.477 47.784C367.913 48.036 367.247 48.162 366.479 48.162ZM374.888 39.756V45.246C374.888 45.618 374.972 45.888 375.14 46.056C375.32 46.212 375.62 46.29 376.04 46.29H377.3V48H375.68C374.756 48 374.048 47.784 373.556 47.352C373.064 46.92 372.818 46.218 372.818 45.246V39.756H371.648V38.082H372.818V35.616H374.888V38.082H377.3V39.756H374.888ZM391.481 40.62V42.348H384.083V40.62H391.481ZM401.124 35.49V48H399.072V35.49H401.124ZM405.87 35.49V48H403.818V35.49H405.87Z" fill="#1E1E1E"/>
<path d="M270.717 65.054L270.269 66.6328H261.889L262.337 65.054H270.717ZM266.639 75L262.062 69.4453L262.049 68.1989H264.318C264.885 68.1989 265.365 68.1115 265.757 67.9368C266.149 67.7621 266.447 67.5085 266.652 67.1761C266.856 66.8395 266.958 66.4304 266.958 65.9489C266.958 65.233 266.745 64.6641 266.319 64.2422C265.893 63.8203 265.226 63.6094 264.318 63.6094H261.889L262.356 61.9091H264.318C265.375 61.9091 266.247 62.0774 266.933 62.4141C267.619 62.7507 268.13 63.2173 268.467 63.8139C268.804 64.4105 268.972 65.0987 268.972 65.8786C268.972 66.5732 268.833 67.2017 268.556 67.7642C268.279 68.3267 267.838 68.7848 267.233 69.1385C266.628 69.4922 265.833 69.6989 264.849 69.7585L264.791 69.7713L268.972 74.8913V75H266.639ZM270.723 61.9091L270.269 63.5007L263.571 63.4624L264.024 61.9091H270.723ZM276.557 63.75V61.878H280.301V75H278.231V63.75H276.557ZM291.58 63.642H285.55V67.224C285.802 66.888 286.174 66.606 286.666 66.378C287.17 66.15 287.704 66.036 288.268 66.036C289.276 66.036 290.092 66.252 290.716 66.684C291.352 67.116 291.802 67.662 292.066 68.322C292.342 68.982 292.48 69.678 292.48 70.41C292.48 71.298 292.306 72.09 291.958 72.786C291.622 73.47 291.112 74.01 290.428 74.406C289.756 74.802 288.928 75 287.944 75C286.636 75 285.586 74.676 284.794 74.028C284.002 73.38 283.528 72.522 283.372 71.454H285.37C285.502 72.018 285.796 72.468 286.252 72.804C286.708 73.128 287.278 73.29 287.962 73.29C288.814 73.29 289.45 73.032 289.87 72.516C290.302 72 290.518 71.316 290.518 70.464C290.518 69.6 290.302 68.94 289.87 68.484C289.438 68.016 288.802 67.782 287.962 67.782C287.374 67.782 286.876 67.932 286.468 68.232C286.072 68.52 285.784 68.916 285.604 69.42H283.66V61.842H291.58V63.642ZM297.136 72.534L294.958 77.502H293.626L294.904 72.534H297.136ZM298.659 68.268C298.659 66.192 299.007 64.572 299.703 63.408C300.411 62.232 301.623 61.644 303.339 61.644C305.055 61.644 306.261 62.232 306.957 63.408C307.665 64.572 308.019 66.192 308.019 68.268C308.019 70.368 307.665 72.012 306.957 73.2C306.261 74.376 305.055 74.964 303.339 74.964C301.623 74.964 300.411 74.376 299.703 73.2C299.007 72.012 298.659 70.368 298.659 68.268ZM306.003 68.268C306.003 67.296 305.937 66.474 305.805 65.802C305.685 65.13 305.433 64.584 305.049 64.164C304.665 63.732 304.095 63.516 303.339 63.516C302.583 63.516 302.013 63.732 301.629 64.164C301.245 64.584 300.987 65.13 300.855 65.802C300.735 66.474 300.675 67.296 300.675 68.268C300.675 69.276 300.735 70.122 300.855 70.806C300.975 71.49 301.227 72.042 301.611 72.462C302.007 72.882 302.583 73.092 303.339 73.092C304.095 73.092 304.665 72.882 305.049 72.462C305.445 72.042 305.703 71.49 305.823 70.806C305.943 70.122 306.003 69.276 306.003 68.268ZM310.191 68.268C310.191 66.192 310.539 64.572 311.235 63.408C311.943 62.232 313.155 61.644 314.871 61.644C316.587 61.644 317.793 62.232 318.489 63.408C319.197 64.572 319.551 66.192 319.551 68.268C319.551 70.368 319.197 72.012 318.489 73.2C317.793 74.376 316.587 74.964 314.871 74.964C313.155 74.964 311.943 74.376 311.235 73.2C310.539 72.012 310.191 70.368 310.191 68.268ZM317.535 68.268C317.535 67.296 317.469 66.474 317.337 65.802C317.217 65.13 316.965 64.584 316.581 64.164C316.197 63.732 315.627 63.516 314.871 63.516C314.115 63.516 313.545 63.732 313.161 64.164C312.777 64.584 312.519 65.13 312.387 65.802C312.267 66.474 312.207 67.296 312.207 68.268C312.207 69.276 312.267 70.122 312.387 70.806C312.507 71.49 312.759 72.042 313.143 72.462C313.539 72.882 314.115 73.092 314.871 73.092C315.627 73.092 316.197 72.882 316.581 72.462C316.977 72.042 317.235 71.49 317.355 70.806C317.475 70.122 317.535 69.276 317.535 68.268ZM324.242 72.534L322.064 77.502H320.732L322.01 72.534H324.242ZM325.765 68.268C325.765 66.192 326.113 64.572 326.809 63.408C327.517 62.232 328.729 61.644 330.445 61.644C332.161 61.644 333.367 62.232 334.063 63.408C334.771 64.572 335.125 66.192 335.125 68.268C335.125 70.368 334.771 72.012 334.063 73.2C333.367 74.376 332.161 74.964 330.445 74.964C328.729 74.964 327.517 74.376 326.809 73.2C326.113 72.012 325.765 70.368 325.765 68.268ZM333.109 68.268C333.109 67.296 333.043 66.474 332.911 65.802C332.791 65.13 332.539 64.584 332.155 64.164C331.771 63.732 331.201 63.516 330.445 63.516C329.689 63.516 329.119 63.732 328.735 64.164C328.351 64.584 328.093 65.13 327.961 65.802C327.841 66.474 327.781 67.296 327.781 68.268C327.781 69.276 327.841 70.122 327.961 70.806C328.081 71.49 328.333 72.042 328.717 72.462C329.113 72.882 329.689 73.092 330.445 73.092C331.201 73.092 331.771 72.882 332.155 72.462C332.551 72.042 332.809 71.49 332.929 70.806C333.049 70.122 333.109 69.276 333.109 68.268ZM337.296 68.268C337.296 66.192 337.644 64.572 338.34 63.408C339.048 62.232 340.26 61.644 341.976 61.644C343.692 61.644 344.898 62.232 345.594 63.408C346.302 64.572 346.656 66.192 346.656 68.268C346.656 70.368 346.302 72.012 345.594 73.2C344.898 74.376 343.692 74.964 341.976 74.964C340.26 74.964 339.048 74.376 338.34 73.2C337.644 72.012 337.296 70.368 337.296 68.268ZM344.64 68.268C344.64 67.296 344.574 66.474 344.442 65.802C344.322 65.13 344.07 64.584 343.686 64.164C343.302 63.732 342.732 63.516 341.976 63.516C341.22 63.516 340.65 63.732 340.266 64.164C339.882 64.584 339.624 65.13 339.492 65.802C339.372 66.474 339.312 67.296 339.312 68.268C339.312 69.276 339.372 70.122 339.492 70.806C339.612 71.49 339.864 72.042 340.248 72.462C340.644 72.882 341.22 73.092 341.976 73.092C342.732 73.092 343.302 72.882 343.686 72.462C344.082 72.042 344.34 71.49 344.46 70.806C344.58 70.122 344.64 69.276 344.64 68.268ZM348.827 68.268C348.827 66.192 349.175 64.572 349.871 63.408C350.579 62.232 351.791 61.644 353.507 61.644C355.223 61.644 356.429 62.232 357.125 63.408C357.833 64.572 358.187 66.192 358.187 68.268C358.187 70.368 357.833 72.012 357.125 73.2C356.429 74.376 355.223 74.964 353.507 74.964C351.791 74.964 350.579 74.376 349.871 73.2C349.175 72.012 348.827 70.368 348.827 68.268ZM356.171 68.268C356.171 67.296 356.105 66.474 355.973 65.802C355.853 65.13 355.601 64.584 355.217 64.164C354.833 63.732 354.263 63.516 353.507 63.516C352.751 63.516 352.181 63.732 351.797 64.164C351.413 64.584 351.155 65.13 351.023 65.802C350.903 66.474 350.843 67.296 350.843 68.268C350.843 69.276 350.903 70.122 351.023 70.806C351.143 71.49 351.395 72.042 351.779 72.462C352.175 72.882 352.751 73.092 353.507 73.092C354.263 73.092 354.833 72.882 355.217 72.462C355.613 72.042 355.871 71.49 355.991 70.806C356.111 70.122 356.171 69.276 356.171 68.268Z" fill="#37ED81"/>
<rect x="422" y="59" width="20" height="20" rx="10" fill="#37ED81"/>
<defs>
<linearGradient id="paint0_linear_13_31" x1="-1.282" y1="340.582" x2="376.262" y2="-93.9981" gradientUnits="userSpaceOnUse">
<stop stop-color="#37ED81"/>
<stop offset="1" stop-color="#37ED81" stop-opacity="0"/>
</linearGradient>
</defs>
</svg>
