<svg width="460" height="440" viewBox="0 0 460 440" fill="none" xmlns="http://www.w3.org/2000/svg">
<path d="M10 430C173.395 418.262 417.692 319.278 450 10" stroke="url(#paint0_linear_11_31)" stroke-width="20" stroke-linecap="round"/>
<rect y="420" width="20" height="20" rx="10" fill="#4BA25D"/>
<rect x="356" y="231" width="20" height="20" rx="10" fill="#37ED81"/>
<path d="M8.172 341.49V350.508C8.172 351.624 7.83 352.506 7.146 353.154C6.474 353.802 5.586 354.126 4.482 354.126C3.378 354.126 2.484 353.802 1.8 353.154C1.128 352.506 0.792 351.624 0.792 350.508H2.862C2.874 351.06 3.012 351.498 3.276 351.822C3.552 352.146 3.954 352.308 4.482 352.308C5.01 352.308 5.412 352.146 5.688 351.822C5.964 351.486 6.102 351.048 6.102 350.508V341.49H8.172ZM13.5622 345.522C13.8622 345.018 14.2582 344.628 14.7502 344.352C15.2542 344.064 15.8482 343.92 16.5322 343.92V346.044H16.0102C15.2062 346.044 14.5942 346.248 14.1742 346.656C13.7662 347.064 13.5622 347.772 13.5622 348.78V354H11.5102V344.082H13.5622V345.522ZM19.2464 354.126C18.8744 354.126 18.5624 354 18.3104 353.748C18.0584 353.496 17.9324 353.184 17.9324 352.812C17.9324 352.44 18.0584 352.128 18.3104 351.876C18.5624 351.624 18.8744 351.498 19.2464 351.498C19.6064 351.498 19.9124 351.624 20.1644 351.876C20.4164 352.128 20.5424 352.44 20.5424 352.812C20.5424 353.184 20.4164 353.496 20.1644 353.748C19.9124 354 19.6064 354.126 19.2464 354.126ZM24.8122 343.146V346.818H29.1322V348.492H24.8122V352.326H29.6722V354H22.7602V341.472H29.6722V343.146H24.8122ZM37.2036 343.92C37.9836 343.92 38.6796 344.082 39.2916 344.406C39.9156 344.73 40.4016 345.21 40.7496 345.846C41.0976 346.482 41.2716 347.25 41.2716 348.15V354H39.2376V348.456C39.2376 347.568 39.0156 346.89 38.5716 346.422C38.1276 345.942 37.5216 345.702 36.7536 345.702C35.9856 345.702 35.3736 345.942 34.9176 346.422C34.4736 346.89 34.2516 347.568 34.2516 348.456V354H32.1996V344.082H34.2516V345.216C34.5876 344.808 35.0136 344.49 35.5296 344.262C36.0576 344.034 36.6156 343.92 37.2036 343.92ZM47.8851 343.92C48.6531 343.92 49.3311 344.076 49.9191 344.388C50.5191 344.688 50.9871 345.066 51.3231 345.522V344.082H53.3931V354.162C53.3931 355.074 53.2011 355.884 52.8171 356.592C52.4331 357.312 51.8751 357.876 51.1431 358.284C50.4231 358.692 49.5591 358.896 48.5511 358.896C47.2071 358.896 46.0911 358.578 45.2031 357.942C44.3151 357.318 43.8111 356.466 43.6911 355.386H45.7251C45.8811 355.902 46.2111 356.316 46.7151 356.628C47.2311 356.952 47.8431 357.114 48.5511 357.114C49.3791 357.114 50.0451 356.862 50.5491 356.358C51.0651 355.854 51.3231 355.122 51.3231 354.162V352.506C50.9751 352.974 50.5011 353.37 49.9011 353.694C49.3131 354.006 48.6411 354.162 47.8851 354.162C47.0211 354.162 46.2291 353.946 45.5091 353.514C44.8011 353.07 44.2371 352.458 43.8171 351.678C43.4091 350.886 43.2051 349.992 43.2051 348.996C43.2051 348 43.4091 347.118 43.8171 346.35C44.2371 345.582 44.8011 344.988 45.5091 344.568C46.2291 344.136 47.0211 343.92 47.8851 343.92ZM51.3231 349.032C51.3231 348.348 51.1791 347.754 50.8911 347.25C50.6151 346.746 50.2491 346.362 49.7931 346.098C49.3371 345.834 48.8451 345.702 48.3171 345.702C47.7891 345.702 47.2971 345.834 46.8411 346.098C46.3851 346.35 46.0131 346.728 45.7251 347.232C45.4491 347.724 45.3111 348.312 45.3111 348.996C45.3111 349.68 45.4491 350.28 45.7251 350.796C46.0131 351.312 46.3851 351.708 46.8411 351.984C47.3091 352.248 47.8011 352.38 48.3171 352.38C48.8451 352.38 49.3371 352.248 49.7931 351.984C50.2491 351.72 50.6151 351.336 50.8911 350.832C51.1791 350.316 51.3231 349.716 51.3231 349.032ZM57.1323 342.768C56.7603 342.768 56.4483 342.642 56.1963 342.39C55.9443 342.138 55.8183 341.826 55.8183 341.454C55.8183 341.082 55.9443 340.77 56.1963 340.518C56.4483 340.266 56.7603 340.14 57.1323 340.14C57.4923 340.14 57.7983 340.266 58.0503 340.518C58.3023 340.77 58.4283 341.082 58.4283 341.454C58.4283 341.826 58.3023 342.138 58.0503 342.39C57.7983 342.642 57.4923 342.768 57.1323 342.768ZM58.1403 344.082V354H56.0883V344.082H58.1403ZM65.8384 343.92C66.6184 343.92 67.3144 344.082 67.9264 344.406C68.5504 344.73 69.0364 345.21 69.3844 345.846C69.7324 346.482 69.9064 347.25 69.9064 348.15V354H67.8724V348.456C67.8724 347.568 67.6504 346.89 67.2064 346.422C66.7624 345.942 66.1564 345.702 65.3884 345.702C64.6204 345.702 64.0084 345.942 63.5524 346.422C63.1084 346.89 62.8864 347.568 62.8864 348.456V354H60.8344V344.082H62.8864V345.216C63.2224 344.808 63.6484 344.49 64.1644 344.262C64.6924 344.034 65.2504 343.92 65.8384 343.92ZM81.6138 348.798C81.6138 349.17 81.5898 349.506 81.5418 349.806H73.9638C74.0238 350.598 74.3178 351.234 74.8458 351.714C75.3738 352.194 76.0218 352.434 76.7898 352.434C77.8938 352.434 78.6738 351.972 79.1298 351.048H81.3438C81.0438 351.96 80.4978 352.71 79.7058 353.298C78.9258 353.874 77.9538 354.162 76.7898 354.162C75.8418 354.162 74.9898 353.952 74.2338 353.532C73.4898 353.1 72.9018 352.5 72.4698 351.732C72.0498 350.952 71.8398 350.052 71.8398 349.032C71.8398 348.012 72.0438 347.118 72.4518 346.35C72.8718 345.57 73.4538 344.97 74.1978 344.55C74.9538 344.13 75.8178 343.92 76.7898 343.92C77.7258 343.92 78.5598 344.124 79.2918 344.532C80.0238 344.94 80.5938 345.516 81.0018 346.26C81.4098 346.992 81.6138 347.838 81.6138 348.798ZM79.4718 348.15C79.4598 347.394 79.1898 346.788 78.6618 346.332C78.1338 345.876 77.4798 345.648 76.6998 345.648C75.9918 345.648 75.3858 345.876 74.8818 346.332C74.3778 346.776 74.0778 347.382 73.9818 348.15H79.4718ZM92.7232 348.798C92.7232 349.17 92.6992 349.506 92.6512 349.806H85.0732C85.1332 350.598 85.4272 351.234 85.9552 351.714C86.4832 352.194 87.1312 352.434 87.8992 352.434C89.0032 352.434 89.7832 351.972 90.2392 351.048H92.4532C92.1532 351.96 91.6072 352.71 90.8152 353.298C90.0352 353.874 89.0632 354.162 87.8992 354.162C86.9512 354.162 86.0992 353.952 85.3432 353.532C84.5992 353.1 84.0112 352.5 83.5792 351.732C83.1592 350.952 82.9492 350.052 82.9492 349.032C82.9492 348.012 83.1532 347.118 83.5612 346.35C83.9812 345.57 84.5632 344.97 85.3072 344.55C86.0632 344.13 86.9272 343.92 87.8992 343.92C88.8352 343.92 89.6692 344.124 90.4012 344.532C91.1332 344.94 91.7032 345.516 92.1112 346.26C92.5192 346.992 92.7232 347.838 92.7232 348.798ZM90.5812 348.15C90.5692 347.394 90.2992 346.788 89.7712 346.332C89.2432 345.876 88.5892 345.648 87.8092 345.648C87.1012 345.648 86.4952 345.876 85.9912 346.332C85.4872 346.776 85.1872 347.382 85.0912 348.15H90.5812ZM96.7946 345.522C97.0946 345.018 97.4906 344.628 97.9826 344.352C98.4866 344.064 99.0806 343.92 99.7646 343.92V346.044H99.2426C98.4386 346.044 97.8266 346.248 97.4066 346.656C96.9986 347.064 96.7946 347.772 96.7946 348.78V354H94.7426V344.082H96.7946V345.522Z" fill="#1E1E1E"/>
<path d="M9.38352 371.054L8.93608 372.633H0.556108L1.00355 371.054H9.38352ZM5.3054 381L0.728693 375.445L0.715909 374.199H2.98509C3.55185 374.199 4.03125 374.112 4.4233 373.937C4.81534 373.762 5.11364 373.509 5.31818 373.176C5.52273 372.839 5.625 372.43 5.625 371.949C5.625 371.233 5.41193 370.664 4.9858 370.242C4.55966 369.82 3.89276 369.609 2.98509 369.609H0.556108L1.02273 367.909H2.98509C4.0419 367.909 4.91335 368.077 5.59943 368.414C6.28551 368.751 6.79688 369.217 7.13352 369.814C7.47017 370.411 7.63849 371.099 7.63849 371.879C7.63849 372.573 7.5 373.202 7.22301 373.764C6.94602 374.327 6.50497 374.785 5.89986 375.138C5.29474 375.492 4.5 375.699 3.51562 375.759L3.4581 375.771L7.63849 380.891V381H5.3054ZM9.38991 367.909L8.93608 369.501L2.23722 369.462L2.69105 367.909H9.38991ZM23.8101 369.462L18.8061 381H16.7361L21.7941 369.678H15.1341V367.932H23.8101V369.462ZM28.0863 378.534L25.9083 383.502H24.5763L25.8543 378.534H28.0863ZM38.0693 369.642H32.0393V373.224C32.2913 372.888 32.6633 372.606 33.1553 372.378C33.6593 372.15 34.1933 372.036 34.7573 372.036C35.7653 372.036 36.5813 372.252 37.2053 372.684C37.8413 373.116 38.2913 373.662 38.5553 374.322C38.8313 374.982 38.9693 375.678 38.9693 376.41C38.9693 377.298 38.7953 378.09 38.4473 378.786C38.1113 379.47 37.6013 380.01 36.9173 380.406C36.2453 380.802 35.4173 381 34.4333 381C33.1253 381 32.0753 380.676 31.2833 380.028C30.4913 379.38 30.0173 378.522 29.8613 377.454H31.8593C31.9913 378.018 32.2853 378.468 32.7413 378.804C33.1973 379.128 33.7673 379.29 34.4513 379.29C35.3033 379.29 35.9393 379.032 36.3593 378.516C36.7913 378 37.0073 377.316 37.0073 376.464C37.0073 375.6 36.7913 374.94 36.3593 374.484C35.9273 374.016 35.2913 373.782 34.4513 373.782C33.8633 373.782 33.3653 373.932 32.9573 374.232C32.5613 374.52 32.2733 374.916 32.0933 375.42H30.1493V367.842H38.0693V369.642ZM41.1054 374.268C41.1054 372.192 41.4534 370.572 42.1494 369.408C42.8574 368.232 44.0694 367.644 45.7854 367.644C47.5014 367.644 48.7074 368.232 49.4034 369.408C50.1114 370.572 50.4654 372.192 50.4654 374.268C50.4654 376.368 50.1114 378.012 49.4034 379.2C48.7074 380.376 47.5014 380.964 45.7854 380.964C44.0694 380.964 42.8574 380.376 42.1494 379.2C41.4534 378.012 41.1054 376.368 41.1054 374.268ZM48.4494 374.268C48.4494 373.296 48.3834 372.474 48.2514 371.802C48.1314 371.13 47.8794 370.584 47.4954 370.164C47.1114 369.732 46.5414 369.516 45.7854 369.516C45.0294 369.516 44.4594 369.732 44.0754 370.164C43.6914 370.584 43.4334 371.13 43.3014 371.802C43.1814 372.474 43.1214 373.296 43.1214 374.268C43.1214 375.276 43.1814 376.122 43.3014 376.806C43.4214 377.49 43.6734 378.042 44.0574 378.462C44.4534 378.882 45.0294 379.092 45.7854 379.092C46.5414 379.092 47.1114 378.882 47.4954 378.462C47.8914 378.042 48.1494 377.49 48.2694 376.806C48.3894 376.122 48.4494 375.276 48.4494 374.268ZM55.1566 378.534L52.9786 383.502H51.6466L52.9246 378.534H55.1566ZM56.6796 374.268C56.6796 372.192 57.0276 370.572 57.7236 369.408C58.4316 368.232 59.6436 367.644 61.3596 367.644C63.0756 367.644 64.2816 368.232 64.9776 369.408C65.6856 370.572 66.0396 372.192 66.0396 374.268C66.0396 376.368 65.6856 378.012 64.9776 379.2C64.2816 380.376 63.0756 380.964 61.3596 380.964C59.6436 380.964 58.4316 380.376 57.7236 379.2C57.0276 378.012 56.6796 376.368 56.6796 374.268ZM64.0236 374.268C64.0236 373.296 63.9576 372.474 63.8256 371.802C63.7056 371.13 63.4536 370.584 63.0696 370.164C62.6856 369.732 62.1156 369.516 61.3596 369.516C60.6036 369.516 60.0336 369.732 59.6496 370.164C59.2656 370.584 59.0076 371.13 58.8756 371.802C58.7556 372.474 58.6956 373.296 58.6956 374.268C58.6956 375.276 58.7556 376.122 58.8756 376.806C58.9956 377.49 59.2476 378.042 59.6316 378.462C60.0276 378.882 60.6036 379.092 61.3596 379.092C62.1156 379.092 62.6856 378.882 63.0696 378.462C63.4656 378.042 63.7236 377.49 63.8436 376.806C63.9636 376.122 64.0236 375.276 64.0236 374.268ZM68.2109 374.268C68.2109 372.192 68.5589 370.572 69.2549 369.408C69.9629 368.232 71.1749 367.644 72.8909 367.644C74.6069 367.644 75.8129 368.232 76.5089 369.408C77.2169 370.572 77.5709 372.192 77.5709 374.268C77.5709 376.368 77.2169 378.012 76.5089 379.2C75.8129 380.376 74.6069 380.964 72.8909 380.964C71.1749 380.964 69.9629 380.376 69.2549 379.2C68.5589 378.012 68.2109 376.368 68.2109 374.268ZM75.5549 374.268C75.5549 373.296 75.4889 372.474 75.3569 371.802C75.2369 371.13 74.9849 370.584 74.6009 370.164C74.2169 369.732 73.6469 369.516 72.8909 369.516C72.1349 369.516 71.5649 369.732 71.1809 370.164C70.7969 370.584 70.5389 371.13 70.4069 371.802C70.2869 372.474 70.2269 373.296 70.2269 374.268C70.2269 375.276 70.2869 376.122 70.4069 376.806C70.5269 377.49 70.7789 378.042 71.1629 378.462C71.5589 378.882 72.1349 379.092 72.8909 379.092C73.6469 379.092 74.2169 378.882 74.6009 378.462C74.9969 378.042 75.2549 377.49 75.3749 376.806C75.4949 376.122 75.5549 375.276 75.5549 374.268ZM79.7421 374.268C79.7421 372.192 80.0901 370.572 80.7861 369.408C81.4941 368.232 82.7061 367.644 84.4221 367.644C86.1381 367.644 87.3441 368.232 88.0401 369.408C88.7481 370.572 89.1021 372.192 89.1021 374.268C89.1021 376.368 88.7481 378.012 88.0401 379.2C87.3441 380.376 86.1381 380.964 84.4221 380.964C82.7061 380.964 81.4941 380.376 80.7861 379.2C80.0901 378.012 79.7421 376.368 79.7421 374.268ZM87.0861 374.268C87.0861 373.296 87.0201 372.474 86.8881 371.802C86.7681 371.13 86.5161 370.584 86.1321 370.164C85.7481 369.732 85.1781 369.516 84.4221 369.516C83.6661 369.516 83.0961 369.732 82.7121 370.164C82.3281 370.584 82.0701 371.13 81.9381 371.802C81.8181 372.474 81.7581 373.296 81.7581 374.268C81.7581 375.276 81.8181 376.122 81.9381 376.806C82.0581 377.49 82.3101 378.042 82.6941 378.462C83.0901 378.882 83.6661 379.092 84.4221 379.092C85.1781 379.092 85.7481 378.882 86.1321 378.462C86.5281 378.042 86.7861 377.49 86.9061 376.806C87.0261 376.122 87.0861 375.276 87.0861 374.268Z" fill="#37ED81"/>
<path d="M251.402 211.146V214.818H255.722V216.492H251.402V220.326H256.262V222H249.35V209.472H256.262V211.146H251.402ZM263.793 211.92C264.573 211.92 265.269 212.082 265.881 212.406C266.505 212.73 266.991 213.21 267.339 213.846C267.687 214.482 267.861 215.25 267.861 216.15V222H265.827V216.456C265.827 215.568 265.605 214.89 265.161 214.422C264.717 213.942 264.111 213.702 263.343 213.702C262.575 213.702 261.963 213.942 261.507 214.422C261.063 214.89 260.841 215.568 260.841 216.456V222H258.789V212.082H260.841V213.216C261.177 212.808 261.603 212.49 262.119 212.262C262.647 212.034 263.205 211.92 263.793 211.92ZM274.475 211.92C275.243 211.92 275.921 212.076 276.509 212.388C277.109 212.688 277.577 213.066 277.913 213.522V212.082H279.983V222.162C279.983 223.074 279.791 223.884 279.407 224.592C279.023 225.312 278.465 225.876 277.733 226.284C277.013 226.692 276.149 226.896 275.141 226.896C273.797 226.896 272.681 226.578 271.793 225.942C270.905 225.318 270.401 224.466 270.281 223.386H272.315C272.471 223.902 272.801 224.316 273.305 224.628C273.821 224.952 274.433 225.114 275.141 225.114C275.969 225.114 276.635 224.862 277.139 224.358C277.655 223.854 277.913 223.122 277.913 222.162V220.506C277.565 220.974 277.091 221.37 276.491 221.694C275.903 222.006 275.231 222.162 274.475 222.162C273.611 222.162 272.819 221.946 272.099 221.514C271.391 221.07 270.827 220.458 270.407 219.678C269.999 218.886 269.795 217.992 269.795 216.996C269.795 216 269.999 215.118 270.407 214.35C270.827 213.582 271.391 212.988 272.099 212.568C272.819 212.136 273.611 211.92 274.475 211.92ZM277.913 217.032C277.913 216.348 277.769 215.754 277.481 215.25C277.205 214.746 276.839 214.362 276.383 214.098C275.927 213.834 275.435 213.702 274.907 213.702C274.379 213.702 273.887 213.834 273.431 214.098C272.975 214.35 272.603 214.728 272.315 215.232C272.039 215.724 271.901 216.312 271.901 216.996C271.901 217.68 272.039 218.28 272.315 218.796C272.603 219.312 272.975 219.708 273.431 219.984C273.899 220.248 274.391 220.38 274.907 220.38C275.435 220.38 275.927 220.248 276.383 219.984C276.839 219.72 277.205 219.336 277.481 218.832C277.769 218.316 277.913 217.716 277.913 217.032ZM290.292 214.62V216.348H282.894V214.62H290.292ZM299.935 209.49V222H297.883V209.49H299.935Z" fill="#1E1E1E"/>
<path d="M257.384 239.054L256.936 240.633H248.556L249.004 239.054H257.384ZM253.305 249L248.729 243.445L248.716 242.199H250.985C251.552 242.199 252.031 242.112 252.423 241.937C252.815 241.762 253.114 241.509 253.318 241.176C253.523 240.839 253.625 240.43 253.625 239.949C253.625 239.233 253.412 238.664 252.986 238.242C252.56 237.82 251.893 237.609 250.985 237.609H248.556L249.023 235.909H250.985C252.042 235.909 252.913 236.077 253.599 236.414C254.286 236.751 254.797 237.217 255.134 237.814C255.47 238.411 255.638 239.099 255.638 239.879C255.638 240.573 255.5 241.202 255.223 241.764C254.946 242.327 254.505 242.785 253.9 243.138C253.295 243.492 252.5 243.699 251.516 243.759L251.458 243.771L255.638 248.891V249H253.305ZM257.39 235.909L256.936 237.501L250.237 237.462L250.691 235.909H257.39ZM263.224 237.75V235.878H266.968V249H264.898V237.75H263.224ZM269.517 237.75V235.878H273.261V249H271.191V237.75H269.517ZM278.6 246.534L276.422 251.502H275.09L276.368 246.534H278.6ZM280.123 242.268C280.123 240.192 280.471 238.572 281.167 237.408C281.875 236.232 283.087 235.644 284.803 235.644C286.519 235.644 287.725 236.232 288.421 237.408C289.129 238.572 289.483 240.192 289.483 242.268C289.483 244.368 289.129 246.012 288.421 247.2C287.725 248.376 286.519 248.964 284.803 248.964C283.087 248.964 281.875 248.376 281.167 247.2C280.471 246.012 280.123 244.368 280.123 242.268ZM287.467 242.268C287.467 241.296 287.401 240.474 287.269 239.802C287.149 239.13 286.897 238.584 286.513 238.164C286.129 237.732 285.559 237.516 284.803 237.516C284.047 237.516 283.477 237.732 283.093 238.164C282.709 238.584 282.451 239.13 282.319 239.802C282.199 240.474 282.139 241.296 282.139 242.268C282.139 243.276 282.199 244.122 282.319 244.806C282.439 245.49 282.691 246.042 283.075 246.462C283.471 246.882 284.047 247.092 284.803 247.092C285.559 247.092 286.129 246.882 286.513 246.462C286.909 246.042 287.167 245.49 287.287 244.806C287.407 244.122 287.467 243.276 287.467 242.268ZM291.654 242.268C291.654 240.192 292.002 238.572 292.698 237.408C293.406 236.232 294.618 235.644 296.334 235.644C298.05 235.644 299.256 236.232 299.952 237.408C300.66 238.572 301.014 240.192 301.014 242.268C301.014 244.368 300.66 246.012 299.952 247.2C299.256 248.376 298.05 248.964 296.334 248.964C294.618 248.964 293.406 248.376 292.698 247.2C292.002 246.012 291.654 244.368 291.654 242.268ZM298.998 242.268C298.998 241.296 298.932 240.474 298.8 239.802C298.68 239.13 298.428 238.584 298.044 238.164C297.66 237.732 297.09 237.516 296.334 237.516C295.578 237.516 295.008 237.732 294.624 238.164C294.24 238.584 293.982 239.13 293.85 239.802C293.73 240.474 293.67 241.296 293.67 242.268C293.67 243.276 293.73 244.122 293.85 244.806C293.97 245.49 294.222 246.042 294.606 246.462C295.002 246.882 295.578 247.092 296.334 247.092C297.09 247.092 297.66 246.882 298.044 246.462C298.44 246.042 298.698 245.49 298.818 244.806C298.938 244.122 298.998 243.276 298.998 242.268ZM305.705 246.534L303.527 251.502H302.195L303.473 246.534H305.705ZM307.228 242.268C307.228 240.192 307.576 238.572 308.272 237.408C308.98 236.232 310.192 235.644 311.908 235.644C313.624 235.644 314.83 236.232 315.526 237.408C316.234 238.572 316.588 240.192 316.588 242.268C316.588 244.368 316.234 246.012 315.526 247.2C314.83 248.376 313.624 248.964 311.908 248.964C310.192 248.964 308.98 248.376 308.272 247.2C307.576 246.012 307.228 244.368 307.228 242.268ZM314.572 242.268C314.572 241.296 314.506 240.474 314.374 239.802C314.254 239.13 314.002 238.584 313.618 238.164C313.234 237.732 312.664 237.516 311.908 237.516C311.152 237.516 310.582 237.732 310.198 238.164C309.814 238.584 309.556 239.13 309.424 239.802C309.304 240.474 309.244 241.296 309.244 242.268C309.244 243.276 309.304 244.122 309.424 244.806C309.544 245.49 309.796 246.042 310.18 246.462C310.576 246.882 311.152 247.092 311.908 247.092C312.664 247.092 313.234 246.882 313.618 246.462C314.014 246.042 314.272 245.49 314.392 244.806C314.512 244.122 314.572 243.276 314.572 242.268ZM318.76 242.268C318.76 240.192 319.108 238.572 319.804 237.408C320.512 236.232 321.724 235.644 323.44 235.644C325.156 235.644 326.362 236.232 327.058 237.408C327.766 238.572 328.12 240.192 328.12 242.268C328.12 244.368 327.766 246.012 327.058 247.2C326.362 248.376 325.156 248.964 323.44 248.964C321.724 248.964 320.512 248.376 319.804 247.2C319.108 246.012 318.76 244.368 318.76 242.268ZM326.104 242.268C326.104 241.296 326.038 240.474 325.906 239.802C325.786 239.13 325.534 238.584 325.15 238.164C324.766 237.732 324.196 237.516 323.44 237.516C322.684 237.516 322.114 237.732 321.73 238.164C321.346 238.584 321.088 239.13 320.956 239.802C320.836 240.474 320.776 241.296 320.776 242.268C320.776 243.276 320.836 244.122 320.956 244.806C321.076 245.49 321.328 246.042 321.712 246.462C322.108 246.882 322.684 247.092 323.44 247.092C324.196 247.092 324.766 246.882 325.15 246.462C325.546 246.042 325.804 245.49 325.924 244.806C326.044 244.122 326.104 243.276 326.104 242.268ZM330.291 242.268C330.291 240.192 330.639 238.572 331.335 237.408C332.043 236.232 333.255 235.644 334.971 235.644C336.687 235.644 337.893 236.232 338.589 237.408C339.297 238.572 339.651 240.192 339.651 242.268C339.651 244.368 339.297 246.012 338.589 247.2C337.893 248.376 336.687 248.964 334.971 248.964C333.255 248.964 332.043 248.376 331.335 247.2C330.639 246.012 330.291 244.368 330.291 242.268ZM337.635 242.268C337.635 241.296 337.569 240.474 337.437 239.802C337.317 239.13 337.065 238.584 336.681 238.164C336.297 237.732 335.727 237.516 334.971 237.516C334.215 237.516 333.645 237.732 333.261 238.164C332.877 238.584 332.619 239.13 332.487 239.802C332.367 240.474 332.307 241.296 332.307 242.268C332.307 243.276 332.367 244.122 332.487 244.806C332.607 245.49 332.859 246.042 333.243 246.462C333.639 246.882 334.215 247.092 334.971 247.092C335.727 247.092 336.297 246.882 336.681 246.462C337.077 246.042 337.335 245.49 337.455 244.806C337.575 244.122 337.635 243.276 337.635 242.268Z" fill="#37ED81"/>
<path d="M321.402 70.146V73.818H325.722V75.492H321.402V79.326H326.262V81H319.35V68.472H326.262V70.146H321.402ZM333.793 70.92C334.573 70.92 335.269 71.082 335.881 71.406C336.505 71.73 336.991 72.21 337.339 72.846C337.687 73.482 337.861 74.25 337.861 75.15V81H335.827V75.456C335.827 74.568 335.605 73.89 335.161 73.422C334.717 72.942 334.111 72.702 333.343 72.702C332.575 72.702 331.963 72.942 331.507 73.422C331.063 73.89 330.841 74.568 330.841 75.456V81H328.789V71.082H330.841V72.216C331.177 71.808 331.603 71.49 332.119 71.262C332.647 71.034 333.205 70.92 333.793 70.92ZM344.475 70.92C345.243 70.92 345.921 71.076 346.509 71.388C347.109 71.688 347.577 72.066 347.913 72.522V71.082H349.983V81.162C349.983 82.074 349.791 82.884 349.407 83.592C349.023 84.312 348.465 84.876 347.733 85.284C347.013 85.692 346.149 85.896 345.141 85.896C343.797 85.896 342.681 85.578 341.793 84.942C340.905 84.318 340.401 83.466 340.281 82.386H342.315C342.471 82.902 342.801 83.316 343.305 83.628C343.821 83.952 344.433 84.114 345.141 84.114C345.969 84.114 346.635 83.862 347.139 83.358C347.655 82.854 347.913 82.122 347.913 81.162V79.506C347.565 79.974 347.091 80.37 346.491 80.694C345.903 81.006 345.231 81.162 344.475 81.162C343.611 81.162 342.819 80.946 342.099 80.514C341.391 80.07 340.827 79.458 340.407 78.678C339.999 77.886 339.795 76.992 339.795 75.996C339.795 75 339.999 74.118 340.407 73.35C340.827 72.582 341.391 71.988 342.099 71.568C342.819 71.136 343.611 70.92 344.475 70.92ZM347.913 76.032C347.913 75.348 347.769 74.754 347.481 74.25C347.205 73.746 346.839 73.362 346.383 73.098C345.927 72.834 345.435 72.702 344.907 72.702C344.379 72.702 343.887 72.834 343.431 73.098C342.975 73.35 342.603 73.728 342.315 74.232C342.039 74.724 341.901 75.312 341.901 75.996C341.901 76.68 342.039 77.28 342.315 77.796C342.603 78.312 342.975 78.708 343.431 78.984C343.899 79.248 344.391 79.38 344.907 79.38C345.435 79.38 345.927 79.248 346.383 78.984C346.839 78.72 347.205 78.336 347.481 77.832C347.769 77.316 347.913 76.716 347.913 76.032ZM360.292 73.62V75.348H352.894V73.62H360.292ZM369.935 68.49V81H367.883V68.49H369.935ZM374.681 68.49V81H372.629V68.49H374.681Z" fill="#1E1E1E"/>
<path d="M327.384 98.054L326.936 99.6328H318.556L319.004 98.054H327.384ZM323.305 108L318.729 102.445L318.716 101.199H320.985C321.552 101.199 322.031 101.112 322.423 100.937C322.815 100.762 323.114 100.509 323.318 100.176C323.523 99.8395 323.625 99.4304 323.625 98.9489C323.625 98.233 323.412 97.6641 322.986 97.2422C322.56 96.8203 321.893 96.6094 320.985 96.6094H318.556L319.023 94.9091H320.985C322.042 94.9091 322.913 95.0774 323.599 95.4141C324.286 95.7507 324.797 96.2173 325.134 96.8139C325.47 97.4105 325.638 98.0987 325.638 98.8786C325.638 99.5732 325.5 100.202 325.223 100.764C324.946 101.327 324.505 101.785 323.9 102.138C323.295 102.492 322.5 102.699 321.516 102.759L321.458 102.771L325.638 107.891V108H323.305ZM327.39 94.9091L326.936 96.5007L320.237 96.4624L320.691 94.9091H327.39ZM333.224 96.75V94.878H336.968V108H334.898V96.75H333.224ZM348.247 96.642H342.217V100.224C342.469 99.888 342.841 99.606 343.333 99.378C343.837 99.15 344.371 99.036 344.935 99.036C345.943 99.036 346.759 99.252 347.383 99.684C348.019 100.116 348.469 100.662 348.733 101.322C349.009 101.982 349.147 102.678 349.147 103.41C349.147 104.298 348.973 105.09 348.625 105.786C348.289 106.47 347.779 107.01 347.095 107.406C346.423 107.802 345.595 108 344.611 108C343.303 108 342.253 107.676 341.461 107.028C340.669 106.38 340.195 105.522 340.039 104.454H342.037C342.169 105.018 342.463 105.468 342.919 105.804C343.375 106.128 343.945 106.29 344.629 106.29C345.481 106.29 346.117 106.032 346.537 105.516C346.969 105 347.185 104.316 347.185 103.464C347.185 102.6 346.969 101.94 346.537 101.484C346.105 101.016 345.469 100.782 344.629 100.782C344.041 100.782 343.543 100.932 343.135 101.232C342.739 101.52 342.451 101.916 342.271 102.42H340.327V94.842H348.247V96.642ZM353.803 105.534L351.625 110.502H350.293L351.571 105.534H353.803ZM355.326 101.268C355.326 99.192 355.674 97.572 356.37 96.408C357.078 95.232 358.29 94.644 360.006 94.644C361.722 94.644 362.928 95.232 363.624 96.408C364.332 97.572 364.686 99.192 364.686 101.268C364.686 103.368 364.332 105.012 363.624 106.2C362.928 107.376 361.722 107.964 360.006 107.964C358.29 107.964 357.078 107.376 356.37 106.2C355.674 105.012 355.326 103.368 355.326 101.268ZM362.67 101.268C362.67 100.296 362.604 99.474 362.472 98.802C362.352 98.13 362.1 97.584 361.716 97.164C361.332 96.732 360.762 96.516 360.006 96.516C359.25 96.516 358.68 96.732 358.296 97.164C357.912 97.584 357.654 98.13 357.522 98.802C357.402 99.474 357.342 100.296 357.342 101.268C357.342 102.276 357.402 103.122 357.522 103.806C357.642 104.49 357.894 105.042 358.278 105.462C358.674 105.882 359.25 106.092 360.006 106.092C360.762 106.092 361.332 105.882 361.716 105.462C362.112 105.042 362.37 104.49 362.49 103.806C362.61 103.122 362.67 102.276 362.67 101.268ZM366.857 101.268C366.857 99.192 367.205 97.572 367.901 96.408C368.609 95.232 369.821 94.644 371.537 94.644C373.253 94.644 374.459 95.232 375.155 96.408C375.863 97.572 376.217 99.192 376.217 101.268C376.217 103.368 375.863 105.012 375.155 106.2C374.459 107.376 373.253 107.964 371.537 107.964C369.821 107.964 368.609 107.376 367.901 106.2C367.205 105.012 366.857 103.368 366.857 101.268ZM374.201 101.268C374.201 100.296 374.135 99.474 374.003 98.802C373.883 98.13 373.631 97.584 373.247 97.164C372.863 96.732 372.293 96.516 371.537 96.516C370.781 96.516 370.211 96.732 369.827 97.164C369.443 97.584 369.185 98.13 369.053 98.802C368.933 99.474 368.873 100.296 368.873 101.268C368.873 102.276 368.933 103.122 369.053 103.806C369.173 104.49 369.425 105.042 369.809 105.462C370.205 105.882 370.781 106.092 371.537 106.092C372.293 106.092 372.863 105.882 373.247 105.462C373.643 105.042 373.901 104.49 374.021 103.806C374.141 103.122 374.201 102.276 374.201 101.268ZM380.909 105.534L378.731 110.502H377.399L378.677 105.534H380.909ZM382.432 101.268C382.432 99.192 382.78 97.572 383.476 96.408C384.184 95.232 385.396 94.644 387.112 94.644C388.828 94.644 390.034 95.232 390.73 96.408C391.438 97.572 391.792 99.192 391.792 101.268C391.792 103.368 391.438 105.012 390.73 106.2C390.034 107.376 388.828 107.964 387.112 107.964C385.396 107.964 384.184 107.376 383.476 106.2C382.78 105.012 382.432 103.368 382.432 101.268ZM389.776 101.268C389.776 100.296 389.71 99.474 389.578 98.802C389.458 98.13 389.206 97.584 388.822 97.164C388.438 96.732 387.868 96.516 387.112 96.516C386.356 96.516 385.786 96.732 385.402 97.164C385.018 97.584 384.76 98.13 384.628 98.802C384.508 99.474 384.448 100.296 384.448 101.268C384.448 102.276 384.508 103.122 384.628 103.806C384.748 104.49 385 105.042 385.384 105.462C385.78 105.882 386.356 106.092 387.112 106.092C387.868 106.092 388.438 105.882 388.822 105.462C389.218 105.042 389.476 104.49 389.596 103.806C389.716 103.122 389.776 102.276 389.776 101.268ZM393.963 101.268C393.963 99.192 394.311 97.572 395.007 96.408C395.715 95.232 396.927 94.644 398.643 94.644C400.359 94.644 401.565 95.232 402.261 96.408C402.969 97.572 403.323 99.192 403.323 101.268C403.323 103.368 402.969 105.012 402.261 106.2C401.565 107.376 400.359 107.964 398.643 107.964C396.927 107.964 395.715 107.376 395.007 106.2C394.311 105.012 393.963 103.368 393.963 101.268ZM401.307 101.268C401.307 100.296 401.241 99.474 401.109 98.802C400.989 98.13 400.737 97.584 400.353 97.164C399.969 96.732 399.399 96.516 398.643 96.516C397.887 96.516 397.317 96.732 396.933 97.164C396.549 97.584 396.291 98.13 396.159 98.802C396.039 99.474 395.979 100.296 395.979 101.268C395.979 102.276 396.039 103.122 396.159 103.806C396.279 104.49 396.531 105.042 396.915 105.462C397.311 105.882 397.887 106.092 398.643 106.092C399.399 106.092 399.969 105.882 400.353 105.462C400.749 105.042 401.007 104.49 401.127 103.806C401.247 103.122 401.307 102.276 401.307 101.268ZM405.494 101.268C405.494 99.192 405.842 97.572 406.538 96.408C407.246 95.232 408.458 94.644 410.174 94.644C411.89 94.644 413.096 95.232 413.792 96.408C414.5 97.572 414.854 99.192 414.854 101.268C414.854 103.368 414.5 105.012 413.792 106.2C413.096 107.376 411.89 107.964 410.174 107.964C408.458 107.964 407.246 107.376 406.538 106.2C405.842 105.012 405.494 103.368 405.494 101.268ZM412.838 101.268C412.838 100.296 412.772 99.474 412.64 98.802C412.52 98.13 412.268 97.584 411.884 97.164C411.5 96.732 410.93 96.516 410.174 96.516C409.418 96.516 408.848 96.732 408.464 97.164C408.08 97.584 407.822 98.13 407.69 98.802C407.57 99.474 407.51 100.296 407.51 101.268C407.51 102.276 407.57 103.122 407.69 103.806C407.81 104.49 408.062 105.042 408.446 105.462C408.842 105.882 409.418 106.092 410.174 106.092C410.93 106.092 411.5 105.882 411.884 105.462C412.28 105.042 412.538 104.49 412.658 103.806C412.778 103.122 412.838 102.276 412.838 101.268Z" fill="#37ED81"/>
<rect x="422" y="92" width="20" height="20" rx="10" fill="#37ED81"/>
<defs>
<linearGradient id="paint0_linear_11_31" x1="-1.282" y1="373.582" x2="376.262" y2="-60.9981" gradientUnits="userSpaceOnUse">
<stop stop-color="#37ED81"/>
<stop offset="1" stop-color="#37ED81" stop-opacity="0"/>
</linearGradient>
</defs>
</svg>
