<svg width="460" height="430" viewBox="0 0 460 430" fill="none" xmlns="http://www.w3.org/2000/svg">
<path d="M10 420C173.395 408.262 417.692 309.278 450 0" stroke="url(#paint0_linear_3_35)" stroke-width="20" stroke-linecap="round"/>
<rect y="410" width="20" height="20" rx="10" fill="#4BA25D"/>
<rect x="356" y="221" width="20" height="20" rx="10" fill="#37ED81"/>
<path d="M8.172 331.49V340.508C8.172 341.624 7.83 342.506 7.146 343.154C6.474 343.802 5.586 344.126 4.482 344.126C3.378 344.126 2.484 343.802 1.8 343.154C1.128 342.506 0.792 341.624 0.792 340.508H2.862C2.874 341.06 3.012 341.498 3.276 341.822C3.552 342.146 3.954 342.308 4.482 342.308C5.01 342.308 5.412 342.146 5.688 341.822C5.964 341.486 6.102 341.048 6.102 340.508V331.49H8.172ZM13.5622 335.522C13.8622 335.018 14.2582 334.628 14.7502 334.352C15.2542 334.064 15.8482 333.92 16.5322 333.92V336.044H16.0102C15.2062 336.044 14.5942 336.248 14.1742 336.656C13.7662 337.064 13.5622 337.772 13.5622 338.78V344H11.5102V334.082H13.5622V335.522ZM19.2464 344.126C18.8744 344.126 18.5624 344 18.3104 343.748C18.0584 343.496 17.9324 343.184 17.9324 342.812C17.9324 342.44 18.0584 342.128 18.3104 341.876C18.5624 341.624 18.8744 341.498 19.2464 341.498C19.6064 341.498 19.9124 341.624 20.1644 341.876C20.4164 342.128 20.5424 342.44 20.5424 342.812C20.5424 343.184 20.4164 343.496 20.1644 343.748C19.9124 344 19.6064 344.126 19.2464 344.126ZM26.8822 344.126C26.0422 344.126 25.2862 343.982 24.6142 343.694C23.9422 343.394 23.4142 342.974 23.0302 342.434C22.6462 341.894 22.4542 341.264 22.4542 340.544H24.6502C24.6982 341.084 24.9082 341.528 25.2802 341.876C25.6642 342.224 26.1982 342.398 26.8822 342.398C27.5902 342.398 28.1422 342.23 28.5382 341.894C28.9342 341.546 29.1322 341.102 29.1322 340.562C29.1322 340.142 29.0062 339.8 28.7542 339.536C28.5142 339.272 28.2082 339.068 27.8362 338.924C27.4762 338.78 26.9722 338.624 26.3242 338.456C25.5082 338.24 24.8422 338.024 24.3262 337.808C23.8222 337.58 23.3902 337.232 23.0302 336.764C22.6702 336.296 22.4902 335.672 22.4902 334.892C22.4902 334.172 22.6702 333.542 23.0302 333.002C23.3902 332.462 23.8942 332.048 24.5422 331.76C25.1902 331.472 25.9402 331.328 26.7922 331.328C28.0042 331.328 28.9942 331.634 29.7622 332.246C30.5422 332.846 30.9742 333.674 31.0582 334.73H28.7902C28.7542 334.274 28.5382 333.884 28.1422 333.56C27.7462 333.236 27.2242 333.074 26.5762 333.074C25.9882 333.074 25.5082 333.224 25.1362 333.524C24.7642 333.824 24.5782 334.256 24.5782 334.82C24.5782 335.204 24.6922 335.522 24.9202 335.774C25.1602 336.014 25.4602 336.206 25.8202 336.35C26.1802 336.494 26.6722 336.65 27.2962 336.818C28.1242 337.046 28.7962 337.274 29.3122 337.502C29.8402 337.73 30.2842 338.084 30.6442 338.564C31.0162 339.032 31.2022 339.662 31.2022 340.454C31.2022 341.09 31.0282 341.69 30.6802 342.254C30.3442 342.818 29.8462 343.274 29.1862 343.622C28.5382 343.958 27.7702 344.126 26.8822 344.126ZM37.9254 344.162C36.9894 344.162 36.1434 343.952 35.3874 343.532C34.6314 343.1 34.0374 342.5 33.6054 341.732C33.1734 340.952 32.9574 340.052 32.9574 339.032C32.9574 338.024 33.1794 337.13 33.6234 336.35C34.0674 335.57 34.6734 334.97 35.4414 334.55C36.2094 334.13 37.0674 333.92 38.0154 333.92C38.9634 333.92 39.8214 334.13 40.5894 334.55C41.3574 334.97 41.9634 335.57 42.4074 336.35C42.8514 337.13 43.0734 338.024 43.0734 339.032C43.0734 340.04 42.8454 340.934 42.3894 341.714C41.9334 342.494 41.3094 343.1 40.5174 343.532C39.7374 343.952 38.8734 344.162 37.9254 344.162ZM37.9254 342.38C38.4534 342.38 38.9454 342.254 39.4014 342.002C39.8694 341.75 40.2474 341.372 40.5354 340.868C40.8234 340.364 40.9674 339.752 40.9674 339.032C40.9674 338.312 40.8294 337.706 40.5534 337.214C40.2774 336.71 39.9114 336.332 39.4554 336.08C38.9994 335.828 38.5074 335.702 37.9794 335.702C37.4514 335.702 36.9594 335.828 36.5034 336.08C36.0594 336.332 35.7054 336.71 35.4414 337.214C35.1774 337.706 35.0454 338.312 35.0454 339.032C35.0454 340.1 35.3154 340.928 35.8554 341.516C36.4074 342.092 37.0974 342.38 37.9254 342.38ZM49.26 335.756H47.424V344H45.354V335.756H44.184V334.082H45.354V333.38C45.354 332.24 45.654 331.412 46.254 330.896C46.866 330.368 47.82 330.104 49.116 330.104V331.814C48.492 331.814 48.054 331.934 47.802 332.174C47.55 332.402 47.424 332.804 47.424 333.38V334.082H49.26V335.756ZM53.4725 335.756V341.246C53.4725 341.618 53.5565 341.888 53.7245 342.056C53.9045 342.212 54.2045 342.29 54.6245 342.29H55.8845V344H54.2645C53.3405 344 52.6325 343.784 52.1405 343.352C51.6485 342.92 51.4025 342.218 51.4025 341.246V335.756H50.2325V334.082H51.4025V331.616H53.4725V334.082H55.8845V335.756H53.4725ZM71.0958 334.082L68.0178 344H65.8578L63.8598 336.674L61.8618 344H59.7018L56.6058 334.082H58.6938L60.7638 342.056L62.8698 334.082H65.0118L67.0278 342.02L69.0798 334.082H71.0958ZM71.9453 338.996C71.9453 338 72.1493 337.118 72.5573 336.35C72.9773 335.582 73.5413 334.988 74.2493 334.568C74.9693 334.136 75.7613 333.92 76.6253 333.92C77.4053 333.92 78.0833 334.076 78.6593 334.388C79.2473 334.688 79.7153 335.066 80.0633 335.522V334.082H82.1333V344H80.0633V342.524C79.7153 342.992 79.2413 343.382 78.6413 343.694C78.0413 344.006 77.3573 344.162 76.5893 344.162C75.7373 344.162 74.9573 343.946 74.2493 343.514C73.5413 343.07 72.9773 342.458 72.5573 341.678C72.1493 340.886 71.9453 339.992 71.9453 338.996ZM80.0633 339.032C80.0633 338.348 79.9193 337.754 79.6313 337.25C79.3553 336.746 78.9893 336.362 78.5333 336.098C78.0773 335.834 77.5853 335.702 77.0573 335.702C76.5293 335.702 76.0373 335.834 75.5813 336.098C75.1253 336.35 74.7533 336.728 74.4653 337.232C74.1893 337.724 74.0513 338.312 74.0513 338.996C74.0513 339.68 74.1893 340.28 74.4653 340.796C74.7533 341.312 75.1253 341.708 75.5813 341.984C76.0493 342.248 76.5413 342.38 77.0573 342.38C77.5853 342.38 78.0773 342.248 78.5333 341.984C78.9893 341.72 79.3553 341.336 79.6313 340.832C79.9193 340.316 80.0633 339.716 80.0633 339.032ZM86.8805 335.522C87.1805 335.018 87.5765 334.628 88.0685 334.352C88.5725 334.064 89.1665 333.92 89.8505 333.92V336.044H89.3285C88.5245 336.044 87.9125 336.248 87.4925 336.656C87.0845 337.064 86.8805 337.772 86.8805 338.78V344H84.8285V334.082H86.8805V335.522ZM100.827 338.798C100.827 339.17 100.803 339.506 100.755 339.806H93.1767C93.2367 340.598 93.5307 341.234 94.0587 341.714C94.5867 342.194 95.2347 342.434 96.0027 342.434C97.1067 342.434 97.8867 341.972 98.3427 341.048H100.557C100.257 341.96 99.7107 342.71 98.9187 343.298C98.1387 343.874 97.1667 344.162 96.0027 344.162C95.0547 344.162 94.2027 343.952 93.4467 343.532C92.7027 343.1 92.1147 342.5 91.6827 341.732C91.2627 340.952 91.0527 340.052 91.0527 339.032C91.0527 338.012 91.2567 337.118 91.6647 336.35C92.0847 335.57 92.6667 334.97 93.4107 334.55C94.1667 334.13 95.0307 333.92 96.0027 333.92C96.9387 333.92 97.7727 334.124 98.5047 334.532C99.2367 334.94 99.8067 335.516 100.215 336.26C100.623 336.992 100.827 337.838 100.827 338.798ZM98.6847 338.15C98.6727 337.394 98.4027 336.788 97.8747 336.332C97.3467 335.876 96.6927 335.648 95.9127 335.648C95.2047 335.648 94.5987 335.876 94.0947 336.332C93.5907 336.776 93.2907 337.382 93.1947 338.15H98.6847ZM111.608 331.49C112.94 331.49 114.104 331.748 115.1 332.264C116.108 332.768 116.882 333.5 117.422 334.46C117.974 335.408 118.25 336.518 118.25 337.79C118.25 339.062 117.974 340.166 117.422 341.102C116.882 342.038 116.108 342.758 115.1 343.262C114.104 343.754 112.94 344 111.608 344H107.522V331.49H111.608ZM111.608 342.326C113.072 342.326 114.194 341.93 114.974 341.138C115.754 340.346 116.144 339.23 116.144 337.79C116.144 336.338 115.754 335.204 114.974 334.388C114.194 333.572 113.072 333.164 111.608 333.164H109.574V342.326H111.608ZM129.374 338.798C129.374 339.17 129.35 339.506 129.302 339.806H121.724C121.784 340.598 122.078 341.234 122.606 341.714C123.134 342.194 123.782 342.434 124.55 342.434C125.654 342.434 126.434 341.972 126.89 341.048H129.104C128.804 341.96 128.258 342.71 127.466 343.298C126.686 343.874 125.714 344.162 124.55 344.162C123.602 344.162 122.75 343.952 121.994 343.532C121.25 343.1 120.662 342.5 120.23 341.732C119.81 340.952 119.6 340.052 119.6 339.032C119.6 338.012 119.804 337.118 120.212 336.35C120.632 335.57 121.214 334.97 121.958 334.55C122.714 334.13 123.578 333.92 124.55 333.92C125.486 333.92 126.32 334.124 127.052 334.532C127.784 334.94 128.354 335.516 128.762 336.26C129.17 336.992 129.374 337.838 129.374 338.798ZM127.232 338.15C127.22 337.394 126.95 336.788 126.422 336.332C125.894 335.876 125.24 335.648 124.46 335.648C123.752 335.648 123.146 335.876 122.642 336.332C122.138 336.776 121.838 337.382 121.742 338.15H127.232ZM135.227 342.164L138.035 334.082H140.213L136.433 344H133.985L130.223 334.082H132.419L135.227 342.164ZM150.854 338.798C150.854 339.17 150.83 339.506 150.782 339.806H143.204C143.264 340.598 143.558 341.234 144.086 341.714C144.614 342.194 145.262 342.434 146.03 342.434C147.134 342.434 147.914 341.972 148.37 341.048H150.584C150.284 341.96 149.738 342.71 148.946 343.298C148.166 343.874 147.194 344.162 146.03 344.162C145.082 344.162 144.23 343.952 143.474 343.532C142.73 343.1 142.142 342.5 141.71 341.732C141.29 340.952 141.08 340.052 141.08 339.032C141.08 338.012 141.284 337.118 141.692 336.35C142.112 335.57 142.694 334.97 143.438 334.55C144.194 334.13 145.058 333.92 146.03 333.92C146.966 333.92 147.8 334.124 148.532 334.532C149.264 334.94 149.834 335.516 150.242 336.26C150.65 336.992 150.854 337.838 150.854 338.798ZM148.712 338.15C148.7 337.394 148.43 336.788 147.902 336.332C147.374 335.876 146.72 335.648 145.94 335.648C145.232 335.648 144.626 335.876 144.122 336.332C143.618 336.776 143.318 337.382 143.222 338.15H148.712ZM154.925 330.68V344H152.873V330.68H154.925ZM161.922 344.162C160.986 344.162 160.14 343.952 159.384 343.532C158.628 343.1 158.034 342.5 157.602 341.732C157.17 340.952 156.954 340.052 156.954 339.032C156.954 338.024 157.176 337.13 157.62 336.35C158.064 335.57 158.67 334.97 159.438 334.55C160.206 334.13 161.064 333.92 162.012 333.92C162.96 333.92 163.818 334.13 164.586 334.55C165.354 334.97 165.96 335.57 166.404 336.35C166.848 337.13 167.07 338.024 167.07 339.032C167.07 340.04 166.842 340.934 166.386 341.714C165.93 342.494 165.306 343.1 164.514 343.532C163.734 343.952 162.87 344.162 161.922 344.162ZM161.922 342.38C162.45 342.38 162.942 342.254 163.398 342.002C163.866 341.75 164.244 341.372 164.532 340.868C164.82 340.364 164.964 339.752 164.964 339.032C164.964 338.312 164.826 337.706 164.55 337.214C164.274 336.71 163.908 336.332 163.452 336.08C162.996 335.828 162.504 335.702 161.976 335.702C161.448 335.702 160.956 335.828 160.5 336.08C160.056 336.332 159.702 336.71 159.438 337.214C159.174 337.706 159.042 338.312 159.042 339.032C159.042 340.1 159.312 340.928 159.852 341.516C160.404 342.092 161.094 342.38 161.922 342.38ZM171.15 335.54C171.498 335.084 171.972 334.7 172.572 334.388C173.172 334.076 173.85 333.92 174.606 333.92C175.47 333.92 176.256 334.136 176.964 334.568C177.684 334.988 178.248 335.582 178.656 336.35C179.064 337.118 179.268 338 179.268 338.996C179.268 339.992 179.064 340.886 178.656 341.678C178.248 342.458 177.684 343.07 176.964 343.514C176.256 343.946 175.47 344.162 174.606 344.162C173.85 344.162 173.178 344.012 172.59 343.712C172.002 343.4 171.522 343.016 171.15 342.56V348.716H169.098V334.082H171.15V335.54ZM177.18 338.996C177.18 338.312 177.036 337.724 176.748 337.232C176.472 336.728 176.1 336.35 175.632 336.098C175.176 335.834 174.684 335.702 174.156 335.702C173.64 335.702 173.148 335.834 172.68 336.098C172.224 336.362 171.852 336.746 171.564 337.25C171.288 337.754 171.15 338.348 171.15 339.032C171.15 339.716 171.288 340.316 171.564 340.832C171.852 341.336 172.224 341.72 172.68 341.984C173.148 342.248 173.64 342.38 174.156 342.38C174.684 342.38 175.176 342.248 175.632 341.984C176.1 341.708 176.472 341.312 176.748 340.796C177.036 340.28 177.18 339.68 177.18 338.996ZM190.387 338.798C190.387 339.17 190.363 339.506 190.315 339.806H182.737C182.797 340.598 183.091 341.234 183.619 341.714C184.147 342.194 184.795 342.434 185.563 342.434C186.667 342.434 187.447 341.972 187.903 341.048H190.117C189.817 341.96 189.271 342.71 188.479 343.298C187.699 343.874 186.727 344.162 185.563 344.162C184.615 344.162 183.763 343.952 183.007 343.532C182.263 343.1 181.675 342.5 181.243 341.732C180.823 340.952 180.613 340.052 180.613 339.032C180.613 338.012 180.817 337.118 181.225 336.35C181.645 335.57 182.227 334.97 182.971 334.55C183.727 334.13 184.591 333.92 185.563 333.92C186.499 333.92 187.333 334.124 188.065 334.532C188.797 334.94 189.367 335.516 189.775 336.26C190.183 336.992 190.387 337.838 190.387 338.798ZM188.245 338.15C188.233 337.394 187.963 336.788 187.435 336.332C186.907 335.876 186.253 335.648 185.473 335.648C184.765 335.648 184.159 335.876 183.655 336.332C183.151 336.776 182.851 337.382 182.755 338.15H188.245ZM194.459 335.522C194.759 335.018 195.155 334.628 195.647 334.352C196.151 334.064 196.745 333.92 197.429 333.92V336.044H196.907C196.103 336.044 195.491 336.248 195.071 336.656C194.663 337.064 194.459 337.772 194.459 338.78V344H192.407V334.082H194.459V335.522Z" fill="#101010"/>
<path d="M9.38352 361.054L8.93608 362.633H0.556108L1.00355 361.054H9.38352ZM5.3054 371L0.728693 365.445L0.715909 364.199H2.98509C3.55185 364.199 4.03125 364.112 4.4233 363.937C4.81534 363.762 5.11364 363.509 5.31818 363.176C5.52273 362.839 5.625 362.43 5.625 361.949C5.625 361.233 5.41193 360.664 4.9858 360.242C4.55966 359.82 3.89276 359.609 2.98509 359.609H0.556108L1.02273 357.909H2.98509C4.0419 357.909 4.91335 358.077 5.59943 358.414C6.28551 358.751 6.79688 359.217 7.13352 359.814C7.47017 360.411 7.63849 361.099 7.63849 361.879C7.63849 362.573 7.5 363.202 7.22301 363.764C6.94602 364.327 6.50497 364.785 5.89986 365.138C5.29474 365.492 4.5 365.699 3.51562 365.759L3.4581 365.771L7.63849 370.891V371H5.3054ZM9.38991 357.909L8.93608 359.501L2.23722 359.462L2.69105 357.909H9.38991ZM23.8101 359.462L18.8061 371H16.7361L21.7941 359.678H15.1341V357.932H23.8101V359.462ZM28.0863 368.534L25.9083 373.502H24.5763L25.8543 368.534H28.0863ZM38.0693 359.642H32.0393V363.224C32.2913 362.888 32.6633 362.606 33.1553 362.378C33.6593 362.15 34.1933 362.036 34.7573 362.036C35.7653 362.036 36.5813 362.252 37.2053 362.684C37.8413 363.116 38.2913 363.662 38.5553 364.322C38.8313 364.982 38.9693 365.678 38.9693 366.41C38.9693 367.298 38.7953 368.09 38.4473 368.786C38.1113 369.47 37.6013 370.01 36.9173 370.406C36.2453 370.802 35.4173 371 34.4333 371C33.1253 371 32.0753 370.676 31.2833 370.028C30.4913 369.38 30.0173 368.522 29.8613 367.454H31.8593C31.9913 368.018 32.2853 368.468 32.7413 368.804C33.1973 369.128 33.7673 369.29 34.4513 369.29C35.3033 369.29 35.9393 369.032 36.3593 368.516C36.7913 368 37.0073 367.316 37.0073 366.464C37.0073 365.6 36.7913 364.94 36.3593 364.484C35.9273 364.016 35.2913 363.782 34.4513 363.782C33.8633 363.782 33.3653 363.932 32.9573 364.232C32.5613 364.52 32.2733 364.916 32.0933 365.42H30.1493V357.842H38.0693V359.642ZM41.1054 364.268C41.1054 362.192 41.4534 360.572 42.1494 359.408C42.8574 358.232 44.0694 357.644 45.7854 357.644C47.5014 357.644 48.7074 358.232 49.4034 359.408C50.1114 360.572 50.4654 362.192 50.4654 364.268C50.4654 366.368 50.1114 368.012 49.4034 369.2C48.7074 370.376 47.5014 370.964 45.7854 370.964C44.0694 370.964 42.8574 370.376 42.1494 369.2C41.4534 368.012 41.1054 366.368 41.1054 364.268ZM48.4494 364.268C48.4494 363.296 48.3834 362.474 48.2514 361.802C48.1314 361.13 47.8794 360.584 47.4954 360.164C47.1114 359.732 46.5414 359.516 45.7854 359.516C45.0294 359.516 44.4594 359.732 44.0754 360.164C43.6914 360.584 43.4334 361.13 43.3014 361.802C43.1814 362.474 43.1214 363.296 43.1214 364.268C43.1214 365.276 43.1814 366.122 43.3014 366.806C43.4214 367.49 43.6734 368.042 44.0574 368.462C44.4534 368.882 45.0294 369.092 45.7854 369.092C46.5414 369.092 47.1114 368.882 47.4954 368.462C47.8914 368.042 48.1494 367.49 48.2694 366.806C48.3894 366.122 48.4494 365.276 48.4494 364.268ZM55.1566 368.534L52.9786 373.502H51.6466L52.9246 368.534H55.1566ZM56.6796 364.268C56.6796 362.192 57.0276 360.572 57.7236 359.408C58.4316 358.232 59.6436 357.644 61.3596 357.644C63.0756 357.644 64.2816 358.232 64.9776 359.408C65.6856 360.572 66.0396 362.192 66.0396 364.268C66.0396 366.368 65.6856 368.012 64.9776 369.2C64.2816 370.376 63.0756 370.964 61.3596 370.964C59.6436 370.964 58.4316 370.376 57.7236 369.2C57.0276 368.012 56.6796 366.368 56.6796 364.268ZM64.0236 364.268C64.0236 363.296 63.9576 362.474 63.8256 361.802C63.7056 361.13 63.4536 360.584 63.0696 360.164C62.6856 359.732 62.1156 359.516 61.3596 359.516C60.6036 359.516 60.0336 359.732 59.6496 360.164C59.2656 360.584 59.0076 361.13 58.8756 361.802C58.7556 362.474 58.6956 363.296 58.6956 364.268C58.6956 365.276 58.7556 366.122 58.8756 366.806C58.9956 367.49 59.2476 368.042 59.6316 368.462C60.0276 368.882 60.6036 369.092 61.3596 369.092C62.1156 369.092 62.6856 368.882 63.0696 368.462C63.4656 368.042 63.7236 367.49 63.8436 366.806C63.9636 366.122 64.0236 365.276 64.0236 364.268ZM68.2109 364.268C68.2109 362.192 68.5589 360.572 69.2549 359.408C69.9629 358.232 71.1749 357.644 72.8909 357.644C74.6069 357.644 75.8129 358.232 76.5089 359.408C77.2169 360.572 77.5709 362.192 77.5709 364.268C77.5709 366.368 77.2169 368.012 76.5089 369.2C75.8129 370.376 74.6069 370.964 72.8909 370.964C71.1749 370.964 69.9629 370.376 69.2549 369.2C68.5589 368.012 68.2109 366.368 68.2109 364.268ZM75.5549 364.268C75.5549 363.296 75.4889 362.474 75.3569 361.802C75.2369 361.13 74.9849 360.584 74.6009 360.164C74.2169 359.732 73.6469 359.516 72.8909 359.516C72.1349 359.516 71.5649 359.732 71.1809 360.164C70.7969 360.584 70.5389 361.13 70.4069 361.802C70.2869 362.474 70.2269 363.296 70.2269 364.268C70.2269 365.276 70.2869 366.122 70.4069 366.806C70.5269 367.49 70.7789 368.042 71.1629 368.462C71.5589 368.882 72.1349 369.092 72.8909 369.092C73.6469 369.092 74.2169 368.882 74.6009 368.462C74.9969 368.042 75.2549 367.49 75.3749 366.806C75.4949 366.122 75.5549 365.276 75.5549 364.268ZM79.7421 364.268C79.7421 362.192 80.0901 360.572 80.7861 359.408C81.4941 358.232 82.7061 357.644 84.4221 357.644C86.1381 357.644 87.3441 358.232 88.0401 359.408C88.7481 360.572 89.1021 362.192 89.1021 364.268C89.1021 366.368 88.7481 368.012 88.0401 369.2C87.3441 370.376 86.1381 370.964 84.4221 370.964C82.7061 370.964 81.4941 370.376 80.7861 369.2C80.0901 368.012 79.7421 366.368 79.7421 364.268ZM87.0861 364.268C87.0861 363.296 87.0201 362.474 86.8881 361.802C86.7681 361.13 86.5161 360.584 86.1321 360.164C85.7481 359.732 85.1781 359.516 84.4221 359.516C83.6661 359.516 83.0961 359.732 82.7121 360.164C82.3281 360.584 82.0701 361.13 81.9381 361.802C81.8181 362.474 81.7581 363.296 81.7581 364.268C81.7581 365.276 81.8181 366.122 81.9381 366.806C82.0581 367.49 82.3101 368.042 82.6941 368.462C83.0901 368.882 83.6661 369.092 84.4221 369.092C85.1781 369.092 85.7481 368.882 86.1321 368.462C86.5281 368.042 86.7861 367.49 86.9061 366.806C87.0261 366.122 87.0861 365.276 87.0861 364.268Z" fill="#37ED81"/>
<path d="M253.472 212.126C252.632 212.126 251.876 211.982 251.204 211.694C250.532 211.394 250.004 210.974 249.62 210.434C249.236 209.894 249.044 209.264 249.044 208.544H251.24C251.288 209.084 251.498 209.528 251.87 209.876C252.254 210.224 252.788 210.398 253.472 210.398C254.18 210.398 254.732 210.23 255.128 209.894C255.524 209.546 255.722 209.102 255.722 208.562C255.722 208.142 255.596 207.8 255.344 207.536C255.104 207.272 254.798 207.068 254.426 206.924C254.066 206.78 253.562 206.624 252.914 206.456C252.098 206.24 251.432 206.024 250.916 205.808C250.412 205.58 249.98 205.232 249.62 204.764C249.26 204.296 249.08 203.672 249.08 202.892C249.08 202.172 249.26 201.542 249.62 201.002C249.98 200.462 250.484 200.048 251.132 199.76C251.78 199.472 252.53 199.328 253.382 199.328C254.594 199.328 255.584 199.634 256.352 200.246C257.132 200.846 257.564 201.674 257.648 202.73H255.38C255.344 202.274 255.128 201.884 254.732 201.56C254.336 201.236 253.814 201.074 253.166 201.074C252.578 201.074 252.098 201.224 251.726 201.524C251.354 201.824 251.168 202.256 251.168 202.82C251.168 203.204 251.282 203.522 251.51 203.774C251.75 204.014 252.05 204.206 252.41 204.35C252.77 204.494 253.262 204.65 253.886 204.818C254.714 205.046 255.386 205.274 255.902 205.502C256.43 205.73 256.874 206.084 257.234 206.564C257.606 207.032 257.792 207.662 257.792 208.454C257.792 209.09 257.618 209.69 257.27 210.254C256.934 210.818 256.436 211.274 255.776 211.622C255.128 211.958 254.36 212.126 253.472 212.126ZM264.299 199.49C265.631 199.49 266.795 199.748 267.791 200.264C268.799 200.768 269.573 201.5 270.113 202.46C270.665 203.408 270.941 204.518 270.941 205.79C270.941 207.062 270.665 208.166 270.113 209.102C269.573 210.038 268.799 210.758 267.791 211.262C266.795 211.754 265.631 212 264.299 212H260.213V199.49H264.299ZM264.299 210.326C265.763 210.326 266.885 209.93 267.665 209.138C268.445 208.346 268.835 207.23 268.835 205.79C268.835 204.338 268.445 203.204 267.665 202.388C266.885 201.572 265.763 201.164 264.299 201.164H262.265V210.326H264.299ZM275.027 201.146V204.818H279.347V206.492H275.027V210.326H279.887V212H272.975V199.472H279.887V201.146H275.027ZM290.028 204.62V206.348H282.63V204.62H290.028ZM299.672 199.49V212H297.62V199.49H299.672Z" fill="#101010"/>
<path d="M257.384 229.054L256.936 230.633H248.556L249.004 229.054H257.384ZM253.305 239L248.729 233.445L248.716 232.199H250.985C251.552 232.199 252.031 232.112 252.423 231.937C252.815 231.762 253.114 231.509 253.318 231.176C253.523 230.839 253.625 230.43 253.625 229.949C253.625 229.233 253.412 228.664 252.986 228.242C252.56 227.82 251.893 227.609 250.985 227.609H248.556L249.023 225.909H250.985C252.042 225.909 252.913 226.077 253.599 226.414C254.286 226.751 254.797 227.217 255.134 227.814C255.47 228.411 255.638 229.099 255.638 229.879C255.638 230.573 255.5 231.202 255.223 231.764C254.946 232.327 254.505 232.785 253.9 233.138C253.295 233.492 252.5 233.699 251.516 233.759L251.458 233.771L255.638 238.891V239H253.305ZM257.39 225.909L256.936 227.501L250.237 227.462L250.691 225.909H257.39ZM263.224 227.75V225.878H266.968V239H264.898V227.75H263.224ZM269.517 227.75V225.878H273.261V239H271.191V227.75H269.517ZM278.6 236.534L276.422 241.502H275.09L276.368 236.534H278.6ZM280.123 232.268C280.123 230.192 280.471 228.572 281.167 227.408C281.875 226.232 283.087 225.644 284.803 225.644C286.519 225.644 287.725 226.232 288.421 227.408C289.129 228.572 289.483 230.192 289.483 232.268C289.483 234.368 289.129 236.012 288.421 237.2C287.725 238.376 286.519 238.964 284.803 238.964C283.087 238.964 281.875 238.376 281.167 237.2C280.471 236.012 280.123 234.368 280.123 232.268ZM287.467 232.268C287.467 231.296 287.401 230.474 287.269 229.802C287.149 229.13 286.897 228.584 286.513 228.164C286.129 227.732 285.559 227.516 284.803 227.516C284.047 227.516 283.477 227.732 283.093 228.164C282.709 228.584 282.451 229.13 282.319 229.802C282.199 230.474 282.139 231.296 282.139 232.268C282.139 233.276 282.199 234.122 282.319 234.806C282.439 235.49 282.691 236.042 283.075 236.462C283.471 236.882 284.047 237.092 284.803 237.092C285.559 237.092 286.129 236.882 286.513 236.462C286.909 236.042 287.167 235.49 287.287 234.806C287.407 234.122 287.467 233.276 287.467 232.268ZM291.654 232.268C291.654 230.192 292.002 228.572 292.698 227.408C293.406 226.232 294.618 225.644 296.334 225.644C298.05 225.644 299.256 226.232 299.952 227.408C300.66 228.572 301.014 230.192 301.014 232.268C301.014 234.368 300.66 236.012 299.952 237.2C299.256 238.376 298.05 238.964 296.334 238.964C294.618 238.964 293.406 238.376 292.698 237.2C292.002 236.012 291.654 234.368 291.654 232.268ZM298.998 232.268C298.998 231.296 298.932 230.474 298.8 229.802C298.68 229.13 298.428 228.584 298.044 228.164C297.66 227.732 297.09 227.516 296.334 227.516C295.578 227.516 295.008 227.732 294.624 228.164C294.24 228.584 293.982 229.13 293.85 229.802C293.73 230.474 293.67 231.296 293.67 232.268C293.67 233.276 293.73 234.122 293.85 234.806C293.97 235.49 294.222 236.042 294.606 236.462C295.002 236.882 295.578 237.092 296.334 237.092C297.09 237.092 297.66 236.882 298.044 236.462C298.44 236.042 298.698 235.49 298.818 234.806C298.938 234.122 298.998 233.276 298.998 232.268ZM305.705 236.534L303.527 241.502H302.195L303.473 236.534H305.705ZM307.228 232.268C307.228 230.192 307.576 228.572 308.272 227.408C308.98 226.232 310.192 225.644 311.908 225.644C313.624 225.644 314.83 226.232 315.526 227.408C316.234 228.572 316.588 230.192 316.588 232.268C316.588 234.368 316.234 236.012 315.526 237.2C314.83 238.376 313.624 238.964 311.908 238.964C310.192 238.964 308.98 238.376 308.272 237.2C307.576 236.012 307.228 234.368 307.228 232.268ZM314.572 232.268C314.572 231.296 314.506 230.474 314.374 229.802C314.254 229.13 314.002 228.584 313.618 228.164C313.234 227.732 312.664 227.516 311.908 227.516C311.152 227.516 310.582 227.732 310.198 228.164C309.814 228.584 309.556 229.13 309.424 229.802C309.304 230.474 309.244 231.296 309.244 232.268C309.244 233.276 309.304 234.122 309.424 234.806C309.544 235.49 309.796 236.042 310.18 236.462C310.576 236.882 311.152 237.092 311.908 237.092C312.664 237.092 313.234 236.882 313.618 236.462C314.014 236.042 314.272 235.49 314.392 234.806C314.512 234.122 314.572 233.276 314.572 232.268ZM318.76 232.268C318.76 230.192 319.108 228.572 319.804 227.408C320.512 226.232 321.724 225.644 323.44 225.644C325.156 225.644 326.362 226.232 327.058 227.408C327.766 228.572 328.12 230.192 328.12 232.268C328.12 234.368 327.766 236.012 327.058 237.2C326.362 238.376 325.156 238.964 323.44 238.964C321.724 238.964 320.512 238.376 319.804 237.2C319.108 236.012 318.76 234.368 318.76 232.268ZM326.104 232.268C326.104 231.296 326.038 230.474 325.906 229.802C325.786 229.13 325.534 228.584 325.15 228.164C324.766 227.732 324.196 227.516 323.44 227.516C322.684 227.516 322.114 227.732 321.73 228.164C321.346 228.584 321.088 229.13 320.956 229.802C320.836 230.474 320.776 231.296 320.776 232.268C320.776 233.276 320.836 234.122 320.956 234.806C321.076 235.49 321.328 236.042 321.712 236.462C322.108 236.882 322.684 237.092 323.44 237.092C324.196 237.092 324.766 236.882 325.15 236.462C325.546 236.042 325.804 235.49 325.924 234.806C326.044 234.122 326.104 233.276 326.104 232.268ZM330.291 232.268C330.291 230.192 330.639 228.572 331.335 227.408C332.043 226.232 333.255 225.644 334.971 225.644C336.687 225.644 337.893 226.232 338.589 227.408C339.297 228.572 339.651 230.192 339.651 232.268C339.651 234.368 339.297 236.012 338.589 237.2C337.893 238.376 336.687 238.964 334.971 238.964C333.255 238.964 332.043 238.376 331.335 237.2C330.639 236.012 330.291 234.368 330.291 232.268ZM337.635 232.268C337.635 231.296 337.569 230.474 337.437 229.802C337.317 229.13 337.065 228.584 336.681 228.164C336.297 227.732 335.727 227.516 334.971 227.516C334.215 227.516 333.645 227.732 333.261 228.164C332.877 228.584 332.619 229.13 332.487 229.802C332.367 230.474 332.307 231.296 332.307 232.268C332.307 233.276 332.367 234.122 332.487 234.806C332.607 235.49 332.859 236.042 333.243 236.462C333.639 236.882 334.215 237.092 334.971 237.092C335.727 237.092 336.297 236.882 336.681 236.462C337.077 236.042 337.335 235.49 337.455 234.806C337.575 234.122 337.635 233.276 337.635 232.268Z" fill="#37ED81"/>
<path d="M323.472 71.126C322.632 71.126 321.876 70.982 321.204 70.694C320.532 70.394 320.004 69.974 319.62 69.434C319.236 68.894 319.044 68.264 319.044 67.544H321.24C321.288 68.084 321.498 68.528 321.87 68.876C322.254 69.224 322.788 69.398 323.472 69.398C324.18 69.398 324.732 69.23 325.128 68.894C325.524 68.546 325.722 68.102 325.722 67.562C325.722 67.142 325.596 66.8 325.344 66.536C325.104 66.272 324.798 66.068 324.426 65.924C324.066 65.78 323.562 65.624 322.914 65.456C322.098 65.24 321.432 65.024 320.916 64.808C320.412 64.58 319.98 64.232 319.62 63.764C319.26 63.296 319.08 62.672 319.08 61.892C319.08 61.172 319.26 60.542 319.62 60.002C319.98 59.462 320.484 59.048 321.132 58.76C321.78 58.472 322.53 58.328 323.382 58.328C324.594 58.328 325.584 58.634 326.352 59.246C327.132 59.846 327.564 60.674 327.648 61.73H325.38C325.344 61.274 325.128 60.884 324.732 60.56C324.336 60.236 323.814 60.074 323.166 60.074C322.578 60.074 322.098 60.224 321.726 60.524C321.354 60.824 321.168 61.256 321.168 61.82C321.168 62.204 321.282 62.522 321.51 62.774C321.75 63.014 322.05 63.206 322.41 63.35C322.77 63.494 323.262 63.65 323.886 63.818C324.714 64.046 325.386 64.274 325.902 64.502C326.43 64.73 326.874 65.084 327.234 65.564C327.606 66.032 327.792 66.662 327.792 67.454C327.792 68.09 327.618 68.69 327.27 69.254C326.934 69.818 326.436 70.274 325.776 70.622C325.128 70.958 324.36 71.126 323.472 71.126ZM334.299 58.49C335.631 58.49 336.795 58.748 337.791 59.264C338.799 59.768 339.573 60.5 340.113 61.46C340.665 62.408 340.941 63.518 340.941 64.79C340.941 66.062 340.665 67.166 340.113 68.102C339.573 69.038 338.799 69.758 337.791 70.262C336.795 70.754 335.631 71 334.299 71H330.213V58.49H334.299ZM334.299 69.326C335.763 69.326 336.885 68.93 337.665 68.138C338.445 67.346 338.835 66.23 338.835 64.79C338.835 63.338 338.445 62.204 337.665 61.388C336.885 60.572 335.763 60.164 334.299 60.164H332.265V69.326H334.299ZM345.027 60.146V63.818H349.347V65.492H345.027V69.326H349.887V71H342.975V58.472H349.887V60.146H345.027ZM360.028 63.62V65.348H352.63V63.62H360.028ZM369.672 58.49V71H367.62V58.49H369.672ZM374.418 58.49V71H372.366V58.49H374.418Z" fill="#101010"/>
<path d="M327.384 88.054L326.936 89.6328H318.556L319.004 88.054H327.384ZM323.305 98L318.729 92.4453L318.716 91.1989H320.985C321.552 91.1989 322.031 91.1115 322.423 90.9368C322.815 90.7621 323.114 90.5085 323.318 90.1761C323.523 89.8395 323.625 89.4304 323.625 88.9489C323.625 88.233 323.412 87.6641 322.986 87.2422C322.56 86.8203 321.893 86.6094 320.985 86.6094H318.556L319.023 84.9091H320.985C322.042 84.9091 322.913 85.0774 323.599 85.4141C324.286 85.7507 324.797 86.2173 325.134 86.8139C325.47 87.4105 325.638 88.0987 325.638 88.8786C325.638 89.5732 325.5 90.2017 325.223 90.7642C324.946 91.3267 324.505 91.7848 323.9 92.1385C323.295 92.4922 322.5 92.6989 321.516 92.7585L321.458 92.7713L325.638 97.8913V98H323.305ZM327.39 84.9091L326.936 86.5007L320.237 86.4624L320.691 84.9091H327.39ZM333.224 86.75V84.878H336.968V98H334.898V86.75H333.224ZM348.247 86.642H342.217V90.224C342.469 89.888 342.841 89.606 343.333 89.378C343.837 89.15 344.371 89.036 344.935 89.036C345.943 89.036 346.759 89.252 347.383 89.684C348.019 90.116 348.469 90.662 348.733 91.322C349.009 91.982 349.147 92.678 349.147 93.41C349.147 94.298 348.973 95.09 348.625 95.786C348.289 96.47 347.779 97.01 347.095 97.406C346.423 97.802 345.595 98 344.611 98C343.303 98 342.253 97.676 341.461 97.028C340.669 96.38 340.195 95.522 340.039 94.454H342.037C342.169 95.018 342.463 95.468 342.919 95.804C343.375 96.128 343.945 96.29 344.629 96.29C345.481 96.29 346.117 96.032 346.537 95.516C346.969 95 347.185 94.316 347.185 93.464C347.185 92.6 346.969 91.94 346.537 91.484C346.105 91.016 345.469 90.782 344.629 90.782C344.041 90.782 343.543 90.932 343.135 91.232C342.739 91.52 342.451 91.916 342.271 92.42H340.327V84.842H348.247V86.642ZM353.803 95.534L351.625 100.502H350.293L351.571 95.534H353.803ZM355.326 91.268C355.326 89.192 355.674 87.572 356.37 86.408C357.078 85.232 358.29 84.644 360.006 84.644C361.722 84.644 362.928 85.232 363.624 86.408C364.332 87.572 364.686 89.192 364.686 91.268C364.686 93.368 364.332 95.012 363.624 96.2C362.928 97.376 361.722 97.964 360.006 97.964C358.29 97.964 357.078 97.376 356.37 96.2C355.674 95.012 355.326 93.368 355.326 91.268ZM362.67 91.268C362.67 90.296 362.604 89.474 362.472 88.802C362.352 88.13 362.1 87.584 361.716 87.164C361.332 86.732 360.762 86.516 360.006 86.516C359.25 86.516 358.68 86.732 358.296 87.164C357.912 87.584 357.654 88.13 357.522 88.802C357.402 89.474 357.342 90.296 357.342 91.268C357.342 92.276 357.402 93.122 357.522 93.806C357.642 94.49 357.894 95.042 358.278 95.462C358.674 95.882 359.25 96.092 360.006 96.092C360.762 96.092 361.332 95.882 361.716 95.462C362.112 95.042 362.37 94.49 362.49 93.806C362.61 93.122 362.67 92.276 362.67 91.268ZM366.857 91.268C366.857 89.192 367.205 87.572 367.901 86.408C368.609 85.232 369.821 84.644 371.537 84.644C373.253 84.644 374.459 85.232 375.155 86.408C375.863 87.572 376.217 89.192 376.217 91.268C376.217 93.368 375.863 95.012 375.155 96.2C374.459 97.376 373.253 97.964 371.537 97.964C369.821 97.964 368.609 97.376 367.901 96.2C367.205 95.012 366.857 93.368 366.857 91.268ZM374.201 91.268C374.201 90.296 374.135 89.474 374.003 88.802C373.883 88.13 373.631 87.584 373.247 87.164C372.863 86.732 372.293 86.516 371.537 86.516C370.781 86.516 370.211 86.732 369.827 87.164C369.443 87.584 369.185 88.13 369.053 88.802C368.933 89.474 368.873 90.296 368.873 91.268C368.873 92.276 368.933 93.122 369.053 93.806C369.173 94.49 369.425 95.042 369.809 95.462C370.205 95.882 370.781 96.092 371.537 96.092C372.293 96.092 372.863 95.882 373.247 95.462C373.643 95.042 373.901 94.49 374.021 93.806C374.141 93.122 374.201 92.276 374.201 91.268ZM380.909 95.534L378.731 100.502H377.399L378.677 95.534H380.909ZM382.432 91.268C382.432 89.192 382.78 87.572 383.476 86.408C384.184 85.232 385.396 84.644 387.112 84.644C388.828 84.644 390.034 85.232 390.73 86.408C391.438 87.572 391.792 89.192 391.792 91.268C391.792 93.368 391.438 95.012 390.73 96.2C390.034 97.376 388.828 97.964 387.112 97.964C385.396 97.964 384.184 97.376 383.476 96.2C382.78 95.012 382.432 93.368 382.432 91.268ZM389.776 91.268C389.776 90.296 389.71 89.474 389.578 88.802C389.458 88.13 389.206 87.584 388.822 87.164C388.438 86.732 387.868 86.516 387.112 86.516C386.356 86.516 385.786 86.732 385.402 87.164C385.018 87.584 384.76 88.13 384.628 88.802C384.508 89.474 384.448 90.296 384.448 91.268C384.448 92.276 384.508 93.122 384.628 93.806C384.748 94.49 385 95.042 385.384 95.462C385.78 95.882 386.356 96.092 387.112 96.092C387.868 96.092 388.438 95.882 388.822 95.462C389.218 95.042 389.476 94.49 389.596 93.806C389.716 93.122 389.776 92.276 389.776 91.268ZM393.963 91.268C393.963 89.192 394.311 87.572 395.007 86.408C395.715 85.232 396.927 84.644 398.643 84.644C400.359 84.644 401.565 85.232 402.261 86.408C402.969 87.572 403.323 89.192 403.323 91.268C403.323 93.368 402.969 95.012 402.261 96.2C401.565 97.376 400.359 97.964 398.643 97.964C396.927 97.964 395.715 97.376 395.007 96.2C394.311 95.012 393.963 93.368 393.963 91.268ZM401.307 91.268C401.307 90.296 401.241 89.474 401.109 88.802C400.989 88.13 400.737 87.584 400.353 87.164C399.969 86.732 399.399 86.516 398.643 86.516C397.887 86.516 397.317 86.732 396.933 87.164C396.549 87.584 396.291 88.13 396.159 88.802C396.039 89.474 395.979 90.296 395.979 91.268C395.979 92.276 396.039 93.122 396.159 93.806C396.279 94.49 396.531 95.042 396.915 95.462C397.311 95.882 397.887 96.092 398.643 96.092C399.399 96.092 399.969 95.882 400.353 95.462C400.749 95.042 401.007 94.49 401.127 93.806C401.247 93.122 401.307 92.276 401.307 91.268ZM405.494 91.268C405.494 89.192 405.842 87.572 406.538 86.408C407.246 85.232 408.458 84.644 410.174 84.644C411.89 84.644 413.096 85.232 413.792 86.408C414.5 87.572 414.854 89.192 414.854 91.268C414.854 93.368 414.5 95.012 413.792 96.2C413.096 97.376 411.89 97.964 410.174 97.964C408.458 97.964 407.246 97.376 406.538 96.2C405.842 95.012 405.494 93.368 405.494 91.268ZM412.838 91.268C412.838 90.296 412.772 89.474 412.64 88.802C412.52 88.13 412.268 87.584 411.884 87.164C411.5 86.732 410.93 86.516 410.174 86.516C409.418 86.516 408.848 86.732 408.464 87.164C408.08 87.584 407.822 88.13 407.69 88.802C407.57 89.474 407.51 90.296 407.51 91.268C407.51 92.276 407.57 93.122 407.69 93.806C407.81 94.49 408.062 95.042 408.446 95.462C408.842 95.882 409.418 96.092 410.174 96.092C410.93 96.092 411.5 95.882 411.884 95.462C412.28 95.042 412.538 94.49 412.658 93.806C412.778 93.122 412.838 92.276 412.838 91.268Z" fill="#37ED81"/>
<rect x="422" y="82" width="20" height="20" rx="10" fill="#37ED81"/>
<defs>
<linearGradient id="paint0_linear_3_35" x1="-1.282" y1="363.582" x2="376.262" y2="-70.9981" gradientUnits="userSpaceOnUse">
<stop stop-color="#37ED81"/>
<stop offset="1" stop-color="#37ED81" stop-opacity="0"/>
</linearGradient>
</defs>
</svg>
