<svg width="26" height="36" viewBox="0 0 26 36" fill="none" xmlns="http://www.w3.org/2000/svg">
<path d="M23 35.5H3C2.33716 35.4993 1.70166 35.2357 1.23296 34.767C0.764267 34.2983 0.500662 33.6628 0.5 33V3C0.500662 2.33716 0.764267 1.70166 1.23296 1.23296C1.70166 0.764266 2.33716 0.500662 3 0.5H23C23.6628 0.500662 24.2983 0.764266 24.767 1.23296C25.2357 1.70166 25.4993 2.33716 25.5 3V23.7725L19.25 20.6475L13 23.7725V3H3V33H23V28H25.5V33C25.499 33.6627 25.2353 34.298 24.7667 34.7667C24.298 35.2353 23.6627 35.499 23 35.5ZM19.25 17.8525L23 19.7275V3H15.5V19.7275L19.25 17.8525Z" fill="#4BA25D"/>
</svg>
