<svg width="41" height="40" viewBox="0 0 41 40" fill="none" xmlns="http://www.w3.org/2000/svg">
<path d="M24.1334 7.12651C24.4536 7.21209 24.7267 7.42134 24.8927 7.70826C25.0587 7.99518 25.1039 8.33626 25.0184 8.65651L18.3967 33.3732C18.3108 33.6936 18.101 33.9668 17.8136 34.1327C17.5262 34.2985 17.1847 34.3433 16.8642 34.2573C16.5438 34.1714 16.2706 33.9616 16.1048 33.6742C15.9389 33.3868 15.8941 33.0453 15.9801 32.7248L22.6034 8.00818C22.6459 7.84959 22.7193 7.70094 22.8193 7.57071C22.9193 7.44048 23.044 7.33123 23.1862 7.2492C23.3285 7.16717 23.4855 7.11397 23.6483 7.09263C23.8111 7.07129 23.9765 7.08224 24.1351 7.12485L24.1334 7.12651ZM27.9034 12.2132C28.0132 12.0909 28.146 11.9915 28.2943 11.9207C28.4425 11.8498 28.6033 11.8089 28.7674 11.8002C28.9315 11.7916 29.0956 11.8153 29.2505 11.8702C29.4054 11.925 29.548 12.0099 29.6701 12.1198L32.5651 14.7265C33.7934 15.8298 34.8101 16.7465 35.5101 17.5765C36.2434 18.4515 36.7667 19.3898 36.7667 20.5498C36.7667 21.7082 36.2451 22.6465 35.5101 23.5198C34.8101 24.3515 33.7934 25.2682 32.5651 26.3715L29.6701 28.9782C29.4236 29.2001 29.0992 29.315 28.768 29.2976C28.4368 29.2803 28.1261 29.1321 27.9042 28.8857C27.6823 28.6392 27.5674 28.3148 27.5848 27.9836C27.6021 27.6524 27.7503 27.3417 27.9967 27.1198L30.8251 24.5748C32.1384 23.3932 33.0234 22.5915 33.5967 21.9115C34.1467 21.2565 34.2667 20.8748 34.2667 20.5482C34.2667 20.2232 34.1467 19.8415 33.5967 19.1865C33.0234 18.5048 32.1384 17.7032 30.8251 16.5232L27.9967 13.9782C27.8745 13.8684 27.7751 13.7355 27.7042 13.5873C27.6334 13.439 27.5924 13.2783 27.5838 13.1142C27.5751 12.9501 27.5989 12.7859 27.6537 12.631C27.7086 12.4761 27.7934 12.3352 27.9034 12.2132ZM13.0034 13.9782C13.1254 13.8683 13.2246 13.7355 13.2953 13.5873C13.366 13.4391 13.4068 13.2784 13.4154 13.1144C13.424 12.9504 13.4002 12.7864 13.3453 12.6316C13.2905 12.4768 13.2058 12.3344 13.0959 12.2123C12.986 12.0903 12.8532 11.9911 12.705 11.9205C12.5568 11.8498 12.3961 11.809 12.2321 11.8004C12.0682 11.7918 11.9041 11.8156 11.7493 11.8704C11.5946 11.9252 11.4521 12.01 11.3301 12.1198L8.43507 14.7265C7.20673 15.8298 6.19006 16.7465 5.49006 17.5765C4.75673 18.4515 4.2334 19.3898 4.2334 20.5498C4.2334 21.7082 4.75506 22.6465 5.49006 23.5198C6.19006 24.3515 7.20673 25.2682 8.43507 26.3715L11.3301 28.9782C11.5765 29.2001 11.901 29.315 12.2321 29.2976C12.5633 29.2803 12.874 29.1321 13.0959 28.8857C13.3178 28.6392 13.4327 28.3148 13.4154 27.9836C13.398 27.6524 13.2498 27.3417 13.0034 27.1198L10.1751 24.5748C8.86173 23.3932 7.97673 22.5915 7.4034 21.9115C6.8534 21.2565 6.7334 20.8748 6.7334 20.5482C6.7334 20.2232 6.8534 19.8415 7.4034 19.1865C7.97673 18.5048 8.86173 17.7032 10.1751 16.5232L13.0034 13.9782Z" fill="#4BA25D"/>
</svg>
