<svg width="40" height="40" viewBox="0 0 40 40" fill="none" xmlns="http://www.w3.org/2000/svg">
<path d="M10 13.3359H16.6667Z" fill="#8A8F98"/>
<path d="M10 13.3359H16.6667" stroke="#4BA25D" stroke-width="1.5" stroke-linecap="round" stroke-linejoin="round"/>
<path d="M34.7217 15H30.385C27.41 15 25 17.2383 25 20C25 22.7617 27.4117 25 30.3833 25H34.7217C34.8617 25 34.93 25 34.9883 24.9967C35.8883 24.9417 36.605 24.2767 36.6633 23.4417C36.6667 23.3883 36.6667 23.3233 36.6667 23.195V16.805C36.6667 16.6767 36.6667 16.6117 36.6633 16.5583C36.6033 15.7233 35.8883 15.0583 34.9883 15.0033C34.9317 15 34.8617 15 34.7217 15Z" stroke="#4BA25D" stroke-width="1.5"/>
<path d="M34.9413 15.0013C34.8113 11.8813 34.3947 9.96797 33.0463 8.6213C31.0947 6.66797 27.9513 6.66797 21.6663 6.66797H16.6663C10.3813 6.66797 7.23801 6.66797 5.28634 8.6213C3.33301 10.573 3.33301 13.7163 3.33301 20.0013C3.33301 26.2863 3.33301 29.4296 5.28634 31.3813C7.23801 33.3346 10.3813 33.3346 16.6663 33.3346H21.6663C27.9513 33.3346 31.0947 33.3346 33.0463 31.3813C34.3947 30.0346 34.813 28.1213 34.9413 25.0013" stroke="#4BA25D" stroke-width="1.5"/>
<path d="M29.9844 20H30.001" stroke="#4BA25D" stroke-width="2" stroke-linecap="round" stroke-linejoin="round"/>
</svg>
