<svg width="41" height="40" viewBox="0 0 41 40" fill="none" xmlns="http://www.w3.org/2000/svg">
<path d="M37.1663 13.6007V13.7223C37.1663 15.1557 37.1663 15.874 36.8213 16.4607C36.4763 17.0473 35.848 17.3957 34.5947 18.094L33.273 18.8273C34.183 15.7473 34.488 12.4373 34.5997 9.60734L34.6163 9.23901L34.6197 9.15234C35.7047 9.52901 36.3147 9.81068 36.6947 10.3373C37.1663 10.9923 37.1663 11.8623 37.1663 13.6007ZM3.83301 13.6007V13.7223C3.83301 15.1557 3.83301 15.874 4.17801 16.4607C4.52301 17.0473 5.15134 17.3957 6.40467 18.094L7.72801 18.8273C6.81634 15.7473 6.51134 12.4373 6.39967 9.60734L6.38301 9.23901L6.38134 9.15234C5.29467 9.52901 4.68467 9.81068 4.30467 10.3373C3.83301 10.9923 3.83301 11.864 3.83301 13.6007Z" fill="#37ED81"/>
<path fill-rule="evenodd" clip-rule="evenodd" d="M20.4993 3.33242C23.4726 3.33242 25.921 3.59409 27.7943 3.91076C29.6926 4.23076 30.641 4.39076 31.4343 5.36742C32.2276 6.34409 32.1843 7.39909 32.101 9.50909C31.8143 16.7574 30.251 25.8091 21.7493 26.6091V32.4991H24.1326C24.5178 32.4993 24.891 32.6329 25.1887 32.8772C25.4865 33.1215 25.6905 33.4614 25.766 33.8391L26.0826 35.4158H30.4993C30.8308 35.4158 31.1488 35.5474 31.3832 35.7819C31.6176 36.0163 31.7493 36.3342 31.7493 36.6658C31.7493 36.9973 31.6176 37.3152 31.3832 37.5496C31.1488 37.7841 30.8308 37.9158 30.4993 37.9158H10.4993C10.1678 37.9158 9.84984 37.7841 9.61542 37.5496C9.381 37.3152 9.2493 36.9973 9.2493 36.6658C9.2493 36.3342 9.381 36.0163 9.61542 35.7819C9.84984 35.5474 10.1678 35.4158 10.4993 35.4158H14.916L15.2326 33.8391C15.3081 33.4614 15.5121 33.1215 15.8099 32.8772C16.1076 32.6329 16.4808 32.4993 16.866 32.4991H19.2493V26.6091C10.7493 25.8091 9.18597 16.7558 8.8993 9.50909C8.8143 7.39909 8.77264 6.34242 9.56597 5.36742C10.3576 4.39076 11.306 4.23076 13.2043 3.91076C15.6157 3.51555 18.0558 3.3221 20.4993 3.33242ZM22.086 10.3308L21.9226 10.0374C21.2893 8.89909 20.9726 8.33242 20.4993 8.33242C20.026 8.33242 19.7093 8.89909 19.076 10.0374L18.9126 10.3308C18.7326 10.6541 18.6426 10.8141 18.5026 10.9208C18.361 11.0274 18.186 11.0674 17.836 11.1458L17.5193 11.2191C16.2893 11.4974 15.6743 11.6358 15.5276 12.1058C15.381 12.5774 15.801 13.0674 16.6393 14.0474L16.856 14.3008C17.0943 14.5791 17.2143 14.7174 17.2676 14.8908C17.321 15.0641 17.3026 15.2491 17.2676 15.6208L17.2343 15.9591C17.1076 17.2674 17.0443 17.9224 17.426 18.2124C17.8093 18.5024 18.386 18.2374 19.5376 17.7074L19.8343 17.5708C20.1626 17.4208 20.326 17.3458 20.4993 17.3458C20.6726 17.3458 20.836 17.4208 21.1643 17.5708L21.461 17.7074C22.6126 18.2391 23.1893 18.5024 23.5726 18.2124C23.956 17.9224 23.891 17.2674 23.7643 15.9591L23.731 15.6208C23.696 15.2491 23.6776 15.0641 23.731 14.8908C23.7843 14.7191 23.9043 14.5791 24.1426 14.3008L24.3593 14.0474C25.1976 13.0674 25.6176 12.5774 25.471 12.1058C25.3243 11.6358 24.7093 11.4974 23.4793 11.2191L23.1626 11.1458C22.8126 11.0674 22.6376 11.0291 22.496 10.9208C22.356 10.8141 22.266 10.6541 22.086 10.3308Z" fill="#4BA25D"/>
</svg>
