<svg width="41" height="40" viewBox="0 0 41 40" fill="none" xmlns="http://www.w3.org/2000/svg">
<path d="M23.683 4.85L20.2163 8.33333H23.833C27.3692 8.33333 30.7606 9.73809 33.2611 12.2386C35.7616 14.7391 37.1663 18.1304 37.1663 21.6667H33.833C33.833 19.0145 32.7794 16.471 30.9041 14.5956C29.0287 12.7202 26.4852 11.6667 23.833 11.6667H20.2163L23.6997 15.15L21.333 17.5L13.833 10L16.183 7.65L21.333 2.5L23.683 4.85ZM3.83301 20V36.6667H30.4997V20H3.83301ZM7.16634 30.9333V25.75C8.1682 25.1681 9.00113 24.3352 9.58301 23.3333H24.7497C25.3316 24.3352 26.1645 25.1681 27.1663 25.75V30.9333C26.1786 31.5149 25.3577 32.3416 24.783 33.3333H9.58301C8.99909 32.3374 8.1663 31.5103 7.16634 30.9333ZM17.1663 31.6667C18.5463 31.6667 19.6663 30.175 19.6663 28.3333C19.6663 26.4917 18.5463 25 17.1663 25C15.7863 25 14.6663 26.4917 14.6663 28.3333C14.6663 30.175 15.7863 31.6667 17.1663 31.6667Z" fill="#4BA25D"/>
</svg>
