<svg width="41" height="40" viewBox="0 0 41 40" fill="none" xmlns="http://www.w3.org/2000/svg">
<path d="M33.8333 3.33203H13.8333C11.995 3.33203 10.5 4.82703 10.5 6.66536V26.6654C10.5 28.5037 11.995 29.9987 13.8333 29.9987H33.8333C35.6717 29.9987 37.1667 28.5037 37.1667 26.6654V6.66536C37.1667 4.82703 35.6717 3.33203 33.8333 3.33203ZM13.8333 26.6654V6.66536H33.8333L33.8367 26.6654H13.8333Z" fill="#37ED81"/>
<path d="M7.16634 13.3327H3.83301V33.3327C3.83301 35.171 5.32801 36.666 7.16634 36.666H27.1663V33.3327H7.16634V13.3327ZM22.0547 19.1977L19.178 16.321L16.8213 18.6777L22.278 24.1343L31.7813 12.7343L29.218 10.5977L22.0547 19.1977Z" fill="#4BA25D"/>
</svg>
