<svg width="30" height="31" viewBox="0 0 30 31" fill="none" xmlns="http://www.w3.org/2000/svg">
<path d="M1.66667 0.667969V4.0013H10V7.33464H3.33333V10.668H10V14.0013H1.66667V17.3346H10C11.8333 17.3346 13.3333 15.8346 13.3333 14.0013V11.5013C13.3333 10.118 13.05 9.0013 11.6667 9.0013C13.05 9.0013 13.3333 7.88464 13.3333 6.5013V4.0013C13.3333 2.16797 11.8333 0.667969 10 0.667969H1.66667ZM25 0.667969C26.8333 0.667969 28.3333 2.16797 28.3333 4.0013V14.0013C28.3333 15.8346 26.8333 17.3346 25 17.3346H20C18.1667 17.3346 16.6667 15.8346 16.6667 14.0013V4.0013C16.6667 2.16797 18.1667 0.667969 20 0.667969H25ZM25 4.0013H20V14.0013H25V4.0013ZM3.33333 30.668H0V22.3346H3.33333V30.668ZM10 30.668H6.66667V22.3346H10V30.668ZM16.6667 30.668H13.3333V22.3346H16.6667V30.668ZM30 30.668H20V22.3346H30V30.668Z" fill="#4BA25D"/>
</svg>
