<svg width="40" height="40" viewBox="0 0 40 40" fill="none" xmlns="http://www.w3.org/2000/svg">
<g id="Placement/Job">
<g id="Group">
<path id="Vector" d="M36.6663 13.6007V13.7223C36.6663 15.1557 36.6663 15.874 36.3213 16.4607C35.9763 17.0473 35.348 17.3957 34.0947 18.094L32.773 18.8273C33.683 15.7473 33.988 12.4373 34.0997 9.60734L34.1163 9.23901L34.1197 9.15234C35.2047 9.52901 35.8147 9.81068 36.1947 10.3373C36.6663 10.9923 36.6663 11.8623 36.6663 13.6007ZM3.33301 13.6007V13.7223C3.33301 15.1557 3.33301 15.874 3.67801 16.4607C4.02301 17.0473 4.65134 17.3957 5.90467 18.094L7.22801 18.8273C6.31634 15.7473 6.01134 12.4373 5.89967 9.60734L5.88301 9.23901L5.88134 9.15234C4.79467 9.52901 4.18467 9.81068 3.80467 10.3373C3.33301 10.9923 3.33301 11.864 3.33301 13.6007Z" fill="#4BA25D"/>
<path id="Vector_2" fill-rule="evenodd" clip-rule="evenodd" d="M19.9993 3.33242C22.9726 3.33242 25.421 3.59409 27.2943 3.91076C29.1926 4.23076 30.141 4.39076 30.9343 5.36742C31.7276 6.34409 31.6843 7.39909 31.601 9.50909C31.3143 16.7574 29.751 25.8091 21.2493 26.6091V32.4991H23.6326C24.0178 32.4993 24.391 32.6329 24.6887 32.8772C24.9865 33.1215 25.1905 33.4614 25.266 33.8391L25.5826 35.4158H29.9993C30.3308 35.4158 30.6488 35.5474 30.8832 35.7819C31.1176 36.0163 31.2493 36.3342 31.2493 36.6658C31.2493 36.9973 31.1176 37.3152 30.8832 37.5496C30.6488 37.7841 30.3308 37.9158 29.9993 37.9158H9.9993C9.66778 37.9158 9.34984 37.7841 9.11542 37.5496C8.881 37.3152 8.7493 36.9973 8.7493 36.6658C8.7493 36.3342 8.881 36.0163 9.11542 35.7819C9.34984 35.5474 9.66778 35.4158 9.9993 35.4158H14.416L14.7326 33.8391C14.8081 33.4614 15.0121 33.1215 15.3099 32.8772C15.6076 32.6329 15.9808 32.4993 16.366 32.4991H18.7493V26.6091C10.2493 25.8091 8.68597 16.7558 8.3993 9.50909C8.3143 7.39909 8.27264 6.34242 9.06597 5.36742C9.85764 4.39076 10.806 4.23076 12.7043 3.91076C15.1157 3.51555 17.5558 3.3221 19.9993 3.33242ZM21.586 10.3308L21.4226 10.0374C20.7893 8.89909 20.4726 8.33242 19.9993 8.33242C19.526 8.33242 19.2093 8.89909 18.576 10.0374L18.4126 10.3308C18.2326 10.6541 18.1426 10.8141 18.0026 10.9208C17.861 11.0274 17.686 11.0674 17.336 11.1458L17.0193 11.2191C15.7893 11.4974 15.1743 11.6358 15.0276 12.1058C14.881 12.5774 15.301 13.0674 16.1393 14.0474L16.356 14.3008C16.5943 14.5791 16.7143 14.7174 16.7676 14.8908C16.821 15.0641 16.8026 15.2491 16.7676 15.6208L16.7343 15.9591C16.6076 17.2674 16.5443 17.9224 16.926 18.2124C17.3093 18.5024 17.886 18.2374 19.0376 17.7074L19.3343 17.5708C19.6626 17.4208 19.826 17.3458 19.9993 17.3458C20.1726 17.3458 20.336 17.4208 20.6643 17.5708L20.961 17.7074C22.1126 18.2391 22.6893 18.5024 23.0726 18.2124C23.456 17.9224 23.391 17.2674 23.2643 15.9591L23.231 15.6208C23.196 15.2491 23.1776 15.0641 23.231 14.8908C23.2843 14.7191 23.4043 14.5791 23.6426 14.3008L23.8593 14.0474C24.6976 13.0674 25.1176 12.5774 24.971 12.1058C24.8243 11.6358 24.2093 11.4974 22.9793 11.2191L22.6626 11.1458C22.3126 11.0674 22.1376 11.0291 21.996 10.9208C21.856 10.8141 21.766 10.6541 21.586 10.3308Z" fill="#37ED81"/>
</g>
</g>
</svg>
