<svg width="34" height="35" viewBox="0 0 34 35" fill="none" xmlns="http://www.w3.org/2000/svg">
<path d="M33.6663 10.6007V10.7223C33.6663 12.1557 33.6663 12.874 33.3213 13.4607C32.9763 14.0473 32.348 14.3957 31.0947 15.094L29.773 15.8273C30.683 12.7473 30.988 9.43734 31.0997 6.60734L31.1163 6.23901L31.1197 6.15234C32.2047 6.52901 32.8147 6.81068 33.1947 7.33734C33.6663 7.99234 33.6663 8.86234 33.6663 10.6007ZM0.333008 10.6007V10.7223C0.333008 12.1557 0.333008 12.874 0.678008 13.4607C1.02301 14.0473 1.65134 14.3957 2.90467 15.094L4.22801 15.8273C3.31634 12.7473 3.01134 9.43734 2.89967 6.60734L2.88301 6.23901L2.88134 6.15234C1.79467 6.52901 1.18467 6.81068 0.804674 7.33734C0.333008 7.99234 0.333008 8.86401 0.333008 10.6007Z" fill="#4BA25D"/>
<path fill-rule="evenodd" clip-rule="evenodd" d="M16.9993 0.332423C19.9726 0.332423 22.421 0.59409 24.2943 0.910756C26.1926 1.23076 27.141 1.39076 27.9343 2.36742C28.7276 3.34409 28.6843 4.39909 28.601 6.50909C28.3143 13.7574 26.751 22.8091 18.2493 23.6091V29.4991H20.6326C21.0178 29.4993 21.391 29.6329 21.6887 29.8772C21.9865 30.1215 22.1905 30.4614 22.266 30.8391L22.5826 32.4158H26.9993C27.3308 32.4158 27.6488 32.5474 27.8832 32.7819C28.1176 33.0163 28.2493 33.3342 28.2493 33.6658C28.2493 33.9973 28.1176 34.3152 27.8832 34.5496C27.6488 34.7841 27.3308 34.9158 26.9993 34.9158H6.9993C6.66778 34.9158 6.34984 34.7841 6.11542 34.5496C5.881 34.3152 5.7493 33.9973 5.7493 33.6658C5.7493 33.3342 5.881 33.0163 6.11542 32.7819C6.34984 32.5474 6.66778 32.4158 6.9993 32.4158H11.416L11.7326 30.8391C11.8081 30.4614 12.0121 30.1215 12.3099 29.8772C12.6076 29.6329 12.9808 29.4993 13.366 29.4991H15.7493V23.6091C7.2493 22.8091 5.68597 13.7558 5.3993 6.50909C5.3143 4.39909 5.27264 3.34242 6.06597 2.36742C6.85764 1.39076 7.80597 1.23076 9.7043 0.910756C12.1157 0.51555 14.5558 0.322103 16.9993 0.332423ZM18.586 7.33076L18.4226 7.03742C17.7893 5.89909 17.4726 5.33242 16.9993 5.33242C16.526 5.33242 16.2093 5.89909 15.576 7.03742L15.4126 7.33076C15.2326 7.65409 15.1426 7.81409 15.0026 7.92076C14.861 8.02742 14.686 8.06742 14.336 8.14576L14.0193 8.21909C12.7893 8.49742 12.1743 8.63576 12.0276 9.10576C11.881 9.57742 12.301 10.0674 13.1393 11.0474L13.356 11.3008C13.5943 11.5791 13.7143 11.7174 13.7676 11.8908C13.821 12.0641 13.8026 12.2491 13.7676 12.6208L13.7343 12.9591C13.6076 14.2674 13.5443 14.9224 13.926 15.2124C14.3093 15.5024 14.886 15.2374 16.0376 14.7074L16.3343 14.5708C16.6626 14.4208 16.826 14.3458 16.9993 14.3458C17.1726 14.3458 17.336 14.4208 17.6643 14.5708L17.961 14.7074C19.1126 15.2391 19.6893 15.5024 20.0726 15.2124C20.456 14.9224 20.391 14.2674 20.2643 12.9591L20.231 12.6208C20.196 12.2491 20.1776 12.0641 20.231 11.8908C20.2843 11.7191 20.4043 11.5791 20.6426 11.3008L20.8593 11.0474C21.6976 10.0674 22.1176 9.57742 21.971 9.10576C21.8243 8.63576 21.2093 8.49742 19.9793 8.21909L19.6626 8.14576C19.3126 8.06742 19.1376 8.02909 18.996 7.92076C18.856 7.81409 18.766 7.65409 18.586 7.33076Z" fill="#37ED81"/>
</svg>
