<svg width="40" height="40" viewBox="0 0 40 40" fill="none" xmlns="http://www.w3.org/2000/svg">
<path d="M12 6H28C28.5304 6 29.0391 6.21071 29.4142 6.58579C29.7893 6.96086 30 7.46957 30 8V18.044C30.6767 18.1053 31.3462 18.2292 32 18.414V8C32 6.93913 31.5786 5.92172 30.8284 5.17157C30.0783 4.42143 29.0609 4 28 4H12C10.9391 4 9.92172 4.42143 9.17157 5.17157C8.42143 5.92172 8 6.93913 8 8V32C8 33.0609 8.42143 34.0783 9.17157 34.8284C9.92172 35.5786 10.9391 36 12 36H20.514C20.0046 35.3831 19.564 34.7124 19.2 34H12C11.4696 34 10.9609 33.7893 10.5858 33.4142C10.2107 33.0391 10 32.5304 10 32H18.414C18.2289 31.3462 18.1051 30.6767 18.044 30H10V8C10 7.46957 10.2107 6.96086 10.5858 6.58579C10.9609 6.21071 11.4696 6 12 6ZM14 8C13.4696 8 12.9609 8.21071 12.5858 8.58579C12.2107 8.96086 12 9.46957 12 10V12C12 12.5304 12.2107 13.0391 12.5858 13.4142C12.9609 13.7893 13.4696 14 14 14H26C26.5304 14 27.0391 13.7893 27.4142 13.4142C27.7893 13.0391 28 12.5304 28 12V10C28 9.46957 27.7893 8.96086 27.4142 8.58579C27.0391 8.21071 26.5304 8 26 8H14ZM26 10V12H14V10H26ZM38 29C38 31.3869 37.0518 33.6761 35.364 35.364C33.6761 37.0518 31.3869 38 29 38C26.6131 38 24.3239 37.0518 22.636 35.364C20.9482 33.6761 20 31.3869 20 29C20 26.6131 20.9482 24.3239 22.636 22.636C24.3239 20.9482 26.6131 20 29 20C31.3869 20 33.6761 20.9482 35.364 22.636C37.0518 24.3239 38 26.6131 38 29ZM28.04 25.068C27.9103 24.9789 27.7596 24.9253 27.6028 24.9123C27.446 24.8993 27.2886 24.9275 27.146 24.994C27.0296 25.0452 26.9243 25.1186 26.836 25.21C26.6497 25.4009 26.5456 25.6572 26.546 25.924V32.074C26.5448 32.2066 26.5698 32.3381 26.6195 32.4609C26.6693 32.5838 26.7429 32.6957 26.836 32.79C26.9273 32.8808 27.0335 32.9552 27.15 33.01C27.3529 33.103 27.5832 33.1172 27.796 33.05C27.8882 33.0196 27.9757 32.9765 28.056 32.922L32.648 29.788C32.7877 29.6959 32.9003 29.5682 32.974 29.418C33.05 29.2667 33.0891 29.0996 33.088 28.9303C33.087 28.761 33.0458 28.5943 32.968 28.444C32.8898 28.296 32.7748 28.1706 32.634 28.08L28.04 25.068Z" fill="#37ED81"/>
</svg>
