<svg width="40" height="31" viewBox="0 0 40 31" fill="none" xmlns="http://www.w3.org/2000/svg">
<path d="M1.66699 29.3333V27.6667C1.66699 24.5725 2.89616 21.605 5.08408 19.4171C7.272 17.2292 10.2395 16 13.3337 16C16.4279 16 19.3953 17.2292 21.5832 19.4171C23.7712 21.605 25.0003 24.5725 25.0003 27.6667V29.3333" fill="#37ED81"/>
<path d="M1.66699 29.3333V27.6667C1.66699 24.5725 2.89616 21.605 5.08408 19.4171C7.272 17.2292 10.2395 16 13.3337 16C16.4279 16 19.3953 17.2292 21.5832 19.4171C23.7712 21.605 25.0003 24.5725 25.0003 27.6667V29.3333" stroke="#37ED81" stroke-width="1.5" stroke-linecap="round"/>
<path d="M21.667 19.3333C21.667 17.1232 22.545 15.0036 24.1078 13.4408C25.6706 11.878 27.7902 11 30.0003 11C31.0947 11 32.1783 11.2155 33.1894 11.6343C34.2004 12.0531 35.1191 12.667 35.8929 13.4408C36.6667 14.2146 37.2805 15.1333 37.6993 16.1443C38.1181 17.1554 38.3337 18.239 38.3337 19.3333V20.1667" stroke="#37ED81" stroke-width="1.5" stroke-linecap="round"/>
<path d="M13.3337 16C15.1018 16 16.7975 15.2976 18.0477 14.0474C19.2979 12.7971 20.0003 11.1014 20.0003 9.33333C20.0003 7.56522 19.2979 5.86953 18.0477 4.61929C16.7975 3.36905 15.1018 2.66667 13.3337 2.66667C11.5655 2.66667 9.86986 3.36905 8.61961 4.61929C7.36937 5.86953 6.66699 7.56522 6.66699 9.33333C6.66699 11.1014 7.36937 12.7971 8.61961 14.0474C9.86986 15.2976 11.5655 16 13.3337 16ZM30.0003 11C31.3264 11 32.5982 10.4732 33.5359 9.53553C34.4735 8.59785 35.0003 7.32608 35.0003 6C35.0003 4.67392 34.4735 3.40215 33.5359 2.46447C32.5982 1.52678 31.3264 1 30.0003 1C28.6742 1 27.4025 1.52678 26.4648 2.46447C25.5271 3.40215 25.0003 4.67392 25.0003 6C25.0003 7.32608 25.5271 8.59785 26.4648 9.53553C27.4025 10.4732 28.6742 11 30.0003 11Z" stroke="#37ED81" stroke-width="1.5" stroke-linecap="round" stroke-linejoin="round"/>
</svg>
