<svg width="2258" height="429" viewBox="0 0 2258 429" fill="none" xmlns="http://www.w3.org/2000/svg">
<rect width="6" height="600" transform="translate(1 4.24219) rotate(-45)" fill="#2E364A"/>
<rect width="6" height="600" transform="translate(229.508 4.24219) rotate(-45)" fill="#2E364A"/>
<rect width="6" height="600" transform="translate(458.012 4.24219) rotate(-45)" fill="#2E364A"/>
<rect width="6" height="600" transform="translate(686.52 4.24219) rotate(-45)" fill="#2E364A"/>
<rect width="6" height="600" transform="translate(915.027 4.24219) rotate(-45)" fill="#2E364A"/>
<rect width="6" height="600" transform="translate(1143.54 4.24219) rotate(-45)" fill="#2E364A"/>
<rect width="6" height="600" transform="translate(1372.04 4.24219) rotate(-45)" fill="#2E364A"/>
<rect width="6" height="600" transform="translate(1600.55 4.24219) rotate(-45)" fill="#2E364A"/>
<rect width="6" height="600" transform="translate(1829.05 4.24219) rotate(-45)" fill="#2E364A"/>
<rect width="6" height="600" transform="matrix(-0.707107 -0.707107 -0.707107 0.707107 2257.56 4.24219)" fill="#2E364A"/>
<rect width="6" height="600" transform="matrix(-0.707107 -0.707107 -0.707107 0.707107 2029.05 4.24219)" fill="#2E364A"/>
<rect width="6" height="600" transform="matrix(-0.707107 -0.707107 -0.707107 0.707107 1800.55 4.24219)" fill="#2E364A"/>
<rect width="6" height="600" transform="matrix(-0.707107 -0.707107 -0.707107 0.707107 1572.04 4.24219)" fill="#2E364A"/>
<rect width="6" height="600" transform="matrix(-0.707107 -0.707107 -0.707107 0.707107 1343.53 4.24219)" fill="#2E364A"/>
<rect width="6" height="600" transform="matrix(-0.707107 -0.707107 -0.707107 0.707107 1115.02 4.24219)" fill="#2E364A"/>
<rect width="6" height="600" transform="matrix(-0.707107 -0.707107 -0.707107 0.707107 886.52 4.24219)" fill="#2E364A"/>
<rect width="6" height="600" transform="matrix(-0.707107 -0.707107 -0.707107 0.707107 658.012 4.24219)" fill="#2E364A"/>
<rect width="6" height="600" transform="matrix(-0.707107 -0.707107 -0.707107 0.707107 429.504 4.24219)" fill="#2E364A"/>
</svg>
