<svg width="2257" height="429" viewBox="0 0 2257 429" fill="none" xmlns="http://www.w3.org/2000/svg">
<rect width="6" height="600" transform="translate(0 4.24219) rotate(-45)" fill="#E1FFE8"/>
<rect width="6" height="600" transform="translate(228.506 4.24219) rotate(-45)" fill="#E1FFE8"/>
<rect width="6" height="600" transform="translate(457.014 4.24219) rotate(-45)" fill="#E1FFE8"/>
<rect width="6" height="600" transform="translate(685.52 4.24219) rotate(-45)" fill="#E1FFE8"/>
<rect width="6" height="600" transform="translate(914.027 4.24219) rotate(-45)" fill="#E1FFE8"/>
<rect width="6" height="600" transform="translate(1142.53 4.24219) rotate(-45)" fill="#E1FFE8"/>
<rect width="6" height="600" transform="translate(1371.04 4.24219) rotate(-45)" fill="#E1FFE8"/>
<rect width="6" height="600" transform="translate(1599.55 4.24219) rotate(-45)" fill="#E1FFE8"/>
<rect width="6" height="600" transform="translate(1828.05 4.24219) rotate(-45)" fill="#E1FFE8"/>
<rect width="6" height="600" transform="matrix(-0.707107 -0.707107 -0.707107 0.707107 2256.56 4.24219)" fill="#E1FFE8"/>
<rect width="6" height="600" transform="matrix(-0.707107 -0.707107 -0.707107 0.707107 2028.05 4.24219)" fill="#E1FFE8"/>
<rect width="6" height="600" transform="matrix(-0.707107 -0.707107 -0.707107 0.707107 1799.55 4.24219)" fill="#E1FFE8"/>
<rect width="6" height="600" transform="matrix(-0.707107 -0.707107 -0.707107 0.707107 1571.04 4.24219)" fill="#E1FFE8"/>
<rect width="6" height="600" transform="matrix(-0.707107 -0.707107 -0.707107 0.707107 1342.53 4.24219)" fill="#E1FFE8"/>
<rect width="6" height="600" transform="matrix(-0.707107 -0.707107 -0.707107 0.707107 1114.03 4.24219)" fill="#E1FFE8"/>
<rect width="6" height="600" transform="matrix(-0.707107 -0.707107 -0.707107 0.707107 885.52 4.24219)" fill="#E1FFE8"/>
<rect width="6" height="600" transform="matrix(-0.707107 -0.707107 -0.707107 0.707107 657.014 4.24219)" fill="#E1FFE8"/>
<rect width="6" height="600" transform="matrix(-0.707107 -0.707107 -0.707107 0.707107 428.508 4.24219)" fill="#E1FFE8"/>
</svg>
