<svg width="407" height="300" viewBox="0 0 407 300" fill="none" xmlns="http://www.w3.org/2000/svg">
<path fill-rule="evenodd" clip-rule="evenodd" d="M189.32 8.44502C225.933 -2.68916 265.064 -3.76064 300.685 10.9654C341.456 27.8208 390.815 49.6877 403.406 96.9498C416.209 145.008 393.131 209.547 360.726 236.332C328.321 263.117 349.638 246.357 324.141 282.834C301.451 298.471 280.551 301.871 276.372 299.151C243.53 297.112 249.501 298.471 213.077 295.752C180.389 285.168 116.344 303.911 99.0273 298.471C76.182 269.75 6.00002 289 16.4997 230.5C30.5 175 -19.9026 170.5 9.99967 109C28.9621 70 90.5 76 105.13 43.5685C114.408 23 140.5 -8 189.32 8.44502Z" fill="url(#paint0_linear_866_25363)"/>
<defs>
<linearGradient id="paint0_linear_866_25363" x1="114.545" y1="-80.227" x2="454.93" y2="462.964" gradientUnits="userSpaceOnUse">
<stop stop-color="#37ED81"/>
<stop offset="1" stop-color="#00A3FF"/>
</linearGradient>
</defs>
</svg>
