<svg width="40" height="40" viewBox="0 0 40 40" fill="none" xmlns="http://www.w3.org/2000/svg">
<g id="Rupee">
<path id="Vector" d="M13.6698 23.6862L22.8162 32.8327H19.5171L10.5 23.8156V20.4993L15.8333 20.4994L15.8349 20.4993C16.9686 20.4959 18.0735 20.1415 18.9977 19.4848C19.922 18.8282 20.6202 17.9015 20.9966 16.832L21.231 16.166H20.525H10.5V13.8327H20.525H21.2339L20.996 13.1649C20.2387 11.0392 18.2254 9.49935 15.8333 9.49935H10.5V7.16602H27.8333V9.49935H22.4567H21.4383L22.0611 10.3051C22.773 11.2263 23.2675 12.2965 23.5074 13.4357L23.591 13.8327H23.9967H27.8333V16.166H23.9967H23.5889L23.5069 16.5655C23.1439 18.3335 22.1823 19.9223 20.7844 21.0639C19.3864 22.2056 17.6376 22.8303 15.8327 22.8327H14.0233H12.8162L13.6698 23.6862Z" fill="#37ED81" stroke="#37ED81"/>
</g>
</svg>
