<svg width="35" height="34" viewBox="0 0 35 34" fill="none" xmlns="http://www.w3.org/2000/svg">
<rect x="0.5" width="34" height="34" rx="17" fill="#8A8F98"/>
<path d="M13.3 7H21.7C24.9 7 27.5 9.6 27.5 12.8V21.2C27.5 22.7383 26.8889 24.2135 25.8012 25.3012C24.7135 26.3889 23.2383 27 21.7 27H13.3C10.1 27 7.5 24.4 7.5 21.2V12.8C7.5 11.2617 8.11107 9.78649 9.19878 8.69878C10.2865 7.61107 11.7617 7 13.3 7ZM13.1 9C12.1452 9 11.2295 9.37928 10.5544 10.0544C9.87928 10.7295 9.5 11.6452 9.5 12.6V21.4C9.5 23.39 11.11 25 13.1 25H21.9C22.8548 25 23.7705 24.6207 24.4456 23.9456C25.1207 23.2705 25.5 22.3548 25.5 21.4V12.6C25.5 10.61 23.89 9 21.9 9H13.1ZM22.75 10.5C23.0815 10.5 23.3995 10.6317 23.6339 10.8661C23.8683 11.1005 24 11.4185 24 11.75C24 12.0815 23.8683 12.3995 23.6339 12.6339C23.3995 12.8683 23.0815 13 22.75 13C22.4185 13 22.1005 12.8683 21.8661 12.6339C21.6317 12.3995 21.5 12.0815 21.5 11.75C21.5 11.4185 21.6317 11.1005 21.8661 10.8661C22.1005 10.6317 22.4185 10.5 22.75 10.5ZM17.5 12C18.8261 12 20.0979 12.5268 21.0355 13.4645C21.9732 14.4021 22.5 15.6739 22.5 17C22.5 18.3261 21.9732 19.5979 21.0355 20.5355C20.0979 21.4732 18.8261 22 17.5 22C16.1739 22 14.9021 21.4732 13.9645 20.5355C13.0268 19.5979 12.5 18.3261 12.5 17C12.5 15.6739 13.0268 14.4021 13.9645 13.4645C14.9021 12.5268 16.1739 12 17.5 12ZM17.5 14C16.7044 14 15.9413 14.3161 15.3787 14.8787C14.8161 15.4413 14.5 16.2044 14.5 17C14.5 17.7956 14.8161 18.5587 15.3787 19.1213C15.9413 19.6839 16.7044 20 17.5 20C18.2956 20 19.0587 19.6839 19.6213 19.1213C20.1839 18.5587 20.5 17.7956 20.5 17C20.5 16.2044 20.1839 15.4413 19.6213 14.8787C19.0587 14.3161 18.2956 14 17.5 14Z" fill="black"/>
</svg>
