<svg width="35" height="34" viewBox="0 0 35 34" fill="none" xmlns="http://www.w3.org/2000/svg">
<rect x="0.5" width="34" height="34" rx="17" fill="#8A8F98"/>
<g clip-path="url(#clip0_584_16913)">
<path d="M12.44 9.99905C12.4397 10.5295 12.2288 11.0381 11.8535 11.413C11.4782 11.7879 10.9694 11.9983 10.439 11.998C9.90857 11.9978 9.39997 11.7868 9.02508 11.4116C8.6502 11.0363 8.43974 10.5275 8.44 9.99705C8.44027 9.46661 8.65124 8.95801 9.0265 8.58313C9.40176 8.20824 9.91057 7.99778 10.441 7.99805C10.9714 7.99831 11.48 8.20928 11.8549 8.58454C12.2298 8.9598 12.4403 9.46861 12.44 9.99905ZM12.5 13.479H8.5V25.999H12.5V13.479ZM18.82 13.479H14.84V25.999H18.78V19.429C18.78 15.769 23.55 15.429 23.55 19.429V25.999H27.5V18.069C27.5 11.899 20.44 12.129 18.78 15.159L18.82 13.479Z" fill="black"/>
</g>
<defs>
<clipPath id="clip0_584_16913">
<rect width="24" height="24" fill="white" transform="translate(5.5 5)"/>
</clipPath>
</defs>
</svg>
