<svg width="35" height="34" viewBox="0 0 35 34" fill="none" xmlns="http://www.w3.org/2000/svg">
<rect x="0.5" width="34" height="34" rx="17" fill="#8A8F98"/>
<path d="M27.712 10.6569C26.9489 10.9945 26.1396 11.2163 25.311 11.3149C26.1841 10.792 26.8373 9.96964 27.149 9.0009C26.329 9.4889 25.43 9.8309 24.494 10.0159C23.8646 9.34248 23.0304 8.89587 22.121 8.74549C21.2116 8.59511 20.2779 8.74939 19.4653 9.18436C18.6526 9.61932 18.0064 10.3106 17.6271 11.1507C17.2478 11.9908 17.1568 12.9327 17.368 13.8299C15.7049 13.7467 14.078 13.3146 12.5927 12.5618C11.1075 11.8089 9.79724 10.7521 8.747 9.4599C8.37529 10.0984 8.17996 10.8241 8.181 11.5629C8.181 13.0129 8.92 14.2939 10.041 15.0439C9.37702 15.023 8.72765 14.8436 8.147 14.5209V14.5719C8.14697 15.5378 8.48104 16.4739 9.09253 17.2216C9.70403 17.9692 10.5553 18.4823 11.502 18.6739C10.8856 18.8411 10.2393 18.8657 9.612 18.7459C9.87893 19.5773 10.3992 20.3044 11.1 20.8253C11.8008 21.3462 12.647 21.6349 13.52 21.6509C12.6524 22.3324 11.6589 22.8361 10.5964 23.1333C9.53393 23.4305 8.42329 23.5153 7.328 23.3829C9.23972 24.6123 11.4651 25.265 13.738 25.2629C21.432 25.2629 25.638 18.8899 25.638 13.3629C25.638 13.1829 25.634 13.0009 25.626 12.8219C26.4444 12.2303 27.1508 11.4965 27.712 10.6569Z" fill="black"/>
</svg>
